<?xml version="1.0" encoding="UTF-8" standalone="no"?>
<!-- Created with Inkscape (http://www.inkscape.org/) -->

<svg
   width="47.429745mm"
   height="23.167707mm"
   viewBox="0 0 47.429745 23.167707"
   version="1.1"
   id="svg1"
   xml:space="preserve"
   xmlns:inkscape="http://www.inkscape.org/namespaces/inkscape"
   xmlns:sodipodi="http://sodipodi.sourceforge.net/DTD/sodipodi-0.dtd"
   xmlns="http://www.w3.org/2000/svg"
   xmlns:svg="http://www.w3.org/2000/svg"><sodipodi:namedview
     id="namedview1"
     pagecolor="#505050"
     bordercolor="#ffffff"
     borderopacity="1"
     inkscape:showpageshadow="0"
     inkscape:pageopacity="0"
     inkscape:pagecheckerboard="1"
     inkscape:deskcolor="#505050"
     inkscape:document-units="mm"><inkscape:page
       x="0"
       y="-8.9644316e-22"
       width="47.429745"
       height="23.167707"
       id="page2"
       margin="0"
       bleed="0" /></sodipodi:namedview><defs
     id="defs1"><marker
       style="overflow:visible"
       id="marker186"
       refX="0"
       refY="0"
       orient="auto-start-reverse"
       markerWidth="0.60000002"
       markerHeight="0.60000002"
       viewBox="0 0 1 1"
       preserveAspectRatio="xMidYMid"><path
         transform="scale(0.5)"
         style="fill:context-stroke;fill-rule:evenodd;stroke:context-stroke;stroke-width:1pt"
         d="M 5.77,0 -2.88,5 V -5 Z"
         id="path186" /></marker><marker
       style="overflow:visible"
       id="Triangle"
       refX="0"
       refY="0"
       orient="auto-start-reverse"
       markerWidth="0.60000002"
       markerHeight="0.60000002"
       viewBox="0 0 1 1"
       preserveAspectRatio="xMidYMid"><path
         transform="scale(0.5)"
         style="fill:context-stroke;fill-rule:evenodd;stroke:context-stroke;stroke-width:1pt"
         d="M 5.77,0 -2.88,5 V -5 Z"
         id="path135" /></marker><style
       id="style1">.cls-1,.cls-2{fill:none;stroke:#020202;stroke-miterlimit:10;stroke-width:1.91px;}.cls-1{stroke-linecap:square;}</style></defs><g
     inkscape:label="Layer 1"
     inkscape:groupmode="layer"
     id="layer1"
     transform="translate(-81.324705,-136.8474)"><g
       id="layer16"
       transform="translate(28.789979,130.00725)"><path
         d="m 71.888825,10.6447 v 2.717534 q -0.533625,0.385395 -1.141364,0.578093 -0.602798,0.187757 -1.32418,0.187757 -0.854788,0 -1.541583,-0.261871 -0.686794,-0.266813 -1.17595,-0.741146 -0.484215,-0.479274 -0.746087,-1.146305 -0.261871,-0.667031 -0.261871,-1.467468 0,-0.8103192 0.251989,-1.4773501 0.256931,-0.6670309 0.726323,-1.1413641 0.469392,-0.479274 1.141364,-0.7411454 0.671972,-0.2618715 1.502055,-0.2618715 0.419982,0 0.780673,0.064233 0.360691,0.059292 0.667031,0.1778749 0.30634,0.1136423 0.568211,0.2816353 0.261872,0.163052 0.489156,0.3705727 l -0.271753,0.4348054 q -0.06423,0.098819 -0.167993,0.1284652 -0.09882,0.024705 -0.222344,-0.04941 -0.118583,-0.069174 -0.271753,-0.167993 -0.15317,-0.098819 -0.375514,-0.1877569 -0.217402,-0.093878 -0.518801,-0.158111 -0.296459,-0.064233 -0.706559,-0.064233 -0.597857,0 -1.082073,0.1976388 -0.484215,0.1926978 -0.825142,0.5583296 -0.340926,0.3606908 -0.523742,0.8794926 -0.182816,0.5138609 -0.182816,1.1561875 0,0.667031 0.187757,1.195715 0.192697,0.523742 0.543506,0.894315 0.35575,0.365632 0.859729,0.55833 0.503979,0.192698 1.131482,0.192698 0.494097,0 0.874552,-0.108702 0.385396,-0.113642 0.751027,-0.311281 v -1.556405 h -1.101836 q -0.09388,0 -0.15317,-0.05435 -0.05435,-0.05435 -0.05435,-0.133406 V 10.6447 Z M 74.038143,9.0438258 V 14.049028 H 73.15865 V 9.0438258 Z m 0.187756,-1.5712284 q 0,0.1284652 -0.05435,0.2421075 -0.04941,0.1087014 -0.138347,0.1976388 -0.084,0.083996 -0.20258,0.1334062 -0.113642,0.04941 -0.242108,0.04941 -0.128465,0 -0.242107,-0.04941 -0.108702,-0.04941 -0.192698,-0.1334062 -0.084,-0.088937 -0.133406,-0.1976388 -0.04941,-0.1136423 -0.04941,-0.2421075 0,-0.1284652 0.04941,-0.2421075 0.04941,-0.1185833 0.133406,-0.2025798 0.084,-0.088938 0.192698,-0.1383472 0.113642,-0.04941 0.242107,-0.04941 0.128466,0 0.242108,0.04941 0.118583,0.04941 0.20258,0.1383472 0.08894,0.083997 0.138347,0.2025798 0.05435,0.1136423 0.05435,0.2421075 z m 5.543766,1.5712284 -2.04062,5.0052022 H 76.93849 L 74.897869,9.0438258 h 0.716441 q 0.108701,0 0.177874,0.054351 0.06917,0.054351 0.09388,0.1284652 l 1.269829,3.221512 q 0.05929,0.182816 0.103761,0.35575 0.04447,0.172934 0.084,0.345868 0.03953,-0.172934 0.084,-0.345868 0.04447,-0.172934 0.108701,-0.35575 l 1.284652,-3.221512 q 0.02965,-0.079056 0.09882,-0.1284652 0.06917,-0.054351 0.163052,-0.054351 z m 4.021958,1.9566242 q 0,-0.30634 -0.08894,-0.55833 -0.084,-0.25693 -0.25199,-0.439746 -0.163052,-0.1877568 -0.400219,-0.2865762 -0.237166,-0.1037604 -0.538565,-0.1037604 -0.632444,0 -1.003017,0.3705727 -0.365632,0.3656319 -0.454569,1.0178399 z m 0.7115,2.346961 q -0.163052,0.197638 -0.390337,0.345868 -0.227285,0.143288 -0.489156,0.237166 -0.25693,0.09388 -0.533625,0.138347 -0.276694,0.04941 -0.548447,0.04941 -0.518802,0 -0.958549,-0.172934 -0.434805,-0.177875 -0.755968,-0.513861 -0.316222,-0.340927 -0.494097,-0.839965 -0.177875,-0.499038 -0.177875,-1.146305 0,-0.523743 0.158111,-0.978312 0.163052,-0.454569 0.464451,-0.785614 0.301399,-0.335986 0.736205,-0.5237428 0.434805,-0.1926979 0.978312,-0.1926979 0.449628,0 0.830083,0.1531701 0.385395,0.1482291 0.66209,0.4348053 0.281635,0.2816353 0.439746,0.7016173 0.158111,0.415042 0.158111,0.948667 0,0.20752 -0.04447,0.276694 -0.04447,0.06917 -0.167993,0.06917 H 81.02468 q 0.01482,0.474333 0.128465,0.825142 0.118583,0.350808 0.326104,0.587975 0.207521,0.232226 0.494097,0.350809 0.286576,0.113642 0.642326,0.113642 0.331045,0 0.568212,-0.07411 0.242107,-0.07906 0.415041,-0.167993 0.172934,-0.08894 0.286576,-0.163052 0.118584,-0.07906 0.20258,-0.07906 0.108702,0 0.167993,0.084 z m 1.986269,-3.5772626 q 0.163052,-0.1828159 0.345868,-0.331045 0.182816,-0.1482291 0.385396,-0.2519894 0.20752,-0.1087014 0.434805,-0.163052 0.232226,-0.059292 0.499038,-0.059292 0.4101,0 0.721382,0.1383472 0.316222,0.1334062 0.523742,0.3853956 0.212462,0.2470485 0.321163,0.5978582 0.108702,0.350808 0.108702,0.775732 v 3.186925 h -0.884434 v -3.186925 q 0,-0.568212 -0.261871,-0.8794932 -0.256931,-0.316222 -0.785614,-0.316222 -0.390337,0 -0.731264,0.1877568 -0.335986,0.1877574 -0.622562,0.5089204 v 3.685963 H 85.659309 V 9.0438258 h 0.528684 q 0.187757,0 0.232226,0.1828159 z"
         id="text65-9"
         style="font-size:9.88194px;font-family:Lato;-inkscape-font-specification:'Lato, Normal';text-align:center;text-anchor:middle;fill:#7caeae;stroke-width:4.00518;stroke-linecap:round"
         aria-label="Given " /><path
         d="m 74.86346,14.916096 -2.208614,7.08041 h -0.859729 l -1.793572,-5.40048 q -0.0247,-0.07906 -0.04941,-0.167993 -0.01976,-0.08894 -0.04447,-0.187757 -0.0247,0.09882 -0.04941,0.187757 -0.0247,0.08894 -0.04941,0.167993 l -1.803454,5.40048 h -0.859729 l -2.208614,-7.08041 h 0.795496 q 0.128466,0 0.212462,0.06423 0.08894,0.06423 0.113642,0.163052 l 1.462527,4.921206 q 0.03459,0.133407 0.06423,0.286577 0.03459,0.15317 0.06423,0.326104 0.03459,-0.172934 0.06917,-0.326104 0.03953,-0.158111 0.084,-0.286577 l 1.665107,-4.921206 q 0.02965,-0.084 0.113642,-0.15317 0.08894,-0.07411 0.212462,-0.07411 h 0.276694 q 0.128465,0 0.207521,0.06423 0.07905,0.06423 0.118583,0.163052 l 1.660166,4.921206 q 0.04447,0.128466 0.07905,0.276695 0.03953,0.148229 0.07412,0.311281 0.0247,-0.163052 0.05435,-0.311281 0.02965,-0.148229 0.06423,-0.276695 l 1.46748,-4.921206 q 0.0247,-0.08894 0.108702,-0.158111 0.08894,-0.06917 0.212461,-0.06917 z m 1.684874,2.742238 q 0.321164,-0.340927 0.7115,-0.543507 0.390337,-0.202579 0.899257,-0.202579 0.4101,0 0.721381,0.138347 0.316222,0.133406 0.523743,0.385395 0.212462,0.247049 0.321163,0.597858 0.108701,0.350809 0.108701,0.775732 v 3.186926 H 78.949646 V 18.80958 q 0,-0.568211 -0.261872,-0.879493 -0.25693,-0.316222 -0.785614,-0.316222 -0.390336,0 -0.731263,0.187757 -0.335986,0.187757 -0.622563,0.50892 v 3.685964 h -0.884433 v -7.278049 h 0.884433 z m 7.979673,1.289593 q 0,-0.30634 -0.08894,-0.558329 -0.084,-0.256931 -0.25199,-0.439747 -0.163052,-0.187757 -0.400218,-0.286576 -0.237167,-0.10376 -0.538566,-0.10376 -0.632444,0 -1.003017,0.370572 -0.365632,0.365632 -0.454569,1.01784 z m 0.7115,2.346961 q -0.163052,0.197639 -0.390337,0.345868 -0.227284,0.143288 -0.489156,0.237166 -0.25693,0.09388 -0.533625,0.138348 -0.276694,0.04941 -0.548447,0.04941 -0.518802,0 -0.958548,-0.172934 -0.434806,-0.177875 -0.755969,-0.513861 -0.316222,-0.340926 -0.494097,-0.839964 -0.177875,-0.499038 -0.177875,-1.146305 0,-0.523743 0.158111,-0.978312 0.163052,-0.45457 0.464451,-0.785615 0.3014,-0.335986 0.736205,-0.523743 0.434805,-0.192697 0.978312,-0.192697 0.449628,0 0.830083,0.15317 0.385396,0.148229 0.66209,0.434805 0.281635,0.281635 0.439746,0.701618 0.158111,0.415041 0.158111,0.948666 0,0.207521 -0.04447,0.276694 -0.04447,0.06917 -0.167993,0.06917 h -3.345037 q 0.01482,0.474333 0.128465,0.825142 0.118583,0.350809 0.326104,0.587975 0.207521,0.232226 0.494097,0.350809 0.286576,0.113643 0.642326,0.113643 0.331045,0 0.568212,-0.07412 0.242107,-0.07906 0.415041,-0.167993 0.172934,-0.08894 0.286577,-0.163052 0.118583,-0.07906 0.202579,-0.07906 0.108702,0 0.167993,0.084 z m 1.986268,-3.577262 q 0.163052,-0.182816 0.345868,-0.331045 0.182816,-0.148229 0.385396,-0.25199 0.207521,-0.108701 0.434805,-0.163052 0.232226,-0.05929 0.499038,-0.05929 0.410101,0 0.721382,0.138347 0.316222,0.133406 0.523743,0.385395 0.212461,0.247049 0.321163,0.597858 0.108701,0.350809 0.108701,0.775732 v 3.186926 H 89.681437 V 18.80958 q 0,-0.568211 -0.261871,-0.879493 -0.25693,-0.316222 -0.785614,-0.316222 -0.390337,0 -0.731264,0.187757 -0.335986,0.187757 -0.622562,0.50892 v 3.685964 h -0.884434 v -5.005203 h 0.528684 q 0.187757,0 0.232226,0.182816 z"
         id="text65-5-2"
         style="font-size:9.88194px;font-family:Lato;-inkscape-font-specification:'Lato, Normal';text-align:center;text-anchor:middle;fill:#7caeae;stroke-width:4;stroke-linecap:round"
         aria-label="When " /><path
         d="m 71.671463,23.663645 h -2.29261 v 6.275032 h -0.953607 v -6.275032 h -2.297551 v -0.805378 h 5.543768 z m 1.640409,1.93686 q 0.321163,-0.340927 0.7115,-0.543506 0.390336,-0.20258 0.899256,-0.20258 0.410101,0 0.721382,0.138347 0.316222,0.133406 0.523742,0.385396 0.212462,0.247048 0.321164,0.597857 0.108701,0.350809 0.108701,0.775732 v 3.186926 h -0.884434 v -3.186926 q 0,-0.568211 -0.261871,-0.879492 -0.256931,-0.316223 -0.785614,-0.316223 -0.390337,0 -0.731264,0.187757 -0.335986,0.187757 -0.622562,0.50892 v 3.685964 h -0.884434 v -7.278049 h 0.884434 z m 7.979673,1.289593 q 0,-0.30634 -0.08894,-0.558329 -0.084,-0.256931 -0.251989,-0.439747 -0.163052,-0.187756 -0.400219,-0.286576 -0.237167,-0.10376 -0.538566,-0.10376 -0.632444,0 -1.003017,0.370573 -0.365631,0.365631 -0.454569,1.017839 z m 0.711499,2.346961 q -0.163052,0.197639 -0.390336,0.345868 -0.227285,0.143288 -0.489156,0.237167 -0.256931,0.09388 -0.533625,0.138347 -0.276695,0.04941 -0.548448,0.04941 -0.518802,0 -0.958548,-0.172934 -0.434805,-0.177874 -0.755968,-0.51386 -0.316223,-0.340927 -0.494097,-0.839965 -0.177875,-0.499038 -0.177875,-1.146305 0,-0.523743 0.158111,-0.978312 0.163052,-0.45457 0.464451,-0.785615 0.301399,-0.335986 0.736204,-0.523742 0.434806,-0.192698 0.978312,-0.192698 0.449629,0 0.830083,0.15317 0.385396,0.148229 0.66209,0.434805 0.281636,0.281635 0.439747,0.701618 0.158111,0.415041 0.158111,0.948666 0,0.207521 -0.04447,0.276694 -0.04447,0.06917 -0.167993,0.06917 H 78.5246 q 0.01482,0.474333 0.128466,0.825142 0.118583,0.350809 0.326104,0.587975 0.20752,0.232226 0.494097,0.350809 0.286576,0.113643 0.642326,0.113643 0.331045,0 0.568211,-0.07411 0.242108,-0.07906 0.415042,-0.167993 0.172934,-0.08894 0.286576,-0.163052 0.118583,-0.07906 0.20258,-0.07906 0.108701,0 0.167993,0.084 z m 1.986269,-3.577262 q 0.163052,-0.182816 0.345868,-0.331045 0.182815,-0.148229 0.385395,-0.25199 0.207521,-0.108701 0.434806,-0.163052 0.232225,-0.05929 0.499038,-0.05929 0.4101,0 0.721381,0.138347 0.316222,0.133406 0.523743,0.385396 0.212462,0.247048 0.321163,0.597857 0.108701,0.350809 0.108701,0.775732 v 3.186926 h -0.884433 v -3.186926 q 0,-0.568211 -0.261872,-0.879492 -0.25693,-0.316223 -0.785614,-0.316223 -0.390337,0 -0.731263,0.187757 -0.335986,0.187757 -0.622563,0.50892 v 3.685964 H 83.15923 v -5.005203 h 0.528684 q 0.187756,0 0.232225,0.182816 z"
         id="text66-2"
         style="font-size:9.88194px;font-family:Lato;-inkscape-font-specification:'Lato, Normal';text-align:center;text-anchor:middle;fill:#7caeae;stroke-width:3.99984;stroke-linecap:round"
         aria-label="Then" /><path
         id="path185"
         style="fill:none;stroke:#7caeae;stroke-width:1.389;stroke-linecap:round;marker-start:url(#Triangle);paint-order:markers fill stroke"
         d="m 59.660271,18.402669 c -3.551766,0 -6.431041,-1.772005 -6.431041,-3.957885 10e-7,-2.185879 2.879276,-3.957884 6.431041,-3.957884" /><path
         id="path185-2"
         style="fill:none;stroke:#7caeae;stroke-width:1.389;stroke-linecap:round;marker-end:url(#marker186);paint-order:markers fill stroke"
         d="m 92.838937,18.94404 c 3.551766,0 6.431041,1.772005 6.431041,3.957885 -10e-7,2.185879 -2.879276,3.95788 -6.431041,3.95788" /></g></g></svg>
