<?xml version="1.0" encoding="UTF-8" standalone="no"?>
<!-- Created with Inkscape (http://www.inkscape.org/) -->

<svg
   width="34.484806mm"
   height="34.484806mm"
   viewBox="0 0 34.484806 34.484806"
   version="1.1"
   id="svg1"
   xml:space="preserve"
   xmlns="http://www.w3.org/2000/svg"
   xmlns:svg="http://www.w3.org/2000/svg"><defs
     id="defs1"><style
       id="style1">.cls-1,.cls-2{fill:none;stroke:#020202;stroke-miterlimit:10;stroke-width:1.91px;}.cls-1{stroke-linecap:square;}</style></defs><g
     id="layer14"
     transform="translate(-100.23587,-56.843883)"><g
       style="fill:none;stroke:#7caeae;stroke-width:1.27973;stroke-dasharray:none;stroke-opacity:1"
       id="g184"
       transform="matrix(1.7886558,0,0,1.7886558,96.014407,52.622416)"><path
         d="M 5.5,8 C 6.88071,8 8,6.88071 8,5.5 8,4.11929 6.88071,3 5.5,3 4.11929,3 3,4.11929 3,5.5 3,6.88071 4.11929,8 5.5,8 Z m 0,0 v 8 m 0,0 C 4.11929,16 3,17.1193 3,18.5 3,19.8807 4.11929,21 5.5,21 6.88071,21 8,19.8807 8,18.5 8,17.1193 6.88071,16 5.5,16 Z m 13,0 V 8.7 c 0,-1.1201 0,-1.68016 -0.218,-2.10798 C 18.0903,6.21569 17.7843,5.90973 17.408,5.71799 16.9802,5.5 16.4201,5.5 15.3,5.5 H 12 M 18.5,16 C 19.8807,16 21,17.1193 21,18.5 21,19.8807 19.8807,21 18.5,21 17.1193,21 16,19.8807 16,18.5 16,17.1193 17.1193,16 18.5,16 Z M 12,5.5 14.5,8 M 12,5.5 14.5,3"
         stroke="#000000"
         stroke-width="2"
         stroke-linecap="round"
         stroke-linejoin="round"
         id="path1-11"
         style="stroke:#7caeae;stroke-width:1.27973;stroke-dasharray:none;stroke-opacity:1" /></g></g></svg>
