<?xml version="1.0" encoding="UTF-8" standalone="no"?>
<!-- Created with Inkscape (http://www.inkscape.org/) -->

<svg
   width="97.877327mm"
   height="97.874092mm"
   viewBox="0 0 97.877327 97.874092"
   version="1.1"
   id="svg1"
   xml:space="preserve"
   xmlns:inkscape="http://www.inkscape.org/namespaces/inkscape"
   xmlns:sodipodi="http://sodipodi.sourceforge.net/DTD/sodipodi-0.dtd"
   xmlns="http://www.w3.org/2000/svg"
   xmlns:svg="http://www.w3.org/2000/svg"><sodipodi:namedview
     id="namedview1"
     pagecolor="#505050"
     bordercolor="#ffffff"
     borderopacity="1"
     inkscape:showpageshadow="0"
     inkscape:pageopacity="0"
     inkscape:pagecheckerboard="1"
     inkscape:deskcolor="#505050"
     inkscape:document-units="mm"><inkscape:page
       x="-7.0034622e-24"
       y="0"
       width="97.877327"
       height="97.874092"
       id="page2"
       margin="0"
       bleed="0" /></sodipodi:namedview><defs
     id="defs1" /><g
     inkscape:label="Layer 1"
     inkscape:groupmode="layer"
     id="layer1"
     transform="translate(-2.3846468,-45.780886)"><path
       id="path1"
       style="fill:#7caeae;fill-opacity:1;stroke-width:4.25177"
       d="M 49.085938,45.824219 C 37.746559,46.326756 26.587332,50.902946 18.21814,58.678555 11.300871,65.047728 6.2573515,73.340653 3.9506409,82.428189 0.65793043,95.03389 2.598017,108.78225 9.3905567,119.95801 c 5.7315293,9.52293 14.7734903,17.00956 25.2403023,20.77441 4.58585,1.67713 9.546907,2.65643 14.394627,2.86961 7.602109,0.352 15.247553,-1.05229 22.22884,-4.1731 8.691736,-3.88651 16.271483,-10.39879 21.40252,-18.49469 4.159472,-6.52769 6.757971,-14.20374 7.418194,-21.907352 0.3256,-3.67701 0.22795,-7.576737 -0.309415,-11.274935 C 98.444711,78.318755 94.295366,69.415375 87.966801,62.293725 81.524926,54.971404 72.839062,49.666504 63.382812,47.279297 58.767899,46.099647 53.879353,45.62731 49.085938,45.824219 Z m 2.230468,4.294922 c 12.436595,-0.05243 24.777373,5.420862 33.062797,14.702094 7.134681,7.842392 11.34818,18.291155 11.524854,28.903243 0.246299,10.217062 -3.143265,20.484082 -9.502543,28.494522 -6.603519,8.44436 -16.320832,14.39965 -26.874365,16.33355 -11.35221,2.14978 -23.509052,-0.32631 -33.070416,-6.83005 C 16.571422,125.06746 9.4570162,114.35495 7.4283923,102.58688 5.488646,91.863965 7.6296496,80.440862 13.444441,71.211867 19.778334,60.959606 30.418845,53.465835 42.23736,51.059174 c 2.98409,-0.620386 6.03129,-0.92523 9.079046,-0.940033 z" /><path
       id="path2"
       style="fill:#7caeae;fill-opacity:1;stroke-width:4.25177"
       d="M 70.189453,77.667969 C 68.50222,77.644471 67.22642,78.907506 66.1838,80.079202 59.10444,87.180541 52.023991,94.280795 44.945312,101.38281 41.509044,97.984267 38.179137,94.46733 34.63749,91.181965 c -2.072576,-1.386671 -5.388472,-0.689714 -6.362099,1.718426 -0.864738,1.843653 -0.151814,4.146985 1.443963,5.350598 4.270324,4.259081 8.490975,8.574361 12.824002,12.766581 1.804231,1.30584 4.552332,0.81432 5.871277,-0.95805 8.502185,-8.54778 17.047941,-17.05246 25.490536,-25.651637 1.633465,-2.040329 0.775705,-5.531996 -1.736402,-6.420033 -0.623032,-0.255529 -1.308616,-0.351078 -1.979314,-0.319881 z" /></g></svg>
