<?xml version="1.0" encoding="UTF-8" standalone="no"?>
<!-- Created with Inkscape (http://www.inkscape.org/) -->

<svg
   width="66.301689mm"
   height="25.180021mm"
   viewBox="0 0 66.301689 25.180021"
   version="1.1"
   id="svg1"
   xml:space="preserve"
   xmlns="http://www.w3.org/2000/svg"
   xmlns:svg="http://www.w3.org/2000/svg"><defs
     id="defs1" /><g
     id="layer5"
     style="display:inline"
     transform="translate(-8.8399784,-68.371233)"><path
       d="M 50.303377,72.737953 V 88.993318 H 47.00905 v -1.657826 c -0.344488,0.581316 -0.839523,1.054973 -1.442508,1.356413 -0.645848,0.32295 -1.37795,0.495194 -2.109788,0.495194 -0.904346,0.02154 -1.808692,-0.236828 -2.562225,-0.75356 -0.774964,-0.516731 -1.37795,-1.227243 -1.765564,-2.066925 -0.430477,-0.968851 -0.645848,-2.002313 -0.624417,-3.057286 -0.02143,-1.055 0.19394,-2.088436 0.624417,-3.035777 0.387614,-0.818144 0.9906,-1.528656 1.744133,-2.02385 0.774964,-0.495195 1.67931,-0.732023 2.583656,-0.710486 0.710406,0 1.420813,0.150707 2.045229,0.473657 0.602986,0.301413 1.098021,0.75356 1.442509,1.313339 v -5.49021 z m -3.961606,13.047345 c 0.430477,-0.559779 0.667279,-1.377923 0.667279,-2.432923 0,-1.054973 -0.215106,-1.851607 -0.667279,-2.411386 -0.452173,-0.559779 -1.162844,-0.882729 -1.894681,-0.861219 -0.732103,-0.04305 -1.442509,0.279903 -1.916378,0.839682 -0.451908,0.559806 -0.688975,1.356413 -0.688975,2.389876 0,1.054973 0.237067,1.873144 0.688975,2.45446 0.452173,0.581316 1.184275,0.904266 1.916378,0.882729 0.818091,0 1.463939,-0.301413 1.894681,-0.861219 z"
       id="path1-1"
       style="fill:#7caeae;fill-opacity:1;stroke-width:0.264583" /><path
       d="m 62.08051,78.22819 c 0.774965,0.495194 1.37795,1.20568 1.743869,2.023824 0.430477,0.947341 0.645848,1.980803 0.624417,3.035776 0.02143,1.055 -0.19394,2.109973 -0.624417,3.057314 -0.387615,0.839681 -0.990336,1.550167 -1.765565,2.066898 -0.753533,0.495194 -1.657879,0.75356 -2.56196,0.732023 -0.732102,0.02154 -1.464204,-0.150707 -2.110052,-0.495194 -0.602721,-0.301414 -1.098021,-0.775071 -1.421077,-1.356413 v 1.67939 H 52.650231 V 73.836001 l 3.33719,-1.098048 v 6.631332 c 0.322791,-0.581316 0.818091,-1.054973 1.420812,-1.356413 0.646113,-0.344488 1.356519,-0.516731 2.088621,-0.495194 0.904081,-0.02154 1.808427,0.236828 2.583656,0.710512 z m -1.636448,7.535598 c 0.452173,-0.581316 0.667544,-1.399487 0.667544,-2.475998 0,-1.033436 -0.215371,-1.83007 -0.667544,-2.389848 -0.452173,-0.559806 -1.076589,-0.839682 -1.894681,-0.839682 -0.731837,-0.04307 -1.442508,0.279876 -1.916112,0.861192 -0.452173,0.581343 -0.667544,1.37795 -0.667544,2.411413 0,1.054973 0.215371,1.873117 0.667544,2.432923 0.452172,0.581316 1.162579,0.904266 1.916112,0.861192 0.732102,0.04307 1.442508,-0.279876 1.894681,-0.861192 z"
       id="path2"
       style="fill:#7caeae;fill-opacity:1;stroke-width:0.264583" /><path
       d="m 69.05625,80.295088 v 4.349115 c 0,0.624364 0.172243,1.076511 0.473868,1.356413 0.344488,0.301414 0.796396,0.45212 1.270265,0.430583 0.365919,0 0.753533,-0.06459 1.098021,-0.150707 v 2.58363 c -0.624417,0.215318 -1.270265,0.322977 -1.916377,0.30144 -1.377686,0 -2.432844,-0.387562 -3.164946,-1.162632 -0.731838,-0.775097 -1.098021,-1.873144 -1.098021,-3.294142 v -9.537911 l 3.33719,-1.076511 v 3.703188 h 2.842154 v 2.497534 z"
       id="path3-6"
       style="fill:#7caeae;fill-opacity:1;stroke-width:0.264583" /><path
       d="m 32.325575,70.046644 c 0.559779,0.538257 0.925803,1.248756 1.011925,2.023845 0,0.322951 -0.08612,0.538268 -0.279903,0.947341 -0.193754,0.409072 -2.583629,4.542896 -3.294115,5.683991 -0.409072,0.667437 -0.62439,1.464071 -0.62439,2.239142 0,0.796634 0.215318,1.571731 0.62439,2.239168 0.710486,1.141095 3.100361,5.29643 3.294115,5.705502 0.193781,0.409099 0.279903,0.602853 0.279903,0.925803 -0.08612,0.775097 -0.430609,1.485609 -0.990388,2.002341 -0.538269,0.559779 -1.248754,0.925803 -2.002314,0.990388 -0.32295,0 -0.538268,-0.08612 -0.925803,-0.279903 -0.387562,-0.193781 -4.607481,-2.519045 -5.748602,-3.22953 -0.08612,-0.04308 -0.172244,-0.107659 -0.279877,-0.150734 l -5.640943,-3.337189 c 0.12917,1.07651 0.602853,2.109973 1.377924,2.863532 0.150733,0.150707 0.30144,0.279903 0.473683,0.409073 -0.129196,0.06458 -0.279902,0.129196 -0.409072,0.215318 -1.141121,0.710485 -5.296456,3.100361 -5.705528,3.294115 -0.409072,0.193781 -0.602853,0.279903 -0.94734,0.279903 -0.775089,-0.08612 -1.485588,-0.43061 -2.002317,-0.990389 -0.5597867,-0.538268 -0.9258015,-1.248754 -1.0119226,-2.02385 0.02153,-0.322951 0.1076515,-0.645901 0.2798948,-0.925804 0.1937729,-0.409072 2.5836378,-4.564433 3.2941228,-5.705528 0.409073,-0.667438 0.624391,-1.442535 0.624391,-2.239142 0,-0.796634 -0.215318,-1.571731 -0.624391,-2.239169 C 12.388533,77.560726 9.9771363,73.405365 9.8048952,72.996293 9.6326519,72.71639 9.5465307,72.39344 9.5250004,72.070489 9.6111215,71.2954 9.9556071,70.584901 10.515394,70.046644 c 0.538258,-0.559787 1.248757,-0.904273 2.023846,-0.990394 0.32295,0.02153 0.6459,0.107652 0.94734,0.279895 0.344488,0.150712 3.380237,1.916194 4.995016,2.86354 l 0.366024,0.215292 c 0.12917,0.08612 0.236829,0.150706 0.322951,0.19378 l 0.172244,0.107633 5.748575,3.401801 c -0.129169,-1.291828 -0.796607,-2.475998 -1.83007,-3.272605 0.129196,-0.06458 0.279903,-0.129196 0.409073,-0.215318 1.141121,-0.710486 5.296455,-3.121882 5.705527,-3.294123 0.279903,-0.172243 0.602853,-0.258365 0.947341,-0.279895 0.75356,0.08612 1.464072,0.430607 2.002314,0.990394 z m -10.592911,12.444512 1.227243,-1.227243 c 0.172244,-0.172244 0.172244,-0.430583 0,-0.602826 l -1.227243,-1.227244 c -0.172244,-0.172244 -0.430583,-0.172244 -0.602827,0 l -1.227243,1.227244 c -0.172244,0.172243 -0.172244,0.430582 0,0.602826 l 1.227243,1.227243 c 0.150707,0.150707 0.430583,0.150707 0.602827,0 z"
       fill="#ff694a"
       id="path4-0"
       style="fill:none;fill-opacity:1;stroke:#7caeae;stroke-width:1.365;stroke-dasharray:none;stroke-dashoffset:0;stroke-opacity:1;paint-order:markers fill stroke" /><path
       d="m 74.897985,87.964354 -0.379148,1.066985 h -0.140758 l -0.379148,-1.064287 v 1.064287 h -0.243946 v -1.454256 h 0.303477 l 0.389996,1.080532 0.389996,-1.080532 h 0.303212 v 1.454256 h -0.243681 z m -1.356783,-0.167905 h -0.398198 v 1.23489 h -0.246327 v -1.23489 h -0.400844 v -0.219366 h 1.045369 z"
       fill="#ffffff"
       id="path5"
       style="fill:#7caeae;fill-opacity:1;stroke-width:0.264583" /></g></svg>
