<?xml version="1.0" encoding="UTF-8" standalone="no"?>
<!-- Created with Inkscape (http://www.inkscape.org/) -->

<svg
   width="97.064857mm"
   height="87.712097mm"
   viewBox="0 0 97.064857 87.712097"
   version="1.1"
   id="svg1"
   xml:space="preserve"
   xmlns="http://www.w3.org/2000/svg"
   xmlns:svg="http://www.w3.org/2000/svg"><defs
     id="defs1" /><g
     id="layer1"
     transform="translate(-47.009278,-46.149837)"><path
       id="machine--learning--01_1_"
       style="fill:#7caeae;fill-opacity:1;stroke:none;stroke-width:3.125;stroke-opacity:1"
       d="m 107.77148,46.158203 c -4.05681,-0.08834 -8.212787,2.390869 -9.830074,6.216797 -0.611742,1.500582 -0.83045,2.997973 -0.916015,4.498047 -0.08625,2.808091 0.04626,5.618138 -0.01404,8.427344 0.0095,19.651631 -0.04948,39.305209 0.07566,58.955549 0.369445,4.39698 3.765169,8.42732 8.143319,9.26818 4.65762,1.12218 10.07244,-0.67589 12.67201,-4.80928 0.25408,-0.5373 0.61323,-1.3325 1.36719,-1.11523 2.19569,0.0275 4.41151,-0.34374 6.3878,-1.04871 4.50821,-1.54454 8.39842,-5.24199 9.51989,-9.95703 0.81261,-3.13137 0.32872,-6.51815 -1.18658,-9.36257 -0.38155,-0.78745 -0.82591,-1.5424 -1.2465,-2.30942 3.53841,-1.45282 6.70036,-3.7492 8.84429,-6.982976 2.16176,-3.176764 3.05652,-7.244993 2.11101,-11.002051 -1.07563,-4.765887 -4.60249,-8.698433 -8.89823,-10.881713 -0.66738,-0.365989 -1.37188,-0.656635 -2.05707,-0.986781 1.20283,-1.876984 2.17739,-3.900088 2.62076,-6.033686 0.63964,-2.72149 0.19694,-5.681907 -1.02144,-8.108245 -2.36565,-4.784294 -7.43586,-7.874702 -12.67813,-8.393811 -1.04011,-0.126584 -2.08918,-0.153456 -3.13603,-0.141992 -1.88391,-4.030862 -6.39087,-6.400338 -10.75782,-6.232422 z m -25.611324,0.02148 c -3.993789,0.193861 -7.889542,2.572197 -9.597656,6.236328 -4.627215,-0.263088 -9.314425,1.20397 -12.732232,4.381818 -2.522475,2.318317 -4.235939,5.766491 -4.306816,9.286894 -0.158104,3.221818 1.137164,6.327661 2.884751,8.96996 -1.841627,0.754237 -3.619608,1.716346 -5.121964,2.913362 -3.428145,2.683956 -5.902017,6.610984 -6.239122,11.006833 -0.282661,3.57296 1.043112,7.252132 3.148216,9.973832 1.451648,1.88199 3.29511,3.38459 5.301154,4.55457 0.91226,0.54074 1.880523,0.97569 2.84531,1.41274 -2.139113,3.2728 -3.576384,7.34659 -2.597611,11.26141 1.337756,5.78343 6.627825,10.11791 12.371048,11.09014 1.46381,0.2768 2.956931,0.33384 4.44336,0.32422 2.047076,4.39354 7.195136,6.78578 11.905943,6.17622 4.264555,-0.38848 8.288388,-3.53836 9.200429,-7.80412 0.764954,-3.27544 0.275464,-6.65898 0.409458,-9.9846 -0.0095,-20.082059 0.05584,-40.166234 -0.07617,-60.246899 -0.346721,-3.750514 -2.766179,-7.199382 -6.255064,-8.683849 -1.76379,-0.706888 -3.690296,-0.967894 -5.583034,-0.868859 z m 1.503906,3.279296 c 3.337646,0.119596 6.617287,2.70381 6.9365,6.132705 0.373068,2.792887 0.03439,5.615451 0.161157,8.421202 0,6.546484 0,13.092968 0,19.639453 -2.022136,0 -4.044271,0 -6.066407,0 0.001,-6.281901 0.0028,-12.563802 0.0039,-18.845703 2.860203,-0.996253 4.108609,-5.004366 2.171462,-7.378018 -1.708595,-2.334192 -5.672186,-2.562204 -7.474943,-0.218351 -1.702331,2.007595 -1.428204,5.502843 0.866313,6.953581 0.554124,0.312698 1.340521,0.683453 1.124668,1.454897 0,6.015104 0,12.030208 0,18.045312 -2.382921,0.160159 -4.950467,-0.496098 -7.167969,0.660157 -1.722689,1.031305 -2.46686,3.197615 -2.1875,5.125 -0.887215,0.806924 -2.119192,0.333 -3.18164,0.450588 -1.061198,-10e-4 -2.122396,-0.003 -3.183594,-0.0033 -0.996658,-2.848506 -4.992925,-4.109968 -7.364406,-2.177405 -2.358762,1.712181 -2.589782,5.743456 -0.177881,7.518187 1.91431,1.59121 5.090161,1.422371 6.651662,-0.588828 0.378014,-0.427338 0.630146,-0.940352 0.90039,-1.4375 2.111979,0 4.223959,-10e-7 6.335938,0 0,5.759765 0,11.519534 0,17.279294 -2.861479,0.99618 -4.112561,4.99939 -2.177735,7.37696 1.734644,2.37312 5.808105,2.57557 7.561645,0.1112 1.60853,-2.0039 1.307877,-5.35592 -0.903207,-6.80292 -0.309194,-0.37824 -1.112625,-0.391 -1.17211,-0.87742 2.6e-5,-7.50107 -0.02975,-15.002358 0.05273,-22.50313 0.575407,-1.015459 1.845395,-0.900582 2.833984,-0.810547 4.183593,-0.04784 8.370012,-0.01235 12.554688,-0.02734 -0.01004,12.383295 0.05854,24.768337 -0.08398,37.150387 -0.31889,3.05541 -2.794358,5.69435 -5.809607,6.25591 -0.46139,0.037 -0.05556,-1.05312 -0.181376,-1.45232 0.01996,-8.86855 0.0049,-17.73758 0.01247,-26.60632 2.88881,-1.0017 4.131649,-5.08397 2.117359,-7.442019 -1.704204,-2.243617 -5.519615,-2.47798 -7.340016,-0.249388 -1.781246,1.968718 -1.548215,5.474347 0.709078,6.988807 0.334117,0.3418 0.970754,0.43707 1.201079,0.79478 -0.0012,9.35209 -0.0028,18.70417 -0.0039,28.05625 -2.642799,-0.51427 -5.076711,-2.27634 -6.092231,-4.81166 -0.16337,-1.03366 -1.255972,-1.45235 -2.189019,-1.39732 -4.609834,0.38259 -9.617032,-1.29921 -12.439453,-5.09961 -1.955932,-2.58249 -2.486813,-6.17507 -1.230301,-9.17982 0.732747,-2.00203 2.075233,-3.6941 3.314286,-5.39049 0.376547,-1.11022 -0.645673,-2.23585 -1.745867,-2.27779 -4.602307,-1.32938 -8.876409,-4.711257 -10.277571,-9.419475 -1.215085,-4.110379 0.475966,-8.672167 3.618763,-11.461966 2.105574,-1.942471 4.757474,-3.420489 7.618299,-3.804249 2.219939,-0.08109 4.448698,0.02059 6.663329,-0.02871 0.899979,0.118748 0.974489,1.215107 1.636634,1.689172 1.748345,1.736823 4.900758,1.971841 6.679555,0.151638 1.999078,-1.869133 2.011964,-5.553844 -0.269694,-7.206817 -2.021834,-1.649326 -5.432097,-1.307086 -6.866877,0.951389 -0.35273,0.298128 -0.355066,1.068848 -0.826884,1.109931 -2.352604,0 -4.705208,0 -7.057812,0 -2.138989,-2.746724 -3.702816,-6.344727 -2.867488,-9.867888 1.00056,-4.414321 5.098752,-7.60205 9.429313,-8.395994 1.904195,-0.444321 3.887052,-0.178734 5.801608,-0.422849 1.197393,-0.572093 1.169475,-2.128666 2.027116,-3.020299 1.69607,-2.249719 4.596815,-3.298171 7.355544,-3.11133 z m 26.695318,0.28125 c 2.6762,0.563662 4.84655,2.717513 5.70898,5.275391 0.94947,1.117862 2.55026,0.57771 3.81822,0.683664 4.45517,0.12063 9.09766,2.286363 11.29466,6.301364 1.64216,2.932564 1.45635,6.683352 -0.22972,9.55513 -0.69679,1.456406 -1.85249,2.635816 -2.65269,4.016483 -0.25608,1.098325 0.77366,2.084502 1.82205,2.139077 4.65218,1.334174 8.95025,4.801532 10.29584,9.578322 1.12779,4.164681 -0.66005,8.729253 -3.89171,11.467606 -2.10792,1.877964 -4.73787,3.313454 -7.56485,3.644894 -2.3487,-0.002 -4.6974,-0.004 -7.0461,-0.006 -0.98958,-2.853898 -4.99297,-4.107302 -7.36202,-2.17735 -2.26417,1.63831 -2.58653,5.42431 -0.44266,7.29649 0.7357,0.71663 1.96551,1.25146 3.09029,1.28254 1.93697,0.17227 3.79504,-1.04473 4.5601,-2.80401 0.23,-0.57864 1.0688,-0.15082 1.56875,-0.2832 1.94778,0 3.89557,0 5.84336,0 2.04675,2.69295 3.64398,6.13793 2.91269,9.58615 -0.7899,4.09987 -4.29016,7.25235 -8.22129,8.33768 -2.16714,0.67056 -4.45098,0.62283 -6.69118,0.69664 -1.23135,0.12383 -1.4529,1.56452 -1.97726,2.4515 -1.92543,3.23993 -6.26266,4.48209 -9.76301,3.36579 -2.2448,-0.65786 -4.17381,-2.43601 -4.74612,-4.74103 -0.63089,-2.25222 -0.26585,-4.61767 -0.36373,-6.92212 -5.4e-4,-7.38321 -10e-4,-14.76641 -0.002,-22.149617 2.02149,0 4.04297,0 6.06446,0 -0.001,6.281257 -0.003,12.562507 -0.004,18.843757 -2.86277,0.9896 -4.1168,5.00597 -2.16681,7.37315 1.69827,2.35032 5.68588,2.57185 7.4747,0.20643 1.69753,-1.9848 1.41695,-5.39992 -0.80259,-6.88613 -0.31669,-0.42163 -1.25197,-0.38837 -1.1928,-0.98955 0,-6.18645 0,-12.37291 0,-18.559376 2.39218,-0.153233 4.97204,0.491972 7.19333,-0.675419 1.66002,-1.030286 2.45513,-3.132103 2.14261,-5.027706 0.66898,-0.880544 1.83917,-0.436846 2.76601,-0.534552 1.20495,0.001 2.4099,0.0029 3.61485,0.0033 1.00687,2.891013 5.09262,4.126921 7.45139,2.112925 2.29575,-1.747458 2.46369,-5.717453 0.0799,-7.469737 -2.0229,-1.670872 -5.46128,-1.331994 -6.89939,0.941052 -0.34814,0.30053 -0.35297,1.061518 -0.82213,1.10326 -2.04987,0 -4.09974,0 -6.14961,0 10e-4,-5.761719 0.003,-11.523438 0.004,-17.285156 2.88514,-1.00324 4.1261,-5.075685 2.12371,-7.436521 -1.73764,-2.295114 -5.68217,-2.477483 -7.4523,-0.120965 -1.70594,2.018507 -1.36594,5.493924 0.92547,6.934074 0.29928,0.335467 1.05306,0.351351 1.09062,0.815599 -9.7e-4,7.499105 0.0306,14.998428 -0.0488,22.497266 -0.53231,1.001763 -1.77123,0.917845 -2.73047,0.824218 -4.22007,0.03466 -8.44151,0.01191 -12.66211,0.02344 0.0129,-12.397615 -0.0583,-24.796983 0.084,-37.193359 0.31153,-2.881051 2.51385,-5.510833 5.38281,-6.115235 0.7206,0.346948 0.66734,1.175186 0.60578,1.841461 0.004,8.704293 -0.0157,17.410525 -0.006,26.11557 -2.88565,1.000184 -4.12335,5.062994 -2.13477,7.429688 1.75499,2.319825 5.76368,2.494423 7.50899,0.06829 1.64429,-2.023885 1.30102,-5.426914 -0.9557,-6.861326 -0.29813,-0.352729 -1.06884,-0.355065 -1.10993,-0.826883 0.001,-9.304427 0.003,-18.608854 0.004,-27.913281 0.22005,0.05534 0.4401,0.110677 0.66016,0.166015 z m -27.371099,9.09961 c 1.420714,-0.163734 1.987068,1.916081 0.923828,2.697265 -1.036439,0.815808 -2.602342,-0.349747 -2.30664,-1.576171 0.116552,-0.643287 0.758313,-1.081033 1.382812,-1.121094 z m 34.374999,4.6875 c 1.41993,-0.163662 1.98687,1.916698 0.92383,2.697265 -1.03644,0.815808 -2.60234,-0.349747 -2.30664,-1.576171 0.11655,-0.643287 0.75831,-1.081033 1.38281,-1.121094 z m -43.749999,10.9375 c 1.420714,-0.163734 1.987068,1.916081 0.923828,2.697265 -1.036439,0.815808 -2.602342,-0.349747 -2.30664,-1.576171 0.116552,-0.643287 0.758313,-1.081033 1.382812,-1.121094 z m 34.374999,6.25 c 1.41993,-0.163662 1.98687,1.916698 0.92383,2.697265 -1.03644,0.815808 -2.60234,-0.349747 -2.30664,-1.576171 0.11655,-0.643287 0.75831,-1.081033 1.38281,-1.121094 z m 21.875,6.25 c 1.41993,-0.163662 1.98687,1.916698 0.92383,2.697265 -1.03644,0.815808 -2.60234,-0.349747 -2.30664,-1.576171 0.11655,-0.643287 0.75831,-1.081033 1.38281,-1.121094 z m -68.749999,3.125 c 1.420714,-0.163734 1.987068,1.916081 0.923828,2.697265 -1.036439,0.815808 -2.602342,-0.349747 -2.30664,-1.576171 0.116552,-0.643287 0.758313,-1.081033 1.382812,-1.121094 z m 21.875,6.25 c 1.420714,-0.163734 1.987068,1.916081 0.923828,2.697265 -1.036439,0.815808 -2.602342,-0.349747 -2.30664,-1.576171 0.116552,-0.643287 0.758313,-1.081033 1.382812,-1.121094 z m 34.374999,6.249991 c 1.42054,-0.16407 1.98665,1.9164 0.92383,2.69727 -1.03644,0.81581 -2.60234,-0.34975 -2.30664,-1.57617 0.11655,-0.64328 0.75831,-1.08104 1.38281,-1.1211 z m -43.749999,10.9375 c 1.420544,-0.16407 1.986652,1.9164 0.923828,2.69727 -1.036439,0.81581 -2.602342,-0.34975 -2.30664,-1.57617 0.116552,-0.64328 0.758313,-1.08104 1.382812,-1.1211 z m 34.374999,4.6875 c 1.42054,-0.16407 1.98665,1.9164 0.92383,2.69727 -1.03644,0.81581 -2.60234,-0.34975 -2.30664,-1.57617 0.11655,-0.64328 0.75831,-1.08104 1.38281,-1.1211 z" /></g><style
     type="text/css"
     id="style1">
	.st0{fill:#000000;}
</style></svg>
