<?xml version="1.0" encoding="UTF-8" standalone="no"?>
<!-- Created with Inkscape (http://www.inkscape.org/) -->

<svg
   width="77.714958mm"
   height="33.507809mm"
   viewBox="0 0 77.714958 33.507809"
   version="1.1"
   id="svg1"
   xml:space="preserve"
   xmlns="http://www.w3.org/2000/svg"
   xmlns:svg="http://www.w3.org/2000/svg"><defs
     id="defs1" /><g
     id="layer7"
     style="display:inline"
     transform="translate(-54.465761,-90.679807)"><path
       style="fill:#7caeae;fill-opacity:1;fill-rule:nonzero;stroke:none;stroke-width:0.352778"
       d="m 101.31266,102.28474 c -1.688039,0 -2.946044,0.82973 -2.946044,2.82505 0,1.50318 0.827969,2.54776 2.855034,2.54776 1.71838,0 2.88572,-1.01142 2.88572,-2.60985 0,-1.81081 -1.04458,-2.76296 -2.79471,-2.76296 z m -3.376081,14.09347 c -0.399697,0.49036 -0.797983,1.01248 -0.797983,1.62701 0,1.22767 1.564217,1.59597 3.713694,1.59597 1.78188,0 4.20723,-0.12418 4.20723,-1.77906 0,-0.98531 -1.16699,-1.04598 -2.6416,-1.13841 z m 9.087911,-14.00104 c 0.55139,0.70697 1.13594,1.68945 1.13594,3.10197 0,3.40643 -2.67088,5.40315 -6.53909,5.40315 -0.98389,0 -1.873952,-0.12277 -2.426755,-0.27693 l -1.012472,1.62736 3.007787,0.18345 c 5.31248,0.33866 8.44338,0.49318 8.44338,4.57482 0,3.5306 -3.10056,5.52626 -8.44338,5.52626 -5.556254,0 -7.67539,-1.41252 -7.67539,-3.83822 0,-1.38183 0.614539,-2.11667 1.689453,-3.13196 -1.014236,-0.42721 -1.350434,-1.19486 -1.350434,-2.02459 0,-0.67522 0.336198,-1.28976 0.890059,-1.87396 0.55245,-0.58279 1.16593,-1.16593 1.903236,-1.84115 -1.503539,-0.7373 -2.640542,-2.33433 -2.640542,-4.60657 0,-3.5306 2.33292,-5.954886 7.030858,-5.954886 1.3201,0 2.11808,0.121355 2.82505,0.307622 h 5.98734 v 2.608434 l -2.82469,0.2152"
       id="path4-8" /><path
       style="fill:#7caeae;fill-opacity:1;fill-rule:nonzero;stroke:none;stroke-width:0.352778"
       d="m 115.25021,96.797283 c -1.75013,0 -2.76296,-1.012472 -2.76296,-2.764367 0,-1.748719 1.01283,-2.700866 2.76296,-2.700866 1.78153,0 2.7947,0.9525 2.7947,2.700866 0,1.751542 -1.01282,2.764367 -2.7947,2.764367 z m -3.96064,18.452037 v -2.4257 l 1.56563,-0.21378 c 0.43004,-0.0617 0.49177,-0.15416 0.49177,-0.61595 v -9.02582 c 0,-0.3362 -0.0921,-0.55245 -0.39934,-0.64346 l -1.65806,-0.5842 0.33761,-2.48603 h 6.35564 v 12.74022 c 0,0.49353 0.0303,0.55386 0.49213,0.61595 l 1.56527,0.21378 v 2.42535 h -8.75065"
       id="path5-2"
       clip-path="none" /><path
       style="fill:#7caeae;fill-opacity:1;fill-rule:nonzero;stroke:none;stroke-width:0.352778"
       d="m 132.18072,114.05835 c -1.3201,0.64382 -3.25367,1.22802 -5.00486,1.22802 -3.65337,0 -5.03414,-1.47285 -5.03414,-4.94418 v -8.04228 c 0,-0.18485 0,-0.30727 -0.24694,-0.30727 h -2.14948 v -2.732615 c 2.70369,-0.30727 3.77719,-1.659114 4.1148,-5.005211 h 2.91747 v 4.360333 c 0,0.214842 0,0.306917 0.24518,0.306917 h 4.32859 v 3.070576 h -4.57377 v 7.33672 c 0,1.81187 0.42969,2.51742 2.08774,2.51742 0.85972,0 1.74978,-0.21484 2.48603,-0.49036 l 0.82938,2.70228"
       id="path6-4"
       clip-path="none" /><path
       style="fill:none;fill-opacity:1;fill-rule:nonzero;stroke:#7caeae;stroke-width:1.365;stroke-dasharray:none;stroke-opacity:1"
       d="M 86.690377,106.00126 72.65229,91.96458 a 2.0701,2.0701 0 0 0 -2.928055,0 l -2.915003,2.91465 3.697111,3.698522 a 2.4570972,2.4570972 0 0 1 2.530475,0.588434 2.4623889,2.4623889 0 0 1 0.5842,2.545294 l 3.563761,3.56482 a 2.4563917,2.4563917 0 0 1 2.544939,0.58455 2.4609778,2.4609778 0 0 1 0,3.48368 2.4623889,2.4623889 0 0 1 -3.485091,0 2.4648583,2.4648583 0 0 1 -0.53587,-2.67899 l -3.323872,-3.32388 v 8.74642 a 2.4620361,2.4620361 0 0 1 0.651933,0.46567 2.4652111,2.4652111 0 0 1 0,3.48544 c -0.963083,0.96168 -2.523419,0.96168 -3.48368,0 a 2.4623889,2.4623889 0 0 1 0,-3.48544 2.4316972,2.4316972 0 0 1 0.806097,-0.53728 v -8.82791 a 2.4316972,2.4316972 0 0 1 -0.806097,-0.53728 2.4652111,2.4652111 0 0 1 -0.531989,-2.694166 l -3.6449,-3.646312 -9.625542,9.625538 a 2.0701,2.0701 0 0 0 0,2.92841 l 14.038086,14.03809 a 2.0701,2.0701 0 0 0 2.928056,0 l 13.973528,-13.97177 a 2.0718639,2.0718639 0 0 0 0,-2.92981"
       id="path7"
       clip-path="none" /></g></svg>
