<?xml version="1.0" encoding="UTF-8" standalone="no"?>
<!-- Created with Inkscape (http://www.inkscape.org/) -->

<svg
   width="211.66664mm"
   height="211.66747mm"
   viewBox="0 0 211.66664 211.66747"
   version="1.1"
   id="svg1"
   xml:space="preserve"
   xmlns="http://www.w3.org/2000/svg"
   xmlns:svg="http://www.w3.org/2000/svg"><defs
     id="defs1" /><g
     id="layer1"
     transform="translate(26.9875,-7.9371093)"><path
       d="m 78.845828,7.9371089 c 58.451752,0 105.833342,48.5775001 105.833342,108.5109211 0,47.93191 -30.2895,88.59308 -72.31592,102.95466 -5.36575,1.06892 -7.27075,-2.31775 -7.27075,-5.207 0,-3.57716 0.127,-15.26116 0.127,-29.7815 0,-10.11766 -3.38667,-16.72166 -7.186082,-20.08716 23.569082,-2.68817 48.334082,-11.86392 48.334082,-53.54109 0,-11.853331 -4.10633,-21.526498 -10.90083,-29.125331 1.10066,-2.741083 4.73075,-13.7795 -1.03717,-28.723167 0,0 -8.86883,-2.910416 -29.07242,11.123084 -8.456082,-2.402417 -17.515412,-3.608917 -26.511252,-3.65125 -8.99583,0 -18.04458,1.248833 -26.49008,3.65125 -20.22475,-14.0335 -29.11475,-11.123084 -29.11475,-11.123084 -5.74675,14.943667 -2.116667,25.982084 -1.026583,28.723167 -6.76275,7.598833 -10.900834,17.272 -10.900834,29.125331 0,41.57134 24.712084,50.88467 48.217667,53.62575 -3.026833,2.70934 -5.767917,7.493 -6.720417,14.50975 -6.0325,2.77284 -21.357166,7.56709 -30.7975,-9.017 0,0 -5.598583,-10.42458 -16.2242497,-11.18658 0,0 -10.31875,-0.13758 -0.719666,6.59342 0,0 6.9320827,3.33375 11.7474997,15.875 0,0 6.212416,19.3675 35.65525,12.80583 0.05292,9.06992 0.148166,17.62125 0.148166,20.20358 0,2.86809 -1.947333,6.223 -7.228416,5.21759 -42.0581667,-14.34042 -72.379417,-55.02275 -72.379417,-102.96525 0,-59.933421 47.392167,-108.5109211 105.83333,-108.5109211"
       id="github-[#142]"
       style="fill:#00302f;fill-opacity:1;fill-rule:evenodd;stroke:none;stroke-width:10.5833" /></g><style
     type="text/css"
     id="style1">
	.st0{fill:#000000;}
</style></svg>
