<?xml version="1.0" encoding="UTF-8" standalone="no"?>
<!-- Created with Inkscape (http://www.inkscape.org/) -->

<svg
   width="205.03279mm"
   height="140.6151mm"
   viewBox="0 0 205.03279 140.6151"
   version="1.1"
   id="svg1"
   xml:space="preserve"
   xmlns="http://www.w3.org/2000/svg"
   xmlns:svg="http://www.w3.org/2000/svg"><defs
     id="defs1" /><g
     id="layer1"
     transform="translate(99.870557,-11.44752)"><path
       d="M 101.68048,60.580352 81.346618,21.640143 a 9.9677472,9.9677472 0 0 0 -13.2324,-4.282281 L 48.167115,27.331 H 33.125644 L 5.1925145,14.692085 a 9.9368405,9.9368405 0 0 0 -6.866508,-0.485684 l -41.4880975,12.095064 -19.66046,-9.829776 a 9.9694339,9.9694339 0 0 0 -13.232399,4.281876 l -20.333866,38.94102 a 9.9226026,9.9226026 0 0 0 4.35777,13.466556 l 20.141274,10.070645 44.933063,35.135324 a 9.8534472,9.8534472 0 0 0 3.705357,1.8103 l 47.920176,11.98004 a 9.847461,9.847461 0 0 0 2.383574,0.2923 9.9776939,9.9776939 0 0 0 7.038495,-2.90196 L 64.515397,99.122893 c 0.06135,-0.06094 0.119501,-0.124346 0.176022,-0.189748 L 77.485371,83.965906 97.322664,74.047338 A 9.9229003,9.9229003 0 0 0 101.68043,60.580385 Z M 61.649852,92.311244 27.742043,67.651135 a 3.3082756,3.3082756 0 0 0 -3.929832,0.02869 l -10.583176,7.937583 a 23.269757,23.269757 0 0 1 -27.78092,0 l -4.482124,-3.361391 A 3.3071098,3.3071098 0 0 1 -19.388476,67.27207 L 12.969007,34.91452 a 3.33079,3.33079 0 0 1 2.338363,-0.968929 h 17.094804 l 0.0074,8.27e-4 0.01133,-8.27e-4 H 46.943632 L 71.439915,80.857548 Z M -90.739937,65.305108 a 3.2819992,3.2819992 0 0 1 0.214775,-2.549095 l 20.333874,-38.94102 a 3.3219099,3.3219099 0 0 1 2.944747,-1.772708 3.2671742,3.2671742 0 0 1 1.46551,0.345612 l 17.635389,8.817297 -23.396501,44.805013 -17.530423,-8.765216 a 3.2817511,3.2817511 0 0 1 -1.667371,-1.939883 z M 29.414226,124.87026 a 3.3199173,3.3199173 0 0 1 -3.141762,0.86962 l -47.920176,-11.98006 a 3.2817677,3.2817677 0 0 1 -1.234579,-0.60315 L -65.908576,79.512414 -41.462424,32.695989 0.17666767,20.556972 A 3.3078374,3.3078374 0 0 1 2.4657765,20.718459 L 17.079301,27.331024 H 15.30737 a 9.855291,9.855291 0 0 0 -7.0150798,2.905994 l -32.3575162,32.3575 a 9.9214699,9.9214699 0 0 0 1.061789,14.953464 l 4.482116,3.361391 a 29.921787,29.921787 0 0 0 35.719726,0 l 8.628344,-6.472072 31.275147,22.745071 z M 96.031605,66.191264 a 3.2817759,3.2817759 0 0 1 -1.667371,1.939883 L 76.83381,76.896363 53.437309,32.091292 71.072698,23.274003 a 3.3210252,3.3210252 0 0 1 4.410274,1.427559 l 20.333874,38.94021 a 3.2831402,3.2831402 0 0 1 0.214759,2.549508 z M -7.374549,147.1953 a 3.3043813,3.3043813 0 0 1 -4.010579,2.40699 l -24.920145,-6.22944 a 9.9756185,9.9756185 0 0 1 -4.10344,-2.13811 L -59.055,125.02611 a 3.306994,3.306994 0 1 1 4.339167,-4.99162 l 18.647139,16.20867 a 3.338372,3.338372 0 0 0 1.369425,0.71298 l 24.917731,6.22862 a 3.3080689,3.3080689 0 0 1 2.406989,4.01054 z"
       id="path1"
       style="fill:#7caeae;fill-opacity:1;stroke:#7caeae;stroke-width:4.727;stroke-dasharray:none;stroke-opacity:1" /></g><style
     type="text/css"
     id="style1">
	.st0{fill:#000000;}
</style></svg>
