<?xml version="1.0" encoding="UTF-8" standalone="no"?>
<!-- Created with Inkscape (http://www.inkscape.org/) -->

<svg
   width="202.96655mm"
   height="138.47189mm"
   viewBox="0 0 202.96655 138.47189"
   version="1.1"
   id="svg1"
   xml:space="preserve"
   inkscape:export-filename="handshake.svg"
   inkscape:export-xdpi="96"
   inkscape:export-ydpi="96"
   xmlns:inkscape="http://www.inkscape.org/namespaces/inkscape"
   xmlns:sodipodi="http://sodipodi.sourceforge.net/DTD/sodipodi-0.dtd"
   xmlns="http://www.w3.org/2000/svg"
   xmlns:svg="http://www.w3.org/2000/svg"><sodipodi:namedview
     id="namedview1"
     pagecolor="#505050"
     bordercolor="#ffffff"
     borderopacity="1"
     inkscape:showpageshadow="0"
     inkscape:pageopacity="0"
     inkscape:pagecheckerboard="1"
     inkscape:deskcolor="#505050"
     inkscape:document-units="mm"><inkscape:page
       x="0"
       y="0"
       width="202.96655"
       height="138.47189"
       id="page2"
       margin="0"
       bleed="0" /></sodipodi:namedview><defs
     id="defs1" /><g
     inkscape:label="Layer 1"
     inkscape:groupmode="layer"
     id="layer1"
     transform="translate(69.721032,-43.219003)"><path
       id="path1"
       style="fill:#7caeae;fill-opacity:1;stroke:#7caeae;stroke-width:4.727;stroke-dasharray:none;stroke-opacity:1"
       d="m 29.644531,45.591797 c -4.438476,0.793401 -8.667286,2.424332 -13.02061,3.562985 -10.258104,2.989422 -20.5162078,5.978843 -30.774312,8.968265 -7.14198,-3.518461 -14.187453,-7.247329 -21.430052,-10.54925 -3.928483,-1.210717 -8.626952,0.690748 -10.41312,4.44052 -2.54841,4.612055 -4.885261,9.337114 -7.358042,13.990362 -4.493593,8.627266 -9.042989,17.229598 -13.434803,25.907557 -1.626084,4.171532 0.533962,9.426974 4.700812,11.137794 6.602645,3.42074 13.334672,6.57004 19.891136,10.08268 1.602615,1.02337 3.0204,2.32465 4.549804,3.45811 13.734076,10.73974 27.447316,21.50455 41.2462185,32.15918 2.9244563,1.61413 6.3309429,1.84159 9.4733205,2.82843 13.999386,3.49197 27.98478,7.0469 42.014961,10.40985 3.382782,0.49319 6.690507,-1.35104 8.780148,-3.91676 9.978325,-9.99649 20.021514,-19.92866 29.894718,-30.02824 4.058248,-4.74815 8.1165,-9.4963 12.17474,-14.24445 7.08529,-3.57558 14.24886,-6.99907 21.23929,-10.75775 3.56258,-2.49043 4.77461,-7.798045 2.51634,-11.543224 C 123.081,78.765529 116.46835,66.03134 109.74044,53.359648 c -0.69759,-1.428122 -1.63306,-2.770038 -2.98932,-3.644139 -2.6446,-1.842376 -6.32455,-2.201347 -9.174035,-0.609619 -4.012358,1.865173 -7.893639,3.964699 -11.866532,5.886857 -2.725132,1.361793 -5.450265,2.723585 -8.175397,4.085378 -5.172526,0 -10.345052,0 -15.517578,0 -9.778493,-4.383473 -19.490846,-8.922357 -29.336406,-13.144591 -0.981546,-0.29804 -2.015057,-0.381009 -3.036641,-0.341737 z m 0.615235,4.478515 c 2.498664,0.278308 4.577704,1.852958 6.890869,2.70399 3.734861,1.742287 7.598364,3.235516 11.179443,5.290151 0.279961,0.510119 -0.223077,0.976031 -0.727791,0.874105 -2.58243,0.290206 -5.455628,-0.168155 -7.70893,1.423553 -2.592317,1.709968 -4.449894,4.262357 -6.736293,6.325918 -9.361851,9.370459 -18.774212,18.688082 -28.0493814,28.142195 -3.0173053,3.662554 -2.2911764,9.805366 1.6546836,12.520366 2.7359893,2.13497 5.4823118,4.31342 8.5663898,5.92926 8.272204,4.26643 18.649573,4.2173 26.80601,-0.31501 3.759296,-2.06426 6.995578,-4.91365 10.458585,-7.41589 0.774891,-0.58774 1.5587,-1.16341 2.340243,-1.74231 10.969401,7.97721 21.938802,15.95443 32.908203,23.93164 -9.710151,9.70668 -19.381758,19.45119 -29.179688,29.06836 -1.692566,1.19023 -3.880803,0.67707 -5.708176,0.13228 -11.39762,-2.9139 -22.828229,-5.7044 -34.23334,-8.59252 -4.019189,-1.02222 -8.042971,-2.00883 -12.0458778,-3.08935 C 4.2744046,144.01006 2.4080279,141.99118 0.19526053,140.46641 -12.585321,130.47566 -25.365903,120.4849 -38.146484,110.49414 -29.791667,94.494141 -21.436849,78.494141 -13.082031,62.494141 1.2232363,58.336096 15.50398,54.096278 29.841797,50.080078 c 0.13917,-0.01437 0.278293,-0.0152 0.417969,-0.0098 z m -68.5,1.613282 c 2.530067,0.17179 4.545509,1.926934 6.830078,2.83789 4.606771,2.302735 9.213541,4.605469 13.820312,6.908204 -8.126953,15.559895 -16.253906,31.119791 -24.380859,46.679692 -6.41307,-3.24845 -12.908729,-6.35041 -19.241189,-9.751157 -1.883754,-1.465408 -2.066136,-4.448224 -0.646205,-6.294567 6.730552,-12.889712 13.396831,-25.816568 20.238811,-38.645306 0.793751,-1.039754 2.064583,-1.716897 3.379052,-1.734756 z m 140.550784,0.923828 c 2.04584,0.307566 3.39143,2.157454 4.09459,3.962409 6.59632,12.657338 13.26901,25.280083 19.74503,37.996551 0.76129,2.273581 -0.76337,4.891481 -3.011,5.582048 -5.87841,2.95946 -11.76143,5.90831 -17.64894,8.84962 C 97.363281,93.436849 89.236328,77.875651 81.109375,62.314453 c 6.468968,-3.183833 12.862453,-6.534989 19.401985,-9.566056 0.58422,-0.158645 1.19755,-0.198782 1.79919,-0.140975 z M 44.4375,63.576172 c 10.753255,0 21.50651,0 32.259766,0 8.375,16.038411 16.75,32.076823 25.125004,48.115238 -3.630213,4.24609 -7.260421,8.49218 -10.890629,12.73828 -11.680903,-8.49663 -23.350132,-17.00837 -35.070313,-25.449221 -1.393396,-0.591389 -2.71202,0.447628 -3.721032,1.294811 -4.342051,3.11506 -8.383569,6.70234 -13.104126,9.25297 -4.77743,2.33923 -10.333613,2.95148 -15.534217,1.90144 -2.351295,-0.47815 -4.8974,-1.38884 -7.072827,-2.65992 -2.715762,-1.67075 -5.26604,-3.61005 -7.7025635,-5.6643 -1.6135967,-1.88818 -1.15156,-5.05374 0.85776,-6.478975 C 20.316905,85.896732 30.997907,75.110381 41.817396,64.470748 42.568649,63.907818 43.504635,63.616336 44.4375,63.576172 Z M -27.964844,151 c -1.921103,0.006 -2.743389,2.88182 -1.199176,3.96143 6.391517,5.55365 12.724312,11.18598 19.2165788,16.62336 2.5472581,1.804 5.7809425,1.98628 8.6672218,2.84876 6.598144,1.67246 13.1983904,3.34321 19.8270944,4.89067 1.946137,0.10184 2.973104,-2.75068 1.455078,-3.93945 -1.825121,-0.98769 -3.971309,-1.10901 -5.929687,-1.73633 -6.8811587,-1.75866 -13.81395951,-3.35037 -20.6443077,-5.28444 -2.188609,-1.22089 -3.7915543,-3.21344 -5.7721483,-4.71542 -4.825772,-4.17355 -9.585097,-8.4214 -14.509326,-12.47866 -0.359553,-0.11105 -0.732001,-0.19876 -1.111328,-0.16992 z" /></g><style
     type="text/css"
     id="style1">
	.st0{fill:#000000;}
</style><style
     type="text/css"
     id="style1-9">
	.st0{fill:#000000;}
</style></svg>
