<?xml version="1.0" encoding="UTF-8" standalone="no"?>
<!-- Created with Inkscape (http://www.inkscape.org/) -->

<svg
   width="216.00845mm"
   height="216.00845mm"
   viewBox="0 0 216.00845 216.00845"
   version="1.1"
   id="svg1"
   xml:space="preserve"
   xmlns="http://www.w3.org/2000/svg"
   xmlns:svg="http://www.w3.org/2000/svg"><defs
     id="defs1" /><g
     id="layer1"
     transform="translate(86.308397,27.306314)"><g
       id="layer1-0"
       transform="translate(-69.232221,-68.259405)"><circle
         style="fill:#feffff;fill-opacity:1;stroke:none;stroke-width:1.72332;stroke-linecap:round;paint-order:markers fill stroke"
         id="path1"
         cx="90.928055"
         cy="148.95732"
         r="108.00423" /><path
         id="path11"
         style="fill:#0c3c3c;fill-opacity:1;stroke-width:2.02913"
         d="m 91.888448,44.454134 -7.197493,9.525 c -15.521271,20.541139 -8.549358,51.534736 2.637565,73.220856 0.876629,1.69936 1.655064,3.40694 2.309419,5.10976 V 256.9285 h 4.567164 v -12.85399 l 49.788177,-28.74605 a 2.2838636,2.2838636 0 0 0 1.14205,-1.97766 v -37.83128 h 10.36836 l -12.65194,-21.88807 -12.64936,21.88807 h 10.36526 v 36.51147 l -46.362547,26.76735 v -60.96217 l 49.621777,-28.64993 a 2.2838636,2.2838636 0 0 0 1.14153,-1.97714 v -34.32607 l 10.79521,-10.7952 -13.07982,-13.079309 -13.07931,13.079309 10.79676,10.79727 v 33.00677 l -46.196147,26.67124 v -40.42492 c 0.640504,-1.64585 1.395554,-3.296 2.242757,-4.9382 11.18748,-21.68563 18.15717,-52.680014 2.636531,-73.221373 z m -60.64126,41.509611 c 0,7.007805 1.0421,46.054955 21.149614,67.476505 7.597757,8.09427 25.145824,14.50021 28.247888,29.69276 v 17.09611 C 78.356184,193.50342 74.978544,188.57703 70.027767,184.33655 56.8052,173.0111 40.383853,171.83764 31.231169,152.20156 c 0,7.0078 1.042098,46.05444 21.149613,67.47599 7.611099,8.10847 25.207294,14.52264 28.263908,29.77286 v 7.24762 h 4.567163 v -2.49494 l 0.03927,5.2e-4 c 0,-3.24912 -0.01152,-6.34404 -0.03927,-9.29504 v -56.94278 l 0.05581,5.1e-4 c 0,-3.82247 -0.01637,-7.43207 -0.05581,-10.84429 v -4.71031 h -0.07235 C 84.536448,141.41413 81.507391,127.91763 70.043787,118.09873 56.821221,106.77323 40.399871,105.59982 31.247188,85.963745 Z" /></g></g><style
     type="text/css"
     id="style1">
	.st0{fill:#000000;}
</style></svg>
