<?xml version="1.0" encoding="UTF-8" standalone="no"?>
<!-- Created with Inkscape (http://www.inkscape.org/) -->

<svg
   width="64.291252mm"
   height="22.349234mm"
   viewBox="0 0 64.291252 22.349234"
   version="1.1"
   id="svg1"
   xml:space="preserve"
   xmlns="http://www.w3.org/2000/svg"
   xmlns:svg="http://www.w3.org/2000/svg"><defs
     id="defs1" /><g
     id="layer9"
     style="display:inline"
     transform="translate(4.3142079,-146.26301)"><path
       style="font-style:normal;font-variant:normal;font-weight:normal;font-stretch:normal;font-size:44.0979px;line-height:125%;font-family:Candara;text-align:start;writing-mode:lr-tb;text-anchor:start;fill:#7caeae;fill-opacity:1;stroke:none;stroke-width:0.264583;stroke-linecap:butt;stroke-linejoin:miter;stroke-miterlimit:4;stroke-dasharray:none;stroke-opacity:1"
       d="m 30.753023,151.31616 c -0.04472,0.88462 -0.07986,1.86525 -0.105402,2.9419 -0.01916,1.07667 -0.09708,5.75413 -0.09707,7.04611 -1.1e-5,0.93699 -0.08624,1.71102 -0.258704,2.3221 -0.172474,0.61107 -0.443955,1.12612 -0.814443,1.54515 -0.364109,0.41902 -0.833605,0.73038 -1.408499,0.93407 -0.574903,0.20369 -1.264783,0.30554 -2.069637,0.30554 -0.619617,0 -1.175351,-0.0611 -1.667206,-0.18332 l 0.143724,-1.27453 c 0.453531,0.19205 0.926222,0.28808 1.41808,0.28808 0.549349,0 1.02843,-0.0698 1.437251,-0.20952 0.415197,-0.14549 0.74417,-0.36955 0.986912,-0.67218 0.249115,-0.30263 0.424778,-0.67509 0.526986,-1.1174 0.108588,-0.4423 0.162883,-1.02137 0.162888,-1.7372 -5e-6,-2.64218 0.02043,-8.3672 -0.07539,-10.1888 h 1.820511 m 4.560861,11.36604 H 33.57961 c 0.08942,-1.16396 0.134141,-2.49378 0.134141,-3.98946 0,-1.68191 -0.111792,-3.09321 -0.33536,-4.23389 l 1.916335,-0.2357 c -0.07666,1.21634 -0.114982,2.7062 -0.114982,4.46959 0,1.39675 0.04471,2.72656 0.134141,3.98946 m 0.402439,-10.91209 c -8e-6,0.29682 -0.105413,0.5558 -0.316206,0.77694 -0.210799,0.21534 -0.507828,0.32301 -0.891091,0.32299 -0.325776,2e-5 -0.581289,-0.0931 -0.766529,-0.27934 -0.178859,-0.19205 -0.268288,-0.42193 -0.268288,-0.68965 0,-0.29098 0.108593,-0.54414 0.325774,-0.75948 0.21718,-0.21532 0.517403,-0.32298 0.900673,-0.323 0.312992,2e-5 0.558927,0.096 0.737786,0.28808 0.185242,0.18625 0.277873,0.4074 0.277881,0.66346 m 10.271514,10.91209 h -1.743861 c 0.140525,-1.5306 0.210788,-3.20088 0.210791,-5.01084 -3e-6,-0.89624 -0.201216,-1.50731 -0.603637,-1.83323 -0.396046,-0.33172 -0.964551,-0.49758 -1.70553,-0.49759 -0.907079,1e-5 -1.743866,0.29973 -2.510396,0.89916 0,1.98455 0.01278,4.13205 0.03833,6.4425 h -1.743858 c 0.108585,-1.97873 0.162891,-3.41039 0.162891,-4.295 0,-1.36182 -0.140539,-2.68291 -0.421598,-3.96327 l 1.686377,-0.21824 0.182047,1.06501 h 0.07665 c 0.945388,-0.77984 1.957843,-1.16976 3.037385,-1.16977 1.06036,1e-5 1.881187,0.21534 2.462482,0.64599 0.581274,0.42486 0.871924,1.18434 0.871927,2.27845 -3e-6,0.11058 -0.0064,0.32882 -0.01916,0.65472 -0.01278,0.32592 -0.01918,0.54416 -0.01918,0.65473 -6e-6,0.97191 0.01278,2.42103 0.03833,4.34738 m 4.22551,-8.47651 c -0.108596,1.80413 -0.162894,3.61408 -0.162894,5.42985 0,0.48305 0.01598,1.12322 0.04791,1.92053 0.03834,0.79149 0.05749,1.32982 0.0575,1.61499 -8e-6,1.87978 -0.785701,3.02046 -2.357088,3.42203 l -0.479084,-0.66345 c 0.568513,-0.43649 0.91984,-0.90207 1.053978,-1.39675 0.198022,-0.71002 0.297035,-2.22316 0.297035,-4.53943 0,-2.48505 -0.127749,-4.34155 -0.383265,-5.56953 l 1.925913,-0.21824 m 0.412006,-2.43558 c 0,0.29682 -0.105402,0.5558 -0.316188,0.77694 -0.210804,0.21534 -0.507833,0.32301 -0.891098,0.32299 -0.325778,2e-5 -0.581284,-0.0931 -0.766532,-0.27934 -0.178858,-0.19205 -0.268287,-0.42193 -0.268287,-0.68965 0,-0.29098 0.108595,-0.54414 0.325784,-0.75948 0.217183,-0.21532 0.517403,-0.32298 0.900665,-0.323 0.313002,2e-5 0.55893,0.096 0.737796,0.28808 0.185237,0.18625 0.27786,0.4074 0.27786,0.66346 m 9.351693,10.91209 -1.504321,0.0524 c -0.07666,-0.28517 -0.114985,-0.55578 -0.114977,-0.81186 h -0.09582 c -0.785699,0.65182 -1.855648,0.97773 -3.209841,0.97773 -0.734599,0 -1.366985,-0.19496 -1.897176,-0.58489 -0.530185,-0.39574 -0.795271,-0.95735 -0.795271,-1.68483 0,-0.89624 0.4152,-1.61498 1.245608,-2.15623 0.83041,-0.54705 2.373042,-0.83513 4.627943,-0.86423 0.01916,-0.13967 0.02873,-0.29972 0.02874,-0.48013 -6e-6,-0.71583 -0.210794,-1.19305 -0.632378,-1.43167 -0.415219,-0.2386 -1.047608,-0.35791 -1.897179,-0.35792 -1.002877,10e-6 -1.989781,0.1135 -2.960717,0.34046 l 0.162878,-1.2047 c 0.958164,-0.25024 2.060053,-0.37536 3.305672,-0.37537 1.137012,1e-5 2.015334,0.21534 2.634951,0.64599 0.619609,0.42486 0.929412,1.15233 0.929426,2.18242 -1.4e-5,0.27354 -0.01598,0.77113 -0.04791,1.49278 -0.02556,0.71583 -0.03833,1.19305 -0.03833,1.43166 -5e-6,1.0592 0.08622,2.00201 0.258705,2.82842 m -1.69595,-1.69356 c -0.03195,-0.8846 -0.04792,-1.679 -0.04791,-2.3832 -1.200907,0 -2.114357,0.0815 -2.740358,0.24443 -1.047589,0.29099 -1.571384,0.84678 -1.571384,1.66737 0,0.79149 0.613214,1.18723 1.839674,1.18723 1.053978,0 1.893962,-0.23861 2.519974,-0.71583"
       id="text3736" /><path
       style="fill:#7caeae;fill-opacity:1;fill-rule:evenodd;stroke:none;stroke-width:0.765;stroke-linecap:butt;stroke-linejoin:miter;stroke-miterlimit:4;stroke-dasharray:none;stroke-opacity:1"
       d="m 19.193284,146.26301 c 0,0 -4.562681,2.18084 -8.277197,2.66223 -3.7145137,0.48139 -10.79828068,0.963 -12.2044913,0.62319 -1.4062086,-0.33981 -2.4156398,-0.73662 -2.4156398,-0.73662 l 0.2925752,0.9915 -0.9027392,0.79266 0.160043,0.28291 0.371348,0.028 1.1403039,0.14145 0.160044,0.50976 0.6364166,0.0574 0.3188351,1.07557 c 0,0 1.35248197,0.11343 1.7504653,0.11343 0.39798334,0 1.194068,-0.056 1.194068,-0.056 l 0.026257,0.42436 0.2925762,0.056 v 0.48174 l -0.6376683,0.56714 0.1600438,0.028 v 0.1975 c 0,0 -1.43307592,0.1143 -2.01678802,0.0293 -0.58370888,-0.0849 -0.69017988,-0.0854 -0.69017988,-0.0854 l -0.052517,0.056 -0.026257,0.25488 h 0.1325365 l 0.052513,1.10492 2.9457837,-0.11343 -0.2125564,3.82321 -0.02626,0.4804 -2.4944123,-0.14145 -0.026257,-1.01952 h 0.5563971 l 0.0537662,-0.39634 0.50388149,-0.11343 0.0800227,-0.11209 -1.88425129,-0.45371 -1.4328804,0.42435 0.2388118,0.19884 h 0.2388161 l 0.026257,0.34028 0.5038844,0.028 v 0.9915 l -0.5563973,0.14145 0.1062762,0.22553 0.1325364,0.0854 v 0.76464 h 0.3450918 v 3.53897 l -0.557648,0.0854 0.08002,1.01952 0.3438419,0.0574 -0.052513,2.32195 1.51290012,0.028 -0.31883242,-2.29392 2.2818569,-0.056 -0.15879265,1.24505 -0.21255566,0.87806 2.30811281,0.028 0.026257,-2.26457 1.5916716,-0.14145 -0.078772,1.44388 -0.053764,0.84871 h 1.3541107 l -0.053766,-2.32194 0.1862992,0.0293 0.052516,-1.10492 H 5.7947293 l -0.078773,-0.45372 -0.1325361,-1.30242 0.052516,-1.49992 h 0.291325 v -0.9061 l -0.3713472,0.028 0.053763,-1.0689 0.4313653,-0.0427 0.020005,-0.34696 0.2450666,-0.036 0.2513164,-0.19083 -1.511653,-0.31092 -1.4991482,0.33228 0.1462876,0.2402 0.1587929,-0.0134 0.185049,-0.007 0.033761,0.4377 0.4176098,-0.02 0.0075,0.94746 -1.7979776,-0.0414 0.060017,-1.01285 0.058764,-0.92077 v -1.21035 l 0.053766,-1.2744 3.6009561,-0.18416 4.2848891,-0.24687 0.04001,0.81402 -0.152538,1.95363 -0.06627,1.81886 -1.5779217,-0.028 -0.0075,-1.2744 0.5839034,-0.0214 0.02626,-0.3603 0.2388118,-0.036 -0.012504,-0.0707 0.2388155,-0.0134 0.132533,-0.17748 -1.7842232,-0.41769 -1.7779722,0.38166 0.1262825,0.22018 0.1988039,-0.0147 v 0.10009 h 0.2450658 v 0.403 l 0.5238901,0.007 -0.00625,1.11827 H 7.1950963 l -0.0075,0.25488 0.1862995,0.0214 -0.020005,0.97015 0.3913537,0.0214 -0.046263,3.84456 -0.5176358,0.10542 0.00625,0.18415 h 0.1800487 v 0.98483 h 0.2975787 l -0.078772,1.34513 -0.1000252,1.17431 1.8842485,0.0494 -0.060015,-1.01952 -0.1387862,-0.84871 -0.027507,-0.73661 1.5991738,-0.028 -0.04626,1.13962 -0.0075,1.20368 0.90274,0.0707 1.226575,-0.0494 0.385103,-0.11343 -0.212559,-0.64454 -0.05251,-1.01285 -0.100024,-0.72194 1.525403,-0.056 -0.06627,0.88474 -0.0063,1.38783 0.610161,0.056 0.603911,-0.0133 0.291326,-0.0921 -0.172544,-1.3171 -0.05877,-0.9915 0.25882,-0.028 0.0063,-0.88474 0.07252,-0.0147 -0.01251,-0.19082 h -0.298826 l -0.06001,-0.65122 -0.02626,-2.82503 0.225061,-0.007 v -0.92745 l 0.09377,0.0147 v -0.18415 l -0.332586,-0.0294 0.0075,-1.07557 0.556397,-0.0494 -0.03251,-0.36164 0.245067,-0.0213 -0.01376,-0.0707 0.325087,-0.1628 -1.651691,-0.33228 -1.677943,0.34029 0.106276,0.1975 0.258819,-0.0214 0.01376,0.0854 h 0.218807 l 0.0125,0.42435 0.543896,-0.007 0.04626,1.04087 -1.923012,-0.0147 -0.225061,-1.56398 -0.180045,-0.8287 -0.145041,-1.48657 0.08627,-0.87007 3.833517,-0.29091 0.0125,-1.29575 0.192552,-0.0494 -0.0125,-0.1975 -0.146291,-0.0854 c -3e-5,0 -2.096177,0.31086 -2.759484,0.38166 -0.186874,0.0199 -0.172721,0.0186 -0.325086,0.0347 l -0.02,-0.2402 -0.792712,-0.41501 0.01,-0.48307 0.272574,-0.008 0.02,-0.66456 c 0,0 1.624484,-0.10662 2.228093,-0.24821 0.603608,-0.14159 1.459137,-0.2829 1.459137,-0.2829 l 0.405107,-1.09692 0.802717,-0.23353 0.06627,-0.18415 1.816732,-0.50309 0.206306,-0.16948 -0.690187,-1.50793 0.06627,-0.34028 0.351346,-0.18416 0.252563,-0.77131 z m -8.728566,5.74881 -0.01,0.54846 0.411359,0.0173 -0.02626,0.52044 -0.806466,0.52844 -0.050011,0.15213 0.325086,0.003 -0.0025,0.12811 -2.4644029,0.1201 0.016253,-0.36431 0.1125305,-0.18149 0.0075,-0.11609 0.00251,-0.25088 0.070016,-0.16681 0.026257,-0.13477 v -0.0961 l 0.1062789,-0.42436 z m -5.1538675,0.46706 -0.060017,0.36831 0.1925494,0.22686 -0.012502,0.39633 0.1787956,0.27623 -0.046262,0.32561 0.1325359,0.19082 -2.5144182,0.0988 -0.00625,-0.0841 0.291329,-0.036 0.01375,-0.10675 -0.63642,-0.34563 -0.033758,-0.55246 0.3050805,-0.0147 0.02626,-0.59516 z m 3.7209873,8.49512 1.5254042,0.0988 -0.05251,2.05372 0.1988,1.68408 -1.6179281,-0.056 z m -10.2152137,0.0854 2.4418996,0.12677 -0.2125559,1.41586 v 1.19033 l 0.1725446,0.66456 -2.3881328,0.11342 z m 15.6278999,0.0134 v 3.51227 l -1.551661,0.11343 -0.05376,-1.85489 -0.172547,-1.72811 z m -11.7531204,0.0787 1.8042287,0.007 0.018756,3.25606 -1.6841967,0.0294 -0.086274,-1.05555 -0.00625,-1.04754 z"
       id="path4735" /></g></svg>
