<?xml version="1.0" encoding="UTF-8" standalone="no"?>
<!-- Created with Inkscape (http://www.inkscape.org/) -->

<svg
   width="100.96561mm"
   height="112.13713mm"
   viewBox="0 0 100.96561 112.13713"
   version="1.1"
   id="svg1"
   xml:space="preserve"
   xmlns:inkscape="http://www.inkscape.org/namespaces/inkscape"
   xmlns:sodipodi="http://sodipodi.sourceforge.net/DTD/sodipodi-0.dtd"
   xmlns="http://www.w3.org/2000/svg"
   xmlns:svg="http://www.w3.org/2000/svg"><sodipodi:namedview
     id="namedview1"
     pagecolor="#505050"
     bordercolor="#ffffff"
     borderopacity="1"
     inkscape:showpageshadow="0"
     inkscape:pageopacity="0"
     inkscape:pagecheckerboard="1"
     inkscape:deskcolor="#505050"
     inkscape:document-units="mm"><inkscape:page
       x="0"
       y="-5.6027697e-23"
       width="100.96561"
       height="112.13713"
       id="page2"
       margin="0"
       bleed="0" /></sodipodi:namedview><defs
     id="defs1" /><g
     inkscape:label="Layer 1"
     inkscape:groupmode="layer"
     id="layer1"
     transform="translate(-31.815797,-8.467104)"><path
       id="path1-5-1"
       style="fill:none;stroke:#7caeae;stroke-width:5.5;stroke-linecap:round;stroke-dasharray:none;stroke-opacity:1"
       d="M 34.624681,93.89145 45.348759,87.699898 M 119.24845,44.89791 129.97253,38.706361 M 82.241024,23.600202 V 11.217104 M 130.03141,93.789457 119.30733,87.597911 M 45.289877,44.999896 34.565799,38.808347 m 30.052026,46.595284 4.306399,4.053057 c 1.208155,1.137399 1.893208,2.722971 1.893208,4.381873 0,2.492449 2.020483,4.512935 4.512934,4.512935 h 14.377412 c 2.492449,0 4.512934,-2.020486 4.512934,-4.512935 0,-1.658902 0.684934,-3.244474 1.893324,-4.381873 l 4.306204,-4.053057 c 6.01152,-5.70182 9.36833,-13.192038 9.40226,-20.979367 l 4e-4,-0.327099 c 0,-13.305426 -12.224318,-24.25387 -27.303828,-24.25387 -15.079474,0 -27.303827,10.948444 -27.303827,24.25387 l 2.74e-4,0.327099 c 0.03386,7.787329 3.390823,15.277547 9.402306,20.979367 z m 10.100151,22.699229 h 15.602186 m -13.001691,9.75137 h 10.401196" /></g></svg>
