<?xml version="1.0" encoding="UTF-8" standalone="no"?>
<!-- Created with Inkscape (http://www.inkscape.org/) -->

<svg
   width="211.66664mm"
   height="211.66667mm"
   viewBox="0 0 211.66664 211.66667"
   version="1.1"
   id="svg1"
   xml:space="preserve"
   xmlns="http://www.w3.org/2000/svg"
   xmlns:svg="http://www.w3.org/2000/svg"><defs
     id="defs1" /><g
     id="layer1"
     transform="translate(26.987498,-7.9374994)"><path
       d="m 78.845833,7.9374997 c -58.45638,0 -105.833334,47.3769533 -105.833334,105.8333303 0,58.45638 47.376954,105.83334 105.833334,105.83334 58.456377,0 105.833337,-47.37696 105.833337,-105.83334 0,-58.456377 -47.37696,-105.8333303 -105.833337,-105.8333303 z M 49.245572,158.0472 H 28.616341 V 92.025391 H 49.245572 Z M 38.372851,83.757161 h -0.165365 c -7.482747,0 -12.319661,-5.043619 -12.319661,-11.451497 0,-6.531901 5.002279,-11.451497 12.609049,-11.451497 7.606771,0 12.278321,4.919596 12.443685,11.451497 0.04134,6.366537 -4.795573,11.451497 -12.567708,11.451497 z M 131.7625,158.0472 h -23.39909 v -34.14779 c 0,-8.92968 -3.63802,-15.04817 -11.699543,-15.04817 -6.159831,0 -9.591146,4.13411 -11.16211,8.10286 -0.578776,1.4056 -0.496093,3.38998 -0.496093,5.41569 V 158.0472 H 61.813281 c 0,0 0.289388,-60.523437 0,-66.021809 h 23.192383 v 10.376629 c 1.364258,-4.547528 8.764323,-10.996747 20.587886,-10.996747 14.67611,0 26.16895,9.508467 26.16895,29.930987 z"
       id="path1"
       style="fill:#00302f;fill-opacity:1;stroke-width:0.413411" /></g><style
     type="text/css"
     id="style1">
	.st0{fill:#000000;}
</style></svg>
