<?xml version="1.0" encoding="UTF-8" standalone="no"?>
<!-- Created with Inkscape (http://www.inkscape.org/) -->

<svg
   width="81.929626mm"
   height="205.83739mm"
   viewBox="0 0 81.929626 205.83739"
   version="1.1"
   id="svg1"
   xml:space="preserve"
   xmlns="http://www.w3.org/2000/svg"
   xmlns:svg="http://www.w3.org/2000/svg"><defs
     id="defs1" /><g
     id="g23"
     style="display:inline"
     transform="translate(-1599.7454,-0.31978029)"><g
       id="g37"
       transform="translate(1406.2205,-193.36148)"
       style="fill:#000f0f;fill-opacity:1"><g
         id="g20"
         transform="translate(194.77787,193.68126)"
         style="fill:#000f0f;fill-opacity:1"><path
           id="path11"
           style="fill:#000f0f;fill-opacity:1;stroke-width:0.87854"
           d="m 38.720184,13.664204 -2.5606,5.018478 c -5.522196,10.822859 -3.041771,27.153069 0.93834,38.5792 0.985859,2.830212 1.621937,5.703342 1.621937,8.405637 4.5e-4,-2.702351 0.636727,-5.575453 1.622635,-8.405601 3.980311,-11.425875 6.46002,-27.75647 0.93805,-38.579445 z"
           transform="matrix(1.8462052,0,0,1.2466572,-32.765199,-17.034578)" /><path
           style="fill:#000f0f;fill-opacity:1;stroke:none;stroke-width:1.11294;stroke-opacity:1"
           d="m 12.639123,157.45512 c -13.20756984,-14.07069 -13.8920535,-39.7186 -13.8920535,-44.32165 6.0119169,12.8979 16.7980975,13.66862 25.4833065,21.10774 8.685206,7.43912 9.999693,18.09178 9.999693,45.89226 l -2.726005,-0.0318 c 0,-12.29922 -13.379904,-16.80305 -18.864941,-22.64653 z"
           id="path12" /><path
           style="fill:#000f0f;fill-opacity:1;stroke:none;stroke-width:1.11294;stroke-opacity:1"
           d="M 12.769831,115.09513 C -0.4377387,101.02444 -1.1222226,75.376562 -1.1222226,70.773508 4.8896945,83.671413 15.675875,84.442127 24.361084,91.881217 c 8.685206,7.43912 9.999693,18.091783 9.999693,45.892253 l -2.726005,-0.0318 c 0,-12.29921 -13.379904,-16.80304 -18.864941,-22.64652 z"
           id="path13" /><path
           style="font-variation-settings:normal;opacity:1;vector-effect:none;fill:#000f0f;fill-opacity:1;stroke:none;stroke-width:1.11294;stroke-linecap:butt;stroke-linejoin:miter;stroke-miterlimit:4;stroke-dasharray:none;stroke-dashoffset:0;stroke-opacity:1;-inkscape-stroke:none;stop-color:#000000;stop-opacity:1"
           d="M 12.780477,71.587157 C -0.42709218,57.516468 -1.1115761,31.868562 -1.1115761,27.265503 4.9003402,40.163407 15.686521,40.934123 24.37173,48.373244 c 8.685206,7.439122 9.999694,18.091783 9.999694,45.892223 l -2.726006,-0.0318 c 0,-12.299179 -13.379904,-16.803007 -18.864941,-22.646493 z"
           id="path14" /><path
           id="rect14"
           style="fill:#000f0f;fill-opacity:1;stroke-width:0"
           d="m 31.334797,84.048386 h 3 V 205.83739 h -3 z" /><path
           id="path15"
           style="fill:#000f0f;fill-opacity:1;stroke:none;stroke-width:0;stroke-opacity:1"
           d="m 40.241984,32.946551 h -3 V 191.52564 h 3 z" /><g
           id="path17"
           style="opacity:1;fill:#000f0f;fill-opacity:1"><path
             style="baseline-shift:baseline;display:inline;overflow:visible;vector-effect:none;fill:#000f0f;fill-opacity:1;stroke-linecap:round;stroke-linejoin:round;enable-background:accumulate;stop-color:#000000;stop-opacity:1"
             d="m 71.998047,123.07031 a 1.5,1.5 0 0 0 -1.5,1.5 v 28.47071 l -32.546875,18.79101 a 1.5,1.5 0 0 0 -0.548828,2.04883 1.5,1.5 0 0 0 2.048828,0.54883 l 33.296875,-19.22266 a 1.50015,1.50015 0 0 0 0.75,-1.29883 v -29.33789 a 1.5,1.5 0 0 0 -1.5,-1.5 z"
             id="path91" /><g
             id="g90"
             style="fill:#000f0f;fill-opacity:1"><path
               style="baseline-shift:baseline;display:inline;overflow:visible;vector-effect:none;fill:#000f0f;fill-opacity:1;fill-rule:evenodd;enable-background:accumulate;stop-color:#000000;stop-opacity:1"
               d="m 65.998374,130.56962 h 12 v -12 h -12 z"
               id="path90" /></g></g><g
           id="path19"
           style="opacity:1;fill:#000f0f;fill-opacity:1"><path
             style="baseline-shift:baseline;display:inline;overflow:visible;vector-effect:none;fill:#000f0f;fill-opacity:1;stroke-linecap:round;stroke-linejoin:round;enable-background:accumulate;stop-color:#000000;stop-opacity:1"
             d="m 72.195312,79.800781 a 1.5,1.5 0 0 0 -1.5,1.5 v 28.771489 l -32.546875,18.79101 a 1.5,1.5 0 0 0 -0.548828,2.04883 1.5,1.5 0 0 0 2.048828,0.55078 l 33.296875,-19.22461 a 1.50015,1.50015 0 0 0 0.75,-1.29883 V 81.300781 a 1.5,1.5 0 0 0 -1.5,-1.5 z"
             id="path95" /><g
             id="g92"
             style="fill:#000f0f;fill-opacity:1"><g
               id="path92"
               style="opacity:1;fill:#000f0f;fill-opacity:1"><path
                 style="baseline-shift:baseline;display:inline;overflow:visible;vector-effect:none;fill:#000f0f;fill-opacity:1;fill-rule:evenodd;enable-background:accumulate;stop-color:#000000;stop-opacity:1"
                 d="m 72.195664,73.512117 6.75,11.6775 h -13.5 z"
                 id="path93" /><path
                 style="baseline-shift:baseline;display:inline;overflow:visible;vector-effect:none;fill:#000f0f;fill-opacity:1;fill-rule:evenodd;enable-background:accumulate;stop-color:#000000;stop-opacity:1"
                 d="m 72.195312,71.712891 -8.308593,14.376953 h 16.61914 z m 0,3.597656 5.189454,8.978515 H 67.005859 Z"
                 id="path94" /></g></g></g><g
           id="path20"
           style="opacity:1;fill:#000f0f;fill-opacity:1"><path
             style="baseline-shift:baseline;display:inline;overflow:visible;vector-effect:none;fill:#000f0f;fill-opacity:1;stroke-linecap:round;stroke-linejoin:round;enable-background:accumulate;stop-color:#000000;stop-opacity:1"
             d="m 72.085937,36.357422 a 1.5,1.5 0 0 0 -1.5,1.5 V 66.628906 L 38.039062,85.419922 a 1.5,1.5 0 0 0 -0.550781,2.048828 1.5,1.5 0 0 0 2.050781,0.548828 L 72.835937,68.792969 a 1.50015,1.50015 0 0 0 0.75,-1.298828 V 37.857422 a 1.5,1.5 0 0 0 -1.5,-1.5 z"
             id="path97" /><g
             id="g96"
             style="fill:#000f0f;fill-opacity:1"><path
               style="baseline-shift:baseline;display:inline;overflow:visible;vector-effect:none;fill:#000f0f;fill-opacity:1;fill-rule:evenodd;enable-background:accumulate;stop-color:#000000;stop-opacity:1"
               d="m 63.493936,37.856617 8.591358,8.591373 8.591336,-8.591373 -8.591336,-8.591321 z"
               id="path96" /></g></g></g></g></g></svg>
