<?xml version="1.0" encoding="UTF-8" standalone="no"?>
<!-- Created with Inkscape (http://www.inkscape.org/) -->

<svg
   width="99.999992mm"
   height="100mm"
   viewBox="0 0 99.999992 100"
   version="1.1"
   id="svg1"
   xml:space="preserve"
   xmlns:inkscape="http://www.inkscape.org/namespaces/inkscape"
   xmlns:sodipodi="http://sodipodi.sourceforge.net/DTD/sodipodi-0.dtd"
   xmlns="http://www.w3.org/2000/svg"
   xmlns:svg="http://www.w3.org/2000/svg"><sodipodi:namedview
     id="namedview1"
     pagecolor="#505050"
     bordercolor="#ffffff"
     borderopacity="1"
     inkscape:showpageshadow="0"
     inkscape:pageopacity="0"
     inkscape:pagecheckerboard="1"
     inkscape:deskcolor="#505050"
     inkscape:document-units="mm"><inkscape:page
       x="0"
       y="0"
       width="99.999992"
       height="100"
       id="page2"
       margin="0"
       bleed="0" /></sodipodi:namedview><defs
     id="defs1"><inkscape:path-effect
       effect="powerclip"
       message=""
       id="path-effect8"
       is_visible="true"
       lpeversion="1"
       inverse="true"
       flatten="false"
       hide_clip="false" /><clipPath
       clipPathUnits="userSpaceOnUse"
       id="clipPath8"><path
         id="path8"
         style="display:none;fill:#231f20;stroke-width:3.10465"
         d="m 81.094511,33.161719 v 0 L 74.885206,36.825211 50.047972,51.323944 25.210742,37.8187 19.001434,34.40358 v -1.241861 a 6.2093078,6.2093078 0 0 1 6.209308,-6.209308 h 49.674464 a 6.2093078,6.2093078 0 0 1 6.209305,6.209308 z m 0,7.202797 v 30.05305 a 6.2093078,6.2093078 0 0 1 -6.209305,6.209307 H 25.210742 A 6.2093078,6.2093078 0 0 1 19.001434,70.417566 V 41.513239 l 6.209308,3.384071 23.346996,12.72908 a 3.1046539,3.1046539 0 0 0 1.490234,0.37256 3.1046539,3.1046539 0 0 0 1.552329,-0.434652 L 74.885206,43.996962 Z" /><path
         id="lpe_path-effect8"
         style="fill:#231f20;stroke-width:3.10465"
         class="powerclip"
         d="M -4.9520264,-3.2103577 H 105.04797 V 106.78964 H -4.9520264 Z M 81.094511,33.161719 A 6.2093078,6.2093078 0 0 0 74.885206,26.952411 H 25.210742 a 6.2093078,6.2093078 0 0 0 -6.209308,6.209308 v 1.241861 l 6.209308,3.41512 24.83723,13.505244 24.837234,-14.498733 z m 0,7.202797 -6.209305,3.632446 -23.284905,13.567336 A 3.1046539,3.1046539 0 0 1 50.047972,57.99895 3.1046539,3.1046539 0 0 1 48.557738,57.62639 L 25.210742,44.89731 19.001434,41.513239 v 28.904327 a 6.2093078,6.2093078 0 0 0 6.209308,6.209307 h 49.674464 a 6.2093078,6.2093078 0 0 0 6.209305,-6.209307 z" /></clipPath></defs><g
     inkscape:label="Layer 1"
     inkscape:groupmode="layer"
     id="layer1"
     transform="translate(-0.04797363,-1.7896424)"><path
       style="fill:#00302f;fill-opacity:1;stroke:none;stroke-width:5.84924;stroke-linecap:round;stroke-linejoin:round;stroke-dasharray:none;stroke-opacity:1;paint-order:markers fill stroke"
       id="path3"
       clip-path="url(#clipPath8)"
       inkscape:path-effect="#path-effect8"
       sodipodi:type="arc"
       sodipodi:cx="50.047974"
       sodipodi:cy="51.789642"
       sodipodi:rx="50"
       sodipodi:ry="50"
       d="M 100.04797,51.789642 A 50,50 0 0 1 50.047974,101.78964 50,50 0 0 1 0.04797363,51.789642 50,50 0 0 1 50.047974,1.7896423 50,50 0 0 1 100.04797,51.789642 Z"
       inkscape:export-filename="mail.svg"
       inkscape:export-xdpi="26.190001"
       inkscape:export-ydpi="26.190001" /></g></svg>
