<?xml version="1.0" encoding="UTF-8" standalone="no"?>
<!-- Created with Inkscape (http://www.inkscape.org/) -->

<svg
   width="197.21291mm"
   height="190.87762mm"
   viewBox="0 0 197.21291 190.87762"
   version="1.1"
   id="svg1"
   xml:space="preserve"
   xmlns="http://www.w3.org/2000/svg"
   xmlns:svg="http://www.w3.org/2000/svg"><defs
     id="defs1" /><g
     id="layer1"
     transform="translate(76.915385,14.741967)"><path
       id="path1"
       style="fill:#7caeae;fill-opacity:1;stroke-width:6.61458"
       d="m 92.787109,-14.705078 c -8.754125,0.465646 -17.115003,5.6873297 -21.251275,13.4385202 -3.743664,6.6748815 -4.277263,15.0641728 -1.272773,22.1181968 0.548159,1.317252 1.200983,2.589246 1.897095,3.833908 C 64.609375,32.236979 57.058594,39.788411 49.507812,47.339844 39.912528,39.733509 27.089355,36.352557 14.995923,38.329591 11.874553,38.797412 8.8235388,39.658681 5.8574219,40.71875 4.8582267,41.055662 4.2626747,40.027398 3.8891687,39.284607 2.3252017,36.295268 0.62921463,33.372708 -0.97460938,30.402344 4.9227939,24.884101 8.1053489,16.538834 7.1084907,8.4952095 6.2634715,0.91391575 1.8832451,-6.1993421 -4.5824988,-10.27094 c -5.9570572,-3.892009 -13.5604042,-5.107022 -20.4356462,-3.278549 -7.656997,1.91525 -14.218778,7.6028877 -17.27731,14.8683957 -3.325523,7.6649339 -2.569096,16.9347593 1.966081,23.9555713 4.176782,6.606899 11.474614,11.150006 19.274955,11.843613 2.80998,0.317397 5.635553,-0.02216 8.406323,-0.480202 1.243623,0.05353 1.941663,1.229437 2.342977,2.25911 1.4534197,2.730936 2.9748135,5.424607 4.4535565,8.142063 -9.4209775,6.86407 -16.2554095,17.364007 -18.1680975,28.912797 -1.144793,6.447843 -0.768469,13.121712 0.830731,19.458157 0.101072,0.486136 0.425827,0.982339 -0.322269,1.045335 -2.313325,0.982982 -4.626649,1.965964 -6.939974,2.948946 -4.751676,-6.0718 -12.207244,-10.066958 -19.965778,-10.180106 -8.128573,-0.235339 -16.273268,3.611766 -21.168059,10.1221 -4.895054,6.352409 -6.614486,15.048769 -4.337569,22.756369 1.977687,7.04138 7.069955,13.15272 13.708939,16.25119 6.226476,2.98019 13.660993,3.39174 20.125748,0.91763 6.850019,-2.48358 12.459949,-8.04446 15.088125,-14.82971 1.71433,-4.31575 2.196552,-9.11856 1.251719,-13.67419 2.521485,-1.06966 5.042969,-2.13932 7.564453,-3.20899 5.409998,8.93876 13.7403165,16.18338 23.5849121,19.8024 11.7315269,4.39526 25.2857179,3.71519 36.4573629,-1.99101 3.092098,-1.52464 5.946755,-3.47727 8.658606,-5.5942 0.680944,-0.68965 1.526699,0.14095 1.972947,0.68906 6.343099,5.76302 12.686198,11.52605 19.029297,17.28907 -3.710803,6.70943 -4.271333,15.10037 -1.301466,22.19151 2.748074,6.83197 8.547638,12.32465 15.498732,14.74208 8.413084,3.02024 18.328373,1.22357 25.169463,-4.52458 6.32598,-5.22921 9.9993,-13.5658 9.33068,-21.77502 -0.4777,-7.6777 -4.57812,-15.03988 -10.9011,-19.43441 -5.53927,-3.97958 -12.700981,-5.6468 -19.414586,-4.35955 -3.611348,0.6355 -7.087524,2.11593 -10.12977,4.08965 -1.667939,-1.62544 -3.458508,-3.13716 -5.165009,-4.7299 -5.036794,-4.57766 -10.073588,-9.15532 -15.110381,-13.73299 6.001288,-8.57903 8.979728,-19.243817 8.1329,-29.691818 C 67.01833,72.172356 64.004526,64.031156 59.125,57.228516 58.49738,56.382172 58.933356,55.32411 59.593585,54.656912 60.758642,53.471885 61.974081,52.33525 63.126843,51.13515 69.0455,45.217704 74.964156,39.300258 80.882812,33.382812 c 7.082504,4.409995 16.361096,5.107675 23.969328,1.63312 7.95506,-3.485704 13.90494,-11.196019 15.14271,-19.806553 1.09716,-7.0290912 -0.81726,-14.48182563 -5.27845,-20.0400314 -4.52686,-5.8094736 -11.62412,-9.5084066 -18.983187,-9.8691596 -0.980913,-0.05634 -1.964714,-0.05428 -2.946104,-0.0053 z M -18.558594,-2.4355469 c 1.049447,-0.016474 1.97894,0.087428 3.027344,0.3164063 1.45279,0.3362668 3.044579,1.0021215 4.359268,1.87286577 3.6242744,2.31946393 6.1437898,6.37333403 6.3034134,10.70945583 0.3528608,5.776052 -3.2928492,11.643321 -8.7974474,13.59346 -2.370648,0.90465 -5.064663,1.087853 -7.444877,0.638559 -4.395544,-0.734599 -8.224324,-3.873912 -9.960035,-7.956213 -0.618882,-1.403293 -1.016265,-2.99577 -1.138056,-4.506565 -0.201722,-2.171191 0.216471,-4.5931436 1.167538,-6.5899137 2.156846,-4.78061469 7.194928,-8.1792799 12.482852,-8.0780552 z m 112.841797,0 c 5.384211,-0.1223768 10.614417,3.4837068 12.701327,8.4761419 1.25496,3.0183113 1.33073,6.4911 0.2862,9.53117 -1.29341,3.94636 -4.4277,7.274513 -8.392134,8.593935 -2.978993,1.047405 -6.302768,0.99298 -9.196955,-0.0075 C 85.826015,22.848725 82.741044,19.63126 81.417366,15.849636 80.001371,12.03283 80.420701,7.5954269 82.603516,4.1484375 85.07195,0.15054369 89.546363,-2.5024791 94.283203,-2.4355469 Z M 21.517578,50.085938 c 3.011817,-0.02665 6.037586,0.403081 8.84961,1.169921 7.294831,2.021159 13.883723,6.441456 18.403698,12.519465 4.50862,6.041122 6.890197,13.73127 6.654981,21.318744 -0.164026,7.586112 -3.132553,15.152922 -8.109363,20.934802 -4.052005,4.74371 -9.337711,8.35931 -15.279395,10.24457 -9.011608,2.93987 -19.274871,1.95898 -27.4911611,-2.89176 -7.9218879,-4.57591 -13.8443165,-12.39683 -15.9775889,-21.295742 -0.513667,-2.186434 -0.866037,-4.573818 -0.936749,-6.799083 -0.269923,-7.288024 1.816341,-14.698222 6.0806503,-20.703087 5.37026842,-7.735267 14.1457948,-13.105594 23.4713337,-14.214627 1.437783,-0.180414 2.885096,-0.271232 4.333984,-0.283203 z m -72.75,51.142582 c 4.735249,-0.10827 9.315982,2.67321 11.737145,6.60714 2.765192,4.36749 2.547938,10.25924 -0.281639,14.55667 -1.778617,2.85345 -4.739085,4.93658 -7.904725,5.73853 -4.497031,1.19801 -9.804939,-0.0102 -13.123075,-3.44247 -1.827886,-1.77892 -3.114727,-4.1672 -3.695597,-6.53223 -1.124278,-4.2131 0.03896,-8.90101 2.922805,-12.15483 2.559553,-2.9798 6.39378,-4.83451 10.345086,-4.77281 z M 94.283203,136.4707 c 3.404501,-0.0901 6.898697,1.3923 9.412107,3.77344 2.82451,2.59842 4.4566,6.42407 4.29626,10.26591 -0.15141,5.32077 -3.57875,10.4926 -8.616707,12.37415 -4.908545,1.93553 -10.875556,0.88982 -14.602224,-2.88301 -3.701967,-3.58582 -5.177433,-9.26304 -3.48553,-14.15939 0.787886,-2.35268 2.303703,-4.52241 4.105495,-6.05013 2.446559,-2.12631 5.638145,-3.36755 8.890599,-3.32097 z" /></g><style
     type="text/css"
     id="style1">
	.st0{fill:#000000;}
</style></svg>
