<?xml version="1.0" encoding="UTF-8" standalone="no"?>
<!-- Created with Inkscape (http://www.inkscape.org/) -->

<svg
   width="176.57246mm"
   height="182.84966mm"
   viewBox="0 0 176.57246 182.84966"
   version="1.1"
   id="svg1"
   xml:space="preserve"
   xmlns:xlink="http://www.w3.org/1999/xlink"
   xmlns="http://www.w3.org/2000/svg"
   xmlns:svg="http://www.w3.org/2000/svg"><defs
     id="defs1" /><rect
     style="display:none;fill:#dce5e5;fill-opacity:1;stroke:none;stroke-width:4;stroke-linecap:round;stroke-opacity:1"
     id="rect65"
     width="139.93045"
     height="128.97504"
     x="35.598293"
     y="51.345707"
     rx="0.88538885"
     ry="1.0209619" /><g
     id="layer1"
     style="display:none"
     transform="translate(26.634777,32.42273)"><path
       style="display:inline;fill:#7da9a9;fill-opacity:1"
       d="m 45.210135,116.39378 c -3.01805,-1.72133 -5.726722,-3.34631 -6.019271,-3.61106 -0.507008,-0.45884 -0.531906,-0.8055 -0.531906,-7.4057 0,-6.846266 0.0067,-6.930349 0.595312,-7.458033 0.922841,-0.827333 11.223568,-6.70229 11.751312,-6.70229 0.540472,0 11.035479,5.894113 11.928897,6.699402 0.588528,0.530473 0.595313,0.615511 0.595313,7.460921 0,6.26439 -0.04413,6.96281 -0.463021,7.3281 -0.811709,0.70785 -11.533585,6.82207 -11.959839,6.82017 -0.225188,-0.001 -2.878746,-1.41018 -5.896797,-3.13151 z"
       id="path3" /><path
       style="display:inline;fill:#fefefe"
       d="m 48.056737,103.17627 -2.640763,-1.34263 2.8392,-1.42432 2.839201,-1.42432 2.839373,1.42441 2.839373,1.4244 -2.702274,1.35607 c -1.486251,0.74583 -2.853266,1.34998 -3.037811,1.34254 -0.184545,-0.007 -1.52388,-0.61771 -2.976299,-1.35615 z"
       id="path9" /><path
       style="display:inline;fill:#eaf4f4;fill-opacity:1;stroke-width:0.988001"
       d="m 51.033035,104.53242 2.79546,-1.31688 2.944626,-1.38173 -0.03907,3.56233 v 3.64814 l -2.827433,1.45266 -2.827434,1.45266 c -0.09728,-2.47215 -0.06705,-4.94419 -0.04615,-7.41718 z"
       id="path8" /><path
       style="display:inline;fill:#cce8e8;fill-opacity:1;stroke-width:0.979796"
       d="m 47.9775,110.45563 -2.6035,-1.36769 v -3.64617 l 0.04197,-3.60813 2.752026,1.4216 2.865036,1.27718 0.04615,7.41718 c -0.104775,-0.008 -1.669763,-0.74174 -3.101688,-1.49397 z"
       id="path6" /><path
       style="display:none;fill:#050505"
       d="m 122.41818,120.61553 c -0.0797,-0.12898 0.0918,-0.29643 0.38126,-0.37211 0.66406,-0.17365 0.66209,-0.61996 -0.01,-2.18703 -0.2947,-0.6875 -0.48121,-1.30461 -0.41448,-1.37134 0.2521,-0.2521 0.65132,0.23104 0.81801,0.98998 0.19436,0.88495 0.60223,1.27036 0.78776,0.74437 0.50629,-1.43535 0.74718,-1.89019 0.85189,-1.60856 0.17592,0.47314 -0.92865,3.3191 -1.43932,3.70846 -0.51234,0.39064 -0.77738,0.41678 -0.97549,0.0962 z m -20.5238,-2.25074 c 0,-0.86262 -0.11939,-1.20831 -0.46302,-1.3407 -0.44098,-0.1699 -0.44098,-0.19078 0,-0.43833 0.25466,-0.14297 0.46302,-0.41988 0.46302,-0.61536 0,-0.47151 0.80983,-0.76637 1.15549,-0.42071 0.18795,0.18795 0.13284,0.27326 -0.17654,0.27326 -0.24738,0 -0.44979,0.17859 -0.44979,0.39687 0,0.21828 0.14288,0.39688 0.3175,0.39688 0.24695,0 0.24695,0.0706 0,0.3175 -0.17462,0.17462 -0.3175,0.82946 -0.3175,1.4552 0,0.62574 -0.11906,1.13771 -0.26458,1.13771 -0.14552,0 -0.26458,-0.52304 -0.26458,-1.16232 z m 1.905,0.84482 c -0.17463,-0.17462 -0.3175,-0.68659 -0.3175,-1.13771 0,-1.0045 0.41341,-1.4552 1.33482,-1.4552 0.80975,0 1.57559,0.72967 1.57559,1.50118 0,1.11431 -1.80876,1.87588 -2.59291,1.09173 z m 1.7682,-0.53253 c 0.27559,-0.74499 0.0936,-1.45056 -0.42552,-1.64977 -0.89802,-0.3446 -1.5467,1.18454 -0.81352,1.91772 0.48878,0.48877 1.00001,0.37822 1.23904,-0.26795 z m 1.61846,-0.56231 v -1.41233 l 0.92604,-0.0348 c 1.01603,-0.0382 1.28552,0.39039 0.33073,0.52599 -0.49488,0.0703 -0.60903,0.27424 -0.67667,1.20902 -0.11703,1.61759 -0.5801,1.3878 -0.5801,-0.28786 z m 2.48761,1.04329 c -0.0779,-0.20298 -0.10392,-0.82805 -0.0578,-1.38906 l 0.0838,-1.02001 h 2.11667 2.11667 l 0.0809,1.41603 c 0.10186,1.78278 -0.54109,1.79892 -0.74237,0.0186 -0.091,-0.80489 -0.25616,-1.17008 -0.52917,-1.17008 -0.28655,0 -0.41948,0.35407 -0.47821,1.27376 -0.10273,1.60885 -0.6588,1.5406 -0.8447,-0.10368 -0.091,-0.80489 -0.25616,-1.17008 -0.52917,-1.17008 -0.28576,0 -0.41945,0.35187 -0.47752,1.25677 -0.0777,1.21144 -0.44536,1.65303 -0.73904,0.88772 z m 5.61537,-0.0324 c -0.91155,-0.91156 -0.25887,-2.50893 1.02515,-2.50893 0.69922,0 1.53105,0.69615 1.38031,1.15519 -0.0542,0.16501 -0.5958,0.33665 -1.20358,0.38143 -1.00273,0.0739 -1.07958,0.129 -0.83002,0.59531 0.31332,0.58544 1.04232,0.67106 1.55949,0.18317 0.28292,-0.26691 0.32749,-0.25414 0.23097,0.0662 -0.17018,0.56476 -1.63853,0.65147 -2.16232,0.12768 z m 1.63624,-1.64904 c -0.049,-0.25466 -0.32404,-0.46302 -0.61109,-0.46302 -0.28706,0 -0.56205,0.20836 -0.61109,0.46302 -0.0668,0.3468 0.0866,0.46302 0.61109,0.46302 0.52449,0 0.67788,-0.11622 0.61109,-0.46302 z m 1.63787,0.63818 v -1.41233 l 0.92604,-0.0348 c 1.01603,-0.0382 1.28551,0.39039 0.33073,0.52599 -0.49489,0.0703 -0.60904,0.27424 -0.67667,1.20902 -0.11704,1.61759 -0.5801,1.3878 -0.5801,-0.28786 z m 2.4358,-0.61226 c 0.0979,-2.61424 0.60691,-2.65447 0.60691,-0.048 0,1.31602 -0.10474,1.9311 -0.34233,2.01029 -0.26487,0.0883 -0.32474,-0.3557 -0.26458,-1.96232 z m 6.35,0 c 0.0832,-2.22154 0.5516,-2.84738 0.68975,-0.92153 l 0.0829,1.15491 0.64371,-0.60474 c 0.73747,-0.69281 1.10646,-0.55665 0.6167,0.22758 -0.27392,0.43862 -0.25085,0.65031 0.1351,1.23934 0.62595,0.95532 0.25584,1.25308 -0.41421,0.33325 -0.63845,-0.87646 -0.94936,-0.92109 -1.06245,-0.15254 -0.0465,0.31603 -0.23859,0.62534 -0.42687,0.68738 -0.26479,0.0872 -0.32472,-0.35755 -0.26458,-1.96365 z m 3.38503,0.61275 v -1.41185 l 1.25677,0.0228 1.25677,0.0228 0.08,1.38906 c 0.0487,0.84631 -0.0288,1.38906 -0.19843,1.38906 -0.15313,0 -0.27841,-0.46167 -0.27841,-1.02593 0,-1.31348 -0.66628,-1.98486 -1.21926,-1.22861 -0.20253,0.27698 -0.36824,0.89756 -0.36824,1.37907 0,0.48151 -0.11907,0.87547 -0.26459,0.87547 -0.14552,0 -0.26458,-0.63533 -0.26458,-1.41185 z m 3.85536,0.99608 c -0.8987,-0.89869 -0.23372,-2.49464 1.03943,-2.49464 1.20631,0 1.80953,1.22482 1.18132,2.39864 -0.33721,0.63008 -1.63075,0.686 -2.22075,0.096 z m 1.64797,-0.16631 c 0.65765,-0.65765 0.20311,-2.06375 -0.66713,-2.06375 -0.57459,0 -0.97161,1.16308 -0.62078,1.81861 0.3371,0.62988 0.81266,0.7204 1.28791,0.24514 z m 1.92801,-0.50379 c -0.17893,-0.59723 -0.38911,-1.25207 -0.46706,-1.45521 -0.0779,-0.20313 -0.0145,-0.36933 0.14096,-0.36933 0.15549,0 0.42295,0.50601 0.59438,1.12447 l 0.31167,1.12448 0.34805,-0.79375 c 0.19142,-0.43656 0.35341,-0.94257 0.35998,-1.12448 0.0167,-0.46368 0.80568,-0.41578 0.80568,0.0489 0,0.2088 0.13648,0.71482 0.3033,1.12448 l 0.30329,0.74482 0.31154,-1.04279 c 0.17134,-0.57353 0.4472,-1.08801 0.61302,-1.14328 0.19288,-0.0643 0.13097,0.40118 -0.17183,1.29199 -0.26033,0.76588 -0.60187,1.43535 -0.75899,1.48772 -0.15711,0.0524 -0.42559,-0.32876 -0.59661,-0.84695 -0.35565,-1.07762 -0.65821,-1.0383 -0.88897,0.11552 -0.2265,1.13246 -0.82583,0.99031 -1.20841,-0.28662 z m 4.47491,-0.32598 v -1.41185 l 1.25677,0.0228 1.25677,0.0228 0.08,1.38906 c 0.0487,0.84631 -0.0288,1.38906 -0.19844,1.38906 -0.15387,0 -0.27841,-0.53633 -0.27841,-1.19893 0,-0.84449 -0.12259,-1.24597 -0.41466,-1.35805 -0.59485,-0.22826 -0.92887,0.2186 -1.09627,1.46661 -0.209,1.55819 -0.60574,1.34763 -0.60574,-0.32148 z m 5.1917,1.22369 c -0.0905,-0.0905 -0.16462,-0.37831 -0.16462,-0.63949 0,-0.33139 0.32495,-0.56237 1.07545,-0.76446 0.63205,-0.17019 1.03008,-0.41984 0.96541,-0.60551 -0.1226,-0.35198 -0.83951,-0.36837 -1.64398,-0.0376 -0.47657,0.19596 -0.49197,0.17189 -0.15494,-0.2422 0.25769,-0.31661 0.66966,-0.43503 1.32292,-0.38027 0.93089,0.078 0.95119,0.10436 1.08215,1.40306 l 0.13345,1.32354 -1.22561,0.0537 c -0.67409,0.0296 -1.29969,-0.0203 -1.39023,-0.11086 z m 1.63455,-0.39392 c 0.49037,-0.49037 0.37936,-0.74083 -0.32834,-0.74083 -0.69689,0 -1.07236,0.36822 -0.80937,0.79375 0.22135,0.35815 0.75129,0.3335 1.13771,-0.0529 z m 1.905,0.18521 c -0.2077,-0.25027 -0.22544,-0.39688 -0.048,-0.39688 0.15475,0 0.35495,0.11906 0.44489,0.26459 0.0899,0.14552 0.40335,0.26458 0.69647,0.26458 0.73374,0 0.54011,-0.89977 -0.21694,-1.00807 -0.85038,-0.12166 -1.28941,-0.74326 -0.87641,-1.24089 0.37852,-0.45609 1.73603,-0.53412 1.99526,-0.11469 0.2862,0.46309 -0.0532,0.57223 -0.63997,0.20579 -0.42699,-0.26665 -0.61871,-0.27205 -0.86636,-0.0244 -0.24766,0.24765 -0.10675,0.40631 0.63676,0.71697 1.15075,0.48081 1.40693,0.83181 0.98136,1.34459 -0.41666,0.50204 -1.68657,0.49506 -2.10705,-0.0116 z m 4.7686,-0.12089 c -0.73049,-1.36494 -0.0394,-2.5713 1.31747,-2.29992 0.71017,0.14203 0.7931,0.0902 0.7931,-0.49622 0,-0.36017 0.11906,-0.65485 0.26458,-0.65485 0.15217,0 0.26458,0.81867 0.26458,1.92683 v 1.92684 l -1.18452,0.0515 c -0.92861,0.0404 -1.243,-0.0577 -1.45521,-0.45423 z m 1.87888,-0.37481 c 0.35583,-0.78098 -0.1193,-1.82638 -0.77288,-1.70051 -0.63448,0.12219 -1.02988,1.39308 -0.59605,1.91582 0.49312,0.59417 1.03924,0.50827 1.36893,-0.21531 z m 1.5546,-1.13241 c 0,-1.0519 0.11907,-1.98612 0.26459,-2.07606 0.15418,-0.0953 0.26458,0.17144 0.26458,0.63923 0,0.75069 0.0514,0.79246 0.79309,0.64413 1.03153,-0.2063 1.58816,0.27123 1.58816,1.36247 0,1.1121 -0.42751,1.44178 -1.79872,1.3871 l -1.1117,-0.0443 z m 2.06375,1.4429 c 0.74662,-0.74662 0.0803,-2.2607 -0.83959,-1.90772 -0.51734,0.19853 -0.59759,1.84908 -0.0997,2.04999 0.51739,0.20877 0.60088,0.19612 0.93927,-0.14227 z m 2.08139,0.40569 c -0.097,-0.097 -0.17639,-0.60898 -0.17639,-1.1377 0,-0.52873 -0.14287,-1.1042 -0.3175,-1.27882 -0.24694,-0.24695 -0.24694,-0.3175 0,-0.3175 0.17463,0 0.3175,-0.23813 0.3175,-0.52917 0,-0.29104 0.11907,-0.52917 0.26459,-0.52917 0.14552,0 0.26458,0.23813 0.26458,0.52917 0,0.29104 0.14288,0.52917 0.3175,0.52917 0.24695,0 0.24695,0.0706 0,0.3175 -0.48828,0.48828 -0.39335,1.99327 0.14552,2.30714 0.42124,0.24534 0.41328,0.27041 -0.0882,0.27773 -0.30317,0.004 -0.63059,-0.0713 -0.72761,-0.16835 z m 2.46945,0.0539 c 0,-0.0674 -0.23639,-0.72222 -0.52531,-1.45521 -0.28892,-0.73299 -0.40701,-1.33271 -0.26244,-1.33271 0.14458,0 0.46396,0.50258 0.70975,1.11686 l 0.44688,1.11686 0.48703,-1.11686 c 0.68998,-1.58227 1.09711,-1.39253 0.46314,0.21585 -0.28891,0.73299 -0.5253,1.38783 -0.5253,1.45521 0,0.0674 -0.1786,0.12249 -0.39688,0.12249 -0.21828,0 -0.39687,-0.0551 -0.39687,-0.12249 z m 2.55031,-0.0612 c -0.46274,-0.46274 -0.12754,-1.16074 0.63019,-1.31228 0.93466,-0.18693 1.23464,-0.5447 0.81151,-0.96783 -0.22501,-0.22501 -0.43955,-0.21456 -0.84938,0.0414 -0.30158,0.18834 -0.62258,0.26819 -0.71334,0.17743 -0.25322,-0.25322 0.53286,-0.65682 1.2881,-0.66135 0.95065,-0.006 1.30969,0.46338 1.30969,1.71111 v 1.08017 l -1.15385,0.0502 c -0.63462,0.0276 -1.22993,-0.0259 -1.32292,-0.11884 z m 1.68302,-0.61004 c 0.24776,-0.46294 0.20121,-0.52916 -0.37195,-0.52916 -0.70505,0 -1.08285,0.3663 -0.81867,0.79375 0.27004,0.43694 0.88876,0.29945 1.19062,-0.26459 z m 1.85511,0.40052 c -0.35791,-0.43126 -0.25202,-2.38489 0.12927,-2.38489 0.14552,0 0.3023,0.47625 0.34841,1.05833 0.0461,0.58208 0.18988,1.1664 0.31951,1.29847 0.43986,0.44818 1.05187,-0.40313 1.05187,-1.46316 0,-0.56426 0.11906,-1.02593 0.26458,-1.02593 0.14552,0 0.26458,0.62954 0.26458,1.39898 v 1.39899 l -1.03823,0.0414 c -0.60377,0.0241 -1.16451,-0.11075 -1.33999,-0.32219 z m 3.43656,-1.59114 c 0,-1.14653 0.11171,-1.98438 0.26458,-1.98438 0.15287,0 0.26458,0.83785 0.26458,1.98438 0,1.14653 -0.11171,1.98437 -0.26458,1.98437 -0.15287,0 -0.26458,-0.83784 -0.26458,-1.98437 z m 1.85208,0.84666 c 0,-0.62574 -0.14287,-1.28058 -0.3175,-1.4552 -0.24694,-0.24695 -0.24694,-0.3175 0,-0.3175 0.17463,0 0.3175,-0.23813 0.3175,-0.52917 0,-0.29104 0.11906,-0.52917 0.26458,-0.52917 0.14553,0 0.26459,0.23813 0.26459,0.52917 0,0.29104 0.14287,0.52917 0.3175,0.52917 0.24694,0 0.24694,0.0706 0,0.3175 -0.48828,0.48828 -0.39336,1.99327 0.14552,2.30714 0.39585,0.23056 0.35746,0.27085 -0.26458,0.27773 -0.68219,0.008 -0.72761,-0.063 -0.72761,-1.12967 z m -95.219078,-6.70207 c -1.074796,-0.75282 -1.35384,-1.91059 -1.35384,-5.61716 0,-3.62155 0.04242,-3.74097 1.328942,-3.74097 0.787538,0 0.912372,0.47049 1.052308,3.96608 0.131167,3.27652 0.138377,3.30754 0.847761,3.64664 0.594924,0.28439 0.870577,0.27721 1.636073,-0.0426 1.391431,-0.58138 1.7495,-1.53135 1.7495,-4.6415 0,-2.65146 6.54e-4,-2.65409 0.702409,-2.83022 1.45212,-0.36446 1.546549,-0.0698 1.546549,4.82525 v 4.46908 l -0.992187,0.0821 c -0.909565,0.0753 -0.992188,0.0257 -0.992188,-0.59531 0,-0.77022 -0.304973,-0.8695 -0.808229,-0.26311 -0.960292,1.15708 -3.544054,1.56336 -4.717098,0.74173 z m 12.536786,-0.0931 c -1.585662,-0.78532 -1.816176,-1.32905 -1.936912,-4.56865 -0.09364,-2.51248 -0.161014,-2.84427 -0.577592,-2.84427 -0.993424,0 -0.911736,-1.49555 0.08948,-1.63818 0.482852,-0.0688 0.585712,-0.28144 0.654159,-1.35247 0.08807,-1.378154 0.407326,-1.674438 1.506874,-1.398469 0.592756,0.148773 0.660867,0.300049 0.660867,1.467769 v 1.30191 l 0.992187,0.0821 c 0.8614,0.0713 1.003224,0.17803 1.075908,0.80973 0.07918,0.68818 0.02544,0.7276 -0.992188,0.7276 h -1.075907 v 2.47253 c 0,2.69784 0.194387,3.1034 1.653646,3.4501 0.530563,0.12605 0.727604,0.3363 0.727604,0.77637 0,1.29989 -1.050122,1.56975 -2.778125,0.71392 z m 7.049862,0.24149 c -2.755787,-1.10376 -4.000623,-4.28033 -2.68668,-6.85587 1.82341,-3.57418 7.29879,-3.70204 9.26236,-0.2163 1.10399,1.95983 0.75068,4.47035 -0.83787,5.95357 -1.33244,1.24409 -4.0848,1.78067 -5.73781,1.1186 z m 3.25154,-1.82698 c 1.07931,-0.41035 1.788,-1.77704 1.64536,-3.17301 -0.3329,-3.25805 -4.9982,-3.69843 -5.69688,-0.53775 -0.57737,2.61196 1.62826,4.63208 4.05152,3.71076 z m 23.72668,1.74084 c -1.44643,-0.80169 -1.77246,-2.7947 -0.67127,-4.10339 0.70789,-0.84127 1.66154,-1.19791 4.01558,-1.50171 1.58102,-0.20403 1.75107,-0.56689 0.73964,-1.57832 -0.7648,-0.7648 -1.04104,-0.78786 -2.69831,-0.2252 -1.17581,0.3992 -1.27005,0.39622 -1.59674,-0.0506 -0.56441,-0.77187 -0.40637,-1.16969 0.63803,-1.60606 1.32505,-0.55365 3.69124,-0.55133 4.76499,0.005 1.41905,0.7348 1.65812,1.53936 1.65812,5.58022 v 3.58502 H 134.835 c -0.74027,0 -0.92604,-0.10303 -0.92604,-0.51356 0,-0.28245 -0.11906,-0.58713 -0.26458,-0.67707 -0.14552,-0.0899 -0.26459,-0.0357 -0.26459,0.12057 0,0.15624 -0.38695,0.52001 -0.85989,0.80837 -0.98712,0.60186 -2.67392,0.67526 -3.6089,0.15704 z m 3.57793,-1.68717 c 1.12569,-0.91185 1.58598,-2.70881 0.69243,-2.70319 -1.85861,0.0117 -3.50573,0.82319 -3.50573,1.72719 0,0.58889 0.98452,1.44563 1.65364,1.43902 0.32742,-0.003 0.84927,-0.2116 1.15966,-0.46302 z m 8.11831,1.54826 c -1.58171,-0.72676 -1.93578,-1.5763 -1.93578,-4.64464 0,-2.4769 -0.0151,-2.53898 -0.6798,-2.7917 -0.87243,-0.33169 -0.81325,-1.40528 0.0845,-1.53278 0.51215,-0.0727 0.59531,-0.24377 0.59531,-1.22437 0,-1.27689 0.44233,-1.820096 1.3745,-1.687951 0.52217,0.07402 0.6289,0.276701 0.74217,1.409371 0.13173,1.31734 0.13675,1.32348 1.19062,1.45521 0.91722,0.11465 1.05834,0.22049 1.05834,0.79375 0,0.57326 -0.14112,0.6791 -1.05834,0.79375 l -1.05833,0.13229 0.006,2.29385 c 0.006,2.47388 0.36659,3.27834 1.54308,3.44606 0.45698,0.0651 0.56769,0.26152 0.56769,1.00697 0,0.79368 -0.0945,0.93553 -0.66146,0.99242 -0.3638,0.0365 -1.15958,-0.16249 -1.76839,-0.44223 z m 6.66318,0.0921 c -1.94145,-1.00973 -2.78077,-2.42243 -2.77377,-4.66865 0.005,-1.57105 0.74061,-3.13415 1.86878,-3.97037 1.56246,-1.15812 4.0959,-1.12968 5.61215,0.063 0.77906,0.61281 1.59749,2.5471 1.46729,3.46778 -0.0872,0.61655 -0.15173,0.63096 -3.13174,0.69926 -3.78914,0.0868 -3.7634,0.0783 -3.39543,1.13381 0.56328,1.61584 2.7804,2.30761 4.51725,1.40945 0.79618,-0.41172 0.85045,-0.40564 1.29651,0.14522 0.62159,0.76763 0.39751,1.21734 -0.85661,1.71914 -1.33149,0.53275 -3.5814,0.53342 -4.60443,0.001 z m 3.83646,-6.1985 c 0,-1.51727 -2.38139,-2.14058 -3.5839,-0.93807 -1.18634,1.18634 -0.90544,1.46723 1.46723,1.46723 1.94028,0 2.11667,-0.0441 2.11667,-0.52916 z m -82.814588,5.90142 c 0,-0.45107 3.815756,-11.452642 4.272191,-12.317569 0.29097,-0.551376 2.134948,-0.647679 2.533091,-0.132292 0.520094,0.67325 4.551302,12.495601 4.334649,12.712261 -0.1236,0.12359 -0.626819,0.18628 -1.118266,0.1393 -0.831711,-0.0795 -0.932374,-0.19526 -1.454762,-1.67292 l -0.561222,-1.5875 -2.390574,-0.0757 -2.390574,-0.0757 -0.575505,1.72939 -0.575505,1.7294 h -1.036761 c -0.798286,0 -1.036762,-0.10319 -1.036762,-0.44858 z m 7.287224,-5.30611 c -0.09775,-0.25466 -0.494894,-1.50482 -0.882546,-2.77813 -0.643795,-2.11465 -1.113011,-2.92333 -1.113011,-1.91824 0,0.21828 -0.344598,1.46843 -0.765773,2.77813 l -0.765772,2.38126 h 1.852413 c 1.655519,0 1.833523,-0.0492 1.674689,-0.46302 z m 35.635314,1.05833 0.0722,-4.69635 h 0.92605 c 0.81354,0 0.93621,0.0884 1.00976,0.7276 0.046,0.40018 0.12275,0.72761 0.17045,0.72761 0.0477,0 0.45227,-0.34146 0.89903,-0.75879 1.41771,-1.32435 3.28414,-1.31646 4.40754,0.0186 l 0.66014,0.78454 0.80038,-0.67348 c 1.64532,-1.38444 3.91089,-1.37881 5.00525,0.0124 0.49008,0.62305 0.5412,1.05951 0.5412,4.6211 v 3.93307 h -1.05834 -1.05833 v -3.24842 c 0,-3.53432 -0.28395,-4.4245 -1.41134,-4.4245 -0.72071,0 -1.64899,0.62407 -2.08638,1.40263 -0.17975,0.31996 -0.38903,1.8319 -0.46507,3.35987 l -0.13825,2.77812 -0.8983,0.0858 c -0.54024,0.0516 -0.98683,-0.0539 -1.12043,-0.26459 -0.12217,-0.19269 -0.22395,-1.81142 -0.22618,-3.59717 -0.004,-3.18888 -0.0156,-3.2521 -0.65359,-3.54277 -0.49163,-0.224 -0.84843,-0.21356 -1.46768,0.0429 -1.26486,0.52393 -1.67667,1.59716 -1.80193,4.69613 l -0.10962,2.71198 h -1.03443 -1.03443 z"
       id="path1" /><path
       d="m 77.102914,106.73435 -1.6764,-4.58152 c -0.08255,-0.2032 -0.168275,-0.4445 -0.257175,-0.7239 -0.0889,-0.2794 -0.1778,-0.58103 -0.2667,-0.90488 -0.08255,0.32385 -0.168275,0.62865 -0.257175,0.9144 -0.0889,0.2794 -0.174625,0.52388 -0.257175,0.73343 l -1.666874,4.56247 z m 4.524375,5.20065 h -1.9812 c -0.22225,0 -0.403225,-0.054 -0.542925,-0.16192 -0.1397,-0.1143 -0.244475,-0.254 -0.314325,-0.4191 l -1.0287,-2.80988 h -5.705474 l -1.0287,2.80988 c -0.0508,0.14605 -0.149225,0.2794 -0.295275,0.40005 -0.14605,0.12065 -0.327025,0.18097 -0.542925,0.18097 h -2.00025 L 73.60724,98.161848 h 2.609849 z m 9.25831,-9.77265 v 9.77265 h -1.438275 c -0.31115,0 -0.508,-0.14287 -0.59055,-0.42862 l -0.161925,-0.78105 c -0.40005,0.4064 -0.841375,0.7366 -1.323975,0.9906 -0.4826,0.24765 -1.050925,0.37147 -1.704975,0.37147 -0.5334,0 -1.006475,-0.0889 -1.419224,-0.2667 -0.4064,-0.18415 -0.7493,-0.44132 -1.0287,-0.77152 -0.2794,-0.3302 -0.492125,-0.72073 -0.638175,-1.17158 -0.1397,-0.4572 -0.20955,-0.95885 -0.20955,-1.50495 v -6.2103 h 2.352674 v 6.2103 c 0,0.5969 0.136525,1.06045 0.409575,1.39065 0.2794,0.32385 0.695325,0.48578 1.247775,0.48578 0.4064,0 0.7874,-0.0889 1.143,-0.2667 0.3556,-0.18415 0.69215,-0.43498 1.00965,-0.75248 v -7.06755 z m 5.581635,9.92505 c -0.8509,0 -1.50495,-0.23812 -1.96215,-0.71437 -0.45085,-0.4826 -0.676275,-1.14618 -0.676275,-1.99073 v -5.45782 h -1.000125 c -0.127,0 -0.23495,-0.0413 -0.32385,-0.12383 -0.0889,-0.0825 -0.13335,-0.20637 -0.13335,-0.37147 v -0.93345 l 1.571625,-0.25718 0.4953,-2.667002 c 0.03175,-0.127 0.09208,-0.225425 0.180975,-0.295275 0.0889,-0.06985 0.2032,-0.104775 0.3429,-0.104775 h 1.2192 v 3.076582 h 2.60985 v 1.6764 h -2.60985 v 5.2959 c 0,0.3048 0.07303,0.54292 0.219075,0.71437 0.1524,0.17145 0.358775,0.25718 0.619125,0.25718 0.14605,0 0.2667,-0.0159 0.36195,-0.0476 0.1016,-0.0381 0.187325,-0.0762 0.257175,-0.1143 0.0762,-0.0381 0.142875,-0.073 0.200025,-0.10477 0.05715,-0.0381 0.114297,-0.0572 0.17145,-0.0572 0.06985,0 0.127,0.0191 0.17145,0.0572 0.04445,0.0317 0.09207,0.0825 0.142875,0.1524 l 0.70485,1.143 c -0.3429,0.28575 -0.7366,0.50165 -1.1811,0.6477 -0.4445,0.14605 -0.904875,0.21907 -1.381125,0.21907 z m 8.077196,-10.07745 c 0.7239,0 1.38113,0.11748 1.97168,0.35243 0.5969,0.23495 1.1049,0.56832 1.524,1.00012 0.42545,0.4318 0.75247,0.95885 0.98107,1.58115 0.2286,0.6223 0.3429,1.31763 0.3429,2.08598 0,0.7747 -0.1143,1.4732 -0.3429,2.0955 -0.2286,0.6223 -0.55562,1.15252 -0.98107,1.59067 -0.4191,0.43815 -0.9271,0.7747 -1.524,1.00965 -0.59055,0.23495 -1.24778,0.35243 -1.97168,0.35243 -0.73025,0 -1.39382,-0.11748 -1.99072,-0.35243 -0.5969,-0.23495 -1.10808,-0.5715 -1.53353,-1.00965 -0.4191,-0.43815 -0.74612,-0.96837 -0.98107,-1.59067 -0.228601,-0.6223 -0.342902,-1.3208 -0.342902,-2.0955 0,-0.76835 0.114301,-1.46368 0.342902,-2.08598 0.23495,-0.6223 0.56197,-1.14935 0.98107,-1.58115 0.42545,-0.4318 0.93663,-0.76517 1.53353,-1.00012 0.5969,-0.23495 1.26047,-0.35243 1.99072,-0.35243 z m 0,8.25818 c 0.8128,0 1.41288,-0.27305 1.80023,-0.81915 0.3937,-0.5461 0.59055,-1.3462 0.59055,-2.4003 0,-1.0541 -0.19685,-1.85738 -0.59055,-2.40983 -0.38735,-0.55245 -0.98743,-0.82867 -1.80023,-0.82867 -0.8255,0 -1.43827,0.2794 -1.83832,0.8382 -0.3937,0.55245 -0.59055,1.35255 -0.59055,2.4003 0,1.04775 0.19685,1.84785 0.59055,2.4003 0.40005,0.5461 1.01282,0.81915 1.83832,0.81915 z m 6.61986,1.66687 v -9.77265 h 1.43828 c 0.3048,0 0.50482,0.14288 0.60007,0.42863 l 0.1524,0.7239 c 0.17145,-0.1905 0.34925,-0.36513 0.5334,-0.52388 0.1905,-0.15875 0.39053,-0.29527 0.60008,-0.40957 0.2159,-0.1143 0.4445,-0.2032 0.6858,-0.2667 0.24765,-0.0699 0.51752,-0.10478 0.80962,-0.10478 0.61595,0 1.12078,0.16828 1.51448,0.50483 0.40005,0.3302 0.6985,0.77152 0.89535,1.32397 0.1524,-0.32385 0.3429,-0.60007 0.5715,-0.82867 0.2286,-0.23495 0.47942,-0.42545 0.75247,-0.5715 0.27305,-0.14605 0.56198,-0.254 0.86678,-0.32385 0.31115,-0.0699 0.6223,-0.10478 0.93345,-0.10478 0.53975,0 1.01917,0.0825 1.43827,0.24765 0.4191,0.1651 0.77153,0.4064 1.05728,0.7239 0.28575,0.3175 0.50165,0.70485 0.6477,1.16205 0.1524,0.4572 0.2286,0.98108 0.2286,1.57163 v 6.21982 h -2.35268 v -6.21982 c 0,-0.6223 -0.13652,-1.08903 -0.40957,-1.40018 -0.27305,-0.3175 -0.6731,-0.47625 -1.20015,-0.47625 -0.2413,0 -0.46673,0.0413 -0.67628,0.12383 -0.2032,0.0826 -0.38417,0.2032 -0.54292,0.36195 -0.1524,0.1524 -0.27305,0.34607 -0.36195,0.58102 -0.0889,0.23495 -0.13335,0.50483 -0.13335,0.80963 v 6.21982 h -2.3622 v -6.21982 c 0,-0.65405 -0.13335,-1.1303 -0.40005,-1.42875 -0.26035,-0.29845 -0.64453,-0.44768 -1.15253,-0.44768 -0.3429,0 -0.66357,0.0857 -0.96202,0.25718 -0.2921,0.1651 -0.56515,0.3937 -0.81915,0.6858 v 7.15327 z m 21.11692,-4.17195 c -0.67945,0.0317 -1.25095,0.0921 -1.7145,0.18098 -0.46355,0.0825 -0.83503,0.1905 -1.11443,0.32385 -0.2794,0.13335 -0.47942,0.28892 -0.60007,0.46672 -0.12065,0.1778 -0.18098,0.37148 -0.18098,0.58103 0,0.41275 0.12065,0.70802 0.36195,0.88582 0.24765,0.1778 0.56833,0.2667 0.96203,0.2667 0.4826,0 0.89852,-0.0857 1.24777,-0.25717 0.3556,-0.1778 0.70168,-0.4445 1.03823,-0.8001 z m -5.39115,-4.23862 c 1.12395,-1.0287 2.4765,-1.54305 4.05765,-1.54305 0.5715,0 1.08267,0.0953 1.53352,0.28575 0.45085,0.18415 0.83185,0.4445 1.143,0.78105 0.31115,0.3302 0.5461,0.72707 0.70485,1.19062 0.1651,0.46355 0.24765,0.97155 0.24765,1.524 v 6.1722 h -1.0668 c -0.22225,0 -0.3937,-0.0317 -0.51435,-0.0952 -0.12065,-0.0699 -0.2159,-0.20637 -0.28575,-0.40957 l -0.20955,-0.70485 c -0.24765,0.22225 -0.48895,0.4191 -0.7239,0.59055 -0.23495,0.1651 -0.47942,0.3048 -0.73342,0.4191 -0.254,0.1143 -0.52705,0.20002 -0.81915,0.25717 -0.28575,0.0635 -0.60325,0.0952 -0.9525,0.0952 -0.41275,0 -0.79375,-0.054 -1.143,-0.16192 -0.34925,-0.1143 -0.65088,-0.28258 -0.90488,-0.50483 -0.254,-0.22225 -0.45085,-0.49847 -0.59055,-0.82867 -0.1397,-0.3302 -0.20955,-0.71438 -0.20955,-1.15253 0,-0.24765 0.0413,-0.49212 0.12383,-0.73342 0.0825,-0.24765 0.2159,-0.4826 0.40005,-0.70485 0.1905,-0.22225 0.43497,-0.4318 0.73342,-0.62865 0.29845,-0.19685 0.66358,-0.3683 1.09538,-0.51435 0.43815,-0.14605 0.94615,-0.26353 1.524,-0.35243 0.57785,-0.0952 1.23825,-0.1524 1.9812,-0.17145 v -0.5715 c 0,-0.65405 -0.1397,-1.13665 -0.4191,-1.4478 -0.2794,-0.3175 -0.68263,-0.47625 -1.20968,-0.47625 -0.381,0 -0.6985,0.0444 -0.9525,0.13335 -0.24765,0.0889 -0.46672,0.1905 -0.65722,0.3048 -0.1905,0.10795 -0.36513,0.20638 -0.52388,0.29528 -0.1524,0.0889 -0.32385,0.13335 -0.51435,0.13335 -0.1651,0 -0.3048,-0.0413 -0.4191,-0.12383 -0.1143,-0.0889 -0.20637,-0.1905 -0.27622,-0.3048 z m 13.02067,8.56297 c -0.8509,0 -1.50495,-0.23812 -1.96215,-0.71437 -0.45085,-0.4826 -0.67628,-1.14618 -0.67628,-1.99073 v -5.45782 h -1.00012 c -0.127,0 -0.23495,-0.0413 -0.32385,-0.12383 -0.0889,-0.0825 -0.13335,-0.20637 -0.13335,-0.37147 v -0.93345 l 1.57162,-0.25718 0.4953,-2.667002 c 0.0317,-0.127 0.0921,-0.225425 0.18098,-0.295275 0.0889,-0.06985 0.2032,-0.104775 0.3429,-0.104775 h 1.2192 v 3.076582 h 2.60985 v 1.6764 h -2.60985 v 5.2959 c 0,0.3048 0.073,0.54292 0.21907,0.71437 0.1524,0.17145 0.35878,0.25718 0.61913,0.25718 0.14605,0 0.2667,-0.0159 0.36195,-0.0476 0.1016,-0.0381 0.18732,-0.0762 0.25717,-0.1143 0.0762,-0.0381 0.14288,-0.073 0.20003,-0.10477 0.0571,-0.0381 0.11428,-0.0572 0.17145,-0.0572 0.0699,0 0.127,0.0191 0.17145,0.0572 0.0445,0.0317 0.0921,0.0825 0.14287,0.1524 l 0.70485,1.143 c -0.3429,0.28575 -0.7366,0.50165 -1.1811,0.6477 -0.4445,0.14605 -0.90487,0.21907 -1.38112,0.21907 z m 10.04887,-6.16267 c 0,-0.3048 -0.0444,-0.59055 -0.13335,-0.85725 -0.0825,-0.27305 -0.20955,-0.51118 -0.381,-0.71438 -0.17145,-0.2032 -0.39052,-0.36195 -0.65722,-0.47625 -0.26035,-0.12065 -0.56515,-0.18097 -0.9144,-0.18097 -0.67945,0 -1.21603,0.19367 -1.60973,0.58102 -0.38735,0.38735 -0.635,0.93663 -0.74295,1.64783 z m -4.48627,1.41922 c 0.0381,0.50165 0.12703,0.93663 0.2667,1.30493 0.1397,0.36195 0.32385,0.66357 0.55245,0.90487 0.2286,0.23495 0.49847,0.41275 0.80962,0.5334 0.3175,0.1143 0.66675,0.17145 1.04775,0.17145 0.381,0 0.70803,-0.0444 0.98108,-0.13335 0.2794,-0.0889 0.5207,-0.18732 0.7239,-0.29527 0.20955,-0.10795 0.39052,-0.20638 0.54292,-0.29528 0.15875,-0.0889 0.31115,-0.13335 0.4572,-0.13335 0.19685,0 0.3429,0.073 0.43815,0.21908 l 0.67628,0.85725 c -0.26035,0.3048 -0.55245,0.56197 -0.8763,0.77152 -0.32385,0.2032 -0.66358,0.3683 -1.01918,0.4953 -0.34925,0.12065 -0.70802,0.20638 -1.07632,0.25718 -0.36195,0.0508 -0.71438,0.0762 -1.05728,0.0762 -0.67945,0 -1.31127,-0.11113 -1.89547,-0.33338 -0.5842,-0.2286 -1.0922,-0.56197 -1.524,-1.00012 -0.4318,-0.4445 -0.77153,-0.9906 -1.01918,-1.6383 -0.24765,-0.65405 -0.37147,-1.4097 -0.37147,-2.26695 0,-0.66675 0.10795,-1.29223 0.32385,-1.87643 0.2159,-0.59055 0.52387,-1.10172 0.92392,-1.53352 0.4064,-0.43815 0.89853,-0.78423 1.47638,-1.03823 0.5842,-0.254 1.24142,-0.381 1.97167,-0.381 0.61595,0 1.18428,0.0984 1.70498,0.29528 0.5207,0.19685 0.96837,0.48577 1.34302,0.86677 0.37465,0.37465 0.66675,0.8382 0.8763,1.39065 0.2159,0.5461 0.32385,1.17158 0.32385,1.87643 0,0.3556 -0.0381,0.5969 -0.1143,0.7239 -0.0762,0.12065 -0.22225,0.18097 -0.43815,0.18097 z"
       id="text9"
       style="font-weight:bold;font-size:19.05px;font-family:Lato;-inkscape-font-specification:'Lato Bold';display:inline;fill:#809f9f;fill-opacity:1;stroke-width:4;stroke-linecap:round"
       aria-label="AutomateDV" /><text
       xml:space="preserve"
       style="font-style:normal;font-variant:normal;font-weight:bold;font-stretch:normal;font-size:6.35px;font-family:Lato;-inkscape-font-specification:'Lato Bold';text-align:start;writing-mode:lr-tb;direction:ltr;text-anchor:start;fill:#809f9f;fill-opacity:1;stroke-width:4;stroke-linecap:round"
       x="101.36442"
       y="119.77246"
       id="text10"><tspan
         id="tspan9"
         style="font-size:6.35px;fill:#809f9f;fill-opacity:1;stroke-width:4"
         x="101.36442"
         y="119.77246">formerly known as dbtvault</tspan></text></g><g
     id="layer2"
     style="display:none"
     transform="translate(26.634777,32.42273)"><circle
       style="fill:none;fill-opacity:1;stroke:#00aaaa;stroke-width:7.15829;stroke-linecap:round;stroke-opacity:1"
       id="path10"
       cx="115.4343"
       cy="77.923248"
       r="50.310223" /><circle
       style="fill:none;fill-opacity:1;stroke:#95c4c4;stroke-width:7.15829;stroke-linecap:round;stroke-opacity:1"
       id="path10-6"
       cx="-144.22383"
       cy="-127.25873"
       r="50.310223"
       transform="rotate(178.95864)" /><circle
       style="fill:none;fill-opacity:1;stroke:#71baba;stroke-width:7.15829;stroke-linecap:round;stroke-opacity:1"
       id="path10-6-3"
       cx="88.445641"
       cy="124.51521"
       r="50.310223" /><text
       xml:space="preserve"
       style="font-style:normal;font-variant:normal;font-weight:bold;font-stretch:normal;font-size:6.35px;font-family:Lato;-inkscape-font-specification:'Lato Bold';text-align:center;writing-mode:lr-tb;direction:ltr;text-anchor:middle;fill:#dce5e5;fill-opacity:1;stroke:none;stroke-width:4;stroke-linecap:round;stroke-opacity:1"
       id="text11"
       transform="rotate(90,114.52286,78.891384)"><textPath
         xlink:href="#path10"
         startOffset="50%"
         id="textPath11"><tspan
           id="tspan11"
           style="fill:#dce5e5;fill-opacity:1;stroke-width:4">Automated Testing</tspan></textPath></text><text
       xml:space="preserve"
       style="font-style:normal;font-variant:normal;font-weight:bold;font-stretch:normal;font-size:6.35px;font-family:Lato;-inkscape-font-specification:'Lato Bold';text-align:center;writing-mode:lr-tb;direction:ltr;text-anchor:middle;fill:#dce5e5;fill-opacity:1;stroke:none;stroke-width:4;stroke-linecap:round;stroke-opacity:1"
       id="text63"
       transform="translate(2.1166667)"><textPath
         xlink:href="#path10-6-3"
         startOffset="50%"
         id="textPath63"><tspan
           id="tspan63"
           style="stroke-width:4">Executable Specifications</tspan></textPath></text></g><g
     id="layer3"
     style="display:none"
     transform="translate(26.634777,32.42273)"><text
       xml:space="preserve"
       style="font-style:normal;font-variant:normal;font-weight:bold;font-stretch:normal;font-size:9.87778px;font-family:Lato;-inkscape-font-specification:'Lato Bold';text-align:center;writing-mode:lr-tb;direction:ltr;text-anchor:middle;fill:#628b8b;fill-opacity:1;stroke:none;stroke-width:4;stroke-linecap:round;stroke-opacity:1"
       x="41.29734"
       y="51.568783"
       id="text65"><tspan
         id="tspan65"
         style="font-size:9.87778px;fill:#628b8b;fill-opacity:1;stroke:none;stroke-width:4"
         x="42.49749"
         y="51.568783">Given </tspan></text><text
       xml:space="preserve"
       style="font-style:normal;font-variant:normal;font-weight:bold;font-stretch:normal;font-size:9.87778px;font-family:Lato;-inkscape-font-specification:'Lato Bold';text-align:center;writing-mode:lr-tb;direction:ltr;text-anchor:middle;fill:#5e9b9b;fill-opacity:1;stroke:none;stroke-width:4;stroke-linecap:round;stroke-opacity:1"
       x="67.357384"
       y="60.574493"
       id="text65-5"><tspan
         id="tspan65-8"
         style="font-size:9.87778px;fill:#5e9b9b;fill-opacity:1;stroke:none;stroke-width:4"
         x="68.557533"
         y="60.574493">When </tspan></text><text
       xml:space="preserve"
       style="font-style:normal;font-variant:normal;font-weight:bold;font-stretch:normal;font-size:9.87777px;font-family:Lato;-inkscape-font-specification:'Lato Bold';text-align:center;writing-mode:lr-tb;direction:ltr;text-anchor:middle;fill:#7caeae;fill-opacity:1;stroke:none;stroke-width:4;stroke-linecap:round;stroke-opacity:1"
       x="91.698692"
       y="69.575256"
       id="text66"><tspan
         id="tspan66"
         style="fill:#7caeae;fill-opacity:1;stroke-width:4"
         x="91.698692"
         y="69.575256">Then</tspan></text><path
       id="rect66"
       style="baseline-shift:baseline;display:inline;overflow:visible;opacity:1;vector-effect:none;fill:#95c4c4;stroke-width:0.922395;stroke-linecap:round;enable-background:accumulate;stop-color:#000000;stop-opacity:1"
       d="m 39.507934,53.235303 v 4.82683 c 0,1.169461 1.146771,2.145587 2.521293,2.145587 l 6.623835,1.76e-4 -1.61e-4,1.921985 5.42627,-4.474882 h -11.57142 v -4.419696 z" /><path
       id="rect66-7"
       style="baseline-shift:baseline;display:inline;overflow:visible;vector-effect:none;fill:#95c4c4;stroke-width:0.922395;stroke-linecap:round;enable-background:accumulate;stop-color:#000000"
       d="m 66.148316,62.236073 v 4.82683 c 0,1.169461 1.146771,2.145587 2.521293,2.145587 l 6.623835,1.76e-4 -1.61e-4,1.921985 5.42627,-4.474882 h -11.57142 v -4.419696 z" /></g><g
     id="layer4"
     style="fill:#95c4c4;fill-opacity:1;stroke-width:7;stroke-dasharray:none"
     transform="translate(26.634777,32.42273)"><path
       d="M 132.20854,17.354333 57.243258,59.002131 m 0,0 -74.965542,-41.647798 m 74.965542,41.647798 v 83.784719 m 17.638889,-5.38956 -10.786181,5.99193 c -2.501194,1.38995 -3.751792,2.08404 -5.07559,2.35656 -1.172986,0.24165 -2.38125,0.24165 -3.553354,0 -1.324681,-0.27252 -2.575278,-0.96661 -5.076472,-2.35656 L -14.873604,107.1316 c -2.641511,-1.46755 -3.962488,-2.20133 -4.924248,-3.24555 -0.850812,-0.92252 -1.49472,-2.01701 -1.888684,-3.2094 -0.445206,-1.34761 -0.445206,-2.858381 -0.445206,-5.880804 V 23.207798 c 0,-3.021894 0,-4.532841 0.445206,-5.880452 0.393964,-1.192213 1.037872,-2.28653 1.888684,-3.209837 0.96176,-1.043693 2.282648,-1.777471 4.924248,-3.245027 L 50.39055,-25.385224 c 2.501194,-1.389591 3.751791,-2.084387 5.076472,-2.35682 1.172104,-0.241035 2.380368,-0.241035 3.553354,0 1.323798,0.272433 2.574396,0.967229 5.07559,2.35682 l 65.263884,36.257706 c 2.64231,1.467556 3.96258,2.201334 4.92478,3.245027 0.8502,0.923307 1.4949,2.017624 1.88825,3.209837 0.44538,1.347611 0.44538,2.858558 0.44538,5.880452 V 63.411853 M 17.555758,-7.1438786 96.930758,36.953343 M 92.521035,111.9188 110.15992,129.55769 145.4377,94.279908"
       stroke="#000000"
       stroke-width="17.6389"
       stroke-linecap="round"
       stroke-linejoin="round"
       id="path1-2"
       style="fill:none;fill-opacity:1;stroke:#7caeae;stroke-width:9;stroke-dasharray:none;stroke-opacity:1" /></g></svg>
