<?xml version="1.0" encoding="UTF-8" standalone="no"?>
<!-- Created with Inkscape (http://www.inkscape.org/) -->

<svg
   width="99.999992mm"
   height="100mm"
   viewBox="0 0 99.999992 100"
   version="1.1"
   id="svg1"
   xml:space="preserve"
   inkscape:export-filename="phone.svg"
   inkscape:export-xdpi="26.190001"
   inkscape:export-ydpi="26.190001"
   xmlns:inkscape="http://www.inkscape.org/namespaces/inkscape"
   xmlns:sodipodi="http://sodipodi.sourceforge.net/DTD/sodipodi-0.dtd"
   xmlns="http://www.w3.org/2000/svg"
   xmlns:svg="http://www.w3.org/2000/svg"><sodipodi:namedview
     id="namedview1"
     pagecolor="#505050"
     bordercolor="#ffffff"
     borderopacity="1"
     inkscape:showpageshadow="0"
     inkscape:pageopacity="0"
     inkscape:pagecheckerboard="1"
     inkscape:deskcolor="#505050"
     inkscape:document-units="mm"><inkscape:page
       x="0"
       y="0"
       width="99.999992"
       height="100"
       id="page2"
       margin="0"
       bleed="0" /></sodipodi:namedview><defs
     id="defs1"><inkscape:path-effect
       effect="powerclip"
       message=""
       id="path-effect12"
       is_visible="true"
       lpeversion="1"
       inverse="true"
       flatten="false"
       hide_clip="false" /><clipPath
       clipPathUnits="userSpaceOnUse"
       id="clipPath12"><path
         d="m 44.803605,22.93096 2.510787,4.499029 c 2.265897,4.060124 1.356366,9.386321 -2.212512,12.955122 0,0 0,0 0,0 -2.64e-4,5.29e-4 -4.328379,4.329075 3.519747,12.177511 7.845727,7.845727 12.174416,3.52284 12.177512,3.519745 0,0 0,0 0,0 3.568877,-3.568878 8.894918,-4.478409 12.955119,-2.21251 l 4.498914,2.510788 c 6.131118,3.42148 6.854952,12.019282 1.466239,17.408382 -3.238103,3.238103 -7.20507,5.757788 -11.590245,5.923756 C 60.747296,79.992876 48.210769,78.12468 35.635168,65.549079 23.059683,52.973478 21.19141,40.437028 21.471271,33.055044 c 0.166239,-4.385135 2.685846,-8.351986 5.923989,-11.59009 5.388906,-5.388908 13.986748,-4.664841 17.408345,1.466006 z"
         fill="#1c274c"
         id="path12"
         style="display:none;stroke-width:3.86871" /><path
         id="lpe_path-effect12"
         style="stroke-width:3.86871"
         class="powerclip"
         d="M -4.9520264,-3.2103577 H 105.04797 V 106.78964 H -4.9520264 Z M 44.803605,22.93096 C 41.382008,16.800113 32.784166,16.076046 27.39526,21.464954 c -3.238143,3.238104 -5.75775,7.204955 -5.923989,11.59009 -0.279861,7.381984 1.588412,19.918434 14.163897,32.494035 12.575601,12.575601 25.112128,14.443797 32.493998,14.163704 4.385175,-0.165968 8.352142,-2.685653 11.590245,-5.923756 5.388713,-5.3891 4.664879,-13.986902 -1.466239,-17.408382 l -4.498914,-2.510788 c -4.060201,-2.265899 -9.386242,-1.356368 -12.955119,2.21251 0,0 0,0 0,0 -0.0031,0.0031 -4.331785,4.325982 -12.177512,-3.519745 -7.848126,-7.848436 -3.520011,-12.176982 -3.519747,-12.177511 0,0 0,0 0,0 3.568878,-3.568801 4.478409,-8.894998 2.212512,-12.955122 z" /></clipPath></defs><g
     inkscape:label="Layer 1"
     inkscape:groupmode="layer"
     id="layer1"
     transform="translate(-0.04797363,-1.7896424)"><path
       style="fill:#00302f;fill-opacity:1;stroke:none;stroke-width:5.84924;stroke-linecap:round;stroke-linejoin:round;stroke-dasharray:none;stroke-opacity:1;paint-order:markers fill stroke"
       id="path3"
       clip-path="url(#clipPath12)"
       inkscape:export-filename="mail.svg"
       inkscape:export-xdpi="26.190001"
       inkscape:export-ydpi="26.190001"
       inkscape:path-effect="#path-effect12"
       sodipodi:type="arc"
       sodipodi:cx="50.047974"
       sodipodi:cy="51.789642"
       sodipodi:rx="50"
       sodipodi:ry="50"
       d="M 100.04797,51.789642 A 50,50 0 0 1 50.047974,101.78964 50,50 0 0 1 0.04797363,51.789642 50,50 0 0 1 50.047974,1.7896423 50,50 0 0 1 100.04797,51.789642 Z" /></g></svg>
