<?xml version="1.0" encoding="UTF-8" standalone="no"?>
<!-- Created with Inkscape (http://www.inkscape.org/) -->

<svg
   width="126.26679mm"
   height="31.21105mm"
   viewBox="0 0 126.26679 31.21105"
   version="1.1"
   id="svg1"
   xml:space="preserve"
   xmlns="http://www.w3.org/2000/svg"
   xmlns:svg="http://www.w3.org/2000/svg"><defs
     id="defs1" /><g
     id="layer6"
     style="display:inline"
     transform="translate(-50.845357,-98.451)"><path
       id="path46"
       style="fill:#7caeae;fill-opacity:1;stroke-width:0.264583"
       d="m 98.854098,113.9735 c 0,-3.85291 -1.098619,-5.83094 -3.295857,-5.93925 -0.874254,-0.0413 -1.727874,0.098 -2.558288,0.42036 -0.662781,0.23726 -1.108932,0.47195 -1.343615,0.70921 v 9.19641 c 1.405509,0.882 2.653708,1.29204 3.74201,1.22757 2.302973,-0.15216 3.45575,-2.02187 3.45575,-5.6143 z m 2.710442,0.15989 c 0,1.9574 -0.45905,3.58212 -1.3823,4.87415 -1.028988,1.46225 -2.45513,2.21529 -4.278424,2.25656 -1.374563,0.0438 -2.790388,-0.38684 -4.247478,-1.28946 v 8.35827 l -2.35713,-0.84073 v -18.55273 c 0.386837,-0.47452 0.884568,-0.88199 1.488035,-1.22756 1.402932,-0.81752 3.107595,-1.23789 5.113994,-1.25852 l 0.03353,0.0335 c 1.83361,-0.0232 3.246858,0.72983 4.239733,2.25655 0.92584,1.40035 1.39004,3.19528 1.39004,5.38994 z" /><path
       id="path48"
       style="fill:#7caeae;fill-opacity:1;stroke-width:0.264583"
       d="m 115.97037,119.61875 c 0,2.62534 -0.26305,4.44347 -0.78914,5.45441 -0.52868,1.01093 -1.53446,1.81813 -3.01992,2.41902 -1.20435,0.47452 -2.50671,0.73241 -3.90448,0.77626 l -0.38942,-1.48546 c 1.42099,-0.19342 2.42161,-0.38684 3.00186,-0.58026 1.14246,-0.38683 1.92646,-0.97999 2.35713,-1.77429 0.34558,-0.64731 0.51579,-1.88261 0.51579,-3.71106 v -0.61379 c -1.61182,0.73242 -3.30102,1.09604 -5.06757,1.09604 -1.16052,0 -2.18435,-0.36362 -3.06634,-1.09604 -0.9903,-0.79688 -1.48546,-1.80782 -1.48546,-3.0328 v -9.8102 l 2.35714,-0.80721 v 9.87468 c 0,1.05477 0.34041,1.86714 1.02125,2.43708 0.68083,0.56994 1.56282,0.8433 2.64339,0.82267 1.08056,-0.0232 2.2385,-0.441 3.46864,-1.25851 v -11.52003 h 2.35713 z" /><path
       id="path50"
       style="fill:#7caeae;fill-opacity:1;stroke-width:0.264583"
       d="m 125.17195,121.13515 c -0.2811,0.0232 -0.53899,0.0335 -0.77625,0.0335 -1.3333,0 -2.37261,-0.31721 -3.11534,-0.9542 -0.74015,-0.637 -1.11151,-1.51641 -1.11151,-2.63823 v -9.28411 h -1.6144 v -1.48288 h 1.6144 v -3.938 l 2.35455,-0.83815 v 4.77615 h 2.64855 v 1.48288 h -2.64855 v 9.21963 c 0,0.88457 0.23726,1.51125 0.71178,1.87745 0.40747,0.30174 1.05478,0.47453 1.93677,0.51837 z" /><path
       id="path52"
       style="fill:#7caeae;fill-opacity:1;stroke-width:0.264583"
       d="m 139.44368,120.94173 h -2.35713 v -9.09842 c 0,-0.92583 -0.21663,-1.72272 -0.64731,-2.38808 -0.49773,-0.75304 -1.18888,-1.12956 -2.07603,-1.12956 -1.08057,0 -2.43192,0.56994 -4.05405,1.70982 v 10.90624 h -2.35714 V 99.19372 l 2.35714,-0.742727 v 9.905617 c 1.50608,-1.09603 3.15143,-1.64534 4.93862,-1.64534 1.2482,0 2.25913,0.42036 3.03281,1.25851 0.77625,0.83814 1.16309,1.88261 1.16309,3.1308 z" /><path
       id="path54"
       style="fill:#7caeae;fill-opacity:1;stroke-width:0.264583"
       d="m 151.97206,113.60213 c 0,-1.4803 -0.2811,-2.7027 -0.84073,-3.6698 -0.66536,-1.17856 -1.6995,-1.80008 -3.09728,-1.86456 -2.58407,0.14958 -3.87353,2.00125 -3.87353,5.54984 0,1.62729 0.26821,2.98638 0.80978,4.07726 0.69115,1.39004 1.72787,2.07603 3.11017,2.05282 2.59439,-0.0206 3.89159,-2.06829 3.89159,-6.14556 z m 2.5815,0.0155 c 0,2.10697 -0.53899,3.86064 -1.6144,5.26099 -1.18373,1.56798 -2.81876,2.35455 -4.90511,2.35455 -2.06829,0 -3.68011,-0.78657 -4.8432,-2.35455 -1.05478,-1.40035 -1.58088,-3.15402 -1.58088,-5.26099 0,-1.98061 0.56994,-3.64659 1.70982,-5.0031 1.20436,-1.43904 2.78781,-2.16114 4.74521,-2.16114 1.9574,0 3.55117,0.7221 4.77874,2.16114 1.13987,1.35651 1.70982,3.02249 1.70982,5.0031 z" /><path
       id="path56"
       style="fill:#7caeae;fill-opacity:1;stroke-width:0.264583"
       d="m 168.06708,120.94173 h -2.35713 v -9.6142 c 0,-1.05478 -0.3172,-1.87745 -0.95162,-2.47061 -0.63441,-0.59057 -1.48029,-0.87683 -2.53507,-0.85362 -1.11925,0.0206 -2.18435,0.38684 -3.19528,1.09604 v 11.84239 h -2.35713 v -12.13381 c 1.35651,-0.98772 2.60471,-1.63245 3.74458,-1.93418 1.07542,-0.28111 2.02446,-0.42037 2.84198,-0.42037 0.55962,0 1.08572,0.0542 1.58087,0.16247 0.92583,0.21405 1.67887,0.61121 2.25913,1.19404 0.64731,0.64473 0.96967,1.41841 0.96967,2.32361 z" /><path
       style="fill:#000000;fill-opacity:0;stroke:#7caeae;stroke-width:1.3;stroke-dasharray:none;stroke-opacity:1"
       d="m 66.018438,99.280816 c -1.212759,0.0056 -2.370916,0.109066 -3.389974,0.289388 -3.00202,0.530356 -3.54707,1.640446 -3.547071,3.687626 v 2.70372 h 7.094141 v 0.90123 h -7.094141 -2.662369 c -2.061755,0 -3.867087,1.23924 -4.431771,3.59668 -0.651357,2.70218 -0.680248,4.38839 0,7.2099 0.504277,2.10022 1.708558,3.59668 3.770312,3.59668 h 2.439128 v -3.24115 c 0,-2.34154 2.025953,-4.40696 4.431771,-4.40696 h 7.085872 c 1.972456,0 3.547071,-1.62406 3.54707,-3.60495 v -6.75515 c 0,-1.92255 -1.62189,-3.36676 -3.54707,-3.687626 -1.218667,-0.202863 -2.48314,-0.295023 -3.695898,-0.289388 z m -3.836459,2.174544 c 0.732776,0 1.331185,0.60818 1.331185,1.35599 0,0.74516 -0.598409,1.34772 -1.331185,1.34772 -0.735403,0 -1.331185,-0.60256 -1.331185,-1.34772 0,-0.74781 0.595782,-1.35599 1.331185,-1.35599 z"
       id="path1948" /><path
       style="fill:#000000;fill-opacity:0;stroke:#7caeae;stroke-width:1.3;stroke-dasharray:none;stroke-opacity:1"
       d="m 74.146107,106.86278 v 3.1502 c 0,2.4423 -2.070602,4.49791 -4.431771,4.49791 h -7.085872 c -1.940939,0 -3.54707,1.66119 -3.547071,3.60495 v 6.75514 c 0,1.92256 1.671793,3.05338 3.547071,3.60495 2.245606,0.6603 4.399025,0.77963 7.085872,0 1.785978,-0.5171 3.547071,-1.55776 3.54707,-3.60495 v -2.70371 h -7.085872 v -0.90123 h 7.085872 3.547072 c 2.061755,0 2.830049,-1.43812 3.547067,-3.59668 0.740656,-2.22221 0.709142,-4.35922 0,-7.2099 -0.509529,-2.05249 -1.48269,-3.59668 -3.547067,-3.59668 z m -3.985287,17.10697 c 0.735404,0 1.331185,0.60256 1.331185,1.34772 0,0.7478 -0.595782,1.35599 -1.331185,1.35599 -0.732776,0 -1.331185,-0.60819 -1.331185,-1.35599 10e-7,-0.74516 0.598408,-1.34772 1.331185,-1.34772 z"
       id="path1950" /><path
       d="m 172.65723,104.70779 h 0.41326 v -2.59192 h 0.97899 v -0.30894 h -2.37125 v 0.30894 h 0.979 v 2.59192 m 1.75869,0 h 0.35307 v -2.36723 l 0.76635,2.36694 h 0.39309 l 0.79855,-2.35892 v 2.35921 h 0.38518 v -2.90086 h -0.50956 l -0.87268,2.48519 -0.74426,-2.48519 h -0.56974 v 2.90086"
       style="font-style:normal;font-weight:normal;font-size:15.1645px;line-height:125%;font-family:'Bitstream Vera Sans';fill:#7caeae;fill-opacity:1;stroke:none;stroke-width:0.264583px;stroke-linecap:butt;stroke-linejoin:miter;stroke-opacity:1"
       id="text3004" /></g></svg>
