<?xml version="1.0" encoding="UTF-8" standalone="no"?>
<!-- Created with Inkscape (http://www.inkscape.org/) -->

<svg
   width="91mm"
   height="39mm"
   viewBox="0 0 91 39"
   version="1.1"
   id="svg1"
   xmlns="http://www.w3.org/2000/svg"
   xmlns:svg="http://www.w3.org/2000/svg">
  <defs
     id="defs1" />
  <g
     id="layer1"
     transform="translate(-0.5,-0.50000008)">
    <path
       id="rect1"
       style="fill:#7caeae;fill-opacity:1;stroke-width:4.69048;stroke-linecap:round;stroke-linejoin:round;paint-order:markers fill stroke"
       d="M 2.5791032,0.5 H 7.4208968 C 8.57272,0.5 9.5,1.42728 9.5,2.5791032 V 7.4208968 C 9.5,8.57272 8.57272,9.5 7.4208968,9.5 H 2.5791032 C 1.42728,9.5 0.5,8.57272 0.5,7.4208968 V 2.5791032 C 0.5,1.42728 1.42728,0.5 2.5791032,0.5 Z" />
    <path
       id="rect1-7"
       style="fill:#7caeae;fill-opacity:1;stroke-width:4.69048;stroke-linecap:round;stroke-linejoin:round;paint-order:markers fill stroke"
       d="M 2.5791032,10.5 H 7.4208968 C 8.57272,10.5 9.5,11.42728 9.5,12.579103 v 4.841794 C 9.5,18.57272 8.57272,19.5 7.4208968,19.5 H 2.5791032 C 1.42728,19.5 0.5,18.57272 0.5,17.420897 V 12.579103 C 0.5,11.42728 1.42728,10.5 2.5791032,10.5 Z" />
    <path
       id="rect1-7-3"
       style="fill:#7caeae;fill-opacity:1;stroke-width:4.69048;stroke-linecap:round;stroke-linejoin:round;paint-order:markers fill stroke"
       d="m 12.579103,10.5 h 4.841794 C 18.57272,10.5 19.5,11.42728 19.5,12.579103 v 4.841794 C 19.5,18.57272 18.57272,19.5 17.420897,19.5 H 12.579103 C 11.42728,19.5 10.5,18.57272 10.5,17.420897 V 12.579103 C 10.5,11.42728 11.42728,10.5 12.579103,10.5 Z" />
    <path
       id="rect1-4"
       style="fill:#7caeae;fill-opacity:1;stroke-width:4.69048;stroke-linecap:round;stroke-linejoin:round;paint-order:markers fill stroke"
       d="M 2.5791032,20.5 H 7.4208968 C 8.57272,20.5 9.5,21.42728 9.5,22.579103 v 4.841794 C 9.5,28.57272 8.57272,29.5 7.4208968,29.5 H 2.5791032 C 1.42728,29.5 0.5,28.57272 0.5,27.420897 V 22.579103 C 0.5,21.42728 1.42728,20.5 2.5791032,20.5 Z" />
    <path
       id="rect1-7-1"
       style="fill:#7caeae;fill-opacity:1;stroke-width:4.69048;stroke-linecap:round;stroke-linejoin:round;paint-order:markers fill stroke"
       d="M 2.5791032,30.5 H 7.4208968 C 8.57272,30.5 9.5,31.42728 9.5,32.579103 v 4.841794 C 9.5,38.57272 8.57272,39.5 7.4208968,39.5 H 2.5791032 C 1.42728,39.5 0.5,38.57272 0.5,37.420897 V 32.579103 C 0.5,31.42728 1.42728,30.5 2.5791032,30.5 Z" />
    <path
       id="rect1-7-3-8"
       style="fill:#7caeae;fill-opacity:1;stroke-width:4.69048;stroke-linecap:round;stroke-linejoin:round;paint-order:markers fill stroke"
       d="m 12.579103,30.5 h 4.841794 C 18.57272,30.5 19.5,31.42728 19.5,32.579103 v 4.841794 C 19.5,38.57272 18.57272,39.5 17.420897,39.5 H 12.579103 C 11.42728,39.5 10.5,38.57272 10.5,37.420897 V 32.579103 C 10.5,31.42728 11.42728,30.5 12.579103,30.5 Z" />
    <path
       id="rect1-5"
       style="fill:#7caeae;fill-opacity:1;stroke-width:4.69048;stroke-linecap:round;stroke-linejoin:round;paint-order:markers fill stroke"
       d="m 26.579103,0.5 h 4.841794 C 32.57272,0.5 33.5,1.42728 33.5,2.5791032 V 7.4208968 C 33.5,8.57272 32.57272,9.5 31.420897,9.5 H 26.579103 C 25.42728,9.5 24.5,8.57272 24.5,7.4208968 V 2.5791032 C 24.5,1.42728 25.42728,0.5 26.579103,0.5 Z" />
    <path
       id="rect1-7-2"
       style="fill:#7caeae;fill-opacity:1;stroke-width:4.69048;stroke-linecap:round;stroke-linejoin:round;paint-order:markers fill stroke"
       d="m 36.579099,0.5 h 4.841794 c 1.151823,0 2.079103,0.92728 2.079103,2.0791032 V 7.4208968 C 43.499996,8.57272 42.572716,9.5 41.420893,9.5 H 36.579099 C 35.427276,9.5 34.499996,8.57272 34.499996,7.4208968 V 2.5791032 C 34.499996,1.42728 35.427276,0.5 36.579099,0.5 Z" />
    <path
       id="rect1-7-3-2"
       style="fill:#7caeae;fill-opacity:1;stroke-width:4.69048;stroke-linecap:round;stroke-linejoin:round;paint-order:markers fill stroke"
       d="m 34.579099,10.5 h 4.841794 c 1.151823,0 2.079103,0.92728 2.079103,2.079103 v 4.841794 c 0,1.151823 -0.92728,2.079103 -2.079103,2.079103 h -4.841794 c -1.151823,0 -2.079103,-0.92728 -2.079103,-2.079103 v -4.841794 c 0,-1.151823 0.92728,-2.079103 2.079103,-2.079103 z"
       transform="translate(2)" />
    <path
       id="rect1-4-7"
       style="fill:#7caeae;fill-opacity:1;stroke-width:4.69048;stroke-linecap:round;stroke-linejoin:round;paint-order:markers fill stroke"
       d="m 34.579099,20.5 h 4.841794 c 1.151823,0 2.079103,0.92728 2.079103,2.079103 v 4.841794 c 0,1.151823 -0.92728,2.079103 -2.079103,2.079103 h -4.841794 c -1.151823,0 -2.079103,-0.92728 -2.079103,-2.079103 v -4.841794 c 0,-1.151823 0.92728,-2.079103 2.079103,-2.079103 z"
       transform="translate(2)" />
    <path
       id="rect1-7-1-1"
       style="fill:#7caeae;fill-opacity:1;stroke-width:4.69048;stroke-linecap:round;stroke-linejoin:round;paint-order:markers fill stroke"
       d="m 24.579103,30.5 h 4.841794 C 30.57272,30.5 31.5,31.42728 31.5,32.579103 v 4.841794 C 31.5,38.57272 30.57272,39.5 29.420897,39.5 H 24.579103 C 23.42728,39.5 22.5,38.57272 22.5,37.420897 V 32.579103 C 22.5,31.42728 23.42728,30.5 24.579103,30.5 Z"
       transform="translate(2)" />
    <path
       id="rect1-7-3-8-5"
       style="fill:#7caeae;fill-opacity:1;stroke-width:4.69048;stroke-linecap:round;stroke-linejoin:round;paint-order:markers fill stroke"
       d="m 34.579099,30.5 h 4.841794 c 1.151823,0 2.079103,0.92728 2.079103,2.079103 v 4.841794 c 0,1.151823 -0.92728,2.079103 -2.079103,2.079103 h -4.841794 c -1.151823,0 -2.079103,-0.92728 -2.079103,-2.079103 v -4.841794 c 0,-1.151823 0.92728,-2.079103 2.079103,-2.079103 z"
       transform="translate(2)" />
    <path
       id="rect1-5-3"
       style="fill:#7caeae;fill-opacity:1;stroke-width:4.69048;stroke-linecap:round;stroke-linejoin:round;paint-order:markers fill stroke"
       d="m 50.579103,0.5 h 4.841794 C 56.57272,0.5 57.5,1.42728 57.5,2.5791032 V 7.4208968 C 57.5,8.57272 56.57272,9.5 55.420897,9.5 H 50.579103 C 49.42728,9.5 48.5,8.57272 48.5,7.4208968 V 2.5791032 C 48.5,1.42728 49.42728,0.5 50.579103,0.5 Z" />
    <path
       id="rect1-7-2-7"
       style="fill:#7caeae;fill-opacity:1;stroke-width:4.69048;stroke-linecap:round;stroke-linejoin:round;paint-order:markers fill stroke"
       d="m 50.579103,10.5 h 4.841794 C 56.57272,10.5 57.5,11.42728 57.5,12.579103 v 4.841794 C 57.5,18.57272 56.57272,19.5 55.420897,19.5 H 50.579103 C 49.42728,19.5 48.5,18.57272 48.5,17.420897 V 12.579103 C 48.5,11.42728 49.42728,10.5 50.579103,10.5 Z" />
    <path
       id="rect1-7-3-2-5"
       style="fill:#7caeae;fill-opacity:1;stroke-width:4.69048;stroke-linecap:round;stroke-linejoin:round;paint-order:markers fill stroke"
       d="m 60.579103,10.5 h 4.841794 C 66.57272,10.5 67.5,11.42728 67.5,12.579103 v 4.841794 C 67.5,18.57272 66.57272,19.5 65.420897,19.5 H 60.579103 C 59.42728,19.5 58.5,18.57272 58.5,17.420897 V 12.579103 C 58.5,11.42728 59.42728,10.5 60.579103,10.5 Z" />
    <path
       id="rect1-4-7-7"
       style="fill:#7caeae;fill-opacity:1;stroke-width:4.69048;stroke-linecap:round;stroke-linejoin:round;paint-order:markers fill stroke"
       d="m 60.579103,20.5 h 4.841794 C 66.57272,20.5 67.5,21.42728 67.5,22.579103 v 4.841794 C 67.5,28.57272 66.57272,29.5 65.420897,29.5 H 60.579103 C 59.42728,29.5 58.5,28.57272 58.5,27.420897 V 22.579103 C 58.5,21.42728 59.42728,20.5 60.579103,20.5 Z" />
    <path
       id="rect1-7-1-1-2"
       style="fill:#7caeae;fill-opacity:1;stroke-width:4.69048;stroke-linecap:round;stroke-linejoin:round;paint-order:markers fill stroke"
       d="m 50.579103,20.5 h 4.841794 C 56.57272,20.5 57.5,21.42728 57.5,22.579103 v 4.841794 C 57.5,28.57272 56.57272,29.5 55.420897,29.5 H 50.579103 C 49.42728,29.5 48.5,28.57272 48.5,27.420897 V 22.579103 C 48.5,21.42728 49.42728,20.5 50.579103,20.5 Z" />
    <path
       id="rect1-7-2-5"
       style="fill:#7caeae;fill-opacity:1;stroke-width:4.69048;stroke-linecap:round;stroke-linejoin:round;paint-order:markers fill stroke"
       d="m 84.579057,30.5 h 4.841794 c 1.151823,0 2.079103,0.92728 2.079103,2.079103 v 4.841794 c 0,1.151823 -0.92728,2.079103 -2.079103,2.079103 h -4.841794 c -1.151823,0 -2.079103,-0.92728 -2.079103,-2.079103 v -4.841794 c 0,-1.151823 0.92728,-2.079103 2.079103,-2.079103 z" />
    <path
       id="rect1-7-3-2-8"
       style="fill:#7caeae;fill-opacity:1;stroke-width:4.69048;stroke-linecap:round;stroke-linejoin:round;paint-order:markers fill stroke"
       d="m 74.579103,10.5 h 4.841794 C 80.57272,10.5 81.5,11.42728 81.5,12.579103 v 4.841794 C 81.5,18.57272 80.57272,19.5 79.420897,19.5 H 74.579103 C 73.42728,19.5 72.5,18.57272 72.5,17.420897 V 12.579103 C 72.5,11.42728 73.42728,10.5 74.579103,10.5 Z" />
    <path
       id="rect1-4-7-5"
       style="fill:#7caeae;fill-opacity:1;stroke-width:4.69048;stroke-linecap:round;stroke-linejoin:round;paint-order:markers fill stroke"
       d="m 74.579103,20.5 h 4.841794 C 80.57272,20.5 81.5,21.42728 81.5,22.579103 v 4.841794 C 81.5,28.57272 80.57272,29.5 79.420897,29.5 H 74.579103 C 73.42728,29.5 72.5,28.57272 72.5,27.420897 V 22.579103 C 72.5,21.42728 73.42728,20.5 74.579103,20.5 Z" />
    <path
       id="rect1-7-3-8-5-6"
       style="fill:#7caeae;fill-opacity:1;stroke-width:4.69048;stroke-linecap:round;stroke-linejoin:round;paint-order:markers fill stroke"
       d="m 74.579103,30.5 h 4.841794 C 80.57272,30.5 81.5,31.42728 81.5,32.579103 v 4.841794 C 81.5,38.57272 80.57272,39.5 79.420897,39.5 H 74.579103 C 73.42728,39.5 72.5,38.57272 72.5,37.420897 V 32.579103 C 72.5,31.42728 73.42728,30.5 74.579103,30.5 Z" />
    <path
       id="rect1-7-2-7-9"
       style="fill:#7caeae;fill-opacity:1;stroke-width:4.69048;stroke-linecap:round;stroke-linejoin:round;paint-order:markers fill stroke"
       d="m 84.579057,10.5 h 4.841794 c 1.151823,0 2.079103,0.92728 2.079103,2.079103 v 4.841794 c 0,1.151823 -0.92728,2.079103 -2.079103,2.079103 h -4.841794 c -1.151823,0 -2.079103,-0.92728 -2.079103,-2.079103 v -4.841794 c 0,-1.151823 0.92728,-2.079103 2.079103,-2.079103 z" />
    <path
       id="rect1-7-2-7-9-3"
       style="fill:#7caeae;fill-opacity:1;stroke-width:4.69048;stroke-linecap:round;stroke-linejoin:round;paint-order:markers fill stroke"
       d="m 84.579103,0.5 h 4.841794 C 90.57272,0.5 91.5,1.42728 91.5,2.579103 V 7.420897 C 91.5,8.57272 90.57272,9.5 89.420897,9.5 H 84.579103 C 83.42728,9.5 82.5,8.57272 82.5,7.420897 V 2.579103 C 82.5,1.42728 83.42728,0.5 84.579103,0.5 Z" />
    <path
       id="rect1-7-3-8-5-9"
       style="fill:#7caeae;fill-opacity:1;stroke-width:4.69048;stroke-linecap:round;stroke-linejoin:round;paint-order:markers fill stroke"
       d="m 60.579103,30.5 h 4.841794 C 66.57272,30.5 67.5,31.42728 67.5,32.579103 v 4.841794 C 67.5,38.57272 66.57272,39.5 65.420897,39.5 H 60.579103 C 59.42728,39.5 58.5,38.57272 58.5,37.420897 V 32.579103 C 58.5,31.42728 59.42728,30.5 60.579103,30.5 Z" />
  </g>
</svg>
