<?xml version="1.0" encoding="UTF-8" standalone="no"?>
<!-- Created with Inkscape (http://www.inkscape.org/) -->

<svg
   width="76.289673mm"
   height="17.240519mm"
   viewBox="0 0 76.289673 17.240519"
   version="1.1"
   id="svg1"
   xml:space="preserve"
   xmlns="http://www.w3.org/2000/svg"
   xmlns:svg="http://www.w3.org/2000/svg"><defs
     id="defs1"><style
       id="style1">.cls-1,.cls-2{fill:none;stroke:#020202;stroke-miterlimit:10;stroke-width:1.91px;}.cls-1{stroke-linecap:square;}</style><clipPath
       clipPathUnits="userSpaceOnUse"
       id="cp1"><path
         d="M 0,0 H 1624.47 V 367.11 H 0 Z"
         id="path1-4" /></clipPath></defs><g
     id="layer17"
     transform="translate(-52.547494,-43.460717)"><g
       id="Layer"
       transform="matrix(0.04696281,0,0,0.04696281,52.547496,43.460717)"
       style="fill:#7caeae;fill-opacity:1"><g
         id="Mask"
         style="fill:#7caeae;fill-opacity:1" /><g
         id="Clip-Path: Fill-1"
         clip-path="url(#cp1)"
         style="fill:#7caeae;fill-opacity:1"><path
           id="Fill-1"
           fill-rule="evenodd"
           class="shp0"
           d="m 1004.87,114.87 c 3.62,1.54 5.81,5.05 5.83,8.75 0,1.16 -0.24,2.31 -0.68,3.46 l -45.17,120.46 v 0.04 c -0.74,1.79 -1.93,3.39 -3.47,4.56 -0.66,0.49 -1.46,0.99 -2.45,1.37 -0.94,0.36 -2.05,0.58 -3.21,0.58 h -1.2 c -1.7,-0.25 -3.3,-0.9 -4.73,-1.97 -1.35,-1 -2.51,-2.42 -3.18,-4.23 h -0.03 l -28.78,-67.84 -28.75,68.12 -0.12,0.09 c -0.7,1.83 -1.98,3.25 -3.41,4.2 -1.53,0.98 -3.24,1.63 -5.08,1.63 -1.44,0 -2.52,-0.39 -3.33,-0.65 -0.49,-0.09 -0.98,-0.25 -1.37,-0.49 -0.35,-0.22 -0.58,-0.42 -0.73,-0.56 -0.81,-0.44 -1.59,-0.97 -2.12,-1.59 -0.74,-0.88 -1.24,-1.77 -1.59,-2.68 v -0.04 l -45.46,-121 h 0.01 c -0.45,-1.15 -0.69,-2.31 -0.69,-3.48 0.02,-3.72 2.12,-7.14 5.57,-8.73 l 0.04,-0.04 h 0.05 c 1.17,-0.48 2.41,-0.73 3.63,-0.73 1.91,0.01 3.77,0.57 5.35,1.58 1.56,0.99 2.88,2.49 3.52,4.42 h 0.03 l 36.96,99.68 28.39,-66.89 0.02,-0.03 c 0.79,-1.87 2.2,-3.3 3.76,-4.3 1.59,-0.98 3.39,-1.58 5.32,-1.58 1.98,0 3.87,0.56 5.5,1.56 1.62,1.01 3.05,2.45 3.84,4.32 l 0.05,0.03 28.33,66.85 36.76,-99.73 v -0.05 c 0.78,-1.84 2.14,-3.31 3.75,-4.31 1.57,-0.98 3.38,-1.54 5.26,-1.55 1.16,0 2.37,0.25 3.47,0.73 0.04,0 0.06,0.01 0.06,0.01 z m -188.5,69.08 c -0.03,19.01 -7.41,36.53 -19.57,49.31 -12.07,12.76 -28.92,20.83 -47.66,20.83 -18.59,0 -35.47,-8.07 -47.58,-20.83 -12.13,-12.78 -19.64,-30.3 -19.64,-49.31 0,-19.01 7.51,-36.55 19.64,-49.33 12.11,-12.75 28.99,-20.81 47.58,-20.81 18.74,0 35.59,8.06 47.66,20.81 12.16,12.78 19.54,30.32 19.57,49.33 z m -33.58,-36.37 c -8.81,-9.31 -20.73,-15 -33.68,-15 -12.95,0 -24.9,5.69 -33.69,15 -8.77,9.29 -14.28,22.16 -14.28,36.37 0,14.2 5.51,26.94 14.28,36.18 8.79,9.27 20.74,14.87 33.69,14.87 12.95,0 24.92,-5.6 33.68,-14.87 8.75,-9.24 14.26,-21.98 14.26,-36.18 0,-14.21 -5.51,-27.08 -14.26,-36.37 z m -177.4,-33.53 c 32.11,0.05 58.08,26.02 58.08,57.53 v 73 c 0,2.67 -1.09,5.14 -2.89,6.83 -1.76,1.69 -4.18,2.68 -6.75,2.68 -2.54,0 -4.96,-0.99 -6.74,-2.68 -1.74,-1.69 -2.89,-4.16 -2.89,-6.83 v -73 c 0,-10.58 -4.27,-20.17 -11.3,-27.14 -7.01,-6.98 -16.68,-11.3 -27.51,-11.3 -10.66,0 -20.3,4.32 -27.33,11.3 -7.08,6.99 -11.5,16.61 -11.78,27.24 v 74.34 l -0.08,0.35 c -0.14,0.54 -0.31,1.25 -0.59,1.99 -0.27,0.63 -0.7,1.3 -1.21,1.95 -0.03,0.05 -0.07,0.09 -0.12,0.11 -0.12,0.1 -0.15,0.23 -0.25,0.33 L 564,250.74 c -0.82,1.08 -1.85,1.92 -2.96,2.45 -1.32,0.61 -2.72,0.9 -4.1,0.9 h -2.08 l -0.38,-0.12 c -2.67,-0.77 -4.82,-2.5 -6.13,-4.79 -0.27,-0.44 -0.54,-0.89 -0.64,-1.3 l -0.02,-0.06 -0.39,-0.39 V 123.62 c 0,-2.56 1.01,-4.97 2.71,-6.71 1.72,-1.76 4.19,-2.86 6.93,-2.86 2.64,0 5.06,1.16 6.69,2.88 1.68,1.75 2.64,4.13 2.65,6.69 v 5.55 c 10.28,-9.29 24.04,-15.12 39.11,-15.12 z m 969.86,65.38 v 0.94 c 0,2.65 -1.19,5.02 -3,6.59 -1.8,1.57 -4.13,2.39 -6.65,2.42 h -108.01 c 2.75,26.12 23.79,45.42 48.92,45.62 h 6.37 c 8.31,0.03 16.41,-2.82 23.53,-7.53 7.14,-4.67 13.31,-11.19 17.65,-18.37 0.89,-1.53 2.18,-2.7 3.57,-3.41 1.43,-0.78 2.96,-1.13 4.51,-1.13 1.71,0 3.4,0.44 4.88,1.33 l 0.11,0.05 0.12,0.08 c 2.7,1.97 4.4,4.98 4.4,8.28 0,1.67 -0.44,3.38 -1.37,4.93 l -0.03,0.06 -0.03,0.02 c -6.04,9.52 -14.26,18.2 -24.03,24.49 -9.79,6.3 -21.14,10.29 -33.31,10.29 h -6.48 c -18.95,-0.13 -36.09,-8.07 -48.44,-20.76 -12.32,-12.65 -19.91,-30.02 -19.91,-49.12 0,-19.41 7.66,-37.04 20.08,-49.79 12.42,-12.73 29.68,-20.61 48.8,-20.61 18.25,0 34.65,7.19 46.79,18.96 12.14,11.78 20.08,28.13 21.49,46.52 z m -21.09,-9.02 c -5.47,-22.01 -24.97,-37.7 -47.23,-37.65 -22.81,0 -42.05,15.35 -48.01,37.65 z M 1132.19,56.18 c 5.46,0 9.88,4.28 9.91,9.54 v 178.86 c -0.03,5.25 -4.45,9.51 -9.91,9.51 -2.63,0 -5.04,-1.12 -6.78,-2.81 -1.74,-1.7 -2.84,-4.09 -2.84,-6.7 V 65.72 c 0,-2.61 1.1,-5.01 2.84,-6.72 1.74,-1.72 4.15,-2.82 6.78,-2.82 z M 502.76,180.54 c 7.73,3.67 14.54,8.34 18.74,15.42 2.78,4.66 4.37,10.37 4.37,17.09 0,12.24 -6.08,23.08 -15.86,30.38 H 510 v 0.02 c -9.99,7.29 -21.85,10.42 -35.59,10.42 h -0.03 c -8.83,-0.14 -20.45,-2.36 -29.52,-6.6 -4.09,-1.91 -7.64,-3.86 -10.61,-5.83 -2.89,-1.99 -5.2,-3.99 -6.77,-6.22 -1.01,-1.55 -1.71,-3.26 -1.71,-5.13 0,-1.13 0.25,-2.23 0.75,-3.26 0.52,-1.04 1.25,-1.94 2.09,-2.75 0.6,-0.57 1.33,-1.03 2.12,-1.37 0.78,-0.3 1.63,-0.44 2.41,-0.44 1.29,0 2.42,0.28 3.48,0.72 1.09,0.44 2.12,0.99 3.22,1.59 2.22,1.25 4.68,2.74 7.71,4.25 6.05,2.99 14.4,5.97 26.86,5.97 3.54,0 9.03,-0.78 14.31,-2.62 5.3,-1.88 10.29,-4.86 13.29,-8.91 1.99,-2.73 3.19,-5.91 3.21,-9.97 v -0.2 c -0.03,-2.8 -0.88,-5.02 -2.38,-7.16 -1.55,-2.09 -3.83,-3.99 -6.65,-5.75 -5.65,-3.46 -13.4,-6.07 -20.7,-8.48 -5.18,-1.72 -13.39,-3.51 -21.61,-6.52 -8.23,-3 -16.62,-7.25 -22.27,-14.34 -3.72,-4.71 -6.09,-10.72 -6.06,-18.02 0,-0.33 0,-0.67 0.01,-1 0.21,-7.52 1.8,-13.29 4.66,-17.98 2.8,-4.67 6.78,-8.05 11.3,-11.14 8.67,-5.91 20.6,-9.12 34.89,-9.12 6.17,0 12.64,1.82 18.68,4.51 6.02,2.68 11.61,6.24 15.85,9.98 2.86,2.51 5.1,5.01 6.55,7.64 0.78,1.49 1.33,3.08 1.33,4.77 0,0.92 -0.18,1.85 -0.56,2.76 -0.43,0.87 -1.03,1.66 -1.74,2.32 -0.72,0.61 -1.47,1.11 -2.34,1.46 -0.82,0.35 -1.72,0.51 -2.62,0.51 -1.41,0 -2.71,-0.44 -3.81,-0.98 -1.16,-0.55 -2.16,-1.3 -3.24,-2.12 -2.09,-1.57 -4.3,-3.48 -6.92,-5.37 -5.29,-3.73 -12.2,-7.33 -23.12,-7.35 -3.69,0 -8.86,0.9 -13.63,2.79 -4.83,1.88 -9.24,4.8 -11.88,8.55 -1.73,2.51 -2.76,5.34 -2.78,8.85 0.05,2.57 0.78,4.46 2.3,6.31 1.49,1.85 3.78,3.5 6.72,5.06 5.86,3.03 14.08,5.34 22.17,8.05 8.8,2.89 17.62,5.57 25.39,9.21 z m 793.83,-57.24 v 121.28 c 0,2.61 -1.12,5 -2.82,6.7 -1.74,1.69 -4.14,2.81 -6.79,2.81 -2.64,0 -5.07,-1.12 -6.78,-2.81 -1.74,-1.7 -2.86,-4.09 -2.86,-6.7 v -11.83 c -12.11,12.97 -29.12,21.34 -47.95,21.34 -18.74,0 -35.6,-7.98 -47.69,-20.76 -12.12,-12.72 -19.54,-30.24 -19.54,-49.38 0,-19.14 7.42,-36.68 19.54,-49.41 12.09,-12.77 28.95,-20.73 47.69,-20.73 18.81,0 35.84,8.13 47.95,21.03 V 123.3 c 0,-2.66 1.11,-5.13 2.89,-6.84 1.78,-1.67 4.18,-2.65 6.75,-2.65 2.55,0 4.98,0.98 6.73,2.65 1.78,1.71 2.88,4.18 2.88,6.84 z m -33.43,24.18 c -8.72,-9.25 -20.68,-14.86 -33.77,-14.9 -12.98,0 -24.9,5.65 -33.7,14.9 -8.74,9.28 -14.28,22.13 -14.28,36.47 0,14.33 5.54,27.1 14.28,36.3 8.75,9.2 20.72,14.75 33.7,14.75 13.12,0 25.08,-5.55 33.8,-14.72 8.69,-9.23 14.15,-21.99 14.15,-36.33 0,-14.34 -5.46,-27.19 -14.18,-36.47 z m 166.4,-18.72 -50.34,48.26 50.85,61.28 v 0.02 c 1.55,1.83 2.39,4.1 2.39,6.33 0,2.66 -1.14,5.26 -3.14,7.21 l -0.13,0.13 -0.11,0.08 c -2.14,1.66 -4.57,2.02 -6.29,2.02 -1.25,0 -2.65,-0.18 -4.09,-0.73 -1.27,-0.49 -2.55,-1.44 -3.49,-2.81 l -49.96,-59.74 -24.5,24.26 v 29.51 c 0,5.25 -4.45,9.51 -9.91,9.51 -2.63,0 -5.04,-1.12 -6.76,-2.81 -1.71,-1.7 -2.86,-4.09 -2.86,-6.7 V 65.72 c 0,-2.61 1.15,-5.01 2.86,-6.72 1.72,-1.72 4.13,-2.82 6.76,-2.82 5.46,0 9.91,4.28 9.91,9.54 V 187.9 L 1416,115.21 c 1.86,-1.84 4.29,-2.86 6.77,-2.86 2.46,0 4.85,0.99 6.7,2.8 h 0.03 c 0,0 0.03,0.01 0.04,0.06 0,0 0.05,0 0.06,0.05 h -0.01 c 1.93,1.77 2.97,4.21 2.97,6.64 0,2.48 -1.04,4.98 -2.96,6.86 z M 1092.49,56.61 c 5.42,0 9.8,4.34 9.8,9.71 0,5.37 -4.38,9.72 -9.8,9.72 h -2.15 c -0.31,0 -0.59,-0.05 -0.89,-0.05 -0.23,0 -0.5,0.05 -0.75,0.05 h -0.5 c -4.24,0 -7.37,0.47 -9.64,1.19 -2.25,0.76 -3.63,1.71 -4.7,2.85 -1.08,1.28 -2.29,3.35 -3.17,6.65 -0.92,3.28 -1.55,7.79 -1.65,13.82 v 13.61 h 16.45 c 5.29,0 9.51,4.11 9.57,9.12 v 0.36 c 0,2.69 -1.09,5.17 -2.87,6.93 -1.74,1.77 -4.16,2.86 -6.8,3.01 h -16.35 v 111.5 c -0.02,5.26 -4.22,9.41 -9.34,9.44 -2.7,0 -5.18,-1.01 -6.94,-2.7 -1.78,-1.73 -2.89,-4.13 -2.89,-6.74 l 0.02,-0.27 V 133.58 h -15.09 c -2.66,-0.15 -5.06,-1.32 -6.81,-3.09 -1.74,-1.82 -2.81,-4.33 -2.78,-7.05 0,-5.06 4.19,-9.25 9.48,-9.28 h 15.2 v -13.67 c 0.06,-7.06 0.66,-13.28 2.14,-18.79 1.47,-5.49 3.88,-10.32 7.55,-14.36 v -0.01 l 0.01,-0.02 0.01,0.02 c 3.55,-4.1 8.13,-6.8 13.09,-8.44 5.03,-1.66 10.42,-2.28 15.97,-2.28 0.28,0 0.56,0.03 0.82,0.04 0.3,-0.01 0.57,-0.04 0.86,-0.04 z M 123.11,190.26 c -1.65,5.3 -5.23,10.01 -10.5,13.02 L 34.52,248.01 C 23.49,254.3 9.44,250.57 3.11,239.69 -3.26,228.75 0.49,214.83 11.51,208.52 L 55.15,183.57 11.51,158.55 c -11.02,-6.3 -14.79,-20.22 -8.4,-31.12 6.33,-10.91 20.38,-14.65 31.41,-8.36 l 78.09,44.7 c 5.49,3.14 9.16,8.12 10.7,13.69 0.52,1.79 0.75,3.58 0.84,5.38 0.06,2.48 -0.26,4.99 -1.04,7.42 z m 21.19,41.89 c 11.89,0.85 21.28,10.71 21.28,22.71 v 89.43 c 0,12.61 -10.32,22.82 -22.99,22.82 -12.73,0 -23.01,-10.21 -23.01,-22.82 V 294.27 L 75.79,319.3 c -10.98,6.34 -25.02,2.59 -31.4,-8.3 -6.34,-10.91 -2.59,-24.9 8.41,-31.2 l 78.15,-44.67 c 4.2,-2.43 8.86,-3.36 13.35,-2.98 z m 80.04,-97.19 c -11.92,-0.87 -21.29,-10.75 -21.29,-22.74 V 22.78 c 0,-12.57 10.26,-22.78 23,-22.78 12.73,0 23.01,10.21 23.01,22.78 v 50.05 l 43.76,-25.07 c 11,-6.3 25.05,-2.56 31.39,8.33 6.33,10.95 2.6,24.88 -8.41,31.18 l -78.14,44.71 c -4.2,2.4 -8.85,3.34 -13.32,2.98 z M 52.8,87.27 C 41.8,80.97 38.05,67.04 44.39,56.09 50.77,45.2 64.81,41.46 75.79,47.76 l 43.79,25.07 V 22.78 C 119.58,10.21 129.86,0 142.59,0 c 12.67,0 22.99,10.21 22.99,22.78 v 89.44 c 0,11.99 -9.39,21.87 -21.28,22.74 -4.49,0.36 -9.15,-0.58 -13.35,-2.98 z m 140.35,137.19 c -0.93,0.95 -2.72,1.72 -4.08,1.72 h -9.55 c -1.31,0 -3.13,-0.77 -4.08,-1.72 l -32.46,-32.15 c -0.93,-0.91 -1.68,-2.73 -1.68,-4.01 v -9.49 c 0,-1.31 0.75,-3.13 1.68,-4.05 l 32.46,-32.16 c 0.95,-0.94 2.77,-1.69 4.08,-1.69 h 9.55 c 1.33,0 3.15,0.75 4.08,1.69 l 32.48,32.16 c 0.93,0.92 1.68,2.74 1.68,4.05 v 9.49 c 0,1.28 -0.75,3.1 -1.68,4.01 z m 6.52,-41.08 c 0,-1.3 -0.79,-3.11 -1.72,-4.07 l -9.41,-9.28 c -0.92,-0.92 -2.75,-1.68 -4.06,-1.68 h -0.37 c -1.31,0 -3.13,0.76 -4.04,1.68 l -9.41,9.28 c -0.94,0.96 -1.66,2.77 -1.66,4.07 v 0.37 c 0,1.28 0.72,3.07 1.66,4.01 l 9.41,9.3 c 0.92,0.92 2.73,1.68 4.04,1.68 h 0.37 c 1.31,0 3.14,-0.76 4.06,-1.68 l 9.41,-9.3 c 0.93,-0.94 1.72,-2.73 1.72,-4.01 z M 315.8,279.8 c 11.01,6.3 14.74,20.29 8.41,31.2 -6.34,10.89 -20.4,14.64 -31.39,8.3 l -43.76,-25.03 v 50.02 c 0,12.61 -10.28,22.82 -23.01,22.82 -12.74,0 -23,-10.21 -23,-22.82 v -89.43 c 0,-12 9.37,-21.86 21.29,-22.71 4.47,-0.38 9.12,0.55 13.32,2.98 z m -2.33,-96.23 43.64,24.95 c 11.02,6.31 14.79,20.23 8.42,31.17 -6.36,10.88 -20.43,14.61 -31.41,8.32 l -78.15,-44.73 c -5.22,-3.01 -8.83,-7.72 -10.44,-13.02 -0.76,-2.43 -1.12,-4.94 -1.03,-7.42 0.04,-1.8 0.31,-3.59 0.81,-5.38 1.56,-5.57 5.23,-10.55 10.66,-13.69 l 78.15,-44.7 c 10.98,-6.29 25.05,-2.55 31.41,8.36 6.37,10.9 2.6,24.82 -8.42,31.12 z m 1288.38,-46.63 c -14.05,0 -22.41,-10.57 -22.41,-23.01 0,-12.54 8.36,-23.01 22.41,-23.01 14.15,0 22.62,10.47 22.62,23.01 0,12.54 -8.47,23.01 -22.62,23.01 z m 0,-41.77 c -10.76,0 -17.93,7.7 -17.93,18.76 0,10.57 7.17,18.76 17.93,18.76 10.96,0 18.13,-8.09 18.13,-18.76 0,-10.66 -7.17,-18.76 -18.13,-18.76 z m -8.87,8.39 h 9.67 c 5.28,0 8.76,2.87 8.76,7.31 0,2.77 -1.39,4.84 -3.48,6.12 l 3.78,5.43 v 1.09 h -5.48 l -3.68,-5.23 h -4.28 v 5.23 h -5.29 z m 5.29,4.84 v 5.24 h 4.28 c 1.99,0 3.29,-0.89 3.29,-2.57 0,-1.78 -1.2,-2.67 -3.29,-2.67 z"
           style="fill:#7caeae;fill-opacity:1" /></g></g></g><style
     id="style1-4">
		tspan { white-space:pre }
		.shp0 { fill: #29b5e8 } 
	</style></svg>
