<?xml version="1.0" encoding="UTF-8" standalone="no"?>
<!-- Created with Inkscape (http://www.inkscape.org/) -->

<svg
   width="208.47475mm"
   height="170.32178mm"
   viewBox="0 0 208.47475 170.32178"
   version="1.1"
   id="svg1"
   xml:space="preserve"
   inkscape:export-filename="handshake.svg"
   inkscape:export-xdpi="96"
   inkscape:export-ydpi="96"
   xmlns:inkscape="http://www.inkscape.org/namespaces/inkscape"
   xmlns:sodipodi="http://sodipodi.sourceforge.net/DTD/sodipodi-0.dtd"
   xmlns="http://www.w3.org/2000/svg"
   xmlns:svg="http://www.w3.org/2000/svg"><sodipodi:namedview
     id="namedview1"
     pagecolor="#505050"
     bordercolor="#ffffff"
     borderopacity="1"
     inkscape:showpageshadow="0"
     inkscape:pageopacity="0"
     inkscape:pagecheckerboard="1"
     inkscape:deskcolor="#505050"
     inkscape:document-units="mm"><inkscape:page
       x="0"
       y="0"
       width="208.47475"
       height="170.32178"
       id="page2"
       margin="0"
       bleed="0" /></sodipodi:namedview><defs
     id="defs1" /><g
     inkscape:label="Layer 1"
     inkscape:groupmode="layer"
     id="layer1"
     transform="translate(72.481229,-27.143071)"><path
       id="path1"
       style="fill:#7caeae;fill-opacity:1;stroke-width:0.413411"
       class="st0"
       d="m 10.591797,27.160156 c -17.6022728,0.360565 -35.265276,5.032505 -50.278008,14.404468 -8.055027,5.048303 -15.2793,11.41299 -20.948555,19.068188 -5.766019,7.813826 -9.865488,16.995875 -11.244015,26.628415 -0.623857,4.147602 -0.752395,8.423415 -0.435672,12.576664 0.488486,5.977109 1.871881,11.692689 4.172874,17.216479 4.549476,10.97193 12.483972,20.49121 21.870223,27.65115 2.827589,2.19144 5.821226,4.12578 8.865106,5.96831 0.767258,0.69048 0.32644,1.74736 -0.126552,2.47576 -4.327557,9.74402 -8.703202,19.46912 -13.049229,29.20588 9.855176,-1.04015 19.682209,-2.28957 29.37184,-4.24903 11.091379,-2.16649 22.05711504,-4.94236 32.893785,-8.14355 -0.794271,-2.64713 -1.588542,-5.29427 -2.3828128,-7.94141 -15.188249,4.4944 -30.6637972,8.0537 -46.3378902,10.36524 3.725516,-8.32417 7.447663,-16.64985 11.171875,-24.97461 -6.143231,-3.04444 -12.153893,-6.46818 -17.409264,-10.90431 -8.885099,-7.34072 -16.044775,-17.0939 -19.170144,-28.27806 -3.131392,-11.115349 -2.002963,-23.349134 3.07865,-33.716723 5.36681,-11.201137 14.584948,-20.225491 25.156129,-26.57073 15.739768,-9.477429 34.47751893,-13.386033 52.731527,-12.338136 16.741837,0.963351 33.417921,6.282457 46.984195,16.274755 8.309387,6.159666 15.394872,14.183777 19.677735,23.65625 2.553385,-1.0625 5.106771,-2.125 7.660156,-3.1875 C 86.947887,59.14788 76.388045,48.389585 64.087073,40.951768 50.802445,32.870264 35.411539,28.409012 19.920145,27.382128 16.855914,27.179204 13.694196,27.106415 10.591797,27.160156 Z" /><path
       id="path2"
       style="fill:#7caeae;fill-opacity:1;stroke-width:0.413411"
       class="st0"
       d="m 73.046875,85.228516 c -13.458286,0.266303 -26.997366,4.081588 -38.214844,11.724609 -9.628669,6.539045 -17.466527,16.206545 -20.35429,27.590285 -1.425533,5.61569 -1.699329,11.52781 -0.664969,17.17206 1.543309,8.74335 6.013335,16.82351 12.168897,23.16891 6.810013,7.08568 15.529284,12.19423 24.826446,15.35089 5.740865,2.09545 11.463527,4.24861 17.295859,6.0829 15.612274,5.04298 31.677261,8.85238 48.026026,10.5772 1.72071,0.19211 3.44203,0.37921 5.16297,0.56947 -3.43607,-7.67714 -6.87317,-15.35382 -10.30859,-23.03125 6.65628,-4.03611 12.72228,-9.18236 17.20735,-15.61854 3.19481,-4.56579 5.57283,-9.79113 6.79655,-15.18614 0.81756,-3.55608 1.13581,-7.32431 0.95703,-10.94336 -0.32925,-7.23415 -2.72348,-14.4171 -6.64986,-20.53988 -4.39233,-6.945 -10.64932,-12.671114 -17.60591,-16.909839 -9.89871,-6.051131 -21.53027,-9.32029 -33.074627,-9.911983 -1.854,-0.09909 -3.711759,-0.119585 -5.568038,-0.09533 z m 1.546875,8.279296 c 12.879448,5.54e-4 25.93754,3.613265 36.41406,11.238278 7.18307,5.22878 13.08803,12.57517 15.49805,21.22266 2.55593,8.91366 0.89571,18.83794 -4.13393,26.5921 -4.74695,7.58287 -12.04562,13.27495 -20.02296,17.15444 -0.6951,0.35662 -1.3902,0.71325 -2.0853,1.06987 2.49017,5.56383 4.98089,11.12741 7.47071,16.6914 -17.879819,-2.90917 -35.369336,-7.9457 -52.279302,-14.40234 -5.406105,-1.77831 -10.687639,-4.0446 -15.421044,-7.23495 -7.534726,-4.99383 -13.910648,-12.14755 -16.834815,-20.80216 -2.288619,-6.78234 -2.298848,-14.31816 0.107086,-21.07009 2.914824,-8.3711 9.046357,-15.31969 16.322904,-20.2363 C 49.843806,96.777822 62.311707,93.529323 74.59375,93.507812 Z" /></g><style
     type="text/css"
     id="style1">
	.st0{fill:#000000;}
</style><style
     type="text/css"
     id="style1-9">
	.st0{fill:#000000;}
</style><style
     type="text/css"
     id="style1-5">
	.st0{fill:#000000;}
</style></svg>
