<?xml version="1.0" encoding="UTF-8" standalone="no"?>
<svg
   version="1.1"
   id="Layer_1"
   x="0px"
   y="0px"
   viewBox="0 0 481.4 98"
   style="enable-background:new 0 0 481.4 98;"
   xml:space="preserve"
   sodipodi:docname="tableau.svg"
   inkscape:version="1.4.2 (ebf0e940, 2025-05-08)"
   xmlns:inkscape="http://www.inkscape.org/namespaces/inkscape"
   xmlns:sodipodi="http://sodipodi.sourceforge.net/DTD/sodipodi-0.dtd"
   xmlns="http://www.w3.org/2000/svg"
   xmlns:svg="http://www.w3.org/2000/svg"
   xmlns:ns="ns_sfw;"><defs
   id="defs17">
  
  
 
   
  
   
  
    
    
    
    
    
    
    
    
    
   
    
    
    
    
    
    
    
    
    
   </defs><sodipodi:namedview
   id="namedview17"
   pagecolor="#505050"
   bordercolor="#ffffff"
   borderopacity="1"
   inkscape:showpageshadow="0"
   inkscape:pageopacity="0"
   inkscape:pagecheckerboard="1"
   inkscape:deskcolor="#505050"
   inkscape:zoom="1.7282925"
   inkscape:cx="75.218749"
   inkscape:cy="89.39459"
   inkscape:window-width="976"
   inkscape:window-height="740"
   inkscape:window-x="0"
   inkscape:window-y="0"
   inkscape:window-maximized="0"
   inkscape:current-layer="Layer_1" />
 <style
   type="text/css"
   id="style1">
  .st0{fill:#FFFFFF;}
 </style>
 <metadata
   id="metadata1">
  <ns:sfw>
   <ns:slices>
   </ns:slices>
   <ns:sliceSourceBounds
   bottomLeftOrigin="true"
   height="98"
   width="481.4"
   x="-301.9"
   y="-233.3">
   </ns:sliceSourceBounds>
  </ns:sfw>
 </metadata>
 <path
   id="polygon16"
   style="fill:#7caeae;fill-opacity:1"
   class="st0"
   d="m 0,50.6 h 8.3 v 9.1 h 3 v -9.1 h 8.3 v -2.8 h -8.3 v -9.1 h -3 v 9.1 H 0 Z M 39.6,12.1 h 8.3 v 9.1 h 3 v -9.1 h 8.3 V 9.3 H 50.9 V 0 h -3 v 9.3 h -8.3 z m 21,62.2 H 73 v 13.3 h 4.6 V 74.3 h 12.3 v -4 H 77.6 V 56.8 H 73 V 70.3 H 60.6 Z M 79.4,51 h 8.4 v 9.3 h 4.1 V 51 h 8.3 v -3.6 h -8.3 v -9.3 h -4.1 v 9.3 H 79.4 Z M 8.6,26.9 h 12.5 v 13.6 h 4.5 V 26.9 h 12.5 v -4 H 25.6 V 9.6 H 21.1 V 22.9 H 8.6 Z M 39,88.5 h 8.5 V 98 h 4 v -9.5 h 8.3 v -3.6 h -8.3 v -9.3 h -4 v 9.3 H 39 Z M 61.4,27.2 h 12.3 v 13.3 h 4.6 V 27.2 H 90.7 V 23 H 78.3 V 9.6 H 73.7 V 23 H 61.4 Z M 8.8,74.3 h 12.5 v 13.3 h 4.6 V 74.3 h 12.3 v -4 H 25.9 V 56.8 H 21.3 V 70.3 H 8.8 Z m 24,-27.7 h 13.8 v -15 H 52 v 15 h 13.7 v 5.2 H 52 v 15 h -5.4 v -15 H 32.8 Z M 479,45.8 c -0.1,-0.6 -0.3,-1 -0.7,-1 v 0 c 0.5,-0.1 0.8,-0.5 0.8,-1 0,-0.4 -0.1,-0.7 -0.4,-0.9 -0.3,-0.2 -0.7,-0.3 -1.3,-0.3 -0.5,0 -0.8,0 -1.2,0.1 V 47 h 0.7 v -2 h 0.5 c 0.5,0 0.8,0.2 0.9,0.8 0.1,0.6 0.2,1 0.3,1.1 h 0.7 c 0,-0.2 -0.2,-0.4 -0.3,-1.1 m -1.6,-1.3 h -0.5 V 43 c 0.1,0 0.3,0 0.5,0 0.8,0 1,0.4 1,0.8 0,0.5 -0.4,0.7 -1,0.7 m 0.2,-3.7 v 0 c -2.1,0 -3.8,1.7 -3.8,3.8 0,2.2 1.7,3.8 3.8,3.8 2.1,0 3.8,-1.7 3.8,-3.8 0,-2.1 -1.7,-3.8 -3.8,-3.8 m 0,7.1 c -1.7,0 -3.1,-1.4 -3.1,-3.3 0,-1.8 1.4,-3.2 3.1,-3.2 v 0 c 1.7,0 3.1,1.5 3.1,3.3 0,1.8 -1.3,3.2 -3.1,3.2 m -330.1,4.2 h 17.2 V 46.2 H 147.5 V 28 h -6.4 v 18.2 h -17.3 v 5.9 h 17.3 v 19.7 h 6.4 z M 409,40.3 v 2.2 c -2.2,-1.4 -4.6,-2 -7.5,-2 -8.6,0 -14.5,6.1 -14.5,15.6 0,9.9 6.1,15.7 16.9,15.6 4.1,0 8.6,-0.8 11.3,-2 l 0.2,-29.3 H 409 Z M 408.8,65 c -2.3,0.6 -4.3,0.7 -5.5,0.7 -6,0 -9.5,-3.5 -9.5,-9.6 0,-6.1 3.5,-9.7 8.9,-9.7 2.2,0 4.2,0.7 6.2,2.1 z M 210,40.3 v 2.2 c -2.2,-1.4 -4.6,-2 -7.5,-2 -8.6,0 -14.5,6.1 -14.5,15.6 0,9.9 6.1,15.7 16.9,15.6 4.1,0 8.6,-0.8 11.3,-2 l 0.2,-29.3 H 210 Z M 209.9,65 c -2.3,0.6 -4.1,0.7 -5.5,0.7 -6,0.1 -9.5,-3.5 -9.5,-9.6 0,-6.1 3.5,-9.7 8.9,-9.7 2.2,0 4.2,0.7 6.2,2.1 z M 447,60 V 41.1 h -6.5 v 19.7 c 0,6.6 5.1,10.6 13.3,10.6 8.1,0 13.3,-4 13.3,-10.6 V 41.1 h -6.5 V 60 c 0,4.6 -2.7,6.7 -6.8,6.7 -4.1,0 -6.8,-2.1 -6.8,-6.7 M 348,40.5 c -8.8,0 -14.5,6.3 -14.8,15.2 -0.3,8.2 4.5,15.1 14.4,16.1 5,0.5 9,-0.3 12.8,-2.2 v -6.1 c -2.9,1.8 -8.3,2.7 -12,2.4 -4.6,-0.4 -7.9,-3 -8.4,-8.5 h 22.1 C 362.5,47.3 357.2,40.5 348,40.5 m -7.6,12.1 c 1.3,-4 4.9,-6.4 8.7,-6.2 3.7,0.2 5.8,2.3 6,6.2 z M 300.79999,19.799999 h 6.4 v 57.299999 h -6.4 z M 261.5,40.4 c -1.7,0 -4.4,0.4 -7.5,1.6 V 26 h -6.5 l 0.2,43.6 c 3.9,1.3 7.5,2 11.3,2 10.8,0 16.9,-5.8 16.9,-15.6 0.1,-9.5 -5.7,-15.6 -14.4,-15.6 m -1.8,25.3 c -1.8,0 -3.7,-0.4 -5.7,-1.1 V 47.9 c 1.6,-0.7 3.9,-1.6 6.2,-1.6 5.4,0 8.9,3.6 8.9,9.7 0.1,6.2 -3.4,9.7 -9.4,9.7" />
</svg>
