<?xml version="1.0" encoding="UTF-8" standalone="no"?>
<!-- Created with Inkscape (http://www.inkscape.org/) -->

<svg
   width="31.513653mm"
   height="28.771135mm"
   viewBox="0 0 31.513653 28.771135"
   version="1.1"
   id="svg1"
   xml:space="preserve"
   xmlns="http://www.w3.org/2000/svg"
   xmlns:svg="http://www.w3.org/2000/svg"><defs
     id="defs1"><style
       id="style1">.cls-1,.cls-2{fill:none;stroke:#020202;stroke-miterlimit:10;stroke-width:1.91px;}.cls-1{stroke-linecap:square;}</style></defs><g
     id="layer12"
     transform="translate(-98.792855,-58.963229)"><g
       id="briefcase_simple"
       data-name="briefcase simple"
       transform="matrix(1.4278369,0,0,1.4278369,97.415704,56.214746)"
       style="fill:none;fill-opacity:1;stroke:#7caeae;stroke-width:1.07015;stroke-dasharray:none;stroke-opacity:1"><rect
         class="cls-1"
         x="1.5"
         y="6.27"
         width="21"
         height="15.27"
         rx="1.91"
         id="rect1"
         style="fill:none;fill-opacity:1;stroke:#7caeae;stroke-width:1.07015;stroke-dasharray:none;stroke-opacity:1" /><path
         class="cls-2"
         d="m 13.91,13 h 4.77 A 3.81,3.81 0 0 0 22.5,9.14 v -1 A 1.91,1.91 0 0 0 20.59,6.23 H 3.41 A 1.91,1.91 0 0 0 1.5,8.18 v 1 A 3.81,3.81 0 0 0 5.32,13 Z"
         id="path1-3"
         style="fill:none;fill-opacity:1;stroke:#7caeae;stroke-width:1.07015;stroke-dasharray:none;stroke-opacity:1" /><line
         class="cls-1"
         x1="12"
         y1="12"
         x2="12"
         y2="13.91"
         id="line1"
         style="fill:none;fill-opacity:1;stroke:#7caeae;stroke-width:1.07015;stroke-dasharray:none;stroke-opacity:1" /><polygon
         class="cls-1"
         points="8.18,6.27 9.14,2.46 14.86,2.46 15.82,6.27 "
         id="polygon1"
         style="fill:none;fill-opacity:1;stroke:#7caeae;stroke-width:1.07015;stroke-dasharray:none;stroke-opacity:1" /></g></g></svg>
