<?xml version="1.0" encoding="UTF-8" standalone="no"?>
<!-- Created with Inkscape (http://www.inkscape.org/) -->

<svg
   width="211.66664mm"
   height="211.66667mm"
   viewBox="0 0 211.66664 211.66667"
   version="1.1"
   id="svg1"
   xml:space="preserve"
   xmlns="http://www.w3.org/2000/svg"
   xmlns:svg="http://www.w3.org/2000/svg"><defs
     id="defs1" /><g
     id="layer1"
     transform="translate(140.75832,-2.9104172)"><path
       fill="#494c4e"
       d="m -34.924997,20.549306 c 48.630416,0 88.194444,39.564028 88.194444,88.194444 0,48.63042 -39.564028,88.19444 -88.194444,88.19444 -48.630417,0 -88.194443,-39.56402 -88.194443,-88.19444 0,-48.630416 39.564026,-88.194444 88.194443,-88.194444 m 0,-17.6388888 c -58.446458,0 -105.833333,47.3868748 -105.833333,105.8333328 0,58.44646 47.386875,105.83333 105.833333,105.83333 58.446458,0 105.833333,-47.38687 105.833333,-105.83333 0,-58.446458 -47.386875,-105.8333328 -105.833333,-105.8333328 z"
       id="path1"
       style="fill:#7caeae;fill-opacity:1;stroke-width:8.81944" /><path
       fill="#494c4e"
       d="m -48.154164,148.43125 c -3.704166,0 -7.231944,-1.55222 -9.648472,-4.26861 L -83.93465,117.96889 c -2.416527,-2.29306 -3.907014,-5.7591 -3.907014,-9.34861 0,-3.57188 1.499306,-7.03792 4.074584,-9.507363 4.250972,-4.524375 13.731875,-4.850695 18.635486,0.326319 l 16.97743,17.021524 43.5945139,-43.726801 c 4.58611106,-4.850695 13.8906249,-5.027084 18.8030551,0.176388 2.257778,2.134306 3.748264,5.591528 3.748264,9.172223 0,3.545416 -1.446389,6.967361 -3.96875,9.419166 l -52.85493,53.022504 c -2.099028,2.35479 -5.617986,3.90701 -9.322153,3.90701 z"
       id="path2"
       style="fill:#7caeae;fill-opacity:1;stroke-width:8.81944" /></g></svg>
