<?xml version="1.0" encoding="UTF-8" standalone="no"?>
<!-- Created with Inkscape (http://www.inkscape.org/) -->

<svg
   width="113.42158mm"
   height="29.263702mm"
   viewBox="0 0 113.42158 29.263702"
   version="1.1"
   id="svg1"
   xml:space="preserve"
   xmlns="http://www.w3.org/2000/svg"
   xmlns:svg="http://www.w3.org/2000/svg"><defs
     id="defs1" /><g
     id="layer8"
     style="display:inline"
     transform="translate(-7.7595688,-144.91191)"><path
       d="m 17.693615,174.17561 v -3.75047 c -5.788555,-1.38589 -9.9340461,-6.58918 -9.9340461,-12.57512 0,-7.13422 5.8041641,-12.93812 12.9383891,-12.93812 1.371865,0.007 2.723886,0.21431 4.025371,0.64188 0.173567,0.0503 0.354013,0.11906 0.528902,0.18573 l 0.178329,0.0677 c 0.07885,0.0307 0.156369,0.0611 0.234421,0.0942 0.218546,0.0868 0.464344,0.19764 0.760148,0.34316 0.249767,0.12568 0.492125,0.25929 0.725488,0.40005 4.022724,2.37332 6.515364,7.27869 6.202891,12.20708 -0.480483,7.58349 -6.746875,13.98006 -14.900275,15.20931 z m 3.021541,-27.94106 c -0.0056,0 -0.01085,0 -0.01614,0 -6.405827,0 -11.6165315,5.2107 -11.6165315,11.61547 0,5.53747 3.9528745,10.32881 9.3993225,11.39322 l 0.534723,0.10452 v 3.27368 c 7.167827,-1.40546 12.590727,-7.12311 13.016971,-13.85331 0.281781,-4.44447 -1.951302,-8.85905 -5.556779,-10.98524 l -0.0056,-0.003 c -0.205846,-0.12409 -0.419365,-0.24209 -0.635,-0.35031 -0.258498,-0.127 -0.474398,-0.22463 -0.673894,-0.30374 -0.08017,-0.0339 -0.14605,-0.0598 -0.21299,-0.0857 l -0.168275,-0.0638 c -0.157427,-0.0601 -0.306123,-0.11642 -0.449791,-0.15875 -1.182953,-0.38867 -2.392627,-0.58261 -3.616061,-0.58261 z"
       id="path2-4"
       style="fill:#7caeae;fill-opacity:1;stroke-width:0.264583" /><path
       clip-rule="evenodd"
       d="m 18.246858,151.61961 c 0.374915,-0.0463 0.748507,0.0971 0.995892,0.38286 0.197379,0.18944 0.32385,0.44106 0.458258,0.69664 0.405607,0.89509 0.646113,2.17779 0.144463,2.89798 -0.906992,-0.17488 -2.099469,-1.04722 -2.504811,-1.9423 -0.134408,-0.25532 -0.213254,-0.58473 -0.218545,-0.8427 -0.01323,-0.64532 0.536839,-1.12448 1.124743,-1.19248 z"
       fill-rule="evenodd"
       id="path3-7"
       style="fill:#7caeae;fill-opacity:1;stroke-width:0.264583" /><path
       clip-rule="evenodd"
       d="m 15.29649,154.67317 c 0.06773,-0.003 0.128852,-0.008 0.201348,0 0.322527,0 0.584464,0.0728 0.906991,0.20188 0.903023,0.38708 1.91135,1.33244 2.10529,2.17117 -0.774436,0.5162 -2.169848,0.47387 -3.072871,0.0868 -0.257969,-0.12912 -0.508529,-0.2704 -0.766498,-0.46381 -0.846667,-0.66517 -0.391583,-1.9439 0.62574,-1.99602 z"
       fill-rule="evenodd"
       id="path4-6"
       style="fill:#7caeae;fill-opacity:1;stroke-width:0.264583" /><path
       clip-rule="evenodd"
       d="m 16.404829,161.12477 c -0.257969,0.12912 -0.584464,0.20188 -0.906991,0.20188 -1.161521,0.0646 -1.725878,-1.28588 -0.887148,-1.99549 0.19341,-0.19341 0.44397,-0.33549 0.766498,-0.46461 0.338666,-0.14526 0.693472,-0.21484 1.048279,-0.22119 0.58711,-0.0106 1.595437,-0.14182 2.084387,0.18388 -0.129117,0.83873 -1.202002,1.90844 -2.105025,2.29553 z"
       fill-rule="evenodd"
       id="path5-1"
       style="fill:#7caeae;fill-opacity:1;stroke-width:0.264583" /><path
       clip-rule="evenodd"
       d="m 20.126987,163.20148 c -0.128852,0.25797 -0.249766,0.50827 -0.443177,0.7665 -0.645054,0.83873 -2.141273,0.24977 -2.076714,-0.84719 0,-0.25797 0.07276,-0.56833 0.201877,-0.82656 0.387085,-0.90329 1.439598,-2.01295 2.34315,-2.20636 0.516202,0.77417 0.36195,2.27489 -0.02514,3.11361 z"
       fill-rule="evenodd"
       id="path6-6"
       style="fill:#7caeae;fill-opacity:1;stroke-width:0.264583" /><path
       clip-rule="evenodd"
       d="m 21.707608,152.67768 c 0.128852,-0.25797 0.250032,-0.50826 0.443971,-0.7665 0.24765,-0.29395 0.62574,-0.44529 1.007798,-0.40322 0.602192,0.0619 1.169723,0.54451 1.128977,1.22978 0,0.25797 -0.0725,0.58897 -0.201348,0.8472 -0.387085,0.90329 -1.422135,1.79969 -2.325423,1.9931 -0.581025,-0.70961 -0.441325,-1.99707 -0.05398,-2.90036 z"
       fill-rule="evenodd"
       id="path7-1"
       style="fill:#7caeae;fill-opacity:1;stroke-width:0.264583" /><path
       clip-rule="evenodd"
       d="m 22.271965,163.96798 c -0.193675,-0.19341 -0.314325,-0.44767 -0.443178,-0.70591 -0.387085,-0.90328 -0.373591,-2.25478 0.142346,-2.96439 0.903023,0.19341 1.849173,1.15411 2.236259,2.0574 0.128852,0.25797 0.201877,0.58844 0.201877,0.8464 0.06482,0.96759 -1.427957,1.54067 -2.137304,0.7665 z"
       fill-rule="evenodd"
       id="path8-4"
       style="fill:#7caeae;fill-opacity:1;stroke-width:0.264583" /><path
       clip-rule="evenodd"
       d="m 26.223517,161.26606 c -0.322528,0 -0.58473,-0.0722 -0.907257,-0.20135 -0.903023,-0.38709 -1.893093,-1.29196 -2.086504,-2.13043 0.496358,-0.32596 1.412081,-0.36036 2.005806,-0.34951 0.360627,0.006 0.716757,0.081 1.04828,0.22199 0.257968,0.12911 0.507735,0.24976 0.765704,0.44317 0.903552,0.64506 0.335227,2.08069 -0.826029,2.01613 z"
       fill-rule="evenodd"
       id="path9-9"
       style="fill:#7caeae;fill-opacity:1;stroke-width:0.264583" /><path
       d="m 46.314123,154.13686 c -1.411553,0 -2.525713,0.46963 -3.342746,1.4097 -0.817034,0.94006 -1.22555,2.22726 -1.22555,3.86133 0,1.6809 0.3937,2.97974 1.181629,3.89599 0.787664,0.91678 1.910821,1.37504 3.368939,1.37504 0.896144,0 1.917965,-0.16113 3.065992,-0.48313 v 1.30889 c -0.890323,0.33391 -1.988344,0.50086 -3.294327,0.50086 -1.891771,0 -3.351477,-0.57415 -4.379383,-1.72191 -1.027906,-1.14803 -1.541727,-2.77918 -1.541727,-4.8932 0,-1.32371 0.247385,-2.48338 0.742421,-3.47875 0.49477,-0.99589 1.20941,-1.76291 2.143654,-2.30161 0.933979,-0.53895 2.033852,-0.8083 3.298825,-0.8083 1.346993,0 2.524125,0.24606 3.531658,0.73792 l -0.632619,1.2827 c -0.972608,-0.4572 -1.944687,-0.68553 -2.916766,-0.68553 z"
       id="path10-64"
       style="fill:#7caeae;fill-opacity:1;stroke-width:0.264583" /><path
       d="m 52.441343,156.2014 v 6.24602 c 0,0.78476 0.178594,1.37054 0.535782,1.7571 0.357187,0.38656 0.916516,0.5797 1.677987,0.5797 1.007269,0 1.743869,-0.27543 2.209535,-0.82576 0.465667,-0.5506 0.6985,-1.44965 0.6985,-2.6969 v -5.06016 h 1.458384 v 9.62846 h -1.20359 l -0.210873,-1.29144 h -0.07911 c -0.298715,0.4744 -0.713052,0.83741 -1.243013,1.08929 -0.52996,0.25162 -1.134798,0.37783 -1.813983,0.37783 -1.17131,0 -2.048404,-0.27834 -2.631017,-0.8345 -0.582877,-0.55668 -0.874183,-1.44674 -0.874183,-2.6707 v -6.29894 z"
       id="path11"
       style="fill:#7caeae;fill-opacity:1;stroke-width:0.264583" /><path
       d="m 65.290304,166.00554 c -1.39409,0 -2.473061,-0.42889 -3.237177,-1.2872 -0.764382,-0.85778 -1.14644,-2.07169 -1.14644,-3.6412 0,-1.61078 0.387879,-2.85511 1.163902,-3.73353 0.776023,-0.87842 1.881187,-1.31763 3.316287,-1.31763 0.462492,0 0.925248,0.0497 1.388005,0.14923 0.462491,0.0995 0.825764,0.21643 1.089289,0.35137 l -0.447939,1.23878 c -0.322263,-0.12886 -0.67363,-0.23575 -1.0541,-0.32094 -0.380736,-0.0847 -0.71755,-0.127 -1.01018,-0.127 -1.956329,0 -2.934229,1.24751 -2.934229,3.74253 0,1.18295 0.23839,2.09073 0.715963,2.72335 0.477308,0.63262 1.184539,0.9488 2.121694,0.9488 0.802216,0 1.625335,-0.17277 2.468562,-0.51832 v 1.29143 c -0.644525,0.33338 -1.455473,0.50033 -2.433637,0.50033 z"
       id="path12"
       style="fill:#7caeae;fill-opacity:1;stroke-width:0.264583" /><path
       d="m 70.777497,156.2014 v 6.24602 c 0,0.78476 0.178594,1.37054 0.535781,1.7571 0.357188,0.38656 0.916517,0.5797 1.677988,0.5797 1.007269,0 1.743869,-0.27543 2.209535,-0.82576 0.465667,-0.5506 0.6985,-1.44965 0.6985,-2.6969 v -5.06016 h 1.458384 v 9.62846 h -1.20359 l -0.210873,-1.29144 h -0.07911 c -0.298715,0.4744 -0.713052,0.83741 -1.243013,1.08929 -0.530225,0.25162 -1.134798,0.37783 -1.813983,0.37783 -1.171575,0 -2.048404,-0.27834 -2.631017,-0.8345 -0.582877,-0.55668 -0.874183,-1.44674 -0.874183,-2.6707 v -6.29894 z"
       id="path13"
       style="fill:#7caeae;fill-opacity:1;stroke-width:0.264583" /><path
       d="m 91.986497,165.82986 v -6.26375 c 0,-0.76729 -0.164042,-1.3425 -0.49186,-1.72641 -0.328084,-0.38338 -0.837671,-0.5752 -1.528498,-0.5752 -0.90805,0 -1.578504,0.26035 -2.011892,0.78184 -0.433652,0.52123 -0.650081,1.32345 -0.650081,2.40718 v 5.37634 h -1.458384 v -6.26375 c 0,-0.76729 -0.164041,-1.3425 -0.49186,-1.72641 -0.328083,-0.38338 -0.840581,-0.5752 -1.537494,-0.5752 -0.913606,0 -1.582737,0.27384 -2.007393,0.82127 -0.424657,0.54768 -0.636852,1.44541 -0.636852,2.69292 v 5.05143 h -1.458384 v -9.62872 h 1.185863 l 0.237066,1.31763 h 0.07038 c 0.275166,-0.46858 0.66331,-0.8345 1.163902,-1.09802 0.500591,-0.26353 1.061508,-0.39529 1.68222,-0.39529 1.50495,0 2.488936,0.54478 2.951692,1.63407 h 0.07038 c 0.286809,-0.50377 0.702734,-0.90197 1.247511,-1.19486 0.544777,-0.2929 1.165225,-0.43921 1.862402,-0.43921 1.089289,0 1.904735,0.27966 2.446602,0.83873 0.541602,0.55959 0.812535,1.45415 0.812535,2.6842 v 6.28121 z"
       id="path14"
       style="fill:#7caeae;fill-opacity:1;stroke-width:0.264583" /><path
       d="m 100.23329,156.04318 c 1.26498,0 2.24738,0.43207 2.94746,1.2954 0.69983,0.86413 1.04987,2.08677 1.04987,3.66792 0,1.58115 -0.35295,2.80961 -1.0586,3.68512 -0.70591,0.87603 -1.68539,1.31365 -2.93846,1.31365 -0.626799,0 -1.199092,-0.11588 -1.717411,-0.34713 -0.518319,-0.23098 -0.953294,-0.58711 -1.30466,-1.06706 h -0.105305 l -0.307445,1.23878 H 95.75337 v -13.6697 h 1.458383 v 3.32078 c 0,0.74375 -0.02355,1.41129 -0.07038,2.0029 h 0.07038 c 0.678656,-0.96044 1.68619,-1.44066 3.021537,-1.44066 z m -0.21087,1.22105 c -0.99589,0 -1.713175,0.28523 -2.152384,0.8562 -0.439208,0.57097 -0.658812,1.53326 -0.658812,2.88607 0,1.35282 0.225425,2.32066 0.67654,2.90327 0.45085,0.58288 1.17422,0.87445 2.169846,0.87445 0.89615,0 1.56369,-0.32649 2.0029,-0.97975 0.43921,-0.65273 0.65881,-1.59147 0.65881,-2.81543 0,-1.25333 -0.2196,-2.18758 -0.65881,-2.80247 -0.43921,-0.61489 -1.11866,-0.92234 -2.03809,-0.92234 z"
       id="path15"
       style="fill:#7caeae;fill-opacity:1;stroke-width:0.264583" /><path
       d="m 110.26629,166.00554 c -1.42319,0 -2.54635,-0.43365 -3.36893,-1.30016 -0.82286,-0.86678 -1.23429,-2.07037 -1.23429,-3.61051 0,-1.55204 0.38206,-2.78474 1.14644,-3.69861 0.76438,-0.91387 1.7907,-1.37054 3.07922,-1.37054 1.2065,0 2.16112,0.39687 2.86385,1.1901 0.70274,0.79375 1.0541,1.8407 1.0541,3.14086 v 0.92234 h -6.63257 c 0.0291,1.13004 0.31459,1.98835 0.85646,2.57413 0.5416,0.58553 1.30466,0.87842 2.28838,0.87842 1.03663,0 2.06137,-0.21669 3.07472,-0.65008 v 1.30016 c -0.51541,0.22252 -1.00304,0.38179 -1.46262,0.47863 -0.46011,0.0966 -1.01467,0.14526 -1.66476,0.14526 z m -0.39528,-8.75877 c -0.77312,0 -1.38959,0.25162 -1.84918,0.75539 -0.45984,0.5035 -0.73077,1.20041 -0.81253,2.09073 h 5.0337 c 0,-0.91969 -0.20506,-1.62374 -0.61489,-2.11296 -0.41037,-0.48868 -0.9959,-0.73316 -1.7571,-0.73316 z"
       id="path16"
       style="fill:#7caeae;fill-opacity:1;stroke-width:0.264583" /><path
       d="m 120.03021,156.02572 c 0.42731,0 0.81095,0.0352 1.15094,0.1053 l -0.20214,1.35282 c -0.39846,-0.0878 -0.74983,-0.13176 -1.0541,-0.13176 -0.77893,0 -1.44516,0.31617 -1.99866,0.94879 -0.55351,0.63262 -0.83027,1.42002 -0.83027,2.36326 v 5.16546 h -1.45838 v -9.62819 h 1.20359 l 0.16695,1.78329 h 0.0704 c 0.35719,-0.62679 0.78767,-1.10992 1.29143,-1.44965 0.5035,-0.33972 1.05701,-0.50932 1.66026,-0.50932 z"
       id="path17"
       style="fill:#7caeae;fill-opacity:1;stroke-width:0.264583" /></g></svg>
