<?xml version="1.0" encoding="UTF-8" standalone="no"?>
<!-- Created with Inkscape (http://www.inkscape.org/) -->

<svg
   width="28.64287mm"
   height="33.50679mm"
   viewBox="0 0 28.64287 33.50679"
   version="1.1"
   id="svg1"
   xml:space="preserve"
   xmlns="http://www.w3.org/2000/svg"
   xmlns:svg="http://www.w3.org/2000/svg"><defs
     id="defs1"><style
       id="style1">.cls-1,.cls-2{fill:none;stroke:#020202;stroke-miterlimit:10;stroke-width:1.91px;}.cls-1{stroke-linecap:square;}</style></defs><g
     id="layer13"
     transform="translate(-59.000827,-56.642572)"><path
       fill="#494c4e"
       d="m 67.377523,66.415384 c 0,1.158776 -0.935398,2.094174 -2.094174,2.094174 -0.614291,0 -1.172738,-0.265262 -1.549689,-0.698058 h -3.336718 c -0.767864,0 -1.396116,-0.628252 -1.396116,-1.396116 0,-0.767864 0.628252,-1.396116 1.396116,-1.396116 h 3.336718 c 0.376951,-0.432796 0.935398,-0.698058 1.549689,-0.698058 1.158776,0 2.094174,0.935397 2.094174,2.094174 z m 0,13.961161 c 0,1.158776 -0.935398,2.094174 -2.094174,2.094174 -0.614291,0 -1.172738,-0.265262 -1.549689,-0.698058 h -3.336718 c -0.767864,0 -1.396116,-0.628252 -1.396116,-1.396116 0,-0.767864 0.628252,-1.396116 1.396116,-1.396116 h 3.336718 c 0.376951,-0.432796 0.935398,-0.698058 1.549689,-0.698058 1.158776,0 2.094174,0.935397 2.094174,2.094174 z"
       id="path1-6"
       style="fill:#7caeae;fill-opacity:1;stroke:none;stroke-width:1.396;stroke-dasharray:none;stroke-opacity:1" /><path
       fill="#494c4e"
       d="m 87.6437,59.434803 v 27.922322 c 0,1.535728 -1.256504,2.792232 -2.792232,2.792232 H 65.305842 c -1.535727,0 -2.792232,-1.256504 -2.792232,-2.792232 v -1.396116 c 0,-0.767864 0.628253,-1.396116 1.396116,-1.396116 0.767864,0 1.396116,0.628252 1.396116,1.396116 v 0.698058 c 0,0.390913 0.307146,0.698058 0.698059,0.698058 H 84.15341 c 0.390912,0 0.698058,-0.307145 0.698058,-0.698058 V 60.132861 c 0,-0.390912 -0.307146,-0.698058 -0.698058,-0.698058 H 66.003901 c -0.390913,0 -0.698059,0.307146 -0.698059,0.698058 v 0.698058 c 0,0.767864 -0.628252,1.396116 -1.396116,1.396116 -0.767863,0 -1.396116,-0.628252 -1.396116,-1.396116 v -1.396116 c 0,-1.535728 1.256505,-2.792232 2.792232,-2.792232 h 19.545626 c 1.535728,0 2.792232,1.256504 2.792232,2.792232 z"
       id="path2-9"
       style="fill:#7caeae;fill-opacity:1;stroke:none;stroke-width:1.396;stroke-dasharray:none;stroke-opacity:1" /><path
       fill="#494c4e"
       d="m 67.377523,73.395964 c 0,1.158777 -0.935398,2.094174 -2.094174,2.094174 -0.614291,0 -1.172738,-0.265262 -1.549689,-0.698058 h -3.336718 c -0.767864,0 -1.396116,-0.628252 -1.396116,-1.396116 0,-0.767864 0.628252,-1.396116 1.396116,-1.396116 h 3.336718 c 0.376951,-0.432796 0.935398,-0.698058 1.549689,-0.698058 1.158776,0 2.094174,0.935398 2.094174,2.094174 z"
       id="path3-43"
       style="fill:#7caeae;fill-opacity:1;stroke:none;stroke-width:1.396;stroke-dasharray:none;stroke-opacity:1" /><path
       style="fill:none;fill-opacity:1;stroke:#7caeae;stroke-width:1.89633;stroke-linecap:round;stroke-dasharray:none;stroke-dashoffset:0;stroke-opacity:1;paint-order:markers fill stroke"
       d="M 69.915781,65.351703 H 82.52288"
       id="path184" /><path
       style="fill:none;fill-opacity:1;stroke:#7caeae;stroke-width:1.89633;stroke-linecap:round;stroke-dasharray:none;stroke-dashoffset:0;stroke-opacity:1;paint-order:markers fill stroke"
       d="M 69.915781,70.785301 H 82.52288"
       id="path184-5" /><path
       style="fill:none;fill-opacity:1;stroke:#7caeae;stroke-width:1.89633;stroke-linecap:round;stroke-dasharray:none;stroke-dashoffset:0;stroke-opacity:1;paint-order:markers fill stroke"
       d="M 69.915781,76.218899 H 82.52288"
       id="path184-5-1" /><path
       style="fill:none;fill-opacity:1;stroke:#7caeae;stroke-width:1.89633;stroke-linecap:round;stroke-dasharray:none;stroke-dashoffset:0;stroke-opacity:1;paint-order:markers fill stroke"
       d="M 69.915781,81.652497 H 82.52288"
       id="path184-5-1-2" /></g></svg>
