<?xml version="1.0" encoding="UTF-8" standalone="no"?>
<!-- Created with Inkscape (http://www.inkscape.org/) -->

<svg
   width="165.14969mm"
   height="165.15329mm"
   viewBox="0 0 165.14969 165.15329"
   version="1.1"
   id="svg1"
   xml:space="preserve"
   xmlns="http://www.w3.org/2000/svg"
   xmlns:svg="http://www.w3.org/2000/svg"><defs
     id="defs1" /><g
     id="layer1"
     transform="translate(67.624313,6.7704802)"><path
       id="path2"
       style="fill:#7caeae;fill-opacity:1;stroke:none;stroke-width:0;stroke-dasharray:none;stroke-opacity:1"
       d="m -41.488281,-6.7558594 c -10.848998,0.2882233 -21.120482,7.8017576 -24.602328,18.0948354 -3.179042,8.875472 -1.346811,19.399758 4.853721,26.542403 3.765732,4.472191 9.003416,7.618803 14.651387,9.067416 0.818278,0.475827 0.700475,1.577464 0.88801,2.37162 0.226678,2.983017 0.02332,5.977202 0.101721,8.965132 -6.29e-4,15.060417 -0.0013,30.120833 -0.0019,45.181253 -5.880209,0 -11.760417,0 -17.640625,0 0,15.16862 0,30.33724 0,45.50586 15.169271,0 30.338541,0 45.507812,0 0,-5.87956 0,-11.75912 0,-17.63868 18.67317733,0 37.346354,0 56.019531,0 9.019838,9.01597 18.037223,18.0344 27.058594,27.04883 10.727428,-10.72178 21.453562,-21.44488 32.177735,-32.16992 -8.810229,-8.81953 -17.632225,-17.62491 -26.404297,-26.482421 -1.176308,-2.432103 -0.451667,-5.188098 -0.654313,-7.772266 -0.0013,-16.273177 -0.0026,-32.546354 -0.0039,-48.819531 5.879557,0 11.759114,0 17.638671,0 10e-7,-15.16862 0,-30.33724 0,-45.5058595 -15.168619,0 -30.337239,0 -45.505859,0 0,15.1686195 0,30.3372395 0,45.5058595 5.879557,0 11.759115,0 17.638672,0 0,18.667318 0,37.334635 0,56.001953 -7.318359,7.321615 -14.636719,14.643225 -21.955078,21.964845 -18.669922,0 -37.33984388,0 -56.009766,0 0,-5.87956 0,-11.75912 0,-17.63867 -5.879557,0 -11.759114,0 -17.638672,0 0,-18.765628 0,-37.531253 0,-56.296878 9.191751,-1.93275 17.38717,-8.692726 20.457133,-17.650872 3.201891,-8.898253 1.413065,-19.476012 -4.819279,-26.6442151 -5.202735,-6.187611 -13.261138,-9.8843548 -21.358546,-9.6332928 -0.132816,8.661e-4 -0.265632,0.00173 -0.398448,0.0026 z m 0.886719,10.1992188 c 1.295771,-0.021662 2.473473,0.1084794 3.763671,0.390625 1.482044,0.3453964 3.117041,0.9622936 4.508756,1.7656149 4.665967,2.5975697 8.171199,7.4528777 8.661382,12.8085997 0.205638,1.662826 0.138244,3.272893 -0.147417,4.839307 -0.92898,5.244342 -4.379532,10.130926 -9.298111,12.406791 -5.845463,2.78839 -13.309102,2.002546 -18.241092,-2.276995 -4.870576,-4.057999 -7.19586,-10.96245 -5.568709,-17.117611 1.568019,-6.2874456 6.996738,-11.4646545 13.421581,-12.5172468 0.955921,-0.181817 1.928098,-0.2658309 2.899939,-0.2990848 z M 77.871094,7.8613281 c 0,8.3496099 0,16.6992189 0,25.0488279 -8.34961,0 -16.699219,0 -25.048828,0 0,-8.349609 0,-16.699218 0,-25.0488279 8.349609,0 16.699218,0 25.048828,0 z M 83.044922,126.2168 c -5.899089,5.90039 -11.798177,11.80078 -17.697266,17.70117 -5.899739,-5.89974 -11.799479,-11.79948 -17.699218,-17.69922 5.899739,-5.89974 11.799479,-11.79948 17.699218,-17.69922 5.899089,5.89909 11.798177,11.79818 17.697266,17.69727 z m -111.00586,-12.52149 c 0,8.34961 10e-7,16.69922 0,25.04883 -8.349609,0 -16.699218,0 -25.048828,0 0,-8.34961 0,-16.69922 0,-25.04883 8.34961,0 16.699219,0 25.048828,0 z" /></g><style
     type="text/css"
     id="style1">
	.st0{fill:#000000;}
</style></svg>
