<?xml version="1.0" encoding="UTF-8" standalone="no"?>
<!-- Created with Inkscape (http://www.inkscape.org/) -->

<svg
   version="1.1"
   id="svg1"
   width="2163.3503"
   height="2263.8528"
   viewBox="0 0 2163.3504 2263.8528"
   xmlns="http://www.w3.org/2000/svg"
   xmlns:svg="http://www.w3.org/2000/svg">
  <defs
     id="defs1" />
  <g
     id="g1"
     style="display:inline"
     transform="translate(-333.05441,-282.8269)">
    <path
       d="m 1490.4384,283.01007 h -0.01 c -15.2353,-0.393 -30.6324,-0.172 -39.2422,0.8418 -27.1282,3.194 -54.4879,10.6989 -75.707,20.7675 -20.4956,9.7254 -42.6885,26.94458 -52.9063,41.04888 l -3.8887,5.3672 v 0.2851 c -3.706,5.7895 -8.9678,17.0874 -10.7363,23.3496 -2.2199,7.8609 -2.2835,28.2082 -0.1152,36.8047 l 1.7148,6.79493 -3.9101,1.0137 c -9.3903,2.4323 -20.6468,5.9271 -25.0137,7.7676 l -6.0176,2.5371 c -3.4484,0.8586 -15.5253,8.7813 -21.875,14.582 -16.8412,15.3846 -20.7177,37.2982 -12.0332,63.0117 -0.519,-1.528 -0.9894,-2.9964 -1.3769,-4.3164 l -2.8692,-9.7734 -6.1328,5.1055 -2.9433,2.4511 v -0.012 l -0.059,0.061 -3.1309,2.6075 v 0.6269 l -4.5566,4.7051 c -15.5705,16.0792 -28.6594,39.262 -37.6465,66.6836 l -1.2657,3.8633 -0.01,-1.2149 -1.1992,4.8985 -2.1602,6.5917 v 2.2266 l -0.2324,0.9512 c -7.2335,29.5424 -8.4059,41.7308 -8.3399,86.6719 0.065,44.0571 1.0305,55.6328 8.2813,99.3378 l 0.3457,2.0801 v 2.586 l 2.6309,13.2793 0.6738,4.0566 v -0.6406 l 0.4629,2.3301 -5.4688,0.8691 c -13.1448,2.0858 -28.2616,12.4634 -35.0703,24.0762 -4.0888,6.9736 -6.837,14.9062 -8.248,23.9941 -0.3001,0.7156 -0.5155,2.61 -0.6504,5.2227 -0.7794,8.1501 -0.5815,17.1727 0.5918,27.1914 0.1137,1.3013 0.2404,2.5209 0.3789,3.6289 0.5108,4.0863 0.8284,6.5031 1.0469,6.5469 h 0.01 c 9e-4,-3e-4 0.01,0 0.01,0 v 0 0 0 0 0 c 0,-2e-4 0,1e-4 0,0 v 0 0 0 0 c 0,-2e-4 0,1e-4 0,0 v 0 0 0 0 0 0 0 0 0 c 1.2083,7.12599 2.8515,14.71409 4.9258,22.79879 14.2481,55.5332 22.179,73.9835 35.3184,82.1679 1.7736,1.1047 3.7746,2.05123 4.9648,2.37703 0.2015,0.333 0.4265,0.4709 0.6797,0.5371 5.2441,1.3698 19.2758,7.771 17.9765,14.9179 -3.0858,16.9742 -3.6389,23.633 -3.6289,44.002 0.01,20.1615 0.4987,26.1962 3.0762,37.7227 5.4914,24.5583 12.5737,43.4292 24.0645,64.1171 l 2.8437,5.1211 v 0.6797 l 2.4317,3.6973 0.9277,1.6719 v -0.2578 l 5.0879,7.7363 c 10.0849,15.3394 21.6369,30.0038 33.7129,42.7988 2.1758,2.3054 4.2187,4.4243 5.8398,6.0625 v 0.2168 l 8.3379,7.9082 c 10.3855,9.8504 20.326,18.1889 32.209,27.0176 2.2997,1.7086 -0.4524,55.6985 -1.1543,62.4897 -1.8225,7.0009 4.0417,8.8907 -0.4688,7.2227 l -0.83,12.2265 c -0.2643,3.8945 -0.4179,8.9809 -0.4785,14.7579 l -4.5137,1.0097 c -7.5568,1.6921 -18.3502,6.0296 -26.0938,10.4844 l -7.0039,4.0273 v 0.4746 c -4.226,3.2449 -11.2215,10.3622 -14.7949,15.5098 l -4.8223,6.9473 -1.0273,-4.6328 -10.668,0.707 c -19.1992,1.2741 -50.4381,11.2445 -91.6836,29.2637 l -18.3359,8.0117 v 0.3105 l -11.6426,5.4649 c -6.3312,2.9718 -18.5438,9.0674 -31.039,15.4258 26.9201,-13.2795 16.3307,-10.3683 -9.4805,-1.6172 -25.5017,8.6969 -52.7881,18.9976 -78.17,29.5117 l -11.00189,4.5586 v 0.1484 c -14.7376,5.5243 -77.6363,37.4876 -90.87891,46.1114 -0.098,-0.1638 -0.2195,-0.2598 -0.3496,-0.2598 -0.3234,0 -0.9588,0.5987 -1.4121,1.332 -0.059,0.096 -0.1054,0.1891 -0.1406,0.2793 -0.362,0.3026 -0.5508,0.524 -0.5508,0.6543 0,0.1427 0.2676,0.2265 0.7285,0.2539 0.076,0.052 0.1687,0.093 0.2754,0.1172 l -5.3125,0.6953 c -3.8507,0.5042 -15.1041,2.3846 -25.0059,4.1778 -39.1693,7.0931 -58.8263,13.905 -67.3515,23.3398 -11.4529,12.675 -22.1562,45.8204 -18.5079,36.5059 0.5701,-1.4556 -5.0832,2.6906 -12.5625,9.2148 l -9.5722,8.3496 v -0.2285 l -1.8145,1.8105 -2.2109,1.9297 v 0.2774 l -21.9902,21.957 -26.0118,25.9746 v 0.4395 l -9.3027,10.4511 c -6.964,7.8253 -18.2204,20.8409 -25.0137,28.9219 l -12.3515,14.6934 v 0.1211 l -2.4571,2.9492 c -3.5668,4.281 -14.9737,18.7838 -25.3476,32.2305 l -15.502,20.0937 v -0.023 l -0.2363,0.33 -3.123,4.0489 v 0.3222 l -12.1797,17.0411 c -8.5471,11.9582 -19.8036,28.3095 -25.0137,36.3378 l -9.4727,14.5977 v 0.2832 c -9.2578,14.4936 -36.6599,61.9988 -44.4843,77.4785 l -2.8887,5.7149 -0.7402,1.3281 c -6.7242,12.0537 -23.4909,45.751 -35.3946,71.1367 l -11.1601,23.8008 v 0.6269 l -0.8282,1.7696 c -8.1135,17.332 -21.679,48.959 -33.9707,79.2031 l -8.5058,20.9316 v -0.4199 l -2.0137,5.377 -1.3457,3.3125 v 0.2832 l -9.7383,26.0097 c -7.2033,19.2402 -18.4578,51.0507 -25.0117,70.6914 l -11.916,35.711 v 1.6601 l -0.1758,0.5313 c -16.3867,49.4425 -34.2609,123.3722 -41.2773,170.7246 -2.3627,15.9455 -3.0836,27.91 -3.5547,59.0039 l -0.5918,39.0039 h 14.5566 14.5567 0.5039 10.0058 10.0039 21.3203 25.3477 23.1816 23.4844 21.3203 25.3457 21.9864 26.0136 21.3203 21.3204 25.3457 25.3476 12.6758 16.7031 8.6446 8.6425 21.9864 26.0136 67.9942 67.9804 49.34571 49.3477 68.65229 72.6797 68.6543 72.6797 21.3203 25.3457 162.6543 166.6797 21.3203 25.3457 68.6543 72.6797 44.6524 48.6816 68.6523 72.6797 28.5528 32.5781 l 0.6621,-1.7148 c -0.2654,1.5654 2.1186,1.7148 15.3945,1.7148 h 16.1465 21.9863 26.0137 21.3086 21.332 25.3457 25.3477 21.3301 25.3594 21.9628 26.0137 13.3164 17.3418 8.0039 8.0039 20.8438 24.8711 l -0.9336,-13.668 c -1.6343,-23.9283 -8.3065,-49.0883 -20.1641,-76.041 -4.0983,-9.3155 -12.8792,-24.1941 -19.4902,-33.6211 2.1179,2.575 3.6256,4.3042 3.7012,4.2149 0.1063,-0.1257 -0.3387,-11.3306 -0.9883,-24.8985 -1.3011,-27.1763 -5.3239,-69.4628 -9.1074,-95.7246 l -0.127,-0.8828 c -0.3458,-3.415 -0.7804,-6.8254 -1.3203,-10.7246 -5.9005,-42.6099 -16.0038,-97.1282 -27.4297,-148.0078 -4.3999,-19.5927 -12.0342,-50.8722 -16.5117,-68.1289 v -0.6895 l -7.8985,-28.2578 c -11.6474,-41.6681 -32.5187,-106.0278 -40.1132,-125.1972 v -1.1758 l -2.0078,-5.0918 c -1e-4,0 -3e-4,2e-4 0,-0.01 l -7.8282,-19.8457 c -11.0437,-28.0014 -24.1939,-57.801 -34.0918,-77.2539 l -2.7363,-5.3789 v -0.6895 l -22.8262,-44.0214 c -11.8005,-22.7579 -21.4344,-41.019 -23.8359,-45.2832 v -0.066 l -1.5039,-2.791 -5.3848,-9.9961 c -8.6189,-15.9997 -27.2492,-47.8664 -36.6679,-62.7207 l -3.1133,-4.9101 v -0.336 l -3.0625,-4.4941 -0.9649,-1.5215 v 0.1055 l -3.5234,-5.1699 c -12.5356,-18.3921 -25.8537,-35.5596 -35.3633,-45.5879 l -5.0859,-5.3633 v -0.4277 l -11.3359,-10.8809 c -24.2958,-23.3191 -53.6139,-37.4883 -77.5683,-37.4883 h -8.4551 -0.4727 c -3.0592,0 -9.142,-2.6356 -19.0039,-8.2363 -26.587,-15.099 -102.0298,-50.2503 -117.8301,-55.1856 v -0.059 l -18.3399,-6.8105 c -17.6085,-6.5388 -62.6324,-21.7375 -64.2402,-21.6855 -0.4267,0.014 13.3264,7.2531 30.5644,16.0878 13.1965,6.7633 24.9763,13.0024 30.168,15.9454 -5.9274,-3.3217 -20.5837,-10.9954 -37.1699,-19.4278 l -38.3438,-19.4922 v 0.2715 l -10.3086,-4.6875 c -49.1484,-22.3531 -89.0305,-35.3887 -108.2715,-35.3887 -5.851,0 -6.7869,0.3796 -7.3964,3 -7.9662,26.9866 -3.477,28.6275 -1.25,0.3125 -0.3657,-1.4776 -3.661,-5.9775 -7.3242,-10 l -2.754,-3.0234 v -0.4199 l -2.875,-2.7344 -1.0332,-1.1348 v 0.1504 l -0.4257,-0.4043 c -6.8217,-6.4878 -16.6714,-11.8824 -29.6836,-16.2558 l -12.0059,-4.0352 -0.2715,8.0782 -1.0332,-0.668 0.061,-1.211 c 1.2519,-2.7418 0.9539,-13.6143 -0.8067,-35.8476 l -0.1113,-1.4121 c -1.4824,-25.5006 -3.7859,-58.1506 -4.5117,-60.5918 -0.1,-0.3366 -1.1084,-0.037 -2.7793,0.7676 v 0.01 c -2.6834,1.2931 1.6523,-2.0234 1.6523,-2.0234 38.3326,-47.0548 74.6911,-91.6825 109.0723,-133.8867 14.6258,-35.817 17.7153,-72.6096 10.2012,-117.3086 -1.3019,-7.7448 -1.2503,-11.389 -2.209,-17.80863 0.3502,1.07313 0.6931,1.86883 1.0156,2.08983 2.962,2.0302 20.1791,0.3993 24.8418,-2.35353 l 4.2402,-2.5039 v -0.3477 c 3.2528,-2.613 7.3923,-8.4937 11.0039,-15.7402 6.7901,-13.6244 21.9404,-66.1086 25.5957,-88.67179 5.3073,-32.7601 0.145,-58.7568 -14.6992,-74.0235 -4.5998,-4.7307 -16.0816,-11.6413 -21.9004,-13.5039 v -0.1679 l -3.0019,-0.8028 c -7.6131,-2.0392 -8.7236,-1.3057 -10.3301,6.8262 -0.311,1.5739 -0.9843,4.6283 -1.8828,8.5645 0.6707,-3.1348 1.2957,-6.1349 1.8535,-8.8985 5.6206,-27.8482 9.1166,-49.7862 11.1152,-71.873 0.5513,-4.0439 1.2995,-14.4893 2.3028,-30.9785 1.3834,-22.7423 1.3917,-32.7783 0.043,-52.004 -0.9554,-13.6188 -1.6866,-22.3131 -2.2383,-25.7246 -1.1578,-10.0677 -2.8776,-19.5173 -5.3672,-30.6562 -7.4476,-33.3228 -22.4729,-66.1913 -39.0586,-85.4414 l -0.1015,-0.1172 v -0.9356 l -9.4942,-9.5839 c -5.2216,-5.2711 -9.9438,-9.0839 -10.4922,-8.4727 -0.5484,0.6112 -1.7182,4.0873 -2.6015,7.7266 -0.5029,2.0717 -1.2186,4.3573 -2.1211,6.8066 3.488,-10.0187 4.8713,-19.542 4.4297,-29.4238 -0.4365,-9.7657 -1.2236,-13.3661 -4.2247,-19.334 -4.1015,-8.1563 -11.9322,-16.8741 -20.5215,-22.8496 l -2.3066,-1.6055 v -0.2012 l -1.3106,-0.7128 -2.0488,-1.4258 v 0.3125 l -3.3105,-1.8008 c -5.5225,-3.0025 -26.662,-10.4443 -37.4317,-13.2715 1.7606,-0.8992 3.7327,-9.69883 4.375,-19.92973 0.8341,-13.2842 -1.8481,-27.577 -6.9765,-37.1816 l -1.5,-2.8086 c -1.7707,-5.313 -4.9617,-9.3985 -10.7129,-16.4785 -21.8572,-26.90718 -62.2341,-47.44408 -110.4278,-56.16598 -7.9634,-1.4412 -23.0362,-2.4469 -38.2714,-2.8399 z m 157.2773,133.88281 c 0.7753,0.1449 1.3684,0.2445 1.7383,0.2871 0.044,0.053 0.091,0.1005 0.1386,0.1445 z m -406.6289,91.416 c 2.1672,6.1838 1.5294,4.3885 0,0 z m -59.707,295.0449 c 1.1834,5.9429 2.9948,14.3634 4.9043,22.8789 -1.7544,-7.4954 -3.1248,-13.5332 -3.5977,-15.916 -0.4096,-2.064 -0.8462,-3.722 -1.3066,-4.9609 z m 462.0195,560.31842 c 0.4216,0.2645 0.9076,0.4883 1.3125,0.7636 l 2.5742,1.75 z m -333.2246,24.875 c 0.1211,4.7368 0.1118,9.3123 0.2187,13.7949 -0.1222,-4.1539 -0.1914,-8.5142 -0.2148,-13.1387 z m -41.4258,1139.1155 c 1.4098,0.062 2.4476,0.1069 2.9629,0.1309 l 0.3066,0.014 v 0.1075 z m 3.457,0.2656 3.1778,0.068 h -2.2891 z m 40.9297,0.9844 c 1.3839,0.046 2.4946,0.086 3.2403,0.1211 l 2.3105,0.1074 v 0.1485 0.092 z"
       style="display:inline;fill:#f9f9f9"
       id="path533" />
    <path
       style="display:inline;fill:#d99b45;fill-opacity:1"
       d="m 1349.9759,403.14382 c 10.1025,-33.56588 71.9406,-57.30873 142.6279,-54.7622 40.8465,1.47151 76.2794,11.23795 100.0151,27.56738 9.131,6.2819 18.909,17.89925 21.4149,25.44339 1.2366,3.72268 1.9995,7.01729 1.6955,7.32135 -0.3041,0.30406 -9.7599,-1.25765 -21.0129,-3.47047 -24.834,-4.88343 -50.1712,-8.65261 -70.7133,-10.51934 -19.7076,-1.7909 -66.9347,-1.79277 -86.6736,-0.003 -23.6029,2.13961 -75.8967,10.58127 -86.9664,14.03875 -2.127,0.66434 -2.155,0.25799 -0.3872,-5.61543 z"
       id="path97" />
    <path
       style="display:inline;fill:#d37e59"
       d="m 1461.4932,1001.1031 c -3.7844,-1.87305 -7.2184,-5.03933 -9.7601,-8.99903 -3.6021,-5.61178 -3.8867,-6.93266 -3.4954,-16.22331 0.5099,-12.10696 3.8728,-17.96456 15.2404,-26.54662 8.2939,-6.26152 12.8205,-14.08931 15.9959,-27.66143 2.9792,-12.73362 1.9407,-41.14253 -2.0292,-55.50744 -1.5952,-5.77225 -2.6123,-10.78303 -2.2603,-11.13505 1.0571,-1.05704 8.3016,14.30591 11.4572,24.29676 4.0095,12.69407 5.0387,35.13073 2.2188,48.37338 -2.912,13.676 -7.9642,22.30147 -17.5283,29.92577 -8.2421,6.57038 -14.0011,15.05674 -14.0011,20.6315 0,4.43174 4.5187,12.71134 8.1319,14.89986 11.6796,7.07441 23.5144,2.88524 29.6517,-10.49597 3.1529,-6.87422 4.5408,-4.61973 2.2935,3.72557 -4.0189,14.92391 -21.2392,21.97981 -35.915,14.71601 z"
       id="path96" />
    <path
       style="display:inline;fill:#4f1c2a"
       d="m 1476.9993,1127.0203 c 3.1169,-0.2808 8.2173,-0.2808 11.3342,0 3.117,0.2807 0.5668,0.5104 -5.6671,0.5104 -6.2338,0 -8.784,-0.2297 -5.6671,-0.5104 z m -17.3347,-1.2402 c 0.9167,-0.3698 2.4168,-0.3698 3.3336,0 0.9167,0.3699 0.1667,0.6726 -1.6668,0.6726 -1.8335,0 -2.5836,-0.3027 -1.6668,-0.6726 z m 42.6701,0 c 0.9167,-0.3698 2.4168,-0.3698 3.3336,0 0.9167,0.3699 0.1666,0.6726 -1.6668,0.6726 -1.8335,0 -2.5836,-0.3027 -1.6668,-0.6726 z m 65.707,-6.9704 c -1.7461,-7.2783 -6.3128,-12.0137 -9.6439,-10.0004 -0.949,0.5736 0.2696,-1.2467 2.708,-4.0451 4.2837,-4.9162 4.4188,-5.4204 4.0003,-14.9312 -0.4165,-9.4661 -0.3174,-9.8431 2.5867,-9.8401 3.9315,0 7.747,6.26 8.7988,14.4265 0.8723,6.7733 -1.7686,21.7675 -4.8796,27.7046 l -1.9035,3.6329 z m -176.939,-1.1466 c -3.6356,-9.4221 -3.4347,-28.1288 0.3569,-33.2314 1.5403,-2.073 3.9937,-3.9481 5.452,-4.1669 2.4657,-0.3701 2.6431,0.3458 2.5331,10.223 -0.1045,9.3839 0.2444,11.0073 2.996,13.9386 l 3.1142,3.3178 -2.9026,0.9212 c -3.0045,0.9536 -6.6595,7.8808 -6.6595,12.6216 0,4.6953 -2.3528,2.9517 -4.8901,-3.6239 z"
       id="path94" />
    <path
       style="display:none;fill:#2f2418"
       d="m 1319.7617,764.4144 c 0.963,-0.38517 2.1136,-0.3378 2.5569,0.10526 0.4433,0.44306 -0.3446,0.7582 -1.7509,0.7003 -1.5541,-0.064 -1.8702,-0.37992 -0.806,-0.80556 z"
       id="path110" />
    <path
       id="path80"
       style="display:inline;fill:#ec7d5c"
       d="m 1649.6542,1367.8053 c -1.2503,-1.2544 -1.6216,-9.5288 -1.4839,-33.0733 l 0.1835,-31.4004 2.2537,28.4616 c 2.3442,29.6043 2.0937,39.0689 -0.9533,36.0121 z m -334.6557,-31.2569 c -4.2722,-1.867 -4.3339,-2.0186 -3.6236,-8.8913 0.7019,-6.7912 4.6348,-56.5816 4.6348,-58.6767 0,-0.5742 1.5008,-0.061 3.3351,1.1401 l 3.3351,2.1841 v 33.1804 c 0,36.0423 0.3619,34.5786 -7.6814,31.0634 z m 329.6809,27.903 c -14.5797,-9.9142 -33.8751,-16.7065 -58.6714,-20.6533 -16.0676,-2.5575 -58.7153,-1.8889 -104.675,1.6409 -29.0928,2.2344 -51.6778,3.1382 -79.3397,3.1752 -41.0626,0.055 -48.4168,-0.7173 -73.0058,-7.6648 l -10.3342,-2.9199 v -33.6823 c 0,-18.5253 0.2832,-33.6823 0.6293,-33.6823 0.3461,0 6.0653,3.5692 12.7092,7.9315 50.9535,33.4556 108.9913,51.4345 158.0553,48.9623 45.5953,-2.2975 95.9826,-20.0814 141.0083,-49.768 8.2357,-5.4301 14.6683,-8.8771 14.9291,-8.0001 1.1423,3.8417 6.1902,82.4946 5.7998,90.3682 l -0.4377,8.8263 z" />
    <path
       id="path79"
       style="display:inline;fill:#503c3b"
       d="m 1671.4143,787.93315 c 11.1287,-11.12298 13.9253,-11.39176 13.9253,-1.33834 0,8.88695 -2.4229,10.7308 -14.1009,10.7308 h -9.2217 z m -369.4119,-6.60773 c 8.7817,-8.80011 17.0266,-16.00019 18.3221,-16.00019 2.1058,0 2.3554,1.52605 2.3554,14.40017 0,9.42233 -0.5534,14.95326 -1.6008,16.00019 -1.0748,1.07426 -7.0954,1.60002 -18.3221,1.60002 h -16.7213 z m 294.641,141.3427 c -10.2803,-5.08593 -16.1644,-19.35049 -15.0701,-36.53397 l 0.5681,-8.92183 11.3422,-11.34144 c 10.9935,-10.99277 11.4629,-11.29583 15.2677,-9.85797 5.6786,2.14597 11.1648,7.76647 14.2971,14.6473 2.0823,4.57414 2.759,8.92741 2.8471,18.3178 l 0.1157,12.31773 -12.0054,12.01133 -12.0054,12.01132 z M 1335.7617,895.3211 c -1.1374,-20.07655 5.9065,-35.99371 17.4604,-39.4551 5.9999,-1.79751 12.9985,-0.0383 16.8714,4.24093 2.3833,2.63336 2.1087,2.9965 -15.8401,20.94399 -17.4531,17.45196 -18.2754,18.08656 -18.4917,14.27018 z m -17.1084,-113.68368 v -16.31177 l 13.6678,0.0204 c 7.5172,0.0112 14.4019,0.48685 15.2993,1.05692 1.109,0.70455 -3.2682,5.92197 -13.6678,16.29136 l -15.2993,15.25486 z m 59.6231,7.43019 c 9.3031,-9.30247 9.2064,-9.30031 19.6426,-0.43916 4.5274,3.84411 5.0152,4.76059 3.5037,6.58177 -1.411,1.7 -4.6695,2.1158 -16.5807,2.1158 h -14.8246 z m 215.3379,-7.33322 15.5927,-15.59163 16.4027,-0.53305 16.4028,-0.53305 -15.9804,16.12468 -15.9805,16.12468 h -16.015 -16.015 z" />
    <path
       id="path78"
       style="display:inline;fill:#362424"
       d="m 1647.9867,781.99209 c 0,-11.38334 0.4296,-15.33089 1.6675,-15.32333 2.6867,0.0164 17.0802,4.65981 24.7756,7.99267 l 7.0996,3.07483 -9.7343,9.79467 c -9.6434,9.7032 -9.8,9.79468 -16.7713,9.79468 h -7.0371 z m -368.5822,13.55733 c -1.5826,-1.15664 -2.6517,-4.07884 -3.0649,-8.37765 l -0.6347,-6.60147 6.4786,-3.4503 c 8.2718,-4.40533 16.2711,-7.27962 27.0763,-9.72901 l 8.5913,-1.94756 -15.9077,15.94109 c -8.7492,8.7676 -16.8529,15.94109 -18.0081,15.94109 -1.1552,0 -3.1941,-0.79929 -4.5308,-1.77619 z m 41.2744,0.44284 c 0.4534,-0.73334 1.0892,-1.33335 1.4127,-1.33335 0.3236,0 0.5883,0.60001 0.5883,1.33335 0,0.73334 -0.6357,1.33335 -1.4128,1.33335 -0.777,0 -1.0417,-0.60001 -0.5882,-1.33335 z m 73.3138,-28.6863 -9.3341,-5.95042 9.6674,-0.015 9.6675,-0.015 v 6.00007 c 0,3.30004 -0.1501,5.98446 -0.3334,5.96539 -0.1833,-0.0191 -4.5337,-2.71237 -9.6674,-5.9851 z m 163.3464,0.0984 v -6.07876 l 9.6674,0.0127 9.6674,0.0127 -8.0006,5.05592 c -4.4004,2.78076 -8.7507,5.5105 -9.6674,6.06609 -1.2375,0.74995 -1.6668,-0.55572 -1.6668,-5.06859 z m -178.681,-16.15343 c 15.3479,-2.33511 20.6831,-2.31756 22.6685,0.0745 1.4626,1.7622 -0.4604,1.97921 -16.1714,1.82496 l -17.8313,-0.17506 z m 181.678,-0.16032 c 2.0734,-2.07327 3.4201,-2.08655 18.6205,-0.18354 l 16.3855,2.05136 -18.6205,0.18354 c -17.4214,0.17172 -18.4766,0.0396 -16.3855,-2.05136 z m -209.1747,172.32145 c -5.2556,-2.28725 -10.5855,-9.21873 -13.3684,-17.38566 l -2.1584,-6.33407 18.6579,-18.65663 18.6579,-18.65663 3.1803,6.47393 c 3.8393,7.81526 5.1252,26.52976 2.4737,35.99944 -2.2437,8.01304 -8.4588,16.26784 -13.9873,18.57763 -5.5588,2.32248 -8.0855,2.3191 -13.4557,-0.018 z m 262.1527,-9.2585 c 6.2176,-6.32114 11.4368,-11.49298 11.5982,-11.49298 1.057,0 -3.1733,9.43476 -5.8412,13.02759 -3.8495,5.18393 -7.6224,7.79578 -13.0615,9.04189 -3.5484,0.81295 -2.7232,-0.38187 7.3045,-10.5765 z m -29.2999,-41.49333 c 2.4934,-6.72987 7.0334,-12.3851 12.3339,-15.36397 8.9534,-5.03173 7.9616,-2.2045 -3.0538,8.70508 -8.7543,8.67029 -10.4857,9.91265 -9.2801,6.65889 z m -249.2493,-90.76385 15.4307,-15.42965 8.5641,2.19323 c 4.7103,1.20628 12.9892,4.30805 18.3976,6.89283 l 9.8335,4.69961 -8.4615,8.53681 -8.4615,8.53681 h -25.3668 -25.3668 z m 225.8293,13.43971 c -2.5062,-1.92667 -2.4401,-2.11786 2.0786,-6.01509 10.2435,-8.83463 28.6661,-18.33725 40.0032,-20.63412 4.4318,-0.89787 3.9287,-0.19977 -9.978,13.8468 l -14.6451,14.79234 h -7.4352 c -4.5471,0 -8.4406,-0.77296 -10.0235,-1.98993 z m 65.4238,-13.9883 c 15.7988,-15.78268 16.0557,-15.9682 20.9949,-15.15905 l 5.0004,0.81917 v 15.15906 15.15905 h -20.9949 -20.9949 z m -290.03,195.86703 c 8.434,-0.5766 17.395,-1.67674 19.9133,-2.44476 2.5183,-0.76801 4.8544,-1.12076 5.1913,-0.78389 1.8961,1.89596 -16.1315,4.69424 -28.8372,4.47616 l -11.6019,-0.19914 z m 279.1628,0.42622 c -0.8394,-0.53878 6.8477,-0.97959 17.0826,-0.97959 10.2349,0 17.2222,0.39019 15.5274,0.8671 -4.3079,1.21224 -30.7543,1.30347 -32.61,0.11249 z m -59.5376,-28.64658 c -9.4408,-9.22598 -20.7677,-24.28627 -19.3397,-25.71418 0.3705,-0.37052 2.343,1.88855 4.3832,5.02016 6.3155,9.69377 12.6709,16.92085 20.9073,23.77479 4.353,3.6223 7.0205,6.58601 5.9278,6.58601 -1.0927,0 -6.4381,-4.35005 -11.8786,-9.66678 z m -121.873,-49.66725 c 0.3909,-1.46668 1.1518,-4.16671 1.6909,-6.00007 0.5391,-1.83335 1.3946,-9.93345 1.9012,-18.00021 l 0.921,-14.66684 0.2048,11.42192 c 0.2187,12.19827 -1.7938,26.3882 -4.0533,28.57855 -0.9358,0.90719 -1.1482,0.48103 -0.6646,-1.33335 z m 89.1676,-28.667 c 0.015,-7.70009 0.4708,-15.50018 1.0124,-17.33354 0.5416,-1.83335 0.7343,3.86672 0.4282,12.66682 -0.708,20.36024 -1.4765,22.84953 -1.4406,4.66672 z m -107.2413,-63.69678 c -5.8247,-7.59997 -14.08,-15.62699 -22.7761,-22.14612 -7.8682,-5.89858 -6.2654,-6.45683 1.9023,-0.66251 10.6775,7.57487 28.2072,26.61086 26.2799,28.53803 -0.316,0.31606 -2.7488,-2.26217 -5.4061,-5.7294 z m -83.0121,-41.63778 -14.6678,-0.80622 14.0011,-0.24315 c 7.7006,-0.13373 14.9012,0.33848 16.0013,1.04937 1.1001,0.71088 1.4001,1.18309 0.6667,1.04936 -0.7334,-0.13373 -7.934,-0.60595 -16.0013,-1.04936 z m 278.7567,-0.12899 c 1.4295,-0.55931 9.1997,-0.9895 17.267,-0.95598 18.0088,0.0748 15.862,0.75227 -4.5994,1.45133 -8.3967,0.28687 -14.0972,0.064 -12.6676,-0.49535 z" />
    <path
       style="display:none;fill:#2f2418"
       d="m 1689.7168,783.67859 c -8.4335,-5.63934 -10.3932,-8.18568 -3.5007,-4.54857 3.744,1.97566 13.757,10.08293 12.4638,10.09157 -0.3669,0.002 -4.4003,-2.4919 -8.9631,-5.543 z"
       id="path77" />
    <path
       style="display:none;fill:#2f2418"
       d="m 1262.5992,954.2357 c -10.7485,-8.87912 -24.1752,-25.10676 -22.3133,-26.96784 0.3589,-0.3587 2.3028,1.84036 4.3198,4.88681 5.5095,8.32138 13.8188,16.94459 22.5497,23.40164 4.2995,3.17976 6.9676,5.78138 5.9291,5.78138 -1.0385,0 -5.7569,-3.19589 -10.4853,-7.10199 z m -37.7807,-66.95199 c -0.4575,-1.19164 -0.7205,-8.26775 -0.5845,-15.72469 l 0.2472,-13.55806 0.7565,15.33384 c 0.823,16.6838 0.809,17.14812 -0.4192,13.94891 z"
       id="path176" />
    <path
       style="display:none;fill:#2f2418"
       d="m 1735.3413,873.55934 c 0,-10.24337 0.4502,-18.34908 1.0005,-18.01269 1.2069,0.73781 1.0942,29.1739 -0.133,33.54611 -0.4771,1.69999 -0.8675,-5.29005 -0.8675,-15.53342 z M 1705.718,797.4892 c -6.0207,-6.26242 -10.7566,-11.57633 -10.5241,-11.80869 0.7335,-0.73318 13.8519,11.57908 18.2474,17.12607 7.0674,8.91901 3.8028,6.67132 -7.7233,-5.31738 z"
       id="path192" />
    <path
       id="path190"
       style="display:inline;fill:#21191a"
       d="m 1694.6533,493.43808 v -60.24585 l 5.6696,3.94443 c 8.5891,5.97548 16.4193,14.69495 20.5208,22.85123 3.0011,5.9679 3.7877,9.56832 4.2242,19.33397 0.838,18.75109 -4.8935,36.21029 -19.1111,58.21538 -12.5729,19.45965 -11.3035,24.4119 -11.3035,-44.09916 z m -425.4305,62.86919 c -37.2867,-46.58102 -43.3348,-87.62418 -16.5216,-112.11822 7.1462,-6.52817 21.5453,-15.74582 22.7366,-14.55504 0.3302,0.33001 0.4447,30.68771 0.2544,67.46155 l -0.346,66.86152 z m 381.0985,-138.57196 c -2.141,-0.5592 -2.3296,-3.17301 -2.2743,-31.51238 l 0.06,-30.9026 3.2037,6.00007 c 5.1284,9.60465 7.8102,23.89905 6.9761,37.18327 -0.6899,10.98827 -2.913,20.32466 -4.7613,19.99608 -0.4785,-0.0851 -1.9205,-0.42907 -3.2045,-0.76444 z m -2.3346,86.19643 v -86.89976 l 3.6686,0.8416 c 9.7356,2.23343 33.7467,10.60139 39.6874,13.83122 l 6.6702,3.62642 0.3482,56.58847 0.3482,56.58846 -4.2828,5.40731 c -14.3685,18.14108 -19.6354,22.90579 -33.0993,29.94317 l -13.3405,6.97288 z m -340.1836,-92.43956 c -2.1683,-8.59648 -2.1045,-28.94218 0.1154,-36.80302 2.0074,-7.10809 8.5136,-20.70509 12.1391,-25.3689 2.5827,-3.32229 2.5903,-3.21833 2.2733,31.24719 l -0.318,34.58057 -6.2425,1.59105 -6.2425,1.59105 z m -2.2625,175.1043 c -13.2,-6.69575 -17.3867,-9.61002 -24.7345,-17.21711 l -8.8449,-9.15706 0.3462,-64.90334 0.3463,-64.90333 7.9398,-3.3463 c 4.3669,-1.84046 15.6228,-5.33632 25.0131,-7.76858 l 17.0733,-4.42228 v 89.88902 c 0,49.43896 -0.2812,89.88902 -0.6249,89.88902 -0.3436,0 -7.7751,-3.62702 -16.5144,-8.06004 z m 326.5482,-173.14747 -15.2574,-3.66486 -2.5292,-7.58698 c -7.5446,-22.63241 -40.2715,-41.82395 -86.1556,-50.52305 -20.9503,-3.97194 -68.3064,-4.23486 -88.817,-0.49312 -27.7045,5.05413 -49.8834,13.15806 -65.8694,24.06805 -12.1063,8.26216 -19.777,17.10539 -22.8818,26.37949 l -2.3523,7.02628 -11.6057,2.89386 c -6.3831,1.59162 -13.037,3.25307 -14.7864,3.69211 l -3.1807,0.79825 v -32.49239 -32.4924 l 3.8892,-5.36852 c 10.2178,-14.10428 32.4104,-31.3229 52.906,-41.04824 21.2191,-10.06865 48.579,-17.57406 75.7072,-20.76815 17.2197,-2.02746 61.5876,-0.8831 77.5144,1.99929 48.1937,8.72196 88.5703,29.25813 110.4275,56.16525 12.613,15.52719 12.9157,16.64994 12.9157,47.90973 0,25.22493 -0.1835,27.36981 -2.3335,27.27412 -1.2835,-0.0571 -9.1994,-1.75305 -17.591,-3.76872 z M 1437.0097,627.3776 c -36.3792,-4.59651 -77.5878,-16.1296 -110.6891,-30.97864 l -7.6673,-3.43949 v -88.43423 -88.43422 l 5.1918,-1.3979 c 13.6175,-3.66658 56.431,-12.23114 76.148,-15.23292 31.5944,-4.81002 48.9635,-6.12978 80.6732,-6.12978 48.3147,0 85.7709,4.90316 149.6786,19.59353 l 21.6684,4.98088 v 85.54164 85.54163 l -15.5096,6.91016 c -30.3783,13.53475 -69.2392,25.05057 -101.8331,30.1766 -19.1478,3.01136 -77.9319,3.79551 -97.6609,1.30274 z" />
    <path
       id="path185"
       style="display:inline;fill:#e8b08c"
       d="m 1226.1549,887.22646 c -1.3582,-3.53771 -0.9098,-29.67286 0.5243,-30.55875 0.8623,-0.53268 1.334,5.09745 1.334,15.9219 0,9.21029 -0.2359,16.74598 -0.5243,16.74598 -0.2883,0 -0.8887,-0.94911 -1.334,-2.10913 z m 468.4984,26.78702 v -18.64567 l 19.6603,-19.68346 c 10.8131,-10.8259 20.1875,-19.68345 20.832,-19.68345 0.6444,0 0.9345,8.11545 0.6445,18.03434 l -0.5273,18.03434 -20.3048,20.29478 -20.3047,20.29479 z m 0,-103.71019 c 0,-12.26754 0.4676,-22.30463 1.0391,-22.30463 0.9929,0 14.6084,13.67117 19.3202,19.3992 2.1767,2.64621 1.8923,3.08488 -9.056,13.97103 l -11.3033,11.23903 z m -429.3122,143.92323 c -8.3629,-6.58375 -15.5774,-14.2813 -20.8529,-22.24939 l -3.6333,-5.48762 17.5792,-17.57077 17.5791,-17.57077 v 34.32817 c 0,26.57407 -0.3766,34.32798 -1.6675,34.32733 -0.9171,-4.6e-4 -4.9692,-2.60009 -9.0046,-5.77695 z m -39.1614,-66.87212 c -0.4725,-1.23052 -0.859,-8.34436 -0.859,-15.80854 v -13.57122 l 25.3463,-25.30784 25.3462,-25.30785 v 16.66757 16.66757 l -24.4873,24.44881 c -18.9872,18.95732 -24.6802,23.94628 -25.3462,22.2115 z m 421.807,71.62664 v -17.01336 l 25.3466,-25.30731 25.3466,-25.30732 v 18.64021 18.64021 l -23.6652,23.68047 c -13.0158,13.02426 -24.4218,23.68047 -25.3466,23.68047 -1.2647,0 -1.6814,-4.21657 -1.6814,-17.01337 z m 0,-113.71357 v -34.03279 l 7.0456,-6.95454 7.0456,-6.95453 h 9.4231 c 11.2906,0 13.8386,-1.92194 13.8386,-10.43845 0,-3.05896 0.3521,-5.56174 0.7824,-5.56174 0.4304,0 3.4319,1.90173 6.6702,4.22607 l 5.8877,4.22608 v 19.45403 19.45404 l -25.3466,25.30731 -25.3466,25.30732 z m -376,82.37987 v -32.34688 l 25.3466,-25.30732 25.3466,-25.30731 v 33.97372 33.97373 l -23.6652,23.68047 c -13.0158,13.02425 -24.4218,23.68047 -25.3466,23.68047 -1.3063,0 -1.6814,-7.21568 -1.6814,-32.34688 z m 0,-99.71454 v -16.69812 l 7.0892,-6.99756 7.0892,-6.99757 16.2746,0.37637 16.2746,0.37636 -23.3638,23.31933 -23.3638,23.31932 z m 106.6771,91.38196 57.9989,-58.01337 0.3847,10.51864 c 0.2158,5.89889 -0.5147,14.83194 -1.6631,20.33957 l -2.0479,9.82095 -35.6769,35.67444 -35.6769,35.67444 -9.3303,1.97619 c -5.1317,1.08691 -14.4282,1.98662 -20.6589,1.99935 l -11.3284,0.0231 z m 236.8305,56.9237 c -0.3704,-0.59931 7.6948,-9.44137 17.9228,-19.64903 l 18.5962,-18.55938 v 18.80113 18.80112 l -6.1866,0.84791 c -8.8486,1.21276 -29.5353,1.04788 -30.3324,-0.24175 z m -56.9928,-26.85357 c -4.8407,-4.36864 -11.7059,-12.19364 -15.2559,-17.38887 l -6.4545,-9.44589 22.6755,-22.67392 22.6754,-22.67391 -0.5684,8.92684 c -1.0647,16.71874 4.6998,31.22878 14.3505,36.12225 2.6135,1.3252 5.0221,2.57979 5.3526,2.78798 0.9411,0.59294 -31.0613,32.28852 -32.6011,32.28852 -0.755,0 -5.3334,-3.57435 -10.1741,-7.943 z m -239.8482,-66.75055 v -33.94937 l 25.6559,-25.67948 25.6559,-25.67947 h 14.8507 c 11.6278,0 15.214,-0.43762 16.5244,-2.01646 2.1152,-2.5485 3.3334,-1.60723 12.9106,9.97592 l 7.1323,8.62613 -24.2675,24.29243 -24.2675,24.29244 -3.8014,-3.1985 c -10.9848,-9.24241 -25.0376,-2.86655 -31.1225,14.12049 -1.195,3.33578 -2.1482,10.3499 -2.1893,16.1086 l -0.073,10.20009 -8.5045,8.42828 -8.5044,8.42827 z m 307.2422,6.34455 c -0.088,-9.39128 -0.7647,-13.74444 -2.8471,-18.31868 -3.1317,-6.87947 -8.6183,-12.50127 -14.2937,-14.64601 l -3.9221,-1.48217 23.257,-23.28512 23.257,-23.28512 0.3569,33.65091 0.3569,33.65091 -13.0246,13.01695 -13.0246,13.01694 z m -101.5442,-22.12982 0.6156,-16.47796 26.5691,-26.56732 26.5692,-26.56732 15.631,0.37811 15.6311,0.37811 -42.8159,42.66717 -42.8158,42.66716 z" />
    <path
       id="path184"
       style="display:inline;fill:#e29f75"
       d="m 1226.7845,891.22455 c 0.064,-1.55331 0.3801,-1.86927 0.806,-0.80558 0.3853,0.96253 0.3379,2.11257 -0.1054,2.55565 -0.4432,0.44307 -0.7585,-0.34446 -0.7006,-1.75007 z m -0.2639,-38.18175 c 0.6142,-3.7027 0.8021,-3.8905 1.2221,-1.22149 0.273,1.73464 -0.053,3.70357 -0.7257,4.37539 -0.7401,0.73973 -0.9359,-0.50418 -0.4964,-3.1539 z m 468.1327,90.65731 v -11.06452 l 19.3435,-19.29948 c 10.6389,-10.61471 19.3434,-18.57448 19.3434,-17.68839 0,4.29763 -8.4301,23.87967 -13.9555,32.4169 -6.3237,9.77071 -18.083,23.14366 -22.3653,25.43433 -2.1771,1.16457 -2.3661,0.38182 -2.3661,-9.79884 z m 0,-79.73385 v -31.35834 l 11.2111,-11.14738 11.2111,-11.14738 3.7135,5.84331 c 5.0236,7.90477 10.5884,21.51203 12.6526,30.93867 l 1.6996,7.76146 -20.244,20.234 -20.2439,20.23399 z m -458.3217,54.45863 c -2.2642,-4.63222 -5.4471,-12.84106 -7.0731,-18.24186 l -2.9564,-9.81965 24.8556,-24.84371 24.8555,-24.84372 v 25.34824 25.34825 l -17.7824,17.73734 -17.7824,17.73734 z m -8.7771,-69.84698 c 4.259,-18.91894 12.3449,-34.2682 25.7623,-48.90398 7.2426,-7.90022 19.6955,-18.34215 21.8746,-18.34215 0.452,0 0.8218,5.85611 0.8218,13.01358 v 13.01359 l -25.2699,25.2316 -25.2699,25.2316 z m 447.7798,103.41621 c 12.4571,-12.46681 22.8059,-22.66694 22.9974,-22.66694 0.1915,0 0.3482,5.25483 0.3482,11.6774 v 11.6774 l -8.3377,5.54801 c -12.1091,8.05759 -30.5637,16.43107 -36.213,16.43107 -0.7942,0 8.7481,-10.20012 21.2051,-22.66694 z m -27.3476,-41.36015 v -31.3337 l 25.3466,-25.30732 25.3466,-25.30731 v 31.3337 31.33371 l -25.3466,25.30732 -25.3466,25.30731 z m 0,-106.64162 v -6.66674 h 6.9535 6.9535 l -6.5698,6.66674 c -3.6134,3.66671 -6.7425,6.66675 -6.9535,6.66675 -0.2111,0 -0.3837,-3.00004 -0.3837,-6.66675 z m -335.8788,171.88571 c -9.1014,-1.78477 -18.5582,-5.14776 -28.6499,-10.18847 l -9.2062,-4.59839 23.8805,-23.89746 23.8806,-23.89745 0.3593,30.32019 c 0.1977,16.67611 0.066,31.08319 -0.2916,32.01574 -0.7243,1.88657 -1.5072,1.90587 -9.9727,0.24584 z m -40.1212,-105.91197 v -25.33437 l 23.6926,-23.65305 c 13.0309,-13.00919 24.4369,-23.65306 25.3466,-23.65306 1.2539,0 1.654,5.72822 1.654,23.68011 v 23.68011 l -25.3466,25.30731 -25.3466,25.30732 z m 0.285,-73.20107 c 0.2671,-10.17704 0.8837,-14.72232 2.0496,-15.1089 1.0693,-0.3546 1.674,0.80217 1.6857,3.22489 0.032,6.67422 1.613,10.03151 5.4907,11.66113 l 3.7874,1.59167 -6.6977,6.5936 -6.6977,6.59359 z m 46.3816,150.1909 v -30.37221 l 8.5131,-8.43681 8.513,-8.43682 2.165,6.51756 c 8.1877,24.64928 32.0867,24.69858 40.2632,0.0831 3.223,-9.70293 2.211,-28.962 -1.9681,-37.45237 l -3.184,-6.46862 23.8437,-23.86972 23.8438,-23.86973 2.3014,3.00469 c 3.4975,4.56622 10.0939,21.81646 12.5505,32.821 l 2.1914,9.81607 -58.5108,58.51806 c -32.1809,32.18493 -58.9633,58.51805 -59.5164,58.51805 -0.5532,0 -1.0058,-13.66749 -1.0058,-30.3722 z m 280.6891,25.866 c -9.1415,-2.99055 -23.015,-9.53024 -27.6907,-13.05284 -2.1437,-1.61503 -0.8853,-3.22384 14.0011,-17.90017 12.8619,-12.68037 17.5506,-16.46137 21.9455,-17.69699 6.5836,-1.85096 13.8825,-9.60525 16.1598,-17.16785 1.0627,-3.52908 5.462,-8.94437 14.8819,-18.31863 l 13.3733,-13.30848 v 31.32593 31.32593 l -19.0182,18.98298 c -12.0179,11.99565 -19.9937,18.96101 -21.6684,18.92332 -1.4576,-0.0328 -6.8505,-1.43375 -11.9843,-3.1132 z M 1397.2658,938.1747 c 18.6683,-18.74369 34.1969,-33.82486 34.508,-33.51373 0.8976,0.89752 -8.5369,20.01448 -13.3211,26.99213 -6.4667,9.43179 -15.4675,18.6377 -24.46,25.0176 -8.2213,5.83269 -21.4319,12.89488 -27.3356,14.61317 -2.1043,0.61247 9.1829,-11.59681 30.6087,-33.10917 z m 135.7336,-24.51399 c -4.1227,-9.38266 -5.9156,-14.98521 -7.5733,-23.66694 l -1.2731,-6.66675 42.9208,-43.0005 42.9208,-43.0005 h 21.0093 21.0094 v 5.01395 c 0,4.72029 -1.387,6.39929 -23.6821,28.667 -13.0251,13.00918 -24.5761,23.6553 -25.6687,23.65804 -2.4737,0.006 -10.6704,4.92759 -13.0419,7.83055 -0.9726,1.19052 -2.9948,4.86461 -4.4939,8.16465 -1.8482,4.06866 -9.8664,13.18921 -24.9093,28.33366 -12.2011,12.28348 -22.5585,22.3336 -23.0165,22.3336 -0.458,0 -2.3486,-3.45004 -4.2015,-7.66676 z m -214.3461,-91.00106 v -25.33363 h 25.6556 25.6555 l -25.309,25.33363 c -13.92,13.9335 -25.465,25.33363 -25.6556,25.33363 -0.1906,0 -0.3465,-11.40013 -0.3465,-25.33363 z m 208.7017,21.5096 c 2.7069,-13.07987 12.7853,-31.44052 24.2681,-44.21129 5.1132,-5.68675 6.3356,-6.44388 8.073,-5.00007 1.126,0.9358 5.5687,2.00146 9.8726,2.36813 l 7.8254,0.66667 -25.4842,25.33363 c -22.6649,22.531 -25.3814,24.83683 -24.5549,20.84293 z" />
    <path
       style="display:none;fill:#2f2418"
       d="m 1224.8429,887.28397 c -0.4575,-1.19165 -0.7205,-8.26779 -0.5845,-15.72476 l 0.2473,-13.55812 0.7564,15.33391 c 0.823,16.68387 0.8091,17.14819 -0.4192,13.94897 z"
       id="path182" />
    <path
       id="path163"
       style="display:inline;fill:#150e06"
       d="m 1741.4065,871.44604 c -0.048,-26.33987 0.2629,-47.54145 0.6899,-47.11461 0.4271,0.42684 1.8567,4.27698 3.1769,8.55588 1.9648,6.36814 2.9737,7.84754 5.5602,8.15309 12.3194,1.45537 13.165,3.43318 13.165,30.79269 0,20.96758 -0.054,21.3617 -3.4536,25.4005 -2.625,3.11803 -4.5557,4.10245 -8.0461,4.10245 -2.5287,0 -4.8079,0.74896 -5.072,1.66673 -0.2638,0.9167 -1.7068,4.96685 -3.2067,9.00033 l -2.7271,7.33361 z m -519.2241,52.75876 c -2.8401,-6.05366 -5.9043,-13.52562 -6.8094,-16.60436 -1.4994,-5.10029 -2.073,-5.6342 -6.4555,-6.00836 -3.4064,-0.29082 -5.7986,-1.58514 -8.1984,-4.4358 -3.3236,-3.94796 -3.3886,-4.43941 -3.3886,-25.62698 0,-21.42283 0.2696,-23.00018 4.9185,-28.77576 0.2569,-0.31919 2.9267,-0.91921 5.9327,-1.33339 5.2796,-0.72741 5.5437,-1.00264 7.7604,-8.08664 1.2621,-4.03349 4.4649,-11.53377 7.1173,-16.66729 l 4.8226,-9.33368 0.034,20.00074 c 0.019,11.01223 -0.6468,22.39768 -1.4805,25.33428 -2.63,9.26354 -2.9001,30.66326 -0.4677,37.05524 1.6878,4.43525 2.0565,9.79651 1.7573,25.55084 l -0.3787,19.93782 z m 472.4709,40.39597 v -8.73732 l 8.0326,-7.43311 c 11.2191,-10.38181 22.1685,-27.35341 27.3293,-42.36055 2.3243,-6.75869 4.7674,-13.13886 5.4291,-14.17815 1.8188,-2.85658 2.4447,-33.01397 0.7548,-36.37438 -0.7881,-1.56739 -2.3831,-6.64832 -3.5444,-11.29095 -2.4372,-9.74387 -6.7201,-19.88633 -11.7818,-27.90055 -1.9476,-3.08368 -3.5411,-6.5615 -3.5411,-7.7285 0,-1.16699 -5.1026,-7.22197 -11.3392,-13.45551 l -11.3393,-11.3337 v -7.98787 -7.98787 l 6.1647,4.41632 c 16.1963,11.60296 33.3777,33.10845 41.047,51.37769 l 3.4815,8.29343 v 39.51167 39.51167 l -5.2016,11.09458 c -6.6452,14.17349 -11.8419,21.7388 -22.7312,33.09231 -7.9662,8.30568 -19.8974,18.2081 -21.9386,18.2081 -0.452,0 -0.8218,-3.93179 -0.8218,-8.73731 z m -431.0546,7.40564 c -11.4984,-7.68694 -28.9566,-25.61395 -35.3114,-36.25976 l -4.3705,-7.32157 0.3685,-21.2116 0.3684,-21.2116 3.7832,12.0004 c 2.0807,6.60021 5.4532,15.60051 7.4943,20.00065 2.0411,4.40015 4.3111,9.50031 5.0444,11.33371 3.5913,8.97865 27.1049,32.00105 32.6838,32.00105 2.0077,0 2.3538,1.27455 2.3538,8.66695 0,4.76682 -0.55,8.66695 -1.2222,8.66695 -0.6723,0 -5.7088,-2.99933 -11.1923,-6.66518 z m -39.612,-135.61286 v -22.71856 l 6.4384,-9.83807 c 9.7459,-14.89183 21.986,-26.43904 39.9186,-37.65868 l 5.6695,-3.5472 -0.034,9.01703 -0.034,9.01702 -6.6414,4.50303 c -3.6527,2.47667 -10.3086,8.42149 -14.7909,13.21072 -14.0636,15.0269 -21.9527,29.49008 -26.5269,48.63238 -1.3993,5.85601 -2.8714,10.97435 -3.2714,11.37409 -0.3999,0.39974 -0.7271,-9.49655 -0.7271,-21.99176 z m 424,148.00182 c 0,-7.44561 0.4034,-7.80318 13.3403,-11.8247 9.3907,-2.91916 21.608,-8.98182 29.6853,-14.73085 3.4869,-2.48179 6.6648,-4.51235 7.0621,-4.51235 0.3973,0 0.546,4.31996 0.3304,9.5999 l -0.3919,9.5999 -10.564,5.61902 c -11.0081,5.85522 -25.4843,10.99221 -34.311,12.17552 l -5.1512,0.69056 z m 45.0565,-200.61534 c -2.7333,-2.19661 -8.1362,-5.2131 -12.0063,-6.70331 -13.0188,-5.01298 -29.1611,-10.41815 -31.1133,-10.41815 -1.4735,0 -1.9369,-1.87514 -1.9369,-7.83728 v -7.83728 l 8.7861,1.84078 c 14.6236,3.06379 39.82,14.32099 41.428,18.50908 0.3428,0.89285 0.4407,4.95711 0.2177,9.03167 l -0.4056,7.40831 z m -387.0387,206.23402 c -10.3255,-2.28146 -19.7413,-5.52386 -27.6812,-9.53221 l -6.3366,-3.19901 v -7.97763 c 0,-4.55906 0.5859,-7.97763 1.3673,-7.97763 0.7521,0 5.4304,2.04504 10.3962,4.54454 8.4897,4.27312 20.7439,8.35795 32.9266,10.97571 5.3289,1.14506 5.3366,1.1561 5.7393,8.1467 l 0.4032,7.00008 -4.4053,-0.106 c -2.4229,-0.0583 -8.0072,-0.90185 -12.4095,-1.87455 z m -34.0178,-215.94867 c 0,-5.22772 0.6493,-8.95222 1.7147,-9.83599 5.6553,-4.69108 35.1418,-13.57101 45.0636,-13.57101 3.7867,0 3.9149,0.20959 3.9149,6.3989 0,7.29605 0.01,7.29285 -18.405,11.6273 -5.3537,1.26045 -14.8086,4.87984 -21.011,8.04308 l -11.2772,5.75136 z m 46.6666,211.09053 v -7.18089 l 10.8867,0.49436 c 12.3911,0.56267 29.6993,-1.96369 31.9388,-4.6619 0.8275,-0.99702 2.1981,-1.81275 3.0457,-1.81275 2.5175,0 20.4236,-8.94702 27.1921,-13.58692 9.3697,-6.42307 18.588,-15.44172 24.954,-24.41353 5.7875,-8.15642 12.8438,-21.32898 14.6422,-27.33365 0.5491,-1.83336 1.7749,-4.23338 2.724,-5.3334 4.9332,-5.71768 5.9512,-31.45834 1.9359,-48.94893 -3.1058,-13.52858 -4.0124,-16.14506 -10.2972,-29.71865 -2.5466,-5.50006 -5.3166,-11.50013 -6.1556,-13.33349 -2.2273,-4.86748 -22.0793,-24.29436 -27.5274,-26.93806 -28.8268,-13.98812 -39.7373,-17.32266 -59.0047,-18.03339 l -14.3345,-0.52877 v -6.48762 -6.48762 l 7.0006,-0.79565 c 3.8503,-0.4376 11.5009,-0.0945 17.0013,0.76244 15.1405,2.35882 252.1322,3.27187 264.6879,1.01976 10.0054,-1.79469 36.7242,-2.19177 41.67,-0.61929 2.636,0.83811 3.0002,1.85155 3.0002,8.3488 v 7.3949 l -4.3337,-0.97481 c -9.3107,-2.09436 -32.7473,-2.2353 -37.2944,-0.22428 -2.4066,1.06431 -8.7061,3.2703 -13.999,4.9022 -30.671,9.45641 -58.1216,37.56829 -67.6976,69.32841 -1.2161,4.03339 -2.8939,8.53344 -3.7283,10.00012 -1.9589,3.44299 -2.9919,30.72613 -1.3051,34.47038 0.7094,1.57487 2.2984,7.0539 3.5309,12.17564 1.2326,5.12174 3.7747,12.62182 5.6493,16.66686 1.8745,4.04504 3.5616,8.61179 3.7491,10.14834 0.1875,1.53655 2.3351,5.73659 4.7724,9.33344 5.2661,7.77152 23.3972,25.87328 25.9151,25.87328 0.9718,0 6.7851,2.66382 12.9184,5.91961 16.4634,8.73946 32.2427,13.19865 48.7429,13.77468 7.4743,0.26093 15.725,-0.11513 18.3348,-0.83569 l 4.7452,-1.31011 v 7.16552 c 0,7.16288 0,7.16585 -4.7697,8.06026 -2.6233,0.4921 -12.9741,0.57857 -23.0018,0.19214 -20.3028,-0.78239 -30.0814,-3.0819 -46.7349,-10.99005 -18.9482,-8.99786 -37.9131,-25.54028 -49.0716,-42.80345 -4.5463,-7.03358 -5.6121,-7.95558 -8.1228,-7.02688 -2.7541,1.01872 -2.7979,1.28906 -0.9331,5.75187 2.9943,7.16591 2.5336,11.22967 -1.4804,13.05844 -2.414,1.09984 -4.1009,1.15457 -5.6671,0.18388 -2.3078,-1.43035 -14.7605,-30.03741 -14.8481,-34.10999 -0.067,-3.10062 5.8125,-6.79936 9.1328,-5.74562 1.5318,0.48613 3.5938,3.32211 4.8976,6.73577 1.9417,5.08388 2.5922,5.714 4.7222,4.57416 2.3993,-1.28401 2.3964,-1.50924 -0.1024,-7.84824 -3.9297,-9.96921 -6.808,-26.21282 -7.1081,-40.11536 l -0.2708,-12.5431 -7.2237,-3.60921 c -14.3512,-7.17041 -29.3408,-7.44688 -42.7669,-0.7888 l -6.0005,2.97567 -0.2916,13.33349 c -0.3207,14.66238 -3.0983,30.66185 -7.0739,40.74731 -2.5258,6.40754 -2.5265,6.55098 -0.038,7.88262 2.1766,1.16481 2.7441,0.72116 4.0192,-3.142 2.2468,-6.80739 5.9194,-9.61272 10.0945,-7.71057 1.851,0.84335 3.733,2.49094 4.1822,3.66132 0.9693,2.52568 -10.8512,32.98166 -13.727,35.36818 -1.3996,1.16149 -3.058,1.28006 -5.5789,0.39888 -4.4081,-1.54084 -5.2553,-6.22782 -2.3726,-13.1266 1.9535,-4.67516 1.9204,-4.90446 -0.8578,-5.9321 -2.5107,-0.9287 -3.5765,-0.007 -8.1228,7.02688 -11.1585,17.26317 -30.1234,33.80559 -49.0716,42.80345 -16.6787,7.92015 -26.4237,10.20742 -46.8375,10.99333 l -18.3348,0.70586 z m 202.1439,-166.75723 c 10.7566,-21.37434 24.1886,-36.47324 43.8373,-49.27758 l 11.9624,-7.7955 h -95.9306 -95.9307 l 11.9624,7.7955 c 25.7487,16.77948 45.2163,43.33258 51.9683,70.88277 1.918,7.82583 2.7033,9.31658 4.4943,8.53161 11.5332,-5.05472 17.2328,-6.1495 28.8391,-5.53938 8.8208,0.4637 14.1184,1.53001 19.9918,4.02399 l 7.9908,3.39311 2.9568,-11.13767 c 1.6263,-6.12571 5.1624,-15.5203 7.8581,-20.87685 z" />
    <path
       id="path161"
       style="display:inline;fill:#281e20"
       d="m 1788.3415,684.65775 c -0.021,-66.42767 0.7548,-72.50164 3.7706,-29.51377 1.3488,19.22563 1.3404,29.261 -0.043,52.00322 -2.9814,48.9988 -3.7058,44.62812 -3.7272,-22.48945 z m -611.3121,94.00747 c -7.2508,-43.70503 -8.2159,-55.28171 -8.281,-99.33887 -0.066,-44.94109 1.1062,-57.1291 8.3397,-86.67149 l 3.5914,-14.66749 0.3481,55.66977 c 0.1915,30.61837 0.1915,80.72116 0,111.33953 l -0.3481,55.66977 z m 564.3562,285.31918 -0.066,-96.69455 3.2433,-14.34649 c 1.7838,-7.89057 3.9088,-20.18008 4.7222,-27.31003 2.6433,-23.16931 2.8502,-24.29738 4.456,-24.29024 1.1694,0.005 1.6224,7.2709 1.7251,27.66769 0.1495,29.68831 2.036,48.93281 8.6588,88.32962 8.7112,51.8202 3.1706,93.0146 -18.074,134.3813 l -4.6002,8.9573 z m 22.6129,-204.04945 c 0,-13.1627 -3.1521,-18.60115 -10.7813,-18.60115 -1.5485,0 -2.559,-0.92211 -2.559,-2.3352 0,-4.38879 -5.247,-48.22656 -7.2945,-60.94456 -1.7364,-10.78585 -2.0355,-31.99125 -1.9895,-141.04683 l 0.054,-128.35246 4.0209,4.66684 c 16.5857,19.2501 31.6113,52.11861 39.0589,85.44135 5.9629,26.67936 7.505,43.66642 7.505,82.67112 0,47.32819 -3.222,78.33318 -13.3604,128.56524 -4.46,22.09738 -13.3082,59.33555 -14.0988,59.33555 -0.3055,0 -0.5555,-4.22996 -0.5555,-9.3999 z M 1221.1421,1162.515 c -11.4908,-20.6879 -18.5737,-39.559 -24.0651,-64.1173 -2.5775,-11.5265 -3.0693,-17.5609 -3.0749,-37.7224 -0.01,-20.369 0.5435,-27.0274 3.6293,-44.0016 5.9624,-32.79773 7.9004,-51.65361 8.6678,-84.33651 0.542,-23.07994 1.1432,-31.00115 2.3529,-31.00115 1.0994,0 1.9099,4.05228 2.5061,12.52978 1.3393,19.04365 5.7115,41.09492 11.5823,58.41487 l 5.2909,15.60926 -0.3426,92.89735 -0.3426,92.8973 z m -30.218,-316.14869 c -3.1566,-12.99937 -7.4968,-32.5001 -9.6448,-43.33494 l -3.9055,-19.69973 -0.027,-96.92715 -0.027,-96.92716 4.6334,-14.13777 c 8.9871,-27.4216 22.0751,-50.60559 37.6456,-66.68481 l 7.7472,-8.0003 0.3414,108.45651 0.3413,108.45652 -4.0808,19.54825 c -5.3088,25.43083 -10.0025,57.36143 -11.9877,81.55056 -0.8727,10.63373 -1.7685,19.99877 -1.9905,20.81119 -0.2221,0.81243 -2.1063,1.82558 -4.1871,2.25145 -5.5732,1.14067 -7.6893,5.55046 -8.448,17.60554 l -0.6713,10.66707 z m 503.7292,284.98999 v -92.9833 l 9.3341,-8.6377 c 16.0983,-14.8972 30.0276,-39.06827 37.8794,-65.73086 l 3.3377,-11.3337 0.071,100.37466 0.071,100.3746 -3.8591,7.6289 c -8.3801,16.5661 -35.6061,54.0825 -44.6027,61.4606 -2.082,1.7075 -2.2314,-4.3948 -2.2314,-91.1532 z m 47.0234,-363.03059 c -8.2843,-50.56657 -22.3302,-98.82871 -39.4831,-135.66548 l -6.8298,-14.66715 -0.4016,-31.70653 -0.4016,-31.70653 8.6892,-13.0458 c 9.6502,-14.4886 17.0707,-29.54919 19.5089,-39.59491 0.8833,-3.63931 2.0547,-7.11696 2.6031,-7.72812 0.5484,-0.61116 5.2693,3.20148 10.4909,8.47254 l 9.4938,9.58373 v 137.19891 c 0,75.4594 -0.1501,137.19638 -0.3335,137.19328 -0.1834,-0.003 -1.6847,-8.25337 -3.3363,-18.33394 z m -475.5312,455.63659 c -12.076,-12.795 -23.6267,-27.4593 -33.7116,-42.7987 l -8.4472,-12.8483 0.027,-95.1552 0.027,-95.1552 5.83,12.19235 c 10.8005,22.58695 24.2742,39.33365 37.9437,47.16075 l 8.119,4.649 0.04,95.6698 c 0.022,52.6184 -0.1878,95.6698 -0.4658,95.6698 -0.278,0 -4.491,-4.2229 -9.3623,-9.3843 z m -42.0188,-605.30253 0.03,-115.33712 6.1325,-5.10633 6.1324,-5.10632 2.8689,9.77314 c 1.5778,5.37523 4.5276,13.22574 6.555,17.44558 4.4852,9.33513 17.0894,28.59727 24.6285,37.63795 l 5.5391,6.64244 v 15.79404 15.79405 l -7.1995,12.99756 c -15.814,28.54955 -29.2948,64.13198 -39.486,104.22329 l -5.2311,20.57884 z m 423.86,538.84243 v -107.829 l 9.6098,-0.9465 c 11.1232,-1.0954 27.2466,-5.9422 35.4138,-10.6454 l 5.6696,-3.2649 v 93.0006 93.0006 l -14.3408,14.0022 c -13.1998,12.888 -33.751,30.5114 -35.5805,30.5114 -0.4246,0 -0.7719,-48.5231 -0.7719,-107.829 z m 44.6901,-545.11773 c -2.9349,-5.5699 -8.7219,-15.36932 -12.86,-21.77648 l -7.5239,-11.64938 7.9276,-8.48457 c 4.3602,-4.66652 10.1472,-11.37154 12.86,-14.90005 l 4.9324,-6.41548 0.3706,18.82963 c 0.2039,10.35629 0.2039,26.86073 0,36.67653 l -0.3706,17.8469 z m -380.1447,652.78143 c -11.883,-8.8287 -21.8222,-17.1659 -32.2077,-27.0163 l -8.3377,-7.9082 v -94.9643 -94.9642 l 11.6728,4.0502 c 9.8831,3.4293 13.7688,4.0694 25.3436,4.1746 l 13.6709,0.1242 v 111.668 c 0,61.4174 -0.2113,111.668 -0.4732,111.668 -0.2618,0 -4.6141,-3.0744 -9.6717,-6.832 z m -40.5454,-683.58154 v -21.36411 l 7.8954,8.21803 c 4.3425,4.51991 7.9366,8.66296 7.987,9.20677 0.05,0.54381 -3.5025,6.45954 -7.8954,13.14608 l -7.987,12.15733 z m 181.344,744.49164 c -40.985,-5.9466 -81.5133,-21.7769 -121,-47.2625 l -13.6581,-8.8153 -0.01,-110.8201 -0.01,-110.82 5.6671,-0.7949 c 3.1169,-0.4371 17.6681,-5.3625 32.3359,-10.9453 44.674,-17.0034 51.3629,-19.3131 69.3389,-23.9429 22.9462,-5.9098 41.0159,-7.893 63.3384,-6.9514 32.053,1.352 54.7343,7.4327 118.0095,31.6378 15.9231,6.0912 28.9268,10.2131 35.0028,11.0952 l 9.6674,1.4034 v 106.9456 106.9456 l -17.0014,11.3607 c -37.6505,25.159 -75.324,41.2303 -114.7084,48.9341 -18.5045,3.6195 -49.5347,4.5601 -66.9728,2.03 z m -27.3203,-119.8828 c 3.6752,-1.7114 14.4761,-9.6652 24.0019,-17.6753 l 17.3196,-14.5636 7.8918,1.1152 c 4.4359,0.6269 10.9355,0.5909 14.8424,-0.082 l 6.9507,-1.1975 16.4934,13.8821 c 23.4139,19.707 25.8612,20.9959 39.8285,20.9762 9.3103,-0.013 12.3883,-0.5752 17.2369,-3.1473 24.8477,-13.1814 46.9163,-54.7697 47.1413,-88.8378 0.095,-14.4493 -1.6866,-21.3521 -7.4693,-28.9333 -12.2188,-16.0188 -37.3908,-27.7863 -72.0208,-33.6685 -29.3237,-4.9809 -83.2385,-5.0016 -112.2019,-0.043 -33.5473,5.7433 -58.8778,17.5946 -71.4698,33.4385 -15.3281,19.2866 -7.4112,65.4267 16.7379,97.55 16.1287,21.4545 36.8836,29.4908 54.7174,21.1866 z" />
    <path
       id="path188"
       style="display:inline;fill:#ee9867"
       d="m 1132.679,887.33885 c -1.4329,-11.4631 -1.5419,-34.92115 -0.1687,-36.29438 1.9291,-1.92901 2.2161,1.72174 1.8685,23.76473 -0.3549,22.51189 -0.4054,22.88444 -1.6998,12.52965 z m 655.3077,14.0459 c 0,-77.02064 0.3487,-97.38606 1.6675,-97.38523 4.2074,0.003 18.9013,8.47157 24.259,13.9818 14.8442,15.26665 20.0063,41.26254 14.699,74.0226 -3.6553,22.56325 -18.8049,75.0478 -25.595,88.67216 -4.1589,8.34462 -9.0179,14.87852 -12.4167,16.6967 -2.5846,1.38264 -2.6138,0.3116 -2.6138,-95.98803 z m -613.9774,97.45669 c -13.1394,-8.18443 -21.0701,-26.63529 -35.3182,-82.16854 -10.5179,-40.99422 -9.9133,-69.19521 1.9163,-89.37131 6.8087,-11.61276 21.9247,-21.99036 35.0695,-24.0762 l 5.6696,-0.89968 V 901.835 c 0,78.72115 -0.3484,99.5082 -1.6675,99.5043 -0.9172,0 -3.4685,-1.1268 -5.6697,-2.49786 z m 588.9228,2.78096 c -2.7979,-1.91773 -6.8951,-38.17764 -7.835,-69.33883 l -0.8562,-28.388 4.5453,-4.68192 c 4.3775,-4.50909 4.5743,-5.15931 5.3299,-17.61371 0.5157,-8.49953 2.8867,-21.61489 6.9177,-38.26606 3.3732,-13.93385 6.8146,-28.78441 7.6476,-33.00123 1.6065,-8.1319 2.7171,-8.86579 10.3302,-6.82654 l 3.0016,0.804 v 96.22726 96.22727 l -4.2394,2.50304 c -4.6626,2.75292 -21.8797,4.38492 -24.8417,2.35472 z m -21.4596,-58.95149 c -0.1288,-20.11143 0.1393,-22.80238 3.1218,-31.3345 4.3132,-12.33924 7.7845,-13.60675 6.6707,-2.43575 -1.6033,16.07893 -4.7322,36.11108 -7.1493,45.7707 l -2.5024,10.00037 z m 5.9526,-103.00384 c -0.2648,-0.9167 -1.7467,-5.32846 -3.2932,-9.80392 -2.5174,-7.2849 -2.7966,-10.91607 -2.6657,-34.66796 0.1621,-29.42691 0.7191,-28.70996 5.0712,6.5271 4.2463,34.38063 4.6293,39.61151 2.9003,39.61151 -0.8422,0 -1.7479,-0.75002 -2.0126,-1.66673 z M 1179.6546,1001.754 c -2.1971,-0.5738 -2.3346,-6.45668 -2.3346,-99.84904 0,-85.13564 0.2709,-99.23926 1.9065,-99.23926 1.2551,0 2.4263,2.61931 3.428,7.66695 0.8369,4.21682 4.4813,19.88193 8.0988,34.81134 5.0663,20.90908 6.5772,29.5924 6.5772,37.80141 0,10.47135 0.084,10.74122 4.8352,15.48991 l 4.8353,4.8329 -0.6732,29.36838 c -0.6764,29.50733 -4.1546,65.26327 -6.6507,68.36981 -1.2969,1.614 -14.7784,2.1174 -20.0225,0.7476 z m 42.7609,-30.41535 c -5.5915,-16.63307 -9.9551,-38.95566 -11.2701,-57.65379 -1.0716,-15.23769 0.709,-16.2285 5.378,-2.99262 1.6772,4.75446 4.9617,12.40366 7.299,16.99823 l 4.2495,8.35375 -0.3628,24.98082 -0.3629,24.98082 z m -12.1893,-134.29107 c 3.2607,-39.16846 6.694,-64.61736 12.8233,-95.05081 l 4.2967,-21.33413 0.352,42.99822 0.352,42.99822 -4.9059,9.67041 c -2.6982,5.31872 -5.9391,12.97053 -7.202,17.00402 -2.6286,8.39576 -6.3047,10.78428 -5.7161,3.71407 z m 484.4271,168.66982 v -31.80434 l 4.2014,-2.48064 c 6.6656,-3.93553 23.6009,-20.65309 29.9954,-29.60975 3.217,-4.50613 8.2283,-13.20903 11.1361,-19.33979 l 5.2869,-11.14683 0.037,20.18484 c 0.032,17.7792 -0.3714,21.5931 -3.3874,32.00105 -4.4699,15.42534 -11.0598,30.48175 -18.7134,42.75536 -6.4354,10.3202 -18.1668,23.8506 -24.7285,28.5206 l -3.8272,2.7239 z m 46.9176,-182.68166 c -7.0067,-17.18027 -22.9725,-37.28825 -39.5245,-49.77904 l -7.3931,-5.57909 0.062,-75.50896 0.062,-75.50895 3.259,6.25571 c 14.0222,26.91627 29.9794,76.28245 39.1386,121.08181 6.8733,33.61879 8.3005,45.74263 7.887,66.9977 l -0.3826,19.66281 z m -475.7006,213.20846 c -13.3147,-8.6017 -25.8039,-24.6194 -36.0457,-46.22969 l -5.8379,-12.31815 v -24.29157 -24.29156 l 6.6684,9.96527 c 8.1235,12.1399 25.97,29.27151 37.0782,35.59296 l 8.2006,4.66682 0.04,31.00102 c 0.022,17.0506 -0.4676,31.001 -1.0876,31.001 -0.6199,0 -4.677,-2.2933 -9.0157,-5.0961 z m -41.8836,-261.95823 v -39.38901 l 5.3396,-21.25744 c 9.8695,-39.29144 23.6019,-75.76341 39.0249,-103.6467 3.6507,-6.60022 6.8682,-12.25041 7.1499,-12.55597 0.2817,-0.30557 0.5121,36.70784 0.5121,82.25202 v 82.8076 l -11.0056,7.21777 c -13.7107,8.99187 -26.2018,21.31686 -34.5825,34.12268 l -6.4384,9.83807 z m 424.167,627.88363 c -0.1542,-33.0778 0,-35.6909 2.0222,-34.0144 1.9551,1.6217 2.0959,4.8121 1.3166,29.8303 -1.3642,43.7935 -3.1438,46.0237 -3.3388,4.1841 z m -0.167,-381.8212 v -29.32468 l 5.6696,-0.79303 c 9.0372,-1.26406 22.1325,-5.98657 34.0418,-12.27641 l 11.0298,-5.82529 -0.3575,31.55821 -0.3575,31.5582 -5.3361,3.0442 c -7.936,4.5273 -24.1966,9.3652 -35.0803,10.4371 l -9.6098,0.9465 z m 43.356,-254.0956 c -9.2849,-5.46533 -24.4103,-11.35028 -34.3289,-13.35661 l -8.3601,-1.69105 -0.3439,-80.25423 -0.3439,-80.25422 11.0162,-5.67482 c 6.0588,-3.12115 11.4506,-5.87499 11.9817,-6.11965 1.2492,-0.5755 13.6429,18.51751 21.5628,33.21849 l 6.1761,11.46412 -0.3449,73.29709 -0.3449,73.2971 z m -373.213,695.3311 c -1.8969,-7.929 -4.4136,-20.9791 -5.5927,-29.0003 -2.3568,-16.0328 -3.7912,-65.8676 -2.4602,-85.4778 l 0.8298,-12.2265 5.8866,2.1807 5.8867,2.1806 v 68.3799 c 0,37.6089 -0.2478,68.3799 -0.5506,68.3799 -0.3029,0 -2.1027,-6.4874 -3.9996,-14.4165 z m -21.6705,-413.7154 c -3.7825,-0.6315 -10.6861,-2.5716 -15.3414,-4.3113 l -8.4641,-3.163 -0.3575,-31.4744 -0.3575,-31.47439 8.5217,3.98573 c 10.5027,4.9123 24.0045,8.84817 34.3768,10.02106 l 7.8427,0.88685 v 27.67255 c 0,27.5704 -0.011,27.6756 -3.0016,28.4766 -4.0214,1.0772 -14.7758,0.7902 -23.2191,-0.6197 z m -24.4725,-363.5684 v -81.35164 l 7.9796,-12.14606 c 4.3888,-6.68034 8.403,-12.14607 8.9204,-12.14607 0.5174,0 8.3326,3.72786 17.367,8.28414 l 16.4262,8.28415 v 77.71688 77.71688 h -3.9149 c -9.9218,0 -39.4083,8.87993 -45.0636,13.57101 -1.3937,1.15611 -1.7147,-13.8056 -1.7147,-79.92929 z m 309.3543,828.9725 c -19.4349,-0.5086 -81.5969,-1.0028 -138.1378,-1.0982 -96.0992,-0.1621 -102.9368,-0.3255 -104.8766,-2.5067 -4.1281,-4.6419 -11.6098,-19.9252 -15.5984,-31.8637 l -4.0749,-12.1969 v -63.6261 -63.6262 l 3.0002,0.6809 c 1.6502,0.3746 7.6858,1.929 13.4124,3.4543 22.1448,5.8982 37.6573,7.2324 74.928,6.4443 19.0682,-0.4031 51.4708,-2.0283 72.0058,-3.6115 90.5564,-6.9817 128.8706,-2.6421 161.1996,18.2581 l 9.1875,5.9396 -0.7568,27.5731 c -1.072,39.0588 -6.211,67.0091 -17.0305,92.6272 -4.8738,11.5401 -13.1534,24.2098 -15.9222,24.3647 -1.1001,0.062 -17.9014,-0.3043 -37.3363,-0.8129 z m -185.2936,-307.356 c -9.71,-4.5195 -17.1695,-10.8205 -24.7544,-20.91 -24.1491,-32.1233 -32.066,-78.2634 -16.7379,-97.55 12.592,-15.8439 37.9225,-27.6952 71.4698,-33.4385 28.9634,-4.9584 82.8782,-4.9377 112.2019,0.043 34.63,5.8822 59.802,17.6497 72.0208,33.6685 5.7827,7.5812 7.5647,14.484 7.4693,28.9333 -0.225,34.0681 -22.2936,75.6564 -47.1413,88.8378 -4.8486,2.5721 -7.9266,3.1341 -17.2369,3.1473 -13.9673,0.02 -16.4146,-1.2692 -39.8285,-20.9762 l -16.4934,-13.8821 -6.9507,1.1975 c -3.9069,0.673 -10.4065,0.709 -14.8424,0.082 l -7.8918,-1.1152 -17.3196,14.5636 c -9.5258,8.0101 -20.3267,15.9639 -24.0019,17.6753 -9.3078,4.3341 -20.2747,4.2328 -29.963,-0.2766 z m 103.9537,-39.8393 c 12.9696,-0.8989 27.6025,-5.0384 39.3147,-11.122 11.1325,-5.7824 25.0613,-19.1689 30.4366,-29.2516 10.3206,-19.3589 8.5115,-45.7077 -3.1384,-45.7077 -2.2543,0 -9.0136,2.3647 -15.0208,5.2549 -20.7823,9.9988 -46.7435,14.3121 -78.2609,13.0024 -27.1606,-1.1286 -49.9514,-6.4544 -64.9412,-15.1758 -7.2714,-4.2305 -13.1373,-3.7598 -16.9335,1.359 -2.3717,3.198 -2.7965,5.6542 -2.7846,16.0978 0.013,11.6103 0.3133,12.9294 5.18,22.7758 12.6151,25.5233 38.9763,40.6278 75.479,43.2482 6.9672,0.5002 14.4678,0.7525 16.668,0.5607 2.2002,-0.1917 8.5007,-0.6605 14.0011,-1.0417 z m 137.7338,-118.1487 c -3.086,-0.6095 -16.8871,-5.4171 -30.6691,-10.6835 -63.106,-24.1146 -85.7291,-30.1717 -117.7322,-31.5215 -22.3225,-0.9416 -40.3922,1.0416 -63.3384,6.9514 -17.976,4.6298 -24.6649,6.9395 -69.3389,23.9429 -14.6678,5.5828 -29.219,10.5082 -32.3359,10.9453 l -5.6671,0.7949 v -28.0107 -28.01061 l 18.3348,-0.70586 c 20.4138,-0.78591 30.1588,-3.07318 46.8375,-10.99333 18.9482,-8.99786 37.9131,-25.54028 49.0716,-42.80345 4.5463,-7.03358 5.6121,-7.95558 8.1228,-7.02688 2.7782,1.02764 2.8113,1.25694 0.8578,5.9321 -2.8827,6.89878 -2.0355,11.58576 2.3726,13.1266 2.5209,0.88118 4.1793,0.76261 5.5789,-0.39888 2.8758,-2.38652 14.6963,-32.8425 13.727,-35.36818 -0.4492,-1.17038 -2.3312,-2.81797 -4.1822,-3.66132 -4.1751,-1.90215 -7.8477,0.90318 -10.0945,7.71057 -1.2751,3.86316 -1.8426,4.30681 -4.0192,3.142 -2.4884,-1.33164 -2.4877,-1.47508 0.038,-7.88262 3.9756,-10.08546 6.7532,-26.08493 7.0739,-40.74731 l 0.2916,-13.33349 6.0005,-2.97567 c 13.4261,-6.65808 28.4157,-6.38161 42.7669,0.7888 l 7.2237,3.60921 0.2708,12.5431 c 0.3001,13.90254 3.1784,30.14615 7.1081,40.11536 2.4988,6.339 2.5017,6.56423 0.1024,7.84824 -2.13,1.13984 -2.7805,0.50972 -4.7222,-4.57416 -1.3038,-3.41366 -3.3658,-6.24964 -4.8976,-6.73577 -3.3203,-1.05374 -9.1995,2.645 -9.1328,5.74562 0.088,4.07258 12.5403,32.67964 14.8481,34.10999 1.5662,0.97069 3.2531,0.91596 5.6671,-0.18388 4.014,-1.82877 4.4747,-5.89253 1.4804,-13.05844 -1.8648,-4.46281 -1.821,-4.73315 0.9331,-5.75187 2.5107,-0.9287 3.5765,-0.007 8.1228,7.02688 11.5264,17.83229 30.5182,34.15304 50.4475,43.35223 18.4458,8.51444 26.7038,10.1419 51.4621,10.1419 h 21.6684 v 29.00032 29.0004 l -4.3337,-0.1461 c -2.3835,-0.08 -6.8586,-0.6448 -9.9447,-1.2543 z m -152.9635,-46.462 c 6.5293,-2.96523 10.7217,-7.9681 12.6368,-15.07951 2.2473,-8.3453 0.8594,-10.59979 -2.2935,-3.72557 -6.1373,13.38121 -17.9721,17.57038 -29.6517,10.49597 -3.6132,-2.18852 -8.1319,-10.46812 -8.1319,-14.89986 0,-5.57476 5.759,-14.06112 14.0011,-20.6315 9.5641,-7.6243 14.6163,-16.24977 17.5283,-29.92577 2.8199,-13.24265 1.7907,-35.67931 -2.2188,-48.37338 -3.1556,-9.99085 -10.4001,-25.3538 -11.4572,-24.29676 -0.352,0.35202 0.6651,5.3628 2.2603,11.13505 3.9699,14.36491 5.0084,42.77382 2.0292,55.50744 -3.1754,13.57212 -7.702,21.39991 -15.9959,27.66143 -11.3676,8.58206 -14.7305,14.43966 -15.2404,26.54662 -0.3913,9.29065 -0.1067,10.61153 3.4954,16.22331 7.0105,10.92173 20.9234,14.86453 33.0383,9.36253 z m 17.2201,-154.44651 c -5.8734,-2.49398 -11.171,-3.56029 -19.9918,-4.02399 -11.6063,-0.61012 -17.3059,0.48466 -28.8391,5.53938 -1.791,0.78497 -2.5763,-0.70578 -4.4943,-8.53161 -2.6815,-10.94125 -10.2777,-27.31041 -17.7981,-38.35325 -5.1383,-7.54508 -23.733,-26.99153 -25.8092,-26.99153 -0.5861,0 -1.0655,-3.00004 -1.0655,-6.66675 v -6.66674 h 76.6728 76.6728 v 6.66674 c 0,3.66671 -0.4795,6.66675 -1.0655,6.66675 -2.0341,0 -20.6214,19.37367 -25.5846,26.66698 -7.8387,11.51862 -14.5323,25.82979 -17.7499,37.94946 l -2.9568,11.13767 z m -148.6688,-95.18738 c -2.5668,-0.67091 -11.4173,-1.35951 -19.6676,-1.53021 l -15.0006,-0.31037 -6e-4,-78.4769 c -5e-4,-62.30137 0.343,-78.31899 1.6662,-77.71081 11.2936,5.19068 41.0828,16.39911 53.6102,20.17125 20.1686,6.07302 50.1298,12.06241 70.5458,14.10244 20.5314,2.05156 71.3423,0.91084 90.1945,-2.02489 32.2696,-5.02515 71.7605,-16.70449 101.5101,-30.02139 8.2423,-3.68953 15.1765,-6.70824 15.4093,-6.70824 0.2328,0 0.4233,36.64086 0.4233,81.42414 v 81.42413 l -3.0002,-0.97442 c -4.6738,-1.51792 -34.2625,-1.03605 -41.5002,0.67586 -5.2266,1.23621 -10.2361,1.08671 -25.6112,-0.76429 -17.9647,-2.16276 -19.2637,-2.1653 -21.6098,-0.0423 -2.2853,2.06803 -9.0102,2.2588 -79.6256,2.2588 -70.9215,0 -77.3325,-0.18366 -79.6511,-2.2818 -2.3798,-2.15353 -3.5475,-2.15309 -20.7733,0.008 -20.1006,2.5215 -20.2448,2.52569 -26.9192,0.78121 z" />
    <path
       id="path71"
       style="display:inline;fill:#c2d7d7;fill-opacity:1"
       d="m 1694.8191,1423.3211 -0.045,-41.3342 6.6606,7.3135 c 3.6633,4.0225 6.9598,8.5226 7.3254,10.0002 0.5281,2.134 -11.2968,58.749 -13.3718,64.0214 -0.2886,0.7334 -0.5449,-17.267 -0.5695,-40.0009 z m -431.0783,28.8348 -11.6057,-51.502 5.0569,-7.2846 c 5.0388,-7.2585 16.8814,-18.4333 18.1697,-17.1451 0.3728,0.3726 0.5218,29.1977 0.3313,64.0557 l -0.3465,63.378 z m 390.5825,62.8649 -6.3366,-0.4994 0.01,-36.9274 c 0,-20.3721 0.649,-40.514 1.438,-44.9275 0.7866,-4.4 1.8337,-22.2254 2.3268,-39.6119 l 0.8966,-31.6119 12.0053,4.035 c 13.0122,4.3734 22.8615,9.7669 29.6832,16.2547 l 4.3356,4.1233 v 31.745 31.7449 l -6.7371,30.3276 c -3.7054,16.6802 -7.0722,31.6776 -7.4818,33.3276 -0.7066,2.8468 -1.3335,2.9878 -12.2728,2.7597 -6.3405,-0.1322 -14.3797,-0.465 -17.8649,-0.7397 z m -379.5057,-13.5994 c -2.6445,-11.4799 -2.8309,-15.9672 -2.8309,-68.1619 v -55.873 l 7.0037,-4.0291 c 7.7436,-4.4548 18.5371,-8.7911 26.0939,-10.4832 l 4.9223,-1.1022 0.1391,27.4472 c 0.1563,30.8205 2.3533,49.8906 8.5871,74.5374 3.2994,13.0447 3.9405,18.2326 3.9435,31.9107 v 16.3335 h -10.4673 c -5.757,0 -15.8891,0.3847 -22.5157,0.8548 l -12.0484,0.8548 z m 350.5983,5.4564 c 12.4132,-18.5877 22.9531,-54.8388 25.6471,-88.2112 0.2664,-3.3 0.5892,16.9502 0.7173,45.0005 l 0.233,51.0006 h -15.8998 -15.8998 z m -306.7351,-17.877 0.027,-23.0003 3.9531,11.6721 c 4.2688,12.6043 8.4338,21.4377 13.8283,29.3284 l 3.4184,5 h -10.6274 -10.6273 z" />
    <path
       id="path64"
       style="display:inline;fill:#50999f;fill-opacity:1"
       d="m 1855.3253,1525.9275 c -9.5359,-0.91 -17.7882,-1.7184 -18.3383,-1.7965 -0.5502,-0.078 -1.0003,-19.9865 -1.0003,-44.241 v -44.0991 l 38.3438,19.4939 c 21.0891,10.7217 39.0583,20.216 39.9315,21.0986 1.2312,1.2443 -1.9087,7.219 -13.9822,26.6052 l -15.57,25.0006 -6.0232,-0.2035 c -3.3128,-0.112 -13.8254,-0.9481 -23.3613,-1.8582 z m -795.7361,-26.2972 c -7.1089,-11.3803 -12.9216,-21.2054 -12.9169,-21.8335 0,-0.6282 1.8713,-2.2023 4.1482,-3.4981 10.2256,-5.8195 53.9929,-28.1914 68.19,-34.8556 l 15.6695,-7.3555 v 42.4456 42.4456 l -13.0024,0.8174 c -7.1513,0.4496 -21.1385,1.2018 -31.0827,1.6715 l -18.0803,0.854 z m 739.0832,22.3312 c -12.8357,-0.9044 -40.1407,-2.3635 -60.6778,-3.2424 -20.5371,-0.8789 -38.6904,-1.8639 -40.3407,-2.189 -2.9809,-0.5872 -3.0006,-0.7512 -3.0006,-24.9955 v -24.4044 l 7.329,-32.5715 c 4.031,-17.9142 7.6431,-33.9214 8.0269,-35.5715 0.6095,-2.6204 1.5456,-3 7.3966,-3 19.241,0 59.1231,13.0355 108.2715,35.3886 l 14.336,6.5201 v 43.0471 43.047 l -9.0017,-0.192 c -4.9509,-0.1056 -19.5035,-0.932 -32.3392,-1.8365 z m -668.0191,-46.2627 v -42.0319 l 18.3367,-8.0108 c 41.2456,-18.0192 72.4843,-27.9902 91.6835,-29.2643 l 10.6686,-0.7079 12.3725,55.8195 c 6.8049,30.7008 12.3559,57.0562 12.3356,58.5676 -0.036,2.7074 -0.9014,2.7724 -58.3809,4.3903 -32.0893,0.9033 -64.7953,2.0084 -72.68,2.4558 l -14.336,0.8136 z m 560.3559,40.6524 c -3.852,-0.2693 -6.9726,-0.9084 -6.9346,-1.42 0.038,-0.5117 3.2901,-15.0305 7.227,-32.2641 l 7.1579,-31.3337 0.1102,33.0004 c 0.061,18.1502 -0.04,32.8894 -0.2233,32.7538 -0.1834,-0.1357 -3.4852,-0.4671 -7.3372,-0.7364 z m -418.8838,-14.0172 0.1386,-11.0001 2.4748,10.0001 c 3.0957,12.5096 3.0992,12.0002 -0.084,12.0002 -2.4637,0 -2.6575,-0.8427 -2.5294,-11.0002 z" />
    <path
       id="path59"
       style="display:inline;fill:#9ccad8"
       d="m 2070.7552,2028.5397 c 0.1015,-412.4534 0.1151,-414.5067 2.6895,-405.8837 6.5387,21.9018 16.6405,80.6579 21.778,126.6699 19.0983,171.0476 20.0016,435.1351 2.0182,590.015 -6.2982,54.242 -15.6962,93.8951 -24.0435,101.4475 -2.5025,2.2641 -2.5424,-4.4779 -2.4422,-412.2487 z M 870.00802,2484.0659 c -53.09424,-13.5651 -85.63433,-28.5563 -96.44379,-44.4316 -4.18694,-6.1492 -8.81012,-17.3079 -8.05264,-19.4362 0.26245,-0.7374 6.76489,1.353 14.44987,4.6452 29.88136,12.8011 68.98915,25.5829 97.38126,31.8275 8.43489,1.8551 16.68642,3.677 18.33672,4.0485 2.88851,0.6503 3.00056,1.2223 3.00056,15.3172 0,10.8613 -0.43039,14.6237 -1.66698,14.5723 -0.91683,-0.038 -13.06908,-2.9825 -27.005,-6.5429 z M 1929.3301,2333.6745 c 0.01,-94.1309 0.5319,-164.3269 1.2664,-169.0042 4.8504,-30.8868 6.0581,-52.7186 6.0482,-109.336 -0.01,-56.4311 -1.3729,-81.0993 -6.0627,-109.7272 -0.7338,-4.4793 -1.2497,-90.8329 -1.2543,-209.9472 -0.01,-160.9887 0.333,-202.3372 1.6593,-202.3328 4.7625,0.015 50.1906,7.2013 64.1311,10.1442 31.2358,6.594 47.1835,12.9633 53.9981,21.5661 6.4225,8.1078 14.12,24.762 20.085,43.4559 l 5.4788,17.1703 v 406.9909 406.991 l -6.3368,5.9264 c -17.8988,16.7395 -54.1161,30.7691 -112.764,43.6816 -13.5516,2.9837 -25.0038,5.4249 -25.4493,5.4249 -0.4454,0 -0.8054,-72.4518 -0.7998,-161.0039 z m -946.65299,171.4728 c -16.35143,-2.2678 -50.02294,-7.8264 -69.01864,-11.394 l -19.00514,-3.5694 v -14.8775 -14.8776 l 9.00243,1.7443 c 10.6076,2.0553 50.55881,6.6741 67.68496,7.8252 6.60178,0.4437 14.25385,1.1308 17.00459,1.527 l 5.00135,0.7203 v 17.2165 c 0,9.4691 -0.45012,17.1425 -1.00027,17.052 -0.55015,-0.09 -4.90132,-0.7056 -9.66928,-1.3668 z m 853.30959,-67.9869 v -70.8517 l 11.4164,-10.6786 c 43.091,-40.3062 72.0843,-107.5431 83.7814,-194.2928 1.6941,-12.5641 1.9018,3.7875 2.0249,159.4053 l 0.1372,173.4056 -21.6726,3.6318 c -26.5151,4.4434 -67.0336,10.1899 -72.0196,10.2142 l -3.6677,0.018 z m 94.9355,-489.1614 c -8.507,-67.7643 -27.201,-138.455 -55.0208,-208.0586 -10.9441,-27.3816 -27.5265,-64.1665 -35.3093,-78.3273 l -4.6054,-8.3794 v -64.5968 -64.5968 l 5.6682,0.6322 c 3.1175,0.3478 16.4712,1.5498 29.6748,2.6714 24.8966,2.1147 61.0982,5.9526 61.6875,6.5398 0.1856,0.1849 0.1856,96.5867 0,214.226 -0.2907,184.2731 -0.5808,211.9513 -2.095,199.8895 z m -837.5831,569.2339 c -34.0094,-3.067 -101.61027,-10.5564 -102.99221,-11.4104 -0.56479,-0.349 -1.02689,-8.1808 -1.02689,-17.4041 v -16.7697 l 15.0028,0.8852 c 44.4305,2.6212 63.1996,3.4833 91.0166,4.1807 16.8698,0.4229 32.6227,1.0649 35.0065,1.4266 l 4.3341,0.6577 v 20.6067 20.6068 l -7.0013,-0.1571 c -3.8507,-0.086 -19.3035,-1.2665 -34.3396,-2.6224 z m 601.3142,-43.1157 v -47.2284 l 4.3341,-0.9429 c 9.6658,-2.1027 38.9629,-12.0263 59.6663,-20.2101 31.8689,-12.5976 57.5526,-25.731 74.3583,-38.0234 l 7.0013,-5.1211 v 72.6045 72.6044 l -3.6673,0.7626 c -10.1879,2.1188 -125.2838,12.7829 -137.9631,12.7829 h -3.7296 z m 137.2808,-828.3956 c -22.9847,-42.6295 -48.9598,-79.2444 -82.5871,-116.4162 l -9.9848,-11.0372 13.3188,0.8416 c 7.3253,0.4629 29.9718,1.855 50.3255,3.0936 l 37.0068,2.2519 v 67.1022 c 0,36.9062 -0.2483,67.1022 -0.5517,67.1022 -0.3034,0 -3.6908,-5.8221 -7.5275,-12.9381 z m -589.2602,880.8397 c -32.5321,-1.3796 -96.1803,-5.0515 -105.0193,-6.0586 l -7.0013,-0.7977 v -20.5134 -20.5135 h 72.68 72.68 v 24.6672 24.6672 l -4.3341,-0.2024 c -2.3838,-0.1114 -15.4362,-0.6733 -29.0053,-1.2488 z m 405.3128,-44.7043 v -42.517 l 22.345,-5.6702 c 12.2898,-3.1187 23.6958,-6.0375 25.3466,-6.4864 l 3.0016,-0.816 v 47.3341 47.334 l -8.3377,0.7962 c -4.5857,0.4379 -15.9917,1.1891 -25.3466,1.6693 l -17.0089,0.873 z m -356.9901,46.4923 -19.0099,-0.4096 v -24.4327 -24.4327 l 11.0058,-0.8563 c 6.0531,-0.471 17.4591,-0.8599 25.3466,-0.8643 l 14.3408,-0.01 v 26.0003 26.0003 l -6.3367,-0.2937 c -3.4851,-0.1615 -14.8911,-0.478 -25.3466,-0.7033 z m 65.3264,1.3311 -37.6697,-0.3757 v -25.8658 -25.8658 l 9.6674,-0.7237 c 5.3171,-0.398 27.3689,-1.6796 49.004,-2.8478 90.735,-4.8996 185.7288,-16.5686 254.4002,-31.2506 10.4765,-2.2399 19.3272,-4.0725 19.6683,-4.0725 0.341,0 0.6201,19.149 0.6201,42.5534 v 42.5534 l -9.6674,0.7896 c -30.1461,2.4622 -188.2665,6.4171 -230.3518,5.7616 -9.9008,-0.1542 -34.9528,-0.4494 -55.6711,-0.6561 z" />
    <path
       id="path141"
       style="display:inline;fill:#c5dee5"
       d="m 690.87947,2541.6793 c -9.62195,-19.1502 -13.21618,-50.9329 -8.93419,-79.0023 3.6451,-23.8944 12.20063,-44.0101 25.23623,-59.3351 l 3.40254,-4.0001 0.048,73.6689 0.048,73.6688 h -8.64411 -8.64412 z m 15.77386,-66.9532 v -71.9534 l 8.33761,-6.9389 c 9.7426,-8.1082 21.4794,-13.9394 32.63452,-16.2137 4.36677,-0.8903 7.76273,-2.2172 7.54657,-2.9487 -1.04747,-3.5448 -7.36954,-58.781 -9.15629,-79.9989 -11.81426,-140.2959 -11.22854,-349.3607 1.39149,-496.6806 2.22329,-25.9535 8.01726,-78.3551 9.80402,-88.6691 0.66377,-3.8316 1.22166,172.3786 1.31184,414.3449 l 0.15691,421.0118 h -26.01334 -26.01333 z m 1363.99997,20.1154 c 0,-45.5221 0.2556,-52.0502 2.098,-53.5789 5.0123,-4.1588 11.4461,-22.664 15.9856,-45.9785 1.2789,-6.5681 2.4738,-12.1313 2.6554,-12.3627 0.1816,-0.2314 4.142,1.4964 8.8008,3.8394 13.4803,6.7795 26.1427,20.5901 34.3658,37.4816 9.3896,19.288 12.2436,31.7573 13.0695,57.1021 0.7761,23.8149 -1.223,37.8686 -7.8191,54.9686 l -3.9987,10.3664 h -32.5787 -32.5786 z M 754.65764,2137.42 c -0.007,-403.3836 0.031,-409.5239 2.68093,-427.6775 11.28057,-77.2793 25.81624,-127.6798 41.98349,-145.5722 8.5252,-9.4348 28.18271,-16.2469 67.35201,-23.34 9.90184,-1.7931 21.15392,-3.6726 25.00463,-4.1768 l 7.0013,-0.9166 v 462.829 462.8289 l -3.00056,-0.6755 c -1.6503,-0.3715 -9.90183,-2.1934 -18.33672,-4.0485 -28.39211,-6.2446 -67.4999,-19.0264 -97.38126,-31.8275 -7.68498,-3.2922 -14.18742,-5.3826 -14.44987,-4.6452 -0.75748,2.1283 3.8657,13.287 8.05264,19.4362 11.09976,16.3017 49.71359,33.5106 104.11188,46.3993 l 21.00389,4.9765 v 27.8347 27.8347 h -72.00739 -72.0074 z M 1929.32,2520.679 c 0,-14.3003 0.3645,-26.0006 0.8099,-26.0006 0.4455,0 11.8977,-2.4412 25.4493,-5.4249 58.6479,-12.9125 94.8652,-26.9421 112.764,-43.6816 l 6.3368,-5.9264 v 53.5171 53.517 H 2002 1929.32 Z m 0.3137,-465.3447 c 0,-66.6492 0.4711,-111.8775 1.125,-108.0026 4.492,26.6212 5.8762,52.0277 5.884,108.0026 0.01,55.8939 -1.4113,81.6285 -5.9925,108.6694 -0.5591,3.3 -1.0165,-45.6012 -1.0165,-108.6694 z M 894.65333,2518.5045 v -28.1751 l 4.3345,0.7375 c 2.38398,0.4056 12.4367,2.2461 22.33937,4.09 9.90268,1.8439 28.80779,4.9367 42.01135,6.873 13.20357,1.9362 25.35686,3.7857 27.0073,4.11 2.95217,0.58 3.00081,0.9134 3.00081,20.5647 v 19.975 H 944 894.65333 Z m 80.02162,-48.0137 c -20.62427,-1.6939 -60.72718,-6.3544 -70.68576,-8.2147 l -8.66901,-1.6193 -0.33533,-462.1635 -0.33532,-462.1635 5.00325,-0.7901 c 8.71147,-1.3756 64.5445,-7.3932 76.35587,-8.2296 6.23501,-0.4415 12.68676,-1.081 14.3372,-1.4211 l 3.00081,-0.6184 v 473.3703 c 0,450.0104 -0.11517,473.3611 -2.33396,473.1851 -1.28368,-0.1018 -8.63567,-0.7026 -16.33775,-1.3352 z m 861.31175,57.1847 v -19.0041 l 23.6731,-3.0867 c 13.0202,-1.6977 34.1646,-4.8461 46.9876,-6.9965 12.8229,-2.1504 24.076,-3.9098 25.0068,-3.9098 1.3095,0 1.6924,5.8822 1.6924,26.0007 v 26.0006 h -48.68 -48.6799 z m 0.023,-517.8963 0.022,-355.787 2.8233,4.4082 c 4.7777,7.4599 25.6047,52.9928 35.4919,77.5937 28.4768,70.8555 45.6001,133.9927 55.5837,204.9496 3.3899,24.0931 3.4161,24.9619 3.4161,113.601 0,94.547 -0.3029,100.5679 -6.8132,135.46 -10.5104,56.3304 -31.024,107.2677 -56.8438,141.1489 -7.401,9.7117 -21.6912,24.8664 -28.7015,30.4378 l -5.0014,3.9748 z M 989.32,2526.2593 v -20.4203 l 12.3356,1.6629 c 19.7302,2.6597 73.9277,8.1968 104.6859,10.6952 l 28.3385,2.3018 v 13.0904 13.0904 H 1062 989.32 Z m 111.3538,-49.0425 c -28.6662,-0.9773 -65.7954,-2.7843 -97.6865,-4.7541 l -13.67102,-0.8444 0.33526,-472.8146 0.33525,-472.8145 21.33721,-1.566 c 18.8935,-1.3867 64.127,-4.1176 108.3532,-6.5417 l 15.0028,-0.8223 v 480.8095 c 0,383.8694 -0.3361,480.7675 -1.667,480.6016 -0.9168,-0.1143 -15.4695,-0.6784 -32.3392,-1.2535 z m 593.9795,56.7958 v -12.6669 h 3.7296 c 12.6793,0 127.7752,-10.6641 137.9631,-12.7829 l 3.6673,-0.7626 v 19.4397 19.4397 h -72.68 -72.68 z m 0,-562.2659 v -455.142 l 10.3352,0.374 c 5.6844,0.2057 15.8877,0.7235 22.674,1.1506 l 12.3388,0.7766 14.138,15.7867 c 29.6063,33.0585 53.1253,66.4988 76.7411,109.1135 l 9.1329,16.4804 v 351.1524 351.1524 l -7.0013,5.1211 c -16.8057,12.2924 -42.4894,25.4258 -74.3583,38.0234 -20.7034,8.1838 -50.0005,18.1074 -59.6663,20.2101 l -4.3341,0.9429 z m -564,561.4931 v -13.4397 l 8.3349,0.8118 c 12.6771,1.2348 70.9069,4.5043 95.6842,5.3724 12.1022,0.424 26.3548,1.1051 31.6725,1.5134 l 9.6684,0.7423 v 9.2198 9.2198 h -72.68 -72.68 z m 0,-535.078 v -480.5162 l 19.0035,-0.8788 c 29.9896,-1.3869 96.2758,-3.4172 112.0205,-3.431 l 14.336,-0.013 v 204.2162 204.2162 l -7.8362,12.122 c -21.2426,32.8604 -32.3594,64.3257 -34.3774,97.3033 -2.364,38.6305 11.0241,78.5202 36.3716,108.369 l 5.842,6.8795 v 166.1244 166.1244 h -72.68 -72.68 z m 517.3334,537.3651 v -11.1529 l 17.0089,-0.873 c 9.3549,-0.4802 20.7609,-1.2314 25.3466,-1.6693 l 8.3377,-0.7962 v 12.8222 12.8221 h -25.3466 -25.3466 z m 0,-558.7394 v -461.8911 l 23.6791,0.6589 c 13.0234,0.3623 24.4294,0.892 25.3466,1.177 1.3297,0.4132 1.6675,92.6263 1.6675,455.2322 0,250.0926 -0.2506,454.7139 -0.557,454.7139 -0.3063,0 -10.9619,2.696 -23.6791,5.9911 -12.7171,3.2952 -23.8724,5.9952 -24.7896,6.0001 -1.3308,0.01 -1.6675,-93.2534 -1.6675,-461.8821 z m -376,560.5589 v -9.3335 h 15.1401 c 8.327,0 19.733,0.3881 25.3466,0.8624 l 10.2065,0.8623 v 8.4711 8.4711 h -25.3466 -25.3466 z m 0,-226.6677 v -168.3956 l 12.3497,11.9411 c 6.7924,6.5676 18.1983,15.7684 25.3466,20.4463 l 12.9969,8.5051 v 147.0851 147.085 l -14.3408,0.01 c -7.8875,0 -19.2935,0.3933 -25.3466,0.8643 l -11.0058,0.8563 z m 0,-590.2038 V 1513.744 l 16.2178,-0.8716 c 8.9198,-0.4794 20.3258,-0.8716 25.3466,-0.8716 h 9.1288 v 181.8805 181.8804 l -9.0047,7.019 c -11.4428,8.9193 -24.5191,22.1225 -32.9055,33.2249 -3.6007,4.7668 -7.0498,9.2368 -7.6648,9.9335 -0.615,0.6967 -1.1182,-91.7622 -1.1182,-205.4642 z m 46.6666,817.3211 v -8.8838 l 55.6711,0.848 c 75.2006,1.1455 221.8624,-1.6758 267.3547,-5.143 l 10.3342,-0.7876 v 11.4251 11.4251 h -166.68 -166.68 z m 0,-208.4454 c 0,-81.4046 0.312,-148.0084 0.6934,-148.0084 0.3813,0 5.9318,2.6254 12.3343,5.8342 43.0609,21.5813 179.4996,-17.6884 141.4597,10.7125 -176.2306,131.5751 -490.75313,-91.7538 -286.8566,-332.5261 111.3564,-131.4957 529.4574,-33.2517 414.3169,65.3842 -14.3426,12.2867 -15.2981,-26.5978 -30.2534,-40.7815 -33.3243,-31.6051 -77.6127,-47.7546 -131.018,-47.7749 -41.1031,-0.016 -75.2292,8.9099 -107.0085,27.9876 l -13.6678,8.2049 V 1695.0126 1511.642 l 145.0116,0.8655 c 79.7564,0.476 154.7624,1.2285 166.68,1.6722 l 21.6684,0.8066 v 461.8461 c 0,254.0154 -0.2791,461.8461 -0.6201,461.8461 -0.3411,0 -9.1918,1.8326 -19.6683,4.0725 -27.8888,5.9626 -76.4816,14.0061 -111.9787,18.5356 -53.4316,6.8181 -96.4345,10.3295 -188.0919,15.359 l -13.001,0.7134 z" />
    <path
       id="path40"
       style="display:inline;fill:#f69e6f"
       d="m 2399.9994,2499.01 0.013,-47.669 5.3893,8.4914 c 7.2857,11.4794 16.1781,29.4301 20.4092,41.1995 3.9395,10.958 8.861,33.6503 8.861,40.8564 v 4.7908 h -17.3424 -17.3424 z m -1970.04255,36.6686 c 2.88838,-34.823 16.80727,-73.2021 38.56548,-106.3382 l 7.44217,-11.3339 0.0244,64.3363 0.0244,64.3364 h -23.48446 -23.48446 z m 1922.02985,-61.085 v -72.0858 l 6.2598,4.4164 c 9.7347,6.8679 26.9532,24.5403 36.7813,37.751 l 8.9278,12.0005 0.029,45.0018 0.029,45.0018 H 2378 2351.9867 Z m -1880.00003,10.5397 v -61.5459 l 5.43379,-7.0398 c 10.37221,-13.4378 33.90107,-33.8038 43.15335,-37.3525 1.90519,-0.7307 2.10619,7.2227 2.10619,83.3382 v 84.146 h -25.34666 -25.34667 z m 46.66666,-21.7712 v -83.3172 l 7.6706,-3.8627 c 9.82446,-4.9473 27.71842,-10.5889 37.06989,-11.6875 l 7.28618,-0.8559 v 91.5203 91.5203 h -26.01334 -26.01333 z m 1786.66667,2.6812 v -80.6362 l 4.3356,0.7919 c 9.3609,1.7098 29.2628,8.9997 37.2649,13.6499 l 8.4257,4.8963 0.3452,70.9671 0.3452,70.9671 H 2330.6783 2305.32 Z M 566.65333,2455.4986 v -91.1808 l 3.00158,-0.804 c 3.90449,-1.0459 40.78569,-1.0459 44.69017,0 l 3.00158,0.804 v 91.1808 91.1808 H 592 566.65333 Z m 1691.99997,11.1365 c 0,-74.9894 0.1474,-80.103 2.3346,-80.9744 3.0916,-1.2318 43.0319,-1.2562 46.024,-0.028 2.1869,0.8976 2.3346,6.0238 2.3346,81.0025 v 80.0444 h -25.3466 -25.3466 z M 613.32,2455.3433 v -91.3362 l 5.00263,0.012 c 2.75145,0.01 13.70721,1.7911 24.34614,3.966 10.63893,2.1749 19.79375,3.9697 20.34404,3.9885 0.55029,0.019 1.00052,39.3353 1.00052,87.3701 v 87.3361 H 638.66667 613.32 Z m 46.66667,4.0003 c 0,-48.0348 0.45583,-87.3359 1.01296,-87.3359 1.78621,0 39.49127,11.7628 44.67774,13.9381 4.6039,1.9309 5.00263,2.5257 5.00263,7.4621 0,4.3794 -1.20967,6.9414 -6.59043,13.9582 -11.39681,14.8621 -18.79138,33.3319 -22.14429,55.3109 -4.28199,28.0694 -0.68776,59.8521 8.93419,79.0023 l 2.5123,5.0002 h -16.70255 -16.70255 z m 1552.32233,13.1275 0.3447,-74.2083 7.3372,-2.5305 c 7.0496,-2.4314 29.3282,-7.988 38.3534,-9.566 l 4.3356,-0.758 v 80.6356 80.6356 h -25.3578 -25.3578 z M 706.65333,2394.6647 c 0,-9.0252 -0.3392,-8.8588 9.80191,-4.81 l 3.79883,1.5167 -6.80037,5.7314 -6.80037,5.7314 z m 1457.33337,88.2065 v -63.8083 l 12.1148,-5.6261 c 11.4051,-5.2965 37.7214,-16.0946 39.2244,-16.0946 0.378,0 0.6873,33.6009 0.6873,74.6686 v 74.6687 H 2190 2163.9867 Z m -27.3223,61.4749 c 9.7262,-24.0073 11.8331,-36.085 10.9905,-63.0016 -0.5122,-16.3605 -1.331,-23.1678 -3.9291,-32.6675 -1.8051,-6.6001 -3.7329,-13.0191 -4.284,-14.2643 -0.8252,-1.8643 1.6086,-3.5731 13.7846,-9.6781 l 14.7868,-7.414 v 64.6795 64.6794 h -16.1471 c -14.8491,0 -16.0711,-0.1875 -15.2017,-2.3334 z" />
    <path
       id="path37"
       style="display:inline;fill:#50999f;fill-opacity:1"
       d="m 2446.6533,2479.7989 v -66.8795 l 2.814,2.5402 c 5.3861,4.862 20.1329,28.5614 25.8298,41.5106 11.8576,26.9527 18.5289,52.1119 20.1633,76.0402 l 0.9335,13.668 h -24.8703 -24.8703 z m -2083.98244,61.8794 c 0.002,-10.1233 2.85595,-34.7097 5.533,-47.6705 2.69901,-13.0671 10.42315,-38.526 13.06106,-43.0495 0.90707,-1.5554 1.34693,13.3945 1.37451,46.7165 l 0.0406,49.0039 H 372.6749 362.66977 Z m 15.98247,-39.7442 v -44.7449 l 4.76665,-11.5919 c 8.35259,-20.3125 25.02266,-49.9652 39.83361,-70.856 l 6.09307,-8.5942 v 90.2659 90.266 H 404 378.65333 Z m 2056.01817,39.9542 c 0,-7.205 -4.9212,-29.8972 -8.8604,-40.8564 -4.2664,-11.8696 -12.1674,-27.8769 -19.9913,-40.5018 l -5.874,-9.4786 0.354,-38.7782 0.3539,-38.7782 12.6406,8.9214 c 6.9523,4.9068 18.2082,14.4058 25.0131,21.1088 l 12.3725,12.1875 v 65.4831 65.4832 h -8.0042 -8.0042 z M 425.32,2459.1271 v -87.552 l 7.45666,-9.9023 c 9.11776,-12.1083 28.80051,-34.8883 37.10901,-42.9485 l 6.12766,-5.9446 v 52.4917 52.4917 l -7.84025,12.1223 c -21.94976,33.9378 -35.32805,70.9726 -38.21623,105.7932 -0.67096,8.0893 -1.40527,11.0006 -2.77464,11.0006 -1.57468,0 -1.86221,-13.5183 -1.86221,-87.5521 z m 1972.3476,-10.7851 c -9.903,-14.0652 -22.7323,-27.9686 -34.264,-37.1327 l -11.4169,-9.0728 v -27.1614 -27.1614 l 20.3437,10.5042 c 11.189,5.7773 22.895,12.128 26.0133,14.1128 l 5.6695,3.6086 v 39.9848 c 0,21.9917 -0.2131,39.9849 -0.4737,39.9849 -0.2605,0 -2.9029,-3.4501 -5.8719,-7.667 z m -1925.66614,-78.3732 -0.0148,-53.3721 7.6707,-6.7339 c 15.08162,-13.2396 30.69764,-23.5582 40.02105,-26.4445 l 3.00158,-0.9292 -0.0103,47.7584 -0.0103,47.7584 -5.65937,3.2076 c -12.43931,7.0503 -30.56277,23.4576 -41.37905,37.4607 l -3.60477,4.6668 z m 46.65187,-38.0129 v -48.089 l 4.56747,-1.9075 c 6.81186,-2.8449 26.46982,-5.9568 37.62881,-5.9568 H 570.68 v 43.8181 43.8181 l -7.28618,0.8559 c -9.35147,1.0986 -27.24543,6.7402 -37.06989,11.6875 l -7.6706,3.8627 z m 1828.19887,68.0239 c -7.4528,-4.4806 -27.1294,-11.7218 -37.8636,-13.9341 l -3.6686,-0.756 v -22.8435 -22.8435 l 13.0068,0.8447 c 13.4233,0.8718 23.99,3.1518 32.6838,7.0523 l 5.0026,2.2445 v 27.7985 c 0,15.2892 -0.1501,27.7412 -0.3335,27.6711 -0.1834,-0.07 -4.1558,-2.4254 -8.8275,-5.234 z M 566.65333,2319.4723 v -43.8678 l 11.67281,0.8334 c 10.72896,0.7659 33.40234,4.1358 37.35298,5.5516 1.28416,0.4602 1.66754,9.8805 1.66754,40.9741 v 40.3765 H 592 566.65333 Z m 1691.99997,47.6566 v -19.0195 l 5.5011,-1.4805 c 9.3928,-2.528 24.0701,-5.0773 34.8574,-6.0543 l 10.3347,-0.9361 v 23.3066 23.3066 l -6.3366,-1.0425 c -7.8334,-1.2887 -26.4383,-1.2982 -36.6859,-0.019 l -7.6707,0.9578 z m -1616.65155,0.7805 c -9.53835,-2.0404 -19.89379,-3.7532 -23.0121,-3.8061 l -5.66965,-0.096 v -41.4245 c 0,-38.8244 0.14653,-41.3813 2.33456,-40.7381 1.28401,0.3774 6.23662,1.6681 11.00579,2.8681 4.76918,1.2 15.12462,4.2618 23.01211,6.8039 l 14.34087,4.6221 v 37.9344 c 0,35.313 -0.16132,37.921 -2.33456,37.7403 -1.28401,-0.1067 -10.13866,-1.8634 -19.67702,-3.9039 z m 60.00507,16.7092 c -4.40339,-1.6463 -15.65931,-5.2594 -25.01316,-8.0292 l -17.00699,-5.0361 v -38.3688 -38.3688 l 7.00368,2.4184 c 9.96936,3.4424 41.49196,16.2521 42.71101,17.3563 0.56233,0.5093 0.86249,17.1475 0.66702,36.9737 l -0.35539,36.0477 z m 1509.97988,-2.8248 v -16.5995 l 7.6707,-3.4062 c 4.2189,-1.8734 15.4747,-6.0249 25.0131,-9.2257 l 17.3424,-5.8195 0.3712,18.8172 c 0.2042,10.3494 0.1197,19.0687 -0.1879,19.376 -0.3075,0.3074 -6.4327,1.7582 -13.6114,3.224 -7.1788,1.4658 -18.3502,4.3679 -24.8252,6.4492 l -11.7729,3.7841 z m -1499.6638,6.6649 -5.66957,-2.0059 v -36.5566 c 0,-20.1061 0.27207,-36.5566 0.60461,-36.5566 1.7885,0 42.09658,19.9876 42.16405,20.9079 0.0441,0.601 1.40163,10.7329 3.0168,22.5154 l 2.93667,21.4226 -7.96446,1.5129 c -4.38046,0.8321 -12.27505,3.6422 -17.54354,6.2448 -10.80739,5.3387 -9.92322,5.2119 -17.54456,2.5155 z m 1451.9521,15.377 0.3787,-15.1604 22.6782,-11.5116 c 12.4731,-6.3314 24.029,-11.922 25.6798,-12.4235 3.0008,-0.9117 3.0015,-0.9078 3.0015,15.6825 v 16.5944 l -8.3376,3.0675 c -4.5856,1.6871 -15.5412,6.3004 -24.3457,10.2516 -8.8045,3.9513 -16.7789,7.5162 -17.7209,7.922 -1.3492,0.5813 -1.6323,-2.4791 -1.334,-14.4225 z m -30.8147,17.9244 c -4.9296,-9.4054 -5.1698,-10.3367 -3.0691,-11.9032 4.0697,-3.0349 35.6138,-21.8481 36.6326,-21.8481 0.5441,0 0.9894,6.5952 0.9894,14.6559 v 14.6559 l -14.6024,7.3216 -14.6024,7.3216 z" />
    <path
       id="path36"
       style="display:inline;fill:#8fb3b7;fill-opacity:1"
       d="m 2452.9838,2419.8638 -6.3305,-7.9271 0.158,-60.9743 0.1581,-60.9744 2.4424,16.9531 c 3.7835,26.2618 7.8069,68.5477 9.108,95.724 0.6496,13.5679 1.0941,24.7717 0.9878,24.8973 -0.1063,0.1256 -3.042,-3.3388 -6.5238,-7.6986 z m -15.0088,-16.5253 c -6.6208,-6.6003 -17.8767,-16.1132 -25.013,-21.1398 l -12.9753,-9.1393 v -153.4245 c 0,-84.3835 0.2373,-153.1745 0.5273,-152.869 0.906,0.9546 13.7481,52.6303 20.0201,80.5597 11.4259,50.8796 21.5298,105.3976 27.4303,148.0075 2.4687,17.8277 2.7305,25.4341 2.4091,70.0035 l -0.3606,50.0025 z m -41.9658,-32.2832 c -4.0354,-2.4477 -15.5913,-8.656 -25.6798,-13.7962 l -18.3427,-9.346 v -216.185 c 0,-118.9018 0.3031,-215.8821 0.6736,-215.5118 3.1745,3.173 30.0687,86.105 43.4658,134.0326 l 7.8987,28.2572 -0.3393,148.4998 -0.3393,148.4997 z m -45.3452,-23.6443 c -6.04,-3.2859 -19.1019,-6.0973 -32.3372,-6.9603 l -13.0068,-0.848 0.068,-265.4745 0.068,-265.4745 6.627,13.0245 c 9.8979,19.4529 23.0486,49.2529 34.0923,77.2543 l 9.8375,24.9431 v 212.7318 c 0,117.0025 -0.4502,212.7078 -1.0005,212.6784 -0.5503,-0.029 -2.5072,-0.873 -4.3487,-1.8748 z m -92.0057,-313.6048 c 0,-308.7042 0.051,-314.41 2.5206,-310.3624 1.3836,2.2679 12.7873,23.9329 25.3416,48.1446 l 22.826,44.0212 v 262.0145 262.0144 l -10.3387,0.9152 c -9.8088,0.8683 -33.7642,5.2105 -38.2612,6.9353 -1.8981,0.7281 -2.0928,-28.524 -2.0883,-313.6828 z m -46.6716,-31.476 V 1639.466 l 7.1404,11.261 c 9.4187,14.8543 28.0486,46.7213 36.6675,62.721 l 6.891,12.7921 -0.3364,310.2531 -0.3363,310.2532 -17.3424,5.8178 c -9.5384,3.1998 -20.7942,7.3505 -25.0131,9.2239 l -7.6707,3.4062 z m -47.944,-18.2623 0.056,-404.7475 9.0011,9.4922 c 9.5096,10.0284 22.8264,27.1963 35.362,45.5884 l 7.5514,11.0795 -0.089,358.9304 -0.089,358.9304 -25.9239,12.7371 -25.9239,12.7371 z m -46.0432,416.6595 c -6.1732,-6.4175 -12.1596,-11.1256 -17.6714,-13.8979 -5.4242,-2.7281 -8.3331,-5.0008 -8.3284,-6.5067 0,-1.2728 1.1734,-10.4144 2.5987,-20.3147 18.5751,-129.0214 20.7383,-394.7269 4.6462,-570.6812 -6.1433,-67.1722 -14.7653,-123.9085 -24.6602,-162.2754 -3.9104,-15.1625 -3.9311,-15.4453 -3.9311,-53.8202 v -38.5775 h 8.4557 c 23.9544,0 53.2724,14.1693 77.5681,37.4884 l 11.3361,10.8804 -0.019,402.1597 -0.019,402.1598 -6.9827,3.8406 c -3.8404,2.1123 -12.5967,7.3624 -19.4582,11.6669 -6.8616,4.3046 -12.8633,7.7717 -13.337,7.7048 -0.4738,-0.067 -5.0625,-4.4891 -10.1973,-9.827 z m -49.1203,-793.0771 c -5.5977,-17.8016 -13.3501,-34.5173 -19.763,-42.6129 -6.8146,-8.6028 -22.7623,-14.9721 -53.9981,-21.5661 -13.9405,-2.9429 -59.3686,-10.1287 -64.1311,-10.1442 -1.2862,0 -1.667,-7.1641 -1.667,-31.3396 0,-22.2094 0.4343,-31.3341 1.4913,-31.3341 6.4646,0 91.7379,39.5064 120.3659,55.7645 9.8619,5.6007 15.9443,8.2371 19.0035,8.2371 h 4.4993 v 44.6677 c 0,24.5673 -0.15,44.6649 -0.3334,44.6613 -0.1834,0 -2.6437,-7.3538 -5.4674,-16.3337 z m -156.2049,-76.3754 c -7.3354,-0.9347 -16.1524,-1.7563 -19.5934,-1.8259 -3.4409,-0.07 -6.5912,-0.6682 -7.0006,-1.3303 -0.4093,-0.6622 6.1242,-12.2125 14.5189,-25.6673 11.8099,-18.9285 14.9025,-24.8205 13.6691,-26.0421 -0.8767,-0.8682 -15.6979,-8.8071 -32.9359,-17.6419 -17.238,-8.8347 -30.9927,-16.0745 -30.5659,-16.0883 1.6077,-0.052 46.6332,15.1468 64.2417,21.6856 l 18.3384,6.8098 v 31.0741 31.0741 l -3.6677,-0.1742 c -2.0172,-0.096 -9.6693,-0.939 -17.0046,-1.8736 z M 333.64534,2507.6756 c 0.47111,-31.0939 1.19194,-43.0592 3.55466,-59.0047 7.0164,-47.3524 24.89136,-121.2831 41.27801,-170.7256 l 3.96243,-11.9556 -0.26402,92.0073 -0.26402,92.0073 -5.49211,15.3346 c -7.01574,19.5887 -10.87062,38.4286 -12.7552,62.3383 l -1.49771,19.0015 H 347.61089 333.0544 Z m 45.01915,-141.4616 -0.0112,-90.4594 11.91622,-35.7103 c 6.55392,-19.6407 17.80984,-51.4523 25.01315,-70.6925 l 13.09695,-34.9822 0.34091,115.6554 0.3409,115.6554 -11.22947,16.8281 c -14.06437,21.0763 -24.92803,40.5992 -33.10775,59.4973 l -6.34859,14.6676 z m 46.69777,-109.0154 -0.0423,-114.1391 11.8678,-29.2009 c 12.29175,-30.2441 25.85661,-61.8713 33.97014,-79.2033 l 4.68147,-10.0004 0.087,143.8112 0.087,143.8112 -12.17979,12.8627 c -10.73732,11.3394 -26.71845,30.35 -35.4731,42.1975 l -2.95592,4.0002 z m 46.62441,-82.8953 v -142.0455 l 11.16043,-23.8004 c 11.90374,-25.3857 28.66933,-59.082 35.3935,-71.1357 l 4.09107,-7.3337 0.0242,176.0437 0.0242,176.0436 -8.33772,3.6424 c -7.84165,3.4257 -23.90281,14.692 -36.68596,25.7337 l -5.66965,4.8973 z m 46.66666,-63.7525 v -173.3161 l 3.51595,-6.9559 c 9.00183,-17.8092 43.91706,-78.0101 47.30233,-81.5587 0.72208,-0.757 1.20839,84.9663 1.20839,213.0079 v 214.2746 h -9.83039 c -11.15899,0 -30.81695,3.1119 -37.62881,5.9568 l -4.56747,1.9075 z m 93.35719,170.5603 c -8.99407,-1.9308 -33.49834,-5.1072 -39.3999,-5.1072 h -5.95729 v -211.744 -211.7439 l 9.47299,-14.5968 c 5.21015,-8.0283 16.46607,-24.3808 25.01316,-36.339 l 15.54017,-21.7421 0.34029,126.1848 c 0.18716,69.4017 0.18716,182.4136 0,251.1377 l -0.34029,124.9529 z m 42.66457,12.0773 c -7.04563,-2.5176 -23.77199,-7.4379 -35.68544,-10.4973 l -5.66965,-1.456 v -248.5088 -248.5087 l 18.86155,-24.4483 c 10.37386,-13.4466 21.77986,-27.9509 25.34667,-32.2319 l 6.48511,-7.7835 v 288.1256 c 0,158.469 -0.45023,288.0817 -1.00052,288.0281 -0.55029,-0.054 -4.30227,-1.2772 -8.33772,-2.7192 z m 32.96844,12.08 c -12.30321,-4.9306 -23.55913,-9.2756 -25.01316,-9.6557 -2.62518,-0.6861 -2.6437,-2.6888 -2.6437,-285.9185 v -285.2275 l 12.35149,-14.6928 c 6.79332,-8.081 18.04924,-21.0953 25.01316,-28.9206 l 12.66167,-14.2279 0.33882,162.0189 c 0.18635,89.1103 0.18635,234.8221 0,323.8038 l -0.33882,161.785 z m 40.02057,17.6889 -21.01077,-10.1387 v -321.428 -321.428 l 26.01333,-25.975 26.01334,-25.9751 v 41.6638 c 0,29.7318 -0.55837,45.3844 -1.94968,54.6553 -4.69714,31.2991 -10.98473,99.7881 -14.04568,152.9955 -6.64609,115.5271 -6.89789,262.0822 -0.638,371.3438 1.88662,32.9294 5.1665,75.363 6.82786,88.3358 0.44611,3.4834 0.58369,6.2786 0.30574,6.2114 -0.27796,-0.067 -9.96022,-4.6844 -21.51614,-10.2608 z m 27.17084,-649.7514 -0.18161,-51.4527 13.59867,-11.862 c 7.47927,-6.5242 13.1322,-10.6711 12.56206,-9.2155 -6.27542,16.0216 -15.79186,58.5018 -21.35266,95.3155 -1.82777,12.1003 -3.57559,23.5006 -3.88404,25.334 -0.30845,1.8334 -0.64253,-19.8203 -0.74242,-48.1193 z m 141.84469,-138.5521 c 0.45331,-0.7333 1.08884,-1.3334 1.41228,-1.3334 0.32345,0 0.58809,0.6001 0.58809,1.3334 0,0.7334 -0.63553,1.3334 -1.41228,1.3334 -0.77676,0 -1.0414,-0.6 -0.58809,-1.3334 z m -0.69261,0.933 c 0,-2.8499 90.55662,-48.933 96.15688,-48.933 0.66152,0 1.20276,8.6888 1.20276,19.3084 0,22.3151 1.89135,19.9863 -17.33801,21.3479 -12.85766,0.9105 -69.09512,6.9957 -75.68712,8.1898 -2.38398,0.4319 -4.33451,0.471 -4.33451,0.087 z m 93.33097,-28.932 0.002,-19.3343 11.00201,-4.5574 c 25.3818,-10.5141 52.6689,-20.8162 78.1706,-29.513 26.9902,-9.2045 33.8415,-11.0567 26.1819,-7.0779 -45.0827,23.418 -58.0032,30.4821 -57.9664,31.6923 0.024,0.8013 5.7162,10.4571 12.6486,21.4574 l 12.6044,20.0005 -3.647,0.9085 c -2.0058,0.4997 -20.601,1.9997 -41.3225,3.3334 l -37.67564,2.4249 z" />
  </g>
</svg>
