<?xml version="1.0" encoding="UTF-8" standalone="no"?>
<!-- Created with Inkscape (http://www.inkscape.org/) -->

<svg
   width="211.66669mm"
   height="173.79738mm"
   viewBox="0 0 211.66669 173.79738"
   version="1.1"
   id="svg1"
   xml:space="preserve"
   xmlns="http://www.w3.org/2000/svg"
   xmlns:svg="http://www.w3.org/2000/svg"><defs
     id="defs1" /><g
     id="layer1"
     transform="translate(103.1875,5.1424263)"><path
       class="st0"
       d="m -63.495866,139.67313 10.590362,-23.68269 -4.843529,-2.47964 c -10.414662,-5.3326 -18.954915,-12.58425 -24.8328,-20.941774 -5.881604,-8.372408 -9.126471,-17.786614 -9.133912,-27.820524 0.0037,-7.875901 2.005045,-15.355755 5.694742,-22.267995 5.533926,-10.358851 14.948132,-19.417936 27.028428,-25.870875 12.073269,-6.456247 26.767566,-10.2836104 42.642152,-10.2803031 16.97260766,-0.00331 32.555739,4.3838151 45.032084,11.6734991 12.491227,7.289271 21.812002,17.446791 26.569127,28.903249 L 65.84115,42.499111 C 59.956238,28.357545 48.7871,16.459977 34.469421,8.0950092 20.137273,-0.26913143 2.5937439,-5.138705 -16.350423,-5.1424257 c -23.622744,0.00785 -45.110218,7.5472396 -60.905843,20.0268917 -7.890785,6.243753 -14.362328,13.742623 -18.880502,22.185726 -4.514862,8.435247 -7.054452,17.834983 -7.050732,27.678724 -0.007,12.558613 4.137422,24.362337 11.224948,34.422292 6.116836,8.693632 14.414417,16.117262 24.21723,21.909152 l -14.519011,32.46231 9.962803,-1.10546 c 20.453119,-2.2779 40.348959,-7.14003 56.862266,-12.09146 l -3.294062,-10.986 c -13.278777,3.98364 -28.779639,7.86019 -44.76254,10.31338 z"
       id="path1"
       style="fill:#7caeae;fill-opacity:1;stroke-width:0.413411" /><path
       class="st0"
       d="m 100.24897,129.23573 c 5.18294,-7.3488 8.23764,-16.03458 8.2302,-25.2735 0.004,-7.237178 -1.86697,-14.156859 -5.1755,-20.336947 C 98.329503,74.345436 90.203487,66.694017 80.203477,61.346539 70.195613,55.999476 58.268279,52.936923 45.48973,52.933203 28.453871,52.940644 12.922829,58.37039 1.4436332,67.43733 -4.2920374,71.974521 -9.0160901,77.441474 -12.328756,83.625696 c -3.308532,6.180088 -5.179219,13.099769 -5.175912,20.336954 -0.0074,11.0757 4.376788,21.31549 11.5428618,29.48946 7.1024088,8.11072 16.9052212,14.31313 28.2351762,17.94661 11.777679,4.56365 36.543506,13.2457 62.530137,16.15116 l 9.963216,1.10505 -10.877683,-24.31025 c 6.542237,-4.07748 12.158845,-9.14508 16.35993,-15.10895 z m -26.307849,7.65183 -4.843529,2.47923 6.863457,15.34087 C 55.31032,151.19739 36.093715,144.4716 26.425674,140.70418 l -0.175286,-0.0674 -0.179421,-0.0562 c -9.671761,-3.0394 -17.8010837,-8.27154 -23.3949542,-14.67942 -5.6050326,-6.43061 -8.701071,-13.90675 -8.7085124,-21.93892 0.00372,-5.26934 1.3369727,-10.269551 3.8203353,-14.926218 3.7231836,-6.975491 10.1161784,-13.155993 18.3910223,-17.573708 8.267816,-4.421022 18.372832,-7.061067 29.310872,-7.05776 14.581849,-0.0074 27.682032,4.701315 36.924258,12.028206 4.626901,3.659932 8.28642,7.954037 10.769782,12.603262 2.487084,4.656667 3.819922,9.656878 3.824056,14.926218 -0.0074,6.71381 -2.169583,13.01006 -6.142881,18.67132 -3.96999,5.65009 -9.784209,10.60193 -16.923824,14.25401 z"
       id="path2"
       style="fill:#7caeae;fill-opacity:1;stroke-width:0.413411" /></g><style
     type="text/css"
     id="style1">
	.st0{fill:#000000;}
</style></svg>
