<?xml version="1.0" encoding="UTF-8" standalone="no"?>
<!-- Created with Inkscape (http://www.inkscape.org/) -->

<svg
   width="33.045956mm"
   height="32.876732mm"
   viewBox="0 0 33.045956 32.876732"
   version="1.1"
   id="svg1"
   xml:space="preserve"
   xmlns="http://www.w3.org/2000/svg"
   xmlns:svg="http://www.w3.org/2000/svg"><defs
     id="defs1" /><g
     id="layer11"
     style="display:inline"
     transform="translate(-54.087437,-56.962215)"><g
       style="fill:none;fill-opacity:1;stroke:#7caeae;stroke-width:0.999754;stroke-dasharray:none;stroke-opacity:1"
       id="g183"
       transform="matrix(1.6834141,0,0,1.6834141,50.278948,52.720847)"><path
         d="M 11.5672,9.91603 3.68064,17.8026 c -1.02486,1.0249 -1.22251,2.4889 -0.44146,3.2699 0.78105,0.781 2.24503,0.5834 3.26988,-0.4415 l 7.88654,-7.8865"
         stroke="#333333"
         stroke-width="2"
         stroke-linecap="round"
         stroke-linejoin="round"
         id="path1-25"
         style="fill:none;fill-opacity:1;stroke:#7caeae;stroke-width:0.999754;stroke-dasharray:none;stroke-opacity:1" /><path
         d="m 18.1588,3.32443 -2.9212,2.92119 c -0.3208,0.32083 0.2737,0.99272 1.0547,1.77376 0.7811,0.78105 1.4529,1.37549 1.7738,1.05466 l 2.9212,-2.92119"
         stroke="#333333"
         stroke-width="2"
         stroke-linecap="round"
         stroke-linejoin="round"
         id="path2-0"
         style="fill:none;fill-opacity:1;stroke:#7caeae;stroke-width:0.999754;stroke-dasharray:none;stroke-opacity:1" /><path
         d="m 18.1474,3.33589 c -0.546,-0.20461 -1.1372,-0.31651 -1.7546,-0.31651 -2.7614,0 -5,2.23858 -5,5 0,0.61738 0.1119,1.20863 0.3165,1.75456 m 9.367,-3.50911 c 0.2046,0.54593 0.3165,1.13718 0.3165,1.75455 0,2.76142 -2.2386,5.00002 -5,5.00002 -0.6174,0 -1.2086,-0.1119 -1.7546,-0.3165"
         stroke="#333333"
         stroke-width="2"
         stroke-linecap="round"
         stroke-linejoin="round"
         id="path3-4"
         style="fill:none;fill-opacity:1;stroke:#7caeae;stroke-width:0.999754;stroke-dasharray:none;stroke-opacity:1" /></g></g></svg>
