<?xml version="1.0" encoding="UTF-8" standalone="no"?>
<!-- Created with Inkscape (http://www.inkscape.org/) -->

<svg
   width="448.5553mm"
   height="333.62946mm"
   viewBox="0 0 448.5553 333.62946"
   version="1.1"
   id="svg1"
   xml:space="preserve"
   sodipodi:docname="splash_stem.svg"
   inkscape:version="1.4.2 (ebf0e940, 2025-05-08)"
   xmlns:inkscape="http://www.inkscape.org/namespaces/inkscape"
   xmlns:sodipodi="http://sodipodi.sourceforge.net/DTD/sodipodi-0.dtd"
   xmlns="http://www.w3.org/2000/svg"
   xmlns:svg="http://www.w3.org/2000/svg"><sodipodi:namedview
     id="namedview1"
     pagecolor="#505050"
     bordercolor="#ffffff"
     borderopacity="1"
     inkscape:showpageshadow="0"
     inkscape:pageopacity="0"
     inkscape:pagecheckerboard="1"
     inkscape:deskcolor="#505050"
     inkscape:document-units="mm"
     inkscape:zoom="0.32414808"
     inkscape:cx="576.89684"
     inkscape:cy="525.99418"
     inkscape:window-width="1360"
     inkscape:window-height="734"
     inkscape:window-x="3"
     inkscape:window-y="3"
     inkscape:window-maximized="0"
     inkscape:current-layer="svg1" /><defs
     id="defs1" /><path
     id="path11-2"
     style="fill:#d3ddde;fill-opacity:1;fill-rule:evenodd;stroke-width:1.33283"
     d="M 221.38781,2.988688e-7 216.66041,6.256322 c -10.1951,13.492395 -5.61573,33.850569 1.73237,48.095037 1.8201,3.528305 2.99443,7.110113 2.99443,10.478948 8.3e-4,-3.368905 1.17553,-6.950678 2.99572,-10.478903 7.34847,-14.244149 11.92652,-34.602803 1.73183,-48.0953425 z"
     sodipodi:nodetypes="csscssc" /><path
     id="path15-4"
     style="fill:#d3ddde;fill-opacity:1;fill-rule:evenodd;stroke:none;stroke-width:0;stroke-opacity:1"
     d="m 222.90958,32.946551 h -3 V 191.52564 h 3 z"
     sodipodi:nodetypes="ccccc" /><path
     style="baseline-shift:baseline;display:inline;overflow:visible;vector-effect:none;fill:#d3ddde;fill-opacity:1;fill-rule:evenodd;stroke-linecap:round;stroke-linejoin:round;enable-background:accumulate;stop-color:#000000"
     d="m 254.66565,123.07031 c -0.82843,0 -1.5,0.67157 -1.5,1.5 v 28.47071 l -32.54688,18.79101 c -0.71724,0.41428 -0.96293,1.33149 -0.54883,2.04883 0.41428,0.71724 1.33149,0.96294 2.04883,0.54883 l 33.29688,-19.22266 c 0.46401,-0.26793 0.74989,-0.76301 0.75,-1.29883 v -29.33789 c 0,-0.82843 -0.67158,-1.5 -1.5,-1.5 z"
     id="path64"
     sodipodi:nodetypes="ssccccccss" /><path
     style="baseline-shift:baseline;display:inline;overflow:visible;vector-effect:none;fill:#d3ddde;fill-opacity:1;fill-rule:evenodd;enable-background:accumulate;stop-color:#000000"
     d="m 248.66597,130.56962 h 12 v -12 h -12 z"
     id="path63" /><path
     style="baseline-shift:baseline;display:inline;overflow:visible;vector-effect:none;fill:#d3ddde;fill-opacity:1;fill-rule:evenodd;stroke-linecap:round;stroke-linejoin:round;enable-background:accumulate;stop-color:#000000"
     d="m 254.86291,79.800781 c -0.82843,0 -1.5,0.671573 -1.5,1.5 v 28.771489 l -32.54687,18.79101 c -0.71724,0.41428 -0.96294,1.33149 -0.54883,2.04883 0.41361,0.71795 1.33098,0.96456 2.04883,0.55078 l 33.29687,-19.22461 c 0.46402,-0.26793 0.7499,-0.76301 0.75,-1.29883 V 81.300781 c 0,-0.828427 -0.67157,-1.5 -1.5,-1.5 z"
     id="path68"
     sodipodi:nodetypes="ssccccccss" /><path
     style="baseline-shift:baseline;display:inline;overflow:visible;vector-effect:none;fill:#d3ddde;fill-opacity:1;fill-rule:evenodd;enable-background:accumulate;stop-color:#000000"
     d="m 254.86326,73.512117 6.75,11.6775 h -13.5 z"
     id="path66" /><path
     style="baseline-shift:baseline;display:inline;overflow:visible;vector-effect:none;fill:#d3ddde;fill-opacity:1;fill-rule:evenodd;enable-background:accumulate;stop-color:#000000"
     d="m 254.86291,71.712891 -8.30859,14.376953 h 16.61914 z m 0,3.597656 5.18946,8.978515 h -10.37891 z"
     id="path67"
     sodipodi:nodetypes="cccccccc" /><path
     style="baseline-shift:baseline;display:inline;overflow:visible;vector-effect:none;fill:#d3ddde;fill-opacity:1;fill-rule:evenodd;stroke-linecap:round;stroke-linejoin:round;enable-background:accumulate;stop-color:#000000"
     d="m 254.75354,36.357422 c -0.82843,0 -1.5,0.671573 -1.5,1.5 v 28.771484 l -32.54688,18.791016 c -0.71794,0.41361 -0.96456,1.330979 -0.55078,2.048828 0.41433,0.718409 1.33301,0.964265 2.05078,0.548828 l 33.29688,-19.224609 c 0.46401,-0.267934 0.74989,-0.763013 0.75,-1.298828 V 37.857422 c 0,-0.828427 -0.67158,-1.5 -1.5,-1.5 z"
     id="path70"
     sodipodi:nodetypes="ssccccccss" /><path
     style="baseline-shift:baseline;display:inline;overflow:visible;vector-effect:none;fill:#d3ddde;fill-opacity:1;fill-rule:evenodd;enable-background:accumulate;stop-color:#000000"
     d="m 246.16154,37.856617 8.59135,8.591373 8.59134,-8.591373 -8.59134,-8.591321 z"
     id="path69"
     sodipodi:nodetypes="ccccc" /></svg>
